<?xml version="1.0" encoding="utf-8" standalone="no"?>
<!DOCTYPE svg PUBLIC "-//W3C//DTD SVG 1.1//EN"
  "http://www.w3.org/Graphics/SVG/1.1/DTD/svg11.dtd">
<!-- Created with matplotlib (http://matplotlib.org/) -->
<svg height="571.87125pt" version="1.1" viewBox="0 0 1003.3875 571.87125" width="1003.3875pt" xmlns="http://www.w3.org/2000/svg" xmlns:xlink="http://www.w3.org/1999/xlink">
 <defs>
  <style type="text/css">
*{stroke-linecap:butt;stroke-linejoin:round;}
  </style>
 </defs>
 <g id="figure_1">
  <g id="patch_1">
   <path d="M 0 571.87125 
L 1003.3875 571.87125 
L 1003.3875 0 
L 0 0 
z
" style="fill:#ffffff;"/>
  </g>
  <g id="axes_1">
   <g id="patch_2">
    <path d="M 50.5875 259.733333 
L 207.001293 259.733333 
L 207.001293 110.4 
L 50.5875 110.4 
z
" style="fill:#ffffff;"/>
   </g>
   <g id="PathCollection_1">
    <defs>
     <path d="M 0 7.071068 
C 1.875269 7.071068 3.673985 6.326016 5 5 
C 6.326016 3.673985 7.071068 1.875269 7.071068 0 
C 7.071068 -1.875269 6.326016 -3.673985 5 -5 
C 3.673985 -6.326016 1.875269 -7.071068 0 -7.071068 
C -1.875269 -7.071068 -3.673985 -6.326016 -5 -5 
C -6.326016 -3.673985 -7.071068 -1.875269 -7.071068 0 
C -7.071068 1.875269 -6.326016 3.673985 -5 5 
C -3.673985 6.326016 -1.875269 7.071068 0 7.071068 
z
" id="C0_0_13f8bfee77"/>
    </defs>
    <g clip-path="url(#p53fed35346)">
     <use style="fill:none;stroke:#000000;stroke-width:2;" x="62.788387" xlink:href="#C0_0_13f8bfee77" y="203.510232"/>
    </g>
    <g clip-path="url(#p53fed35346)">
     <use style="fill:none;stroke:#000000;stroke-width:2;" x="72.217817" xlink:href="#C0_0_13f8bfee77" y="207.879253"/>
    </g>
    <g clip-path="url(#p53fed35346)">
     <use style="fill:none;stroke:#000000;stroke-width:2;" x="81.647247" xlink:href="#C0_0_13f8bfee77" y="199.948542"/>
    </g>
    <g clip-path="url(#p53fed35346)">
     <use style="fill:none;stroke:#000000;stroke-width:2;" x="91.076677" xlink:href="#C0_0_13f8bfee77" y="176.012523"/>
    </g>
    <g clip-path="url(#p53fed35346)">
     <use style="fill:none;stroke:#000000;stroke-width:2;" x="100.506107" xlink:href="#C0_0_13f8bfee77" y="187.313507"/>
    </g>
   </g>
   <g id="PathCollection_2">
    <path clip-path="url(#p53fed35346)" d="M 102.864469 125.923301 
L 117.006604 125.923301 
L 117.006604 111.781165 
L 102.864469 111.781165 
z
" style="fill:none;stroke:#ff0000;stroke-width:2;"/>
    <path clip-path="url(#p53fed35346)" d="M 112.293899 155.337388 
L 126.436034 155.337388 
L 126.436034 141.195253 
L 112.293899 141.195253 
z
" style="fill:none;stroke:#ff0000;stroke-width:2;"/>
    <path clip-path="url(#p53fed35346)" d="M 121.723329 184.588138 
L 135.865464 184.588138 
L 135.865464 170.446002 
L 121.723329 170.446002 
z
" style="fill:none;stroke:#ff0000;stroke-width:2;"/>
    <path clip-path="url(#p53fed35346)" d="M 131.152759 169.771345 
L 145.294894 169.771345 
L 145.294894 155.62921 
L 131.152759 155.62921 
z
" style="fill:none;stroke:#ff0000;stroke-width:2;"/>
    <path clip-path="url(#p53fed35346)" d="M 140.582189 150.97736 
L 154.724324 150.97736 
L 154.724324 136.835224 
L 140.582189 136.835224 
z
" style="fill:none;stroke:#ff0000;stroke-width:2;"/>
   </g>
   <g id="PathCollection_3">
    <path clip-path="url(#p53fed35346)" d="M 157.082686 129.469758 
L 164.153754 115.327622 
L 150.011619 115.327622 
z
" style="fill:none;stroke:#008000;stroke-width:2;"/>
    <path clip-path="url(#p53fed35346)" d="M 166.512116 208.280434 
L 173.583184 194.138298 
L 159.441049 194.138298 
z
" style="fill:none;stroke:#008000;stroke-width:2;"/>
    <path clip-path="url(#p53fed35346)" d="M 175.941546 256.380777 
L 183.012614 242.238641 
L 168.870479 242.238641 
z
" style="fill:none;stroke:#008000;stroke-width:2;"/>
    <path clip-path="url(#p53fed35346)" d="M 185.370976 139.752723 
L 192.442044 125.610587 
L 178.299909 125.610587 
z
" style="fill:none;stroke:#008000;stroke-width:2;"/>
    <path clip-path="url(#p53fed35346)" d="M 194.800406 227.423119 
L 201.871474 213.280983 
L 187.729339 213.280983 
z
" style="fill:none;stroke:#008000;stroke-width:2;"/>
   </g>
   <g id="matplotlib.axis_1">
    <g id="xtick_1">
     <g id="line2d_1">
      <defs>
       <path d="M 0 0 
L 0 3.5 
" id="med492fdb38" style="stroke:#000000;stroke-width:0.8;"/>
      </defs>
      <g>
       <use style="stroke:#000000;stroke-width:0.8;" x="62.788387" xlink:href="#med492fdb38" y="269.733333"/>
      </g>
     </g>
    </g>
    <g id="xtick_2">
     <g id="line2d_2">
      <g>
       <use style="stroke:#000000;stroke-width:0.8;" x="109.935537" xlink:href="#med492fdb38" y="269.733333"/>
      </g>
     </g>
    </g>
    <g id="xtick_3">
     <g id="line2d_3">
      <g>
       <use style="stroke:#000000;stroke-width:0.8;" x="157.082686" xlink:href="#med492fdb38" y="269.733333"/>
      </g>
     </g>
    </g>
    <g id="xtick_4">
     <g id="line2d_4">
      <g>
       <use style="stroke:#000000;stroke-width:0.8;" x="204.229836" xlink:href="#med492fdb38" y="269.733333"/>
      </g>
     </g>
    </g>
   </g>
   <g id="patch_3">
    <path d="M 40.5875 259.733333 
L 40.5875 110.4 
" style="fill:none;stroke:#000000;stroke-linecap:square;stroke-linejoin:miter;stroke-width:0.8;"/>
   </g>
   <g id="patch_4">
    <path d="M 50.5875 269.733333 
L 207.001293 269.733333 
" style="fill:none;stroke:#000000;stroke-linecap:square;stroke-linejoin:miter;stroke-width:0.8;"/>
   </g>
   <g id="text_1">
    <!-- RDM1 -->
    <defs>
     <path d="M 44.390625 34.1875 
Q 47.5625 33.109375 50.5625 29.59375 
Q 53.5625 26.078125 56.59375 19.921875 
L 66.609375 0 
L 56 0 
L 46.6875 18.703125 
Q 43.0625 26.03125 39.671875 28.421875 
Q 36.28125 30.8125 30.421875 30.8125 
L 19.671875 30.8125 
L 19.671875 0 
L 9.8125 0 
L 9.8125 72.90625 
L 32.078125 72.90625 
Q 44.578125 72.90625 50.734375 67.671875 
Q 56.890625 62.453125 56.890625 51.90625 
Q 56.890625 45.015625 53.6875 40.46875 
Q 50.484375 35.9375 44.390625 34.1875 
z
M 19.671875 64.796875 
L 19.671875 38.921875 
L 32.078125 38.921875 
Q 39.203125 38.921875 42.84375 42.21875 
Q 46.484375 45.515625 46.484375 51.90625 
Q 46.484375 58.296875 42.84375 61.546875 
Q 39.203125 64.796875 32.078125 64.796875 
z
" id="DejaVuSans-52"/>
     <path d="M 19.671875 64.796875 
L 19.671875 8.109375 
L 31.59375 8.109375 
Q 46.6875 8.109375 53.6875 14.9375 
Q 60.6875 21.78125 60.6875 36.53125 
Q 60.6875 51.171875 53.6875 57.984375 
Q 46.6875 64.796875 31.59375 64.796875 
z
M 9.8125 72.90625 
L 30.078125 72.90625 
Q 51.265625 72.90625 61.171875 64.09375 
Q 71.09375 55.28125 71.09375 36.53125 
Q 71.09375 17.671875 61.125 8.828125 
Q 51.171875 0 30.078125 0 
L 9.8125 0 
z
" id="DejaVuSans-44"/>
     <path d="M 9.8125 72.90625 
L 24.515625 72.90625 
L 43.109375 23.296875 
L 61.8125 72.90625 
L 76.515625 72.90625 
L 76.515625 0 
L 66.890625 0 
L 66.890625 64.015625 
L 48.09375 14.015625 
L 38.1875 14.015625 
L 19.390625 64.015625 
L 19.390625 0 
L 9.8125 0 
z
" id="DejaVuSans-4d"/>
     <path d="M 12.40625 8.296875 
L 28.515625 8.296875 
L 28.515625 63.921875 
L 10.984375 60.40625 
L 10.984375 69.390625 
L 28.421875 72.90625 
L 38.28125 72.90625 
L 38.28125 8.296875 
L 54.390625 8.296875 
L 54.390625 0 
L 12.40625 0 
z
" id="DejaVuSans-31"/>
    </defs>
    <g transform="translate(93.227522 104.4)scale(0.24 -0.24)">
     <use xlink:href="#DejaVuSans-52"/>
     <use x="69.482422" xlink:href="#DejaVuSans-44"/>
     <use x="146.484375" xlink:href="#DejaVuSans-4d"/>
     <use x="232.763672" xlink:href="#DejaVuSans-31"/>
    </g>
   </g>
  </g>
  <g id="axes_2">
   <g id="patch_5">
    <path d="M 238.284052 259.733333 
L 394.697845 259.733333 
L 394.697845 110.4 
L 238.284052 110.4 
z
" style="fill:#ffffff;"/>
   </g>
   <g id="PathCollection_4">
    <defs>
     <path d="M 0 7.071068 
C 1.875269 7.071068 3.673985 6.326016 5 5 
C 6.326016 3.673985 7.071068 1.875269 7.071068 0 
C 7.071068 -1.875269 6.326016 -3.673985 5 -5 
C 3.673985 -6.326016 1.875269 -7.071068 0 -7.071068 
C -1.875269 -7.071068 -3.673985 -6.326016 -5 -5 
C -6.326016 -3.673985 -7.071068 -1.875269 -7.071068 0 
C -7.071068 1.875269 -6.326016 3.673985 -5 5 
C -3.673985 6.326016 -1.875269 7.071068 0 7.071068 
z
" id="C1_0_4e0ee4d578"/>
    </defs>
    <g clip-path="url(#pd80f907c6e)">
     <use style="fill:none;stroke:#000000;stroke-width:2;" x="250.484938" xlink:href="#C1_0_4e0ee4d578" y="195.324013"/>
    </g>
    <g clip-path="url(#pd80f907c6e)">
     <use style="fill:none;stroke:#000000;stroke-width:2;" x="259.914368" xlink:href="#C1_0_4e0ee4d578" y="212.229093"/>
    </g>
    <g clip-path="url(#pd80f907c6e)">
     <use style="fill:none;stroke:#000000;stroke-width:2;" x="269.343798" xlink:href="#C1_0_4e0ee4d578" y="246.435651"/>
    </g>
    <g clip-path="url(#pd80f907c6e)">
     <use style="fill:none;stroke:#000000;stroke-width:2;" x="278.773228" xlink:href="#C1_0_4e0ee4d578" y="123.697682"/>
    </g>
    <g clip-path="url(#pd80f907c6e)">
     <use style="fill:none;stroke:#000000;stroke-width:2;" x="288.202658" xlink:href="#C1_0_4e0ee4d578" y="176.054087"/>
    </g>
   </g>
   <g id="PathCollection_5">
    <path clip-path="url(#pd80f907c6e)" d="M 290.561021 136.321415 
L 304.703156 136.321415 
L 304.703156 122.17928 
L 290.561021 122.17928 
z
" style="fill:none;stroke:#ff0000;stroke-width:2;"/>
    <path clip-path="url(#pd80f907c6e)" d="M 299.99045 185.3783 
L 314.132586 185.3783 
L 314.132586 171.236164 
L 299.99045 171.236164 
z
" style="fill:none;stroke:#ff0000;stroke-width:2;"/>
    <path clip-path="url(#pd80f907c6e)" d="M 309.41988 185.937767 
L 323.562016 185.937767 
L 323.562016 171.795631 
L 309.41988 171.795631 
z
" style="fill:none;stroke:#ff0000;stroke-width:2;"/>
    <path clip-path="url(#pd80f907c6e)" d="M 318.84931 183.855326 
L 332.991446 183.855326 
L 332.991446 169.713191 
L 318.84931 169.713191 
z
" style="fill:none;stroke:#ff0000;stroke-width:2;"/>
    <path clip-path="url(#pd80f907c6e)" d="M 328.27874 132.537278 
L 342.420876 132.537278 
L 342.420876 118.395142 
L 328.27874 118.395142 
z
" style="fill:none;stroke:#ff0000;stroke-width:2;"/>
   </g>
   <g id="PathCollection_6">
    <path clip-path="url(#pd80f907c6e)" d="M 344.779238 195.734174 
L 351.850306 181.592038 
L 337.70817 181.592038 
z
" style="fill:none;stroke:#008000;stroke-width:2;"/>
    <path clip-path="url(#pd80f907c6e)" d="M 354.208668 184.30882 
L 361.279736 170.166684 
L 347.1376 170.166684 
z
" style="fill:none;stroke:#008000;stroke-width:2;"/>
    <path clip-path="url(#pd80f907c6e)" d="M 363.638098 159.63841 
L 370.709166 145.496275 
L 356.56703 145.496275 
z
" style="fill:none;stroke:#008000;stroke-width:2;"/>
    <path clip-path="url(#pd80f907c6e)" d="M 373.067528 167.395339 
L 380.138596 153.253203 
L 365.99646 153.253203 
z
" style="fill:none;stroke:#008000;stroke-width:2;"/>
    <path clip-path="url(#pd80f907c6e)" d="M 382.496958 136.860261 
L 389.568026 122.718125 
L 375.42589 122.718125 
z
" style="fill:none;stroke:#008000;stroke-width:2;"/>
   </g>
   <g id="matplotlib.axis_2">
    <g id="xtick_5">
     <g id="line2d_5">
      <g>
       <use style="stroke:#000000;stroke-width:0.8;" x="250.484938" xlink:href="#med492fdb38" y="269.733333"/>
      </g>
     </g>
    </g>
    <g id="xtick_6">
     <g id="line2d_6">
      <g>
       <use style="stroke:#000000;stroke-width:0.8;" x="297.632088" xlink:href="#med492fdb38" y="269.733333"/>
      </g>
     </g>
    </g>
    <g id="xtick_7">
     <g id="line2d_7">
      <g>
       <use style="stroke:#000000;stroke-width:0.8;" x="344.779238" xlink:href="#med492fdb38" y="269.733333"/>
      </g>
     </g>
    </g>
    <g id="xtick_8">
     <g id="line2d_8">
      <g>
       <use style="stroke:#000000;stroke-width:0.8;" x="391.926388" xlink:href="#med492fdb38" y="269.733333"/>
      </g>
     </g>
    </g>
   </g>
   <g id="patch_6">
    <path d="M 228.284052 259.733333 
L 228.284052 110.4 
" style="fill:none;stroke:#000000;stroke-linecap:square;stroke-linejoin:miter;stroke-width:0.8;"/>
   </g>
   <g id="patch_7">
    <path d="M 238.284052 269.733333 
L 394.697845 269.733333 
" style="fill:none;stroke:#000000;stroke-linecap:square;stroke-linejoin:miter;stroke-width:0.8;"/>
   </g>
   <g id="text_2">
    <!-- TRPV4 -->
    <defs>
     <path d="M -0.296875 72.90625 
L 61.375 72.90625 
L 61.375 64.59375 
L 35.5 64.59375 
L 35.5 0 
L 25.59375 0 
L 25.59375 64.59375 
L -0.296875 64.59375 
z
" id="DejaVuSans-54"/>
     <path d="M 19.671875 64.796875 
L 19.671875 37.40625 
L 32.078125 37.40625 
Q 38.96875 37.40625 42.71875 40.96875 
Q 46.484375 44.53125 46.484375 51.125 
Q 46.484375 57.671875 42.71875 61.234375 
Q 38.96875 64.796875 32.078125 64.796875 
z
M 9.8125 72.90625 
L 32.078125 72.90625 
Q 44.34375 72.90625 50.609375 67.359375 
Q 56.890625 61.8125 56.890625 51.125 
Q 56.890625 40.328125 50.609375 34.8125 
Q 44.34375 29.296875 32.078125 29.296875 
L 19.671875 29.296875 
L 19.671875 0 
L 9.8125 0 
z
" id="DejaVuSans-50"/>
     <path d="M 28.609375 0 
L 0.78125 72.90625 
L 11.078125 72.90625 
L 34.1875 11.53125 
L 57.328125 72.90625 
L 67.578125 72.90625 
L 39.796875 0 
z
" id="DejaVuSans-56"/>
     <path d="M 37.796875 64.3125 
L 12.890625 25.390625 
L 37.796875 25.390625 
z
M 35.203125 72.90625 
L 47.609375 72.90625 
L 47.609375 25.390625 
L 58.015625 25.390625 
L 58.015625 17.1875 
L 47.609375 17.1875 
L 47.609375 0 
L 37.796875 0 
L 37.796875 17.1875 
L 4.890625 17.1875 
L 4.890625 26.703125 
z
" id="DejaVuSans-34"/>
    </defs>
    <g transform="translate(277.744073 104.4)scale(0.24 -0.24)">
     <use xlink:href="#DejaVuSans-54"/>
     <use x="61.083984" xlink:href="#DejaVuSans-52"/>
     <use x="130.566406" xlink:href="#DejaVuSans-50"/>
     <use x="190.869141" xlink:href="#DejaVuSans-56"/>
     <use x="259.277344" xlink:href="#DejaVuSans-34"/>
    </g>
   </g>
  </g>
  <g id="axes_3">
   <g id="patch_8">
    <path d="M 425.980603 259.733333 
L 582.394397 259.733333 
L 582.394397 110.4 
L 425.980603 110.4 
z
" style="fill:#ffffff;"/>
   </g>
   <g id="PathCollection_7">
    <defs>
     <path d="M 0 7.071068 
C 1.875269 7.071068 3.673985 6.326016 5 5 
C 6.326016 3.673985 7.071068 1.875269 7.071068 0 
C 7.071068 -1.875269 6.326016 -3.673985 5 -5 
C 3.673985 -6.326016 1.875269 -7.071068 0 -7.071068 
C -1.875269 -7.071068 -3.673985 -6.326016 -5 -5 
C -6.326016 -3.673985 -7.071068 -1.875269 -7.071068 0 
C -7.071068 1.875269 -6.326016 3.673985 -5 5 
C -3.673985 6.326016 -1.875269 7.071068 0 7.071068 
z
" id="C2_0_c34a4e6060"/>
    </defs>
    <g clip-path="url(#p648cf43752)">
     <use style="fill:none;stroke:#000000;stroke-width:2;" x="438.18149" xlink:href="#C2_0_c34a4e6060" y="207.106915"/>
    </g>
    <g clip-path="url(#p648cf43752)">
     <use style="fill:none;stroke:#000000;stroke-width:2;" x="447.61092" xlink:href="#C2_0_c34a4e6060" y="248.572658"/>
    </g>
    <g clip-path="url(#p648cf43752)">
     <use style="fill:none;stroke:#000000;stroke-width:2;" x="457.04035" xlink:href="#C2_0_c34a4e6060" y="177.928685"/>
    </g>
    <g clip-path="url(#p648cf43752)">
     <use style="fill:none;stroke:#000000;stroke-width:2;" x="466.46978" xlink:href="#C2_0_c34a4e6060" y="212.859472"/>
    </g>
    <g clip-path="url(#p648cf43752)">
     <use style="fill:none;stroke:#000000;stroke-width:2;" x="475.89921" xlink:href="#C2_0_c34a4e6060" y="121.560675"/>
    </g>
   </g>
   <g id="PathCollection_8">
    <path clip-path="url(#p648cf43752)" d="M 478.257572 167.412447 
L 492.399708 167.412447 
L 492.399708 153.270311 
L 478.257572 153.270311 
z
" style="fill:none;stroke:#ff0000;stroke-width:2;"/>
    <path clip-path="url(#p648cf43752)" d="M 487.687002 193.337435 
L 501.829138 193.337435 
L 501.829138 179.195299 
L 487.687002 179.195299 
z
" style="fill:none;stroke:#ff0000;stroke-width:2;"/>
    <path clip-path="url(#p648cf43752)" d="M 497.116432 185.596172 
L 511.258568 185.596172 
L 511.258568 171.454037 
L 497.116432 171.454037 
z
" style="fill:none;stroke:#ff0000;stroke-width:2;"/>
    <path clip-path="url(#p648cf43752)" d="M 506.545862 196.38225 
L 520.687998 196.38225 
L 520.687998 182.240114 
L 506.545862 182.240114 
z
" style="fill:none;stroke:#ff0000;stroke-width:2;"/>
    <path clip-path="url(#p648cf43752)" d="M 515.975292 182.151564 
L 530.117428 182.151564 
L 530.117428 168.009428 
L 515.975292 168.009428 
z
" style="fill:none;stroke:#ff0000;stroke-width:2;"/>
   </g>
   <g id="PathCollection_9">
    <path clip-path="url(#p648cf43752)" d="M 532.47579 205.596988 
L 539.546858 191.454852 
L 525.404722 191.454852 
z
" style="fill:none;stroke:#008000;stroke-width:2;"/>
    <path clip-path="url(#p648cf43752)" d="M 541.90522 194.079046 
L 548.976288 179.936911 
L 534.834152 179.936911 
z
" style="fill:none;stroke:#008000;stroke-width:2;"/>
    <path clip-path="url(#p648cf43752)" d="M 551.33465 162.200258 
L 558.405718 148.058122 
L 544.263582 148.058122 
z
" style="fill:none;stroke:#008000;stroke-width:2;"/>
    <path clip-path="url(#p648cf43752)" d="M 560.76408 178.847659 
L 567.835148 164.705523 
L 553.693012 164.705523 
z
" style="fill:none;stroke:#008000;stroke-width:2;"/>
    <path clip-path="url(#p648cf43752)" d="M 570.19351 144.742496 
L 577.264578 130.60036 
L 563.122442 130.60036 
z
" style="fill:none;stroke:#008000;stroke-width:2;"/>
   </g>
   <g id="matplotlib.axis_3">
    <g id="xtick_9">
     <g id="line2d_9">
      <g>
       <use style="stroke:#000000;stroke-width:0.8;" x="438.18149" xlink:href="#med492fdb38" y="269.733333"/>
      </g>
     </g>
    </g>
    <g id="xtick_10">
     <g id="line2d_10">
      <g>
       <use style="stroke:#000000;stroke-width:0.8;" x="485.32864" xlink:href="#med492fdb38" y="269.733333"/>
      </g>
     </g>
    </g>
    <g id="xtick_11">
     <g id="line2d_11">
      <g>
       <use style="stroke:#000000;stroke-width:0.8;" x="532.47579" xlink:href="#med492fdb38" y="269.733333"/>
      </g>
     </g>
    </g>
    <g id="xtick_12">
     <g id="line2d_12">
      <g>
       <use style="stroke:#000000;stroke-width:0.8;" x="579.62294" xlink:href="#med492fdb38" y="269.733333"/>
      </g>
     </g>
    </g>
   </g>
   <g id="patch_9">
    <path d="M 415.980603 259.733333 
L 415.980603 110.4 
" style="fill:none;stroke:#000000;stroke-linecap:square;stroke-linejoin:miter;stroke-width:0.8;"/>
   </g>
   <g id="patch_10">
    <path d="M 425.980603 269.733333 
L 582.394397 269.733333 
" style="fill:none;stroke:#000000;stroke-linecap:square;stroke-linejoin:miter;stroke-width:0.8;"/>
   </g>
   <g id="text_3">
    <!-- EPHX1 -->
    <defs>
     <path d="M 9.8125 72.90625 
L 55.90625 72.90625 
L 55.90625 64.59375 
L 19.671875 64.59375 
L 19.671875 43.015625 
L 54.390625 43.015625 
L 54.390625 34.71875 
L 19.671875 34.71875 
L 19.671875 8.296875 
L 56.78125 8.296875 
L 56.78125 0 
L 9.8125 0 
z
" id="DejaVuSans-45"/>
     <path d="M 9.8125 72.90625 
L 19.671875 72.90625 
L 19.671875 43.015625 
L 55.515625 43.015625 
L 55.515625 72.90625 
L 65.375 72.90625 
L 65.375 0 
L 55.515625 0 
L 55.515625 34.71875 
L 19.671875 34.71875 
L 19.671875 0 
L 9.8125 0 
z
" id="DejaVuSans-48"/>
     <path d="M 6.296875 72.90625 
L 16.890625 72.90625 
L 35.015625 45.796875 
L 53.21875 72.90625 
L 63.8125 72.90625 
L 40.375 37.890625 
L 65.375 0 
L 54.78125 0 
L 34.28125 31 
L 13.625 0 
L 2.984375 0 
L 29 38.921875 
z
" id="DejaVuSans-58"/>
    </defs>
    <g transform="translate(464.49 104.4)scale(0.24 -0.24)">
     <use xlink:href="#DejaVuSans-45"/>
     <use x="63.183594" xlink:href="#DejaVuSans-50"/>
     <use x="123.486328" xlink:href="#DejaVuSans-48"/>
     <use x="198.681641" xlink:href="#DejaVuSans-58"/>
     <use x="267.1875" xlink:href="#DejaVuSans-31"/>
    </g>
   </g>
  </g>
  <g id="axes_4">
   <g id="patch_11">
    <path d="M 613.677155 259.733333 
L 770.090948 259.733333 
L 770.090948 110.4 
L 613.677155 110.4 
z
" style="fill:#ffffff;"/>
   </g>
   <g id="PathCollection_10">
    <defs>
     <path d="M 0 7.071068 
C 1.875269 7.071068 3.673985 6.326016 5 5 
C 6.326016 3.673985 7.071068 1.875269 7.071068 0 
C 7.071068 -1.875269 6.326016 -3.673985 5 -5 
C 3.673985 -6.326016 1.875269 -7.071068 0 -7.071068 
C -1.875269 -7.071068 -3.673985 -6.326016 -5 -5 
C -6.326016 -3.673985 -7.071068 -1.875269 -7.071068 0 
C -7.071068 1.875269 -6.326016 3.673985 -5 5 
C -3.673985 6.326016 -1.875269 7.071068 0 7.071068 
z
" id="C3_0_b54cae0bd9"/>
    </defs>
    <g clip-path="url(#p2e5c2eb66b)">
     <use style="fill:none;stroke:#000000;stroke-width:2;" x="625.878042" xlink:href="#C3_0_b54cae0bd9" y="134.497334"/>
    </g>
    <g clip-path="url(#p2e5c2eb66b)">
     <use style="fill:none;stroke:#000000;stroke-width:2;" x="635.307472" xlink:href="#C3_0_b54cae0bd9" y="120.627806"/>
    </g>
    <g clip-path="url(#p2e5c2eb66b)">
     <use style="fill:none;stroke:#000000;stroke-width:2;" x="644.736902" xlink:href="#C3_0_b54cae0bd9" y="130.832366"/>
    </g>
    <g clip-path="url(#p2e5c2eb66b)">
     <use style="fill:none;stroke:#000000;stroke-width:2;" x="654.166332" xlink:href="#C3_0_b54cae0bd9" y="121.932839"/>
    </g>
    <g clip-path="url(#p2e5c2eb66b)">
     <use style="fill:none;stroke:#000000;stroke-width:2;" x="663.595762" xlink:href="#C3_0_b54cae0bd9" y="138.110945"/>
    </g>
   </g>
   <g id="PathCollection_11">
    <path clip-path="url(#p2e5c2eb66b)" d="M 665.954124 259.102864 
L 680.09626 259.102864 
L 680.09626 244.960728 
L 665.954124 244.960728 
z
" style="fill:none;stroke:#ff0000;stroke-width:2;"/>
    <path clip-path="url(#p2e5c2eb66b)" d="M 675.383554 178.953036 
L 689.52569 178.953036 
L 689.52569 164.8109 
L 675.383554 164.8109 
z
" style="fill:none;stroke:#ff0000;stroke-width:2;"/>
    <path clip-path="url(#p2e5c2eb66b)" d="M 684.812984 163.044936 
L 698.95512 163.044936 
L 698.95512 148.902801 
L 684.812984 148.902801 
z
" style="fill:none;stroke:#ff0000;stroke-width:2;"/>
    <path clip-path="url(#p2e5c2eb66b)" d="M 694.242414 155.625502 
L 708.38455 155.625502 
L 708.38455 141.483366 
L 694.242414 141.483366 
z
" style="fill:none;stroke:#ff0000;stroke-width:2;"/>
    <path clip-path="url(#p2e5c2eb66b)" d="M 703.671844 157.442195 
L 717.813979 157.442195 
L 717.813979 143.30006 
L 703.671844 143.30006 
z
" style="fill:none;stroke:#ff0000;stroke-width:2;"/>
   </g>
   <g id="PathCollection_12">
    <path clip-path="url(#p2e5c2eb66b)" d="M 720.172342 144.769738 
L 727.243409 130.627602 
L 713.101274 130.627602 
z
" style="fill:none;stroke:#008000;stroke-width:2;"/>
    <path clip-path="url(#p2e5c2eb66b)" d="M 729.601772 188.520416 
L 736.672839 174.37828 
L 722.530704 174.37828 
z
" style="fill:none;stroke:#008000;stroke-width:2;"/>
    <path clip-path="url(#p2e5c2eb66b)" d="M 739.031202 217.090278 
L 746.102269 202.948142 
L 731.960134 202.948142 
z
" style="fill:none;stroke:#008000;stroke-width:2;"/>
    <path clip-path="url(#p2e5c2eb66b)" d="M 748.460632 185.736098 
L 755.531699 171.593962 
L 741.389564 171.593962 
z
" style="fill:none;stroke:#008000;stroke-width:2;"/>
    <path clip-path="url(#p2e5c2eb66b)" d="M 757.890062 191.508551 
L 764.961129 177.366416 
L 750.818994 177.366416 
z
" style="fill:none;stroke:#008000;stroke-width:2;"/>
   </g>
   <g id="matplotlib.axis_4">
    <g id="xtick_13">
     <g id="line2d_13">
      <g>
       <use style="stroke:#000000;stroke-width:0.8;" x="625.878042" xlink:href="#med492fdb38" y="269.733333"/>
      </g>
     </g>
    </g>
    <g id="xtick_14">
     <g id="line2d_14">
      <g>
       <use style="stroke:#000000;stroke-width:0.8;" x="673.025192" xlink:href="#med492fdb38" y="269.733333"/>
      </g>
     </g>
    </g>
    <g id="xtick_15">
     <g id="line2d_15">
      <g>
       <use style="stroke:#000000;stroke-width:0.8;" x="720.172342" xlink:href="#med492fdb38" y="269.733333"/>
      </g>
     </g>
    </g>
    <g id="xtick_16">
     <g id="line2d_16">
      <g>
       <use style="stroke:#000000;stroke-width:0.8;" x="767.319492" xlink:href="#med492fdb38" y="269.733333"/>
      </g>
     </g>
    </g>
   </g>
   <g id="patch_12">
    <path d="M 603.677155 259.733333 
L 603.677155 110.4 
" style="fill:none;stroke:#000000;stroke-linecap:square;stroke-linejoin:miter;stroke-width:0.8;"/>
   </g>
   <g id="patch_13">
    <path d="M 613.677155 269.733333 
L 770.090948 269.733333 
" style="fill:none;stroke:#000000;stroke-linecap:square;stroke-linejoin:miter;stroke-width:0.8;"/>
   </g>
   <g id="text_4">
    <!-- RIC8B -->
    <defs>
     <path d="M 9.8125 72.90625 
L 19.671875 72.90625 
L 19.671875 0 
L 9.8125 0 
z
" id="DejaVuSans-49"/>
     <path d="M 64.40625 67.28125 
L 64.40625 56.890625 
Q 59.421875 61.53125 53.78125 63.8125 
Q 48.140625 66.109375 41.796875 66.109375 
Q 29.296875 66.109375 22.65625 58.46875 
Q 16.015625 50.828125 16.015625 36.375 
Q 16.015625 21.96875 22.65625 14.328125 
Q 29.296875 6.6875 41.796875 6.6875 
Q 48.140625 6.6875 53.78125 8.984375 
Q 59.421875 11.28125 64.40625 15.921875 
L 64.40625 5.609375 
Q 59.234375 2.09375 53.4375 0.328125 
Q 47.65625 -1.421875 41.21875 -1.421875 
Q 24.65625 -1.421875 15.125 8.703125 
Q 5.609375 18.84375 5.609375 36.375 
Q 5.609375 53.953125 15.125 64.078125 
Q 24.65625 74.21875 41.21875 74.21875 
Q 47.75 74.21875 53.53125 72.484375 
Q 59.328125 70.75 64.40625 67.28125 
z
" id="DejaVuSans-43"/>
     <path d="M 31.78125 34.625 
Q 24.75 34.625 20.71875 30.859375 
Q 16.703125 27.09375 16.703125 20.515625 
Q 16.703125 13.921875 20.71875 10.15625 
Q 24.75 6.390625 31.78125 6.390625 
Q 38.8125 6.390625 42.859375 10.171875 
Q 46.921875 13.96875 46.921875 20.515625 
Q 46.921875 27.09375 42.890625 30.859375 
Q 38.875 34.625 31.78125 34.625 
z
M 21.921875 38.8125 
Q 15.578125 40.375 12.03125 44.71875 
Q 8.5 49.078125 8.5 55.328125 
Q 8.5 64.0625 14.71875 69.140625 
Q 20.953125 74.21875 31.78125 74.21875 
Q 42.671875 74.21875 48.875 69.140625 
Q 55.078125 64.0625 55.078125 55.328125 
Q 55.078125 49.078125 51.53125 44.71875 
Q 48 40.375 41.703125 38.8125 
Q 48.828125 37.15625 52.796875 32.3125 
Q 56.78125 27.484375 56.78125 20.515625 
Q 56.78125 9.90625 50.3125 4.234375 
Q 43.84375 -1.421875 31.78125 -1.421875 
Q 19.734375 -1.421875 13.25 4.234375 
Q 6.78125 9.90625 6.78125 20.515625 
Q 6.78125 27.484375 10.78125 32.3125 
Q 14.796875 37.15625 21.921875 38.8125 
z
M 18.3125 54.390625 
Q 18.3125 48.734375 21.84375 45.5625 
Q 25.390625 42.390625 31.78125 42.390625 
Q 38.140625 42.390625 41.71875 45.5625 
Q 45.3125 48.734375 45.3125 54.390625 
Q 45.3125 60.0625 41.71875 63.234375 
Q 38.140625 66.40625 31.78125 66.40625 
Q 25.390625 66.40625 21.84375 63.234375 
Q 18.3125 60.0625 18.3125 54.390625 
z
" id="DejaVuSans-38"/>
     <path d="M 19.671875 34.8125 
L 19.671875 8.109375 
L 35.5 8.109375 
Q 43.453125 8.109375 47.28125 11.40625 
Q 51.125 14.703125 51.125 21.484375 
Q 51.125 28.328125 47.28125 31.5625 
Q 43.453125 34.8125 35.5 34.8125 
z
M 19.671875 64.796875 
L 19.671875 42.828125 
L 34.28125 42.828125 
Q 41.5 42.828125 45.03125 45.53125 
Q 48.578125 48.25 48.578125 53.8125 
Q 48.578125 59.328125 45.03125 62.0625 
Q 41.5 64.796875 34.28125 64.796875 
z
M 9.8125 72.90625 
L 35.015625 72.90625 
Q 46.296875 72.90625 52.390625 68.21875 
Q 58.5 63.53125 58.5 54.890625 
Q 58.5 48.1875 55.375 44.234375 
Q 52.25 40.28125 46.1875 39.3125 
Q 53.46875 37.75 57.5 32.78125 
Q 61.53125 27.828125 61.53125 20.40625 
Q 61.53125 10.640625 54.890625 5.3125 
Q 48.25 0 35.984375 0 
L 9.8125 0 
z
" id="DejaVuSans-42"/>
    </defs>
    <g transform="translate(655.758427 104.4)scale(0.24 -0.24)">
     <use xlink:href="#DejaVuSans-52"/>
     <use x="69.482422" xlink:href="#DejaVuSans-49"/>
     <use x="98.974609" xlink:href="#DejaVuSans-43"/>
     <use x="168.798828" xlink:href="#DejaVuSans-38"/>
     <use x="232.421875" xlink:href="#DejaVuSans-42"/>
    </g>
   </g>
  </g>
  <g id="axes_5">
   <g id="patch_14">
    <path d="M 801.373707 259.733333 
L 957.7875 259.733333 
L 957.7875 110.4 
L 801.373707 110.4 
z
" style="fill:#ffffff;"/>
   </g>
   <g id="PathCollection_13">
    <defs>
     <path d="M 0 7.071068 
C 1.875269 7.071068 3.673985 6.326016 5 5 
C 6.326016 3.673985 7.071068 1.875269 7.071068 0 
C 7.071068 -1.875269 6.326016 -3.673985 5 -5 
C 3.673985 -6.326016 1.875269 -7.071068 0 -7.071068 
C -1.875269 -7.071068 -3.673985 -6.326016 -5 -5 
C -6.326016 -3.673985 -7.071068 -1.875269 -7.071068 0 
C -7.071068 1.875269 -6.326016 3.673985 -5 5 
C -3.673985 6.326016 -1.875269 7.071068 0 7.071068 
z
" id="C4_0_c05970bc72"/>
    </defs>
    <g clip-path="url(#p4c616c486d)">
     <use style="fill:none;stroke:#000000;stroke-width:2;" x="813.574594" xlink:href="#C4_0_c05970bc72" y="122.250411"/>
    </g>
    <g clip-path="url(#p4c616c486d)">
     <use style="fill:none;stroke:#000000;stroke-width:2;" x="823.004024" xlink:href="#C4_0_c05970bc72" y="171.023649"/>
    </g>
    <g clip-path="url(#p4c616c486d)">
     <use style="fill:none;stroke:#000000;stroke-width:2;" x="832.433454" xlink:href="#C4_0_c05970bc72" y="136.41445"/>
    </g>
    <g clip-path="url(#p4c616c486d)">
     <use style="fill:none;stroke:#000000;stroke-width:2;" x="841.862884" xlink:href="#C4_0_c05970bc72" y="185.024198"/>
    </g>
    <g clip-path="url(#p4c616c486d)">
     <use style="fill:none;stroke:#000000;stroke-width:2;" x="851.292314" xlink:href="#C4_0_c05970bc72" y="247.882923"/>
    </g>
   </g>
   <g id="PathCollection_14">
    <path clip-path="url(#p4c616c486d)" d="M 853.650676 160.451033 
L 867.792811 160.451033 
L 867.792811 146.308897 
L 853.650676 146.308897 
z
" style="fill:none;stroke:#ff0000;stroke-width:2;"/>
    <path clip-path="url(#p4c616c486d)" d="M 863.080106 152.463427 
L 877.222241 152.463427 
L 877.222241 138.321291 
L 863.080106 138.321291 
z
" style="fill:none;stroke:#ff0000;stroke-width:2;"/>
    <path clip-path="url(#p4c616c486d)" d="M 872.509536 158.169135 
L 886.651671 158.169135 
L 886.651671 144.027 
L 872.509536 144.027 
z
" style="fill:none;stroke:#ff0000;stroke-width:2;"/>
    <path clip-path="url(#p4c616c486d)" d="M 881.938966 151.98216 
L 896.081101 151.98216 
L 896.081101 137.840024 
L 881.938966 137.840024 
z
" style="fill:none;stroke:#ff0000;stroke-width:2;"/>
    <path clip-path="url(#p4c616c486d)" d="M 891.368396 163.697098 
L 905.510531 163.697098 
L 905.510531 149.554962 
L 891.368396 149.554962 
z
" style="fill:none;stroke:#ff0000;stroke-width:2;"/>
   </g>
   <g id="PathCollection_15">
    <path clip-path="url(#p4c616c486d)" d="M 907.868893 174.867066 
L 914.939961 160.72493 
L 900.797826 160.72493 
z
" style="fill:none;stroke:#008000;stroke-width:2;"/>
    <path clip-path="url(#p4c616c486d)" d="M 917.298323 177.549004 
L 924.369391 163.406869 
L 910.227256 163.406869 
z
" style="fill:none;stroke:#008000;stroke-width:2;"/>
    <path clip-path="url(#p4c616c486d)" d="M 926.727753 156.171454 
L 933.798821 142.029319 
L 919.656686 142.029319 
z
" style="fill:none;stroke:#008000;stroke-width:2;"/>
    <path clip-path="url(#p4c616c486d)" d="M 936.157183 165.365718 
L 943.228251 151.223582 
L 929.086116 151.223582 
z
" style="fill:none;stroke:#008000;stroke-width:2;"/>
    <path clip-path="url(#p4c616c486d)" d="M 945.586613 134.20394 
L 952.657681 120.061805 
L 938.515545 120.061805 
z
" style="fill:none;stroke:#008000;stroke-width:2;"/>
   </g>
   <g id="matplotlib.axis_5">
    <g id="xtick_17">
     <g id="line2d_17">
      <g>
       <use style="stroke:#000000;stroke-width:0.8;" x="813.574594" xlink:href="#med492fdb38" y="269.733333"/>
      </g>
     </g>
    </g>
    <g id="xtick_18">
     <g id="line2d_18">
      <g>
       <use style="stroke:#000000;stroke-width:0.8;" x="860.721743" xlink:href="#med492fdb38" y="269.733333"/>
      </g>
     </g>
    </g>
    <g id="xtick_19">
     <g id="line2d_19">
      <g>
       <use style="stroke:#000000;stroke-width:0.8;" x="907.868893" xlink:href="#med492fdb38" y="269.733333"/>
      </g>
     </g>
    </g>
    <g id="xtick_20">
     <g id="line2d_20">
      <g>
       <use style="stroke:#000000;stroke-width:0.8;" x="955.016043" xlink:href="#med492fdb38" y="269.733333"/>
      </g>
     </g>
    </g>
   </g>
   <g id="patch_15">
    <path d="M 791.373707 259.733333 
L 791.373707 110.4 
" style="fill:none;stroke:#000000;stroke-linecap:square;stroke-linejoin:miter;stroke-width:0.8;"/>
   </g>
   <g id="patch_16">
    <path d="M 801.373707 269.733333 
L 957.7875 269.733333 
" style="fill:none;stroke:#000000;stroke-linecap:square;stroke-linejoin:miter;stroke-width:0.8;"/>
   </g>
   <g id="text_5">
    <!-- STAU1 -->
    <defs>
     <path d="M 53.515625 70.515625 
L 53.515625 60.890625 
Q 47.90625 63.578125 42.921875 64.890625 
Q 37.9375 66.21875 33.296875 66.21875 
Q 25.25 66.21875 20.875 63.09375 
Q 16.5 59.96875 16.5 54.203125 
Q 16.5 49.359375 19.40625 46.890625 
Q 22.3125 44.4375 30.421875 42.921875 
L 36.375 41.703125 
Q 47.40625 39.59375 52.65625 34.296875 
Q 57.90625 29 57.90625 20.125 
Q 57.90625 9.515625 50.796875 4.046875 
Q 43.703125 -1.421875 29.984375 -1.421875 
Q 24.8125 -1.421875 18.96875 -0.25 
Q 13.140625 0.921875 6.890625 3.21875 
L 6.890625 13.375 
Q 12.890625 10.015625 18.65625 8.296875 
Q 24.421875 6.59375 29.984375 6.59375 
Q 38.421875 6.59375 43.015625 9.90625 
Q 47.609375 13.234375 47.609375 19.390625 
Q 47.609375 24.75 44.3125 27.78125 
Q 41.015625 30.8125 33.5 32.328125 
L 27.484375 33.5 
Q 16.453125 35.6875 11.515625 40.375 
Q 6.59375 45.0625 6.59375 53.421875 
Q 6.59375 63.09375 13.40625 68.65625 
Q 20.21875 74.21875 32.171875 74.21875 
Q 37.3125 74.21875 42.625 73.28125 
Q 47.953125 72.359375 53.515625 70.515625 
z
" id="DejaVuSans-53"/>
     <path d="M 34.1875 63.1875 
L 20.796875 26.90625 
L 47.609375 26.90625 
z
M 28.609375 72.90625 
L 39.796875 72.90625 
L 67.578125 0 
L 57.328125 0 
L 50.6875 18.703125 
L 17.828125 18.703125 
L 11.1875 0 
L 0.78125 0 
z
" id="DejaVuSans-41"/>
     <path d="M 8.6875 72.90625 
L 18.609375 72.90625 
L 18.609375 28.609375 
Q 18.609375 16.890625 22.84375 11.734375 
Q 27.09375 6.59375 36.625 6.59375 
Q 46.09375 6.59375 50.34375 11.734375 
Q 54.59375 16.890625 54.59375 28.609375 
L 54.59375 72.90625 
L 64.5 72.90625 
L 64.5 27.390625 
Q 64.5 13.140625 57.4375 5.859375 
Q 50.390625 -1.421875 36.625 -1.421875 
Q 22.796875 -1.421875 15.734375 5.859375 
Q 8.6875 13.140625 8.6875 27.390625 
z
" id="DejaVuSans-55"/>
    </defs>
    <g transform="translate(840.019978 104.4)scale(0.24 -0.24)">
     <use xlink:href="#DejaVuSans-53"/>
     <use x="63.476562" xlink:href="#DejaVuSans-54"/>
     <use x="124.451172" xlink:href="#DejaVuSans-41"/>
     <use x="192.859375" xlink:href="#DejaVuSans-55"/>
     <use x="266.052734" xlink:href="#DejaVuSans-31"/>
    </g>
   </g>
  </g>
  <g id="axes_6">
   <g id="patch_17">
    <path d="M 50.5875 513.6 
L 207.001293 513.6 
L 207.001293 364.266667 
L 50.5875 364.266667 
z
" style="fill:#ffffff;"/>
   </g>
   <g id="PathCollection_16">
    <defs>
     <path d="M 0 7.071068 
C 1.875269 7.071068 3.673985 6.326016 5 5 
C 6.326016 3.673985 7.071068 1.875269 7.071068 0 
C 7.071068 -1.875269 6.326016 -3.673985 5 -5 
C 3.673985 -6.326016 1.875269 -7.071068 0 -7.071068 
C -1.875269 -7.071068 -3.673985 -6.326016 -5 -5 
C -6.326016 -3.673985 -7.071068 -1.875269 -7.071068 0 
C -7.071068 1.875269 -6.326016 3.673985 -5 5 
C -3.673985 6.326016 -1.875269 7.071068 0 7.071068 
z
" id="C5_0_94cb143f27"/>
    </defs>
    <g clip-path="url(#p55b88d357f)">
     <use style="fill:none;stroke:#000000;stroke-width:2;" x="62.788387" xlink:href="#C5_0_94cb143f27" y="476.62422"/>
    </g>
    <g clip-path="url(#p55b88d357f)">
     <use style="fill:none;stroke:#000000;stroke-width:2;" x="72.217817" xlink:href="#C5_0_94cb143f27" y="496.573221"/>
    </g>
    <g clip-path="url(#p55b88d357f)">
     <use style="fill:none;stroke:#000000;stroke-width:2;" x="81.647247" xlink:href="#C5_0_94cb143f27" y="436.656899"/>
    </g>
    <g clip-path="url(#p55b88d357f)">
     <use style="fill:none;stroke:#000000;stroke-width:2;" x="91.076677" xlink:href="#C5_0_94cb143f27" y="459.540546"/>
    </g>
    <g clip-path="url(#p55b88d357f)">
     <use style="fill:none;stroke:#000000;stroke-width:2;" x="100.506107" xlink:href="#C5_0_94cb143f27" y="466.636002"/>
    </g>
   </g>
   <g id="PathCollection_17">
    <path clip-path="url(#p55b88d357f)" d="M 102.864469 419.247692 
L 117.006604 419.247692 
L 117.006604 405.105556 
L 102.864469 405.105556 
z
" style="fill:none;stroke:#ff0000;stroke-width:2;"/>
    <path clip-path="url(#p55b88d357f)" d="M 112.293899 430.873448 
L 126.436034 430.873448 
L 126.436034 416.731312 
L 112.293899 416.731312 
z
" style="fill:none;stroke:#ff0000;stroke-width:2;"/>
    <path clip-path="url(#p55b88d357f)" d="M 121.723329 421.760087 
L 135.865464 421.760087 
L 135.865464 407.617952 
L 121.723329 407.617952 
z
" style="fill:none;stroke:#ff0000;stroke-width:2;"/>
    <path clip-path="url(#p55b88d357f)" d="M 131.152759 405.807445 
L 145.294894 405.807445 
L 145.294894 391.66531 
L 131.152759 391.66531 
z
" style="fill:none;stroke:#ff0000;stroke-width:2;"/>
    <path clip-path="url(#p55b88d357f)" d="M 140.582189 380.78771 
L 154.724324 380.78771 
L 154.724324 366.645574 
L 140.582189 366.645574 
z
" style="fill:none;stroke:#ff0000;stroke-width:2;"/>
   </g>
   <g id="PathCollection_18">
    <path clip-path="url(#p55b88d357f)" d="M 157.082686 416.533343 
L 164.153754 402.391207 
L 150.011619 402.391207 
z
" style="fill:none;stroke:#008000;stroke-width:2;"/>
    <path clip-path="url(#p55b88d357f)" d="M 166.512116 508.968439 
L 173.583184 494.826303 
L 159.441049 494.826303 
z
" style="fill:none;stroke:#008000;stroke-width:2;"/>
    <path clip-path="url(#p55b88d357f)" d="M 175.941546 424.642459 
L 183.012614 410.500324 
L 168.870479 410.500324 
z
" style="fill:none;stroke:#008000;stroke-width:2;"/>
    <path clip-path="url(#p55b88d357f)" d="M 185.370976 437.208984 
L 192.442044 423.066849 
L 178.299909 423.066849 
z
" style="fill:none;stroke:#008000;stroke-width:2;"/>
    <path clip-path="url(#p55b88d357f)" d="M 194.800406 401.502962 
L 201.871474 387.360827 
L 187.729339 387.360827 
z
" style="fill:none;stroke:#008000;stroke-width:2;"/>
   </g>
   <g id="matplotlib.axis_6">
    <g id="xtick_21">
     <g id="line2d_21">
      <g>
       <use style="stroke:#000000;stroke-width:0.8;" x="62.788387" xlink:href="#med492fdb38" y="523.6"/>
      </g>
     </g>
     <g id="text_6">
      <!-- 0 -->
      <defs>
       <path d="M 31.78125 66.40625 
Q 24.171875 66.40625 20.328125 58.90625 
Q 16.5 51.421875 16.5 36.375 
Q 16.5 21.390625 20.328125 13.890625 
Q 24.171875 6.390625 31.78125 6.390625 
Q 39.453125 6.390625 43.28125 13.890625 
Q 47.125 21.390625 47.125 36.375 
Q 47.125 51.421875 43.28125 58.90625 
Q 39.453125 66.40625 31.78125 66.40625 
z
M 31.78125 74.21875 
Q 44.046875 74.21875 50.515625 64.515625 
Q 56.984375 54.828125 56.984375 36.375 
Q 56.984375 17.96875 50.515625 8.265625 
Q 44.046875 -1.421875 31.78125 -1.421875 
Q 19.53125 -1.421875 13.0625 8.265625 
Q 6.59375 17.96875 6.59375 36.375 
Q 6.59375 54.828125 13.0625 64.515625 
Q 19.53125 74.21875 31.78125 74.21875 
z
" id="DejaVuSans-30"/>
      </defs>
      <g transform="translate(59.607137 538.198437)scale(0.1 -0.1)">
       <use xlink:href="#DejaVuSans-30"/>
      </g>
     </g>
    </g>
    <g id="xtick_22">
     <g id="line2d_22">
      <g>
       <use style="stroke:#000000;stroke-width:0.8;" x="109.935537" xlink:href="#med492fdb38" y="523.6"/>
      </g>
     </g>
     <g id="text_7">
      <!-- 5 -->
      <defs>
       <path d="M 10.796875 72.90625 
L 49.515625 72.90625 
L 49.515625 64.59375 
L 19.828125 64.59375 
L 19.828125 46.734375 
Q 21.96875 47.46875 24.109375 47.828125 
Q 26.265625 48.1875 28.421875 48.1875 
Q 40.625 48.1875 47.75 41.5 
Q 54.890625 34.8125 54.890625 23.390625 
Q 54.890625 11.625 47.5625 5.09375 
Q 40.234375 -1.421875 26.90625 -1.421875 
Q 22.3125 -1.421875 17.546875 -0.640625 
Q 12.796875 0.140625 7.71875 1.703125 
L 7.71875 11.625 
Q 12.109375 9.234375 16.796875 8.0625 
Q 21.484375 6.890625 26.703125 6.890625 
Q 35.15625 6.890625 40.078125 11.328125 
Q 45.015625 15.765625 45.015625 23.390625 
Q 45.015625 31 40.078125 35.4375 
Q 35.15625 39.890625 26.703125 39.890625 
Q 22.75 39.890625 18.8125 39.015625 
Q 14.890625 38.140625 10.796875 36.28125 
z
" id="DejaVuSans-35"/>
      </defs>
      <g transform="translate(106.754287 538.198437)scale(0.1 -0.1)">
       <use xlink:href="#DejaVuSans-35"/>
      </g>
     </g>
    </g>
    <g id="xtick_23">
     <g id="line2d_23">
      <g>
       <use style="stroke:#000000;stroke-width:0.8;" x="157.082686" xlink:href="#med492fdb38" y="523.6"/>
      </g>
     </g>
     <g id="text_8">
      <!-- 10 -->
      <g transform="translate(150.720186 538.198437)scale(0.1 -0.1)">
       <use xlink:href="#DejaVuSans-31"/>
       <use x="63.623047" xlink:href="#DejaVuSans-30"/>
      </g>
     </g>
    </g>
    <g id="xtick_24">
     <g id="line2d_24">
      <g>
       <use style="stroke:#000000;stroke-width:0.8;" x="204.229836" xlink:href="#med492fdb38" y="523.6"/>
      </g>
     </g>
     <g id="text_9">
      <!-- 15 -->
      <g transform="translate(197.867336 538.198437)scale(0.1 -0.1)">
       <use xlink:href="#DejaVuSans-31"/>
       <use x="63.623047" xlink:href="#DejaVuSans-35"/>
      </g>
     </g>
    </g>
   </g>
   <g id="patch_18">
    <path d="M 40.5875 513.6 
L 40.5875 364.266667 
" style="fill:none;stroke:#000000;stroke-linecap:square;stroke-linejoin:miter;stroke-width:0.8;"/>
   </g>
   <g id="patch_19">
    <path d="M 50.5875 523.6 
L 207.001293 523.6 
" style="fill:none;stroke:#000000;stroke-linecap:square;stroke-linejoin:miter;stroke-width:0.8;"/>
   </g>
   <g id="text_10">
    <!-- TLE1 -->
    <defs>
     <path d="M 9.8125 72.90625 
L 19.671875 72.90625 
L 19.671875 8.296875 
L 55.171875 8.296875 
L 55.171875 0 
L 9.8125 0 
z
" id="DejaVuSans-4c"/>
    </defs>
    <g transform="translate(99.561272 358.266667)scale(0.24 -0.24)">
     <use xlink:href="#DejaVuSans-54"/>
     <use x="61.083984" xlink:href="#DejaVuSans-4c"/>
     <use x="116.796875" xlink:href="#DejaVuSans-45"/>
     <use x="179.980469" xlink:href="#DejaVuSans-31"/>
    </g>
   </g>
  </g>
  <g id="axes_7">
   <g id="patch_20">
    <path d="M 238.284052 513.6 
L 394.697845 513.6 
L 394.697845 364.266667 
L 238.284052 364.266667 
z
" style="fill:#ffffff;"/>
   </g>
   <g id="PathCollection_19">
    <defs>
     <path d="M 0 7.071068 
C 1.875269 7.071068 3.673985 6.326016 5 5 
C 6.326016 3.673985 7.071068 1.875269 7.071068 0 
C 7.071068 -1.875269 6.326016 -3.673985 5 -5 
C 3.673985 -6.326016 1.875269 -7.071068 0 -7.071068 
C -1.875269 -7.071068 -3.673985 -6.326016 -5 -5 
C -6.326016 -3.673985 -7.071068 -1.875269 -7.071068 0 
C -7.071068 1.875269 -6.326016 3.673985 -5 5 
C -3.673985 6.326016 -1.875269 7.071068 0 7.071068 
z
" id="C6_0_37a90d8849"/>
    </defs>
    <g clip-path="url(#p701f902282)">
     <use style="fill:none;stroke:#000000;stroke-width:2;" x="250.484938" xlink:href="#C6_0_37a90d8849" y="372.244122"/>
    </g>
    <g clip-path="url(#p701f902282)">
     <use style="fill:none;stroke:#000000;stroke-width:2;" x="259.914368" xlink:href="#C6_0_37a90d8849" y="395.155632"/>
    </g>
    <g clip-path="url(#p701f902282)">
     <use style="fill:none;stroke:#000000;stroke-width:2;" x="269.343798" xlink:href="#C6_0_37a90d8849" y="391.757141"/>
    </g>
    <g clip-path="url(#p701f902282)">
     <use style="fill:none;stroke:#000000;stroke-width:2;" x="278.773228" xlink:href="#C6_0_37a90d8849" y="404.524643"/>
    </g>
    <g clip-path="url(#p701f902282)">
     <use style="fill:none;stroke:#000000;stroke-width:2;" x="288.202658" xlink:href="#C6_0_37a90d8849" y="407.967518"/>
    </g>
   </g>
   <g id="PathCollection_20">
    <path clip-path="url(#p701f902282)" d="M 290.561021 421.575933 
L 304.703156 421.575933 
L 304.703156 407.433798 
L 290.561021 407.433798 
z
" style="fill:none;stroke:#ff0000;stroke-width:2;"/>
    <path clip-path="url(#p701f902282)" d="M 299.99045 455.443957 
L 314.132586 455.443957 
L 314.132586 441.301821 
L 299.99045 441.301821 
z
" style="fill:none;stroke:#ff0000;stroke-width:2;"/>
    <path clip-path="url(#p701f902282)" d="M 309.41988 442.516786 
L 323.562016 442.516786 
L 323.562016 428.374651 
L 309.41988 428.374651 
z
" style="fill:none;stroke:#ff0000;stroke-width:2;"/>
    <path clip-path="url(#p701f902282)" d="M 318.84931 420.11345 
L 332.991446 420.11345 
L 332.991446 405.971315 
L 318.84931 405.971315 
z
" style="fill:none;stroke:#ff0000;stroke-width:2;"/>
    <path clip-path="url(#p701f902282)" d="M 328.27874 502.063223 
L 342.420876 502.063223 
L 342.420876 487.921087 
L 328.27874 487.921087 
z
" style="fill:none;stroke:#ff0000;stroke-width:2;"/>
   </g>
   <g id="PathCollection_21">
    <path clip-path="url(#p701f902282)" d="M 344.779238 473.19686 
L 351.850306 459.054724 
L 337.70817 459.054724 
z
" style="fill:none;stroke:#008000;stroke-width:2;"/>
    <path clip-path="url(#p701f902282)" d="M 354.208668 509.181704 
L 361.279736 495.039569 
L 347.1376 495.039569 
z
" style="fill:none;stroke:#008000;stroke-width:2;"/>
    <path clip-path="url(#p701f902282)" d="M 363.638098 408.958119 
L 370.709166 394.815984 
L 356.56703 394.815984 
z
" style="fill:none;stroke:#008000;stroke-width:2;"/>
    <path clip-path="url(#p701f902282)" d="M 373.067528 459.133521 
L 380.138596 444.991385 
L 365.99646 444.991385 
z
" style="fill:none;stroke:#008000;stroke-width:2;"/>
    <path clip-path="url(#p701f902282)" d="M 382.496958 456.496662 
L 389.568026 442.354527 
L 375.42589 442.354527 
z
" style="fill:none;stroke:#008000;stroke-width:2;"/>
   </g>
   <g id="matplotlib.axis_7">
    <g id="xtick_25">
     <g id="line2d_25">
      <g>
       <use style="stroke:#000000;stroke-width:0.8;" x="250.484938" xlink:href="#med492fdb38" y="523.6"/>
      </g>
     </g>
     <g id="text_11">
      <!-- 0 -->
      <g transform="translate(247.303688 538.198437)scale(0.1 -0.1)">
       <use xlink:href="#DejaVuSans-30"/>
      </g>
     </g>
    </g>
    <g id="xtick_26">
     <g id="line2d_26">
      <g>
       <use style="stroke:#000000;stroke-width:0.8;" x="297.632088" xlink:href="#med492fdb38" y="523.6"/>
      </g>
     </g>
     <g id="text_12">
      <!-- 5 -->
      <g transform="translate(294.450838 538.198437)scale(0.1 -0.1)">
       <use xlink:href="#DejaVuSans-35"/>
      </g>
     </g>
    </g>
    <g id="xtick_27">
     <g id="line2d_27">
      <g>
       <use style="stroke:#000000;stroke-width:0.8;" x="344.779238" xlink:href="#med492fdb38" y="523.6"/>
      </g>
     </g>
     <g id="text_13">
      <!-- 10 -->
      <g transform="translate(338.416738 538.198437)scale(0.1 -0.1)">
       <use xlink:href="#DejaVuSans-31"/>
       <use x="63.623047" xlink:href="#DejaVuSans-30"/>
      </g>
     </g>
    </g>
    <g id="xtick_28">
     <g id="line2d_28">
      <g>
       <use style="stroke:#000000;stroke-width:0.8;" x="391.926388" xlink:href="#med492fdb38" y="523.6"/>
      </g>
     </g>
     <g id="text_14">
      <!-- 15 -->
      <g transform="translate(385.563888 538.198437)scale(0.1 -0.1)">
       <use xlink:href="#DejaVuSans-31"/>
       <use x="63.623047" xlink:href="#DejaVuSans-35"/>
      </g>
     </g>
    </g>
   </g>
   <g id="patch_21">
    <path d="M 228.284052 513.6 
L 228.284052 364.266667 
" style="fill:none;stroke:#000000;stroke-linecap:square;stroke-linejoin:miter;stroke-width:0.8;"/>
   </g>
   <g id="patch_22">
    <path d="M 238.284052 523.6 
L 394.697845 523.6 
" style="fill:none;stroke:#000000;stroke-linecap:square;stroke-linejoin:miter;stroke-width:0.8;"/>
   </g>
   <g id="text_15">
    <!-- IL5RA -->
    <g transform="translate(282.090323 358.266667)scale(0.24 -0.24)">
     <use xlink:href="#DejaVuSans-49"/>
     <use x="29.492188" xlink:href="#DejaVuSans-4c"/>
     <use x="85.205078" xlink:href="#DejaVuSans-35"/>
     <use x="148.828125" xlink:href="#DejaVuSans-52"/>
     <use x="218.248047" xlink:href="#DejaVuSans-41"/>
    </g>
   </g>
  </g>
  <g id="axes_8">
   <g id="patch_23">
    <path d="M 425.980603 513.6 
L 582.394397 513.6 
L 582.394397 364.266667 
L 425.980603 364.266667 
z
" style="fill:#ffffff;"/>
   </g>
   <g id="PathCollection_22">
    <defs>
     <path d="M 0 7.071068 
C 1.875269 7.071068 3.673985 6.326016 5 5 
C 6.326016 3.673985 7.071068 1.875269 7.071068 0 
C 7.071068 -1.875269 6.326016 -3.673985 5 -5 
C 3.673985 -6.326016 1.875269 -7.071068 0 -7.071068 
C -1.875269 -7.071068 -3.673985 -6.326016 -5 -5 
C -6.326016 -3.673985 -7.071068 -1.875269 -7.071068 0 
C -7.071068 1.875269 -6.326016 3.673985 -5 5 
C -3.673985 6.326016 -1.875269 7.071068 0 7.071068 
z
" id="C7_0_4c22be6cf6"/>
    </defs>
    <g clip-path="url(#p89ed169319)">
     <use style="fill:none;stroke:#000000;stroke-width:2;" x="438.18149" xlink:href="#C7_0_4c22be6cf6" y="378.612589"/>
    </g>
    <g clip-path="url(#p89ed169319)">
     <use style="fill:none;stroke:#000000;stroke-width:2;" x="447.61092" xlink:href="#C7_0_4c22be6cf6" y="441.60573"/>
    </g>
    <g clip-path="url(#p89ed169319)">
     <use style="fill:none;stroke:#000000;stroke-width:2;" x="457.04035" xlink:href="#C7_0_4c22be6cf6" y="454.996994"/>
    </g>
    <g clip-path="url(#p89ed169319)">
     <use style="fill:none;stroke:#000000;stroke-width:2;" x="466.46978" xlink:href="#C7_0_4c22be6cf6" y="397.938529"/>
    </g>
    <g clip-path="url(#p89ed169319)">
     <use style="fill:none;stroke:#000000;stroke-width:2;" x="475.89921" xlink:href="#C7_0_4c22be6cf6" y="424.866485"/>
    </g>
   </g>
   <g id="PathCollection_23">
    <path clip-path="url(#p89ed169319)" d="M 478.257572 458.891003 
L 492.399708 458.891003 
L 492.399708 444.748868 
L 478.257572 444.748868 
z
" style="fill:none;stroke:#ff0000;stroke-width:2;"/>
    <path clip-path="url(#p89ed169319)" d="M 487.687002 439.487028 
L 501.829138 439.487028 
L 501.829138 425.344893 
L 487.687002 425.344893 
z
" style="fill:none;stroke:#ff0000;stroke-width:2;"/>
    <path clip-path="url(#p89ed169319)" d="M 497.116432 461.987366 
L 511.258568 461.987366 
L 511.258568 447.84523 
L 497.116432 447.84523 
z
" style="fill:none;stroke:#ff0000;stroke-width:2;"/>
    <path clip-path="url(#p89ed169319)" d="M 506.545862 446.922777 
L 520.687998 446.922777 
L 520.687998 432.780641 
L 506.545862 432.780641 
z
" style="fill:none;stroke:#ff0000;stroke-width:2;"/>
    <path clip-path="url(#p89ed169319)" d="M 515.975292 434.433132 
L 530.117428 434.433132 
L 530.117428 420.290996 
L 515.975292 420.290996 
z
" style="fill:none;stroke:#ff0000;stroke-width:2;"/>
   </g>
   <g id="PathCollection_24">
    <path clip-path="url(#p89ed169319)" d="M 532.47579 381.759056 
L 539.546858 367.61692 
L 525.404722 367.61692 
z
" style="fill:none;stroke:#008000;stroke-width:2;"/>
    <path clip-path="url(#p89ed169319)" d="M 541.90522 450.621918 
L 548.976288 436.479782 
L 534.834152 436.479782 
z
" style="fill:none;stroke:#008000;stroke-width:2;"/>
    <path clip-path="url(#p89ed169319)" d="M 551.33465 406.614863 
L 558.405718 392.472728 
L 544.263582 392.472728 
z
" style="fill:none;stroke:#008000;stroke-width:2;"/>
    <path clip-path="url(#p89ed169319)" d="M 560.76408 510.451746 
L 567.835148 496.30961 
L 553.693012 496.30961 
z
" style="fill:none;stroke:#008000;stroke-width:2;"/>
    <path clip-path="url(#p89ed169319)" d="M 570.19351 475.045427 
L 577.264578 460.903291 
L 563.122442 460.903291 
z
" style="fill:none;stroke:#008000;stroke-width:2;"/>
   </g>
   <g id="matplotlib.axis_8">
    <g id="xtick_29">
     <g id="line2d_29">
      <g>
       <use style="stroke:#000000;stroke-width:0.8;" x="438.18149" xlink:href="#med492fdb38" y="523.6"/>
      </g>
     </g>
     <g id="text_16">
      <!-- 0 -->
      <g transform="translate(435.00024 538.198437)scale(0.1 -0.1)">
       <use xlink:href="#DejaVuSans-30"/>
      </g>
     </g>
    </g>
    <g id="xtick_30">
     <g id="line2d_30">
      <g>
       <use style="stroke:#000000;stroke-width:0.8;" x="485.32864" xlink:href="#med492fdb38" y="523.6"/>
      </g>
     </g>
     <g id="text_17">
      <!-- 5 -->
      <g transform="translate(482.14739 538.198437)scale(0.1 -0.1)">
       <use xlink:href="#DejaVuSans-35"/>
      </g>
     </g>
    </g>
    <g id="xtick_31">
     <g id="line2d_31">
      <g>
       <use style="stroke:#000000;stroke-width:0.8;" x="532.47579" xlink:href="#med492fdb38" y="523.6"/>
      </g>
     </g>
     <g id="text_18">
      <!-- 10 -->
      <g transform="translate(526.11329 538.198437)scale(0.1 -0.1)">
       <use xlink:href="#DejaVuSans-31"/>
       <use x="63.623047" xlink:href="#DejaVuSans-30"/>
      </g>
     </g>
    </g>
    <g id="xtick_32">
     <g id="line2d_32">
      <g>
       <use style="stroke:#000000;stroke-width:0.8;" x="579.62294" xlink:href="#med492fdb38" y="523.6"/>
      </g>
     </g>
     <g id="text_19">
      <!-- 15 -->
      <g transform="translate(573.26044 538.198437)scale(0.1 -0.1)">
       <use xlink:href="#DejaVuSans-31"/>
       <use x="63.623047" xlink:href="#DejaVuSans-35"/>
      </g>
     </g>
    </g>
   </g>
   <g id="patch_24">
    <path d="M 415.980603 513.6 
L 415.980603 364.266667 
" style="fill:none;stroke:#000000;stroke-linecap:square;stroke-linejoin:miter;stroke-width:0.8;"/>
   </g>
   <g id="patch_25">
    <path d="M 425.980603 523.6 
L 582.394397 523.6 
" style="fill:none;stroke:#000000;stroke-linecap:square;stroke-linejoin:miter;stroke-width:0.8;"/>
   </g>
   <g id="text_20">
    <!-- ASB8 -->
    <g transform="translate(472.4925 358.266667)scale(0.24 -0.24)">
     <use xlink:href="#DejaVuSans-41"/>
     <use x="68.408203" xlink:href="#DejaVuSans-53"/>
     <use x="131.884766" xlink:href="#DejaVuSans-42"/>
     <use x="200.488281" xlink:href="#DejaVuSans-38"/>
    </g>
   </g>
  </g>
  <g id="axes_9">
   <g id="patch_26">
    <path d="M 613.677155 513.6 
L 770.090948 513.6 
L 770.090948 364.266667 
L 613.677155 364.266667 
z
" style="fill:#ffffff;"/>
   </g>
   <g id="PathCollection_25">
    <defs>
     <path d="M 0 7.071068 
C 1.875269 7.071068 3.673985 6.326016 5 5 
C 6.326016 3.673985 7.071068 1.875269 7.071068 0 
C 7.071068 -1.875269 6.326016 -3.673985 5 -5 
C 3.673985 -6.326016 1.875269 -7.071068 0 -7.071068 
C -1.875269 -7.071068 -3.673985 -6.326016 -5 -5 
C -6.326016 -3.673985 -7.071068 -1.875269 -7.071068 0 
C -7.071068 1.875269 -6.326016 3.673985 -5 5 
C -3.673985 6.326016 -1.875269 7.071068 0 7.071068 
z
" id="C8_0_594aee7e05"/>
    </defs>
    <g clip-path="url(#pfa1bae24a0)">
     <use style="fill:none;stroke:#000000;stroke-width:2;" x="625.878042" xlink:href="#C8_0_594aee7e05" y="447.595072"/>
    </g>
    <g clip-path="url(#pfa1bae24a0)">
     <use style="fill:none;stroke:#000000;stroke-width:2;" x="635.307472" xlink:href="#C8_0_594aee7e05" y="474.453828"/>
    </g>
    <g clip-path="url(#pfa1bae24a0)">
     <use style="fill:none;stroke:#000000;stroke-width:2;" x="644.736902" xlink:href="#C8_0_594aee7e05" y="445.421573"/>
    </g>
    <g clip-path="url(#pfa1bae24a0)">
     <use style="fill:none;stroke:#000000;stroke-width:2;" x="654.166332" xlink:href="#C8_0_594aee7e05" y="474.572144"/>
    </g>
    <g clip-path="url(#pfa1bae24a0)">
     <use style="fill:none;stroke:#000000;stroke-width:2;" x="663.595762" xlink:href="#C8_0_594aee7e05" y="503.899717"/>
    </g>
   </g>
   <g id="PathCollection_26">
    <path clip-path="url(#pfa1bae24a0)" d="M 665.954124 430.495061 
L 680.09626 430.495061 
L 680.09626 416.352925 
L 665.954124 416.352925 
z
" style="fill:none;stroke:#ff0000;stroke-width:2;"/>
    <path clip-path="url(#pfa1bae24a0)" d="M 675.383554 451.964878 
L 689.52569 451.964878 
L 689.52569 437.822743 
L 675.383554 437.822743 
z
" style="fill:none;stroke:#ff0000;stroke-width:2;"/>
    <path clip-path="url(#pfa1bae24a0)" d="M 684.812984 432.118158 
L 698.95512 432.118158 
L 698.95512 417.976022 
L 684.812984 417.976022 
z
" style="fill:none;stroke:#ff0000;stroke-width:2;"/>
    <path clip-path="url(#pfa1bae24a0)" d="M 694.242414 441.648472 
L 708.38455 441.648472 
L 708.38455 427.506337 
L 694.242414 427.506337 
z
" style="fill:none;stroke:#ff0000;stroke-width:2;"/>
    <path clip-path="url(#pfa1bae24a0)" d="M 703.671844 407.062918 
L 717.813979 407.062918 
L 717.813979 392.920783 
L 703.671844 392.920783 
z
" style="fill:none;stroke:#ff0000;stroke-width:2;"/>
   </g>
   <g id="PathCollection_27">
    <path clip-path="url(#pfa1bae24a0)" d="M 720.172342 420.628082 
L 727.243409 406.485946 
L 713.101274 406.485946 
z
" style="fill:none;stroke:#008000;stroke-width:2;"/>
    <path clip-path="url(#pfa1bae24a0)" d="M 729.601772 447.40389 
L 736.672839 433.261754 
L 722.530704 433.261754 
z
" style="fill:none;stroke:#008000;stroke-width:2;"/>
    <path clip-path="url(#pfa1bae24a0)" d="M 739.031202 434.49702 
L 746.102269 420.354885 
L 731.960134 420.354885 
z
" style="fill:none;stroke:#008000;stroke-width:2;"/>
    <path clip-path="url(#pfa1bae24a0)" d="M 748.460632 382.222013 
L 755.531699 368.079877 
L 741.389564 368.079877 
z
" style="fill:none;stroke:#008000;stroke-width:2;"/>
    <path clip-path="url(#pfa1bae24a0)" d="M 757.890062 413.260245 
L 764.961129 399.11811 
L 750.818994 399.11811 
z
" style="fill:none;stroke:#008000;stroke-width:2;"/>
   </g>
   <g id="matplotlib.axis_9">
    <g id="xtick_33">
     <g id="line2d_33">
      <g>
       <use style="stroke:#000000;stroke-width:0.8;" x="625.878042" xlink:href="#med492fdb38" y="523.6"/>
      </g>
     </g>
     <g id="text_21">
      <!-- 0 -->
      <g transform="translate(622.696792 538.198437)scale(0.1 -0.1)">
       <use xlink:href="#DejaVuSans-30"/>
      </g>
     </g>
    </g>
    <g id="xtick_34">
     <g id="line2d_34">
      <g>
       <use style="stroke:#000000;stroke-width:0.8;" x="673.025192" xlink:href="#med492fdb38" y="523.6"/>
      </g>
     </g>
     <g id="text_22">
      <!-- 5 -->
      <g transform="translate(669.843942 538.198437)scale(0.1 -0.1)">
       <use xlink:href="#DejaVuSans-35"/>
      </g>
     </g>
    </g>
    <g id="xtick_35">
     <g id="line2d_35">
      <g>
       <use style="stroke:#000000;stroke-width:0.8;" x="720.172342" xlink:href="#med492fdb38" y="523.6"/>
      </g>
     </g>
     <g id="text_23">
      <!-- 10 -->
      <g transform="translate(713.809842 538.198437)scale(0.1 -0.1)">
       <use xlink:href="#DejaVuSans-31"/>
       <use x="63.623047" xlink:href="#DejaVuSans-30"/>
      </g>
     </g>
    </g>
    <g id="xtick_36">
     <g id="line2d_36">
      <g>
       <use style="stroke:#000000;stroke-width:0.8;" x="767.319492" xlink:href="#med492fdb38" y="523.6"/>
      </g>
     </g>
     <g id="text_24">
      <!-- 15 -->
      <g transform="translate(760.956992 538.198437)scale(0.1 -0.1)">
       <use xlink:href="#DejaVuSans-31"/>
       <use x="63.623047" xlink:href="#DejaVuSans-35"/>
      </g>
     </g>
    </g>
   </g>
   <g id="patch_27">
    <path d="M 603.677155 513.6 
L 603.677155 364.266667 
" style="fill:none;stroke:#000000;stroke-linecap:square;stroke-linejoin:miter;stroke-width:0.8;"/>
   </g>
   <g id="patch_28">
    <path d="M 613.677155 523.6 
L 770.090948 523.6 
" style="fill:none;stroke:#000000;stroke-linecap:square;stroke-linejoin:miter;stroke-width:0.8;"/>
   </g>
   <g id="text_25">
    <!-- ERF -->
    <defs>
     <path d="M 9.8125 72.90625 
L 51.703125 72.90625 
L 51.703125 64.59375 
L 19.671875 64.59375 
L 19.671875 43.109375 
L 48.578125 43.109375 
L 48.578125 34.8125 
L 19.671875 34.8125 
L 19.671875 0 
L 9.8125 0 
z
" id="DejaVuSans-46"/>
    </defs>
    <g transform="translate(669.061552 358.266667)scale(0.24 -0.24)">
     <use xlink:href="#DejaVuSans-45"/>
     <use x="63.183594" xlink:href="#DejaVuSans-52"/>
     <use x="132.666016" xlink:href="#DejaVuSans-46"/>
    </g>
   </g>
  </g>
  <g id="axes_10">
   <g id="patch_29">
    <path d="M 801.373707 513.6 
L 957.7875 513.6 
L 957.7875 364.266667 
L 801.373707 364.266667 
z
" style="fill:#ffffff;"/>
   </g>
   <g id="PathCollection_28">
    <defs>
     <path d="M 0 7.071068 
C 1.875269 7.071068 3.673985 6.326016 5 5 
C 6.326016 3.673985 7.071068 1.875269 7.071068 0 
C 7.071068 -1.875269 6.326016 -3.673985 5 -5 
C 3.673985 -6.326016 1.875269 -7.071068 0 -7.071068 
C -1.875269 -7.071068 -3.673985 -6.326016 -5 -5 
C -6.326016 -3.673985 -7.071068 -1.875269 -7.071068 0 
C -7.071068 1.875269 -6.326016 3.673985 -5 5 
C -3.673985 6.326016 -1.875269 7.071068 0 7.071068 
z
" id="C9_0_3b4afc9f74"/>
    </defs>
    <g clip-path="url(#pa6742329ab)">
     <use style="fill:none;stroke:#000000;stroke-width:2;" x="813.574594" xlink:href="#C9_0_3b4afc9f74" y="414.290196"/>
    </g>
    <g clip-path="url(#pa6742329ab)">
     <use style="fill:none;stroke:#000000;stroke-width:2;" x="823.004024" xlink:href="#C9_0_3b4afc9f74" y="389.345692"/>
    </g>
    <g clip-path="url(#pa6742329ab)">
     <use style="fill:none;stroke:#000000;stroke-width:2;" x="832.433454" xlink:href="#C9_0_3b4afc9f74" y="422.423756"/>
    </g>
    <g clip-path="url(#pa6742329ab)">
     <use style="fill:none;stroke:#000000;stroke-width:2;" x="841.862884" xlink:href="#C9_0_3b4afc9f74" y="376.769839"/>
    </g>
    <g clip-path="url(#pa6742329ab)">
     <use style="fill:none;stroke:#000000;stroke-width:2;" x="851.292314" xlink:href="#C9_0_3b4afc9f74" y="398.527505"/>
    </g>
   </g>
   <g id="PathCollection_29">
    <path clip-path="url(#pa6742329ab)" d="M 853.650676 487.534658 
L 867.792811 487.534658 
L 867.792811 473.392522 
L 853.650676 473.392522 
z
" style="fill:none;stroke:#ff0000;stroke-width:2;"/>
    <path clip-path="url(#pa6742329ab)" d="M 863.080106 465.739608 
L 877.222241 465.739608 
L 877.222241 451.597472 
L 863.080106 451.597472 
z
" style="fill:none;stroke:#ff0000;stroke-width:2;"/>
    <path clip-path="url(#pa6742329ab)" d="M 872.509536 467.109227 
L 886.651671 467.109227 
L 886.651671 452.967091 
L 872.509536 452.967091 
z
" style="fill:none;stroke:#ff0000;stroke-width:2;"/>
    <path clip-path="url(#pa6742329ab)" d="M 881.938966 463.787272 
L 896.081101 463.787272 
L 896.081101 449.645136 
L 881.938966 449.645136 
z
" style="fill:none;stroke:#ff0000;stroke-width:2;"/>
    <path clip-path="url(#pa6742329ab)" d="M 891.368396 484.823751 
L 905.510531 484.823751 
L 905.510531 470.681615 
L 891.368396 470.681615 
z
" style="fill:none;stroke:#ff0000;stroke-width:2;"/>
   </g>
   <g id="PathCollection_30">
    <path clip-path="url(#pa6742329ab)" d="M 907.868893 410.267348 
L 914.939961 396.125213 
L 900.797826 396.125213 
z
" style="fill:none;stroke:#008000;stroke-width:2;"/>
    <path clip-path="url(#pa6742329ab)" d="M 917.298323 469.385611 
L 924.369391 455.243475 
L 910.227256 455.243475 
z
" style="fill:none;stroke:#008000;stroke-width:2;"/>
    <path clip-path="url(#pa6742329ab)" d="M 926.727753 493.247495 
L 933.798821 479.10536 
L 919.656686 479.10536 
z
" style="fill:none;stroke:#008000;stroke-width:2;"/>
    <path clip-path="url(#pa6742329ab)" d="M 936.157183 509.699857 
L 943.228251 495.557722 
L 929.086116 495.557722 
z
" style="fill:none;stroke:#008000;stroke-width:2;"/>
    <path clip-path="url(#pa6742329ab)" d="M 945.586613 492.795873 
L 952.657681 478.653737 
L 938.515545 478.653737 
z
" style="fill:none;stroke:#008000;stroke-width:2;"/>
   </g>
   <g id="matplotlib.axis_10">
    <g id="xtick_37">
     <g id="line2d_37">
      <g>
       <use style="stroke:#000000;stroke-width:0.8;" x="813.574594" xlink:href="#med492fdb38" y="523.6"/>
      </g>
     </g>
     <g id="text_26">
      <!-- 0 -->
      <g transform="translate(810.393344 538.198437)scale(0.1 -0.1)">
       <use xlink:href="#DejaVuSans-30"/>
      </g>
     </g>
    </g>
    <g id="xtick_38">
     <g id="line2d_38">
      <g>
       <use style="stroke:#000000;stroke-width:0.8;" x="860.721743" xlink:href="#med492fdb38" y="523.6"/>
      </g>
     </g>
     <g id="text_27">
      <!-- 5 -->
      <g transform="translate(857.540493 538.198437)scale(0.1 -0.1)">
       <use xlink:href="#DejaVuSans-35"/>
      </g>
     </g>
    </g>
    <g id="xtick_39">
     <g id="line2d_39">
      <g>
       <use style="stroke:#000000;stroke-width:0.8;" x="907.868893" xlink:href="#med492fdb38" y="523.6"/>
      </g>
     </g>
     <g id="text_28">
      <!-- 10 -->
      <g transform="translate(901.506393 538.198437)scale(0.1 -0.1)">
       <use xlink:href="#DejaVuSans-31"/>
       <use x="63.623047" xlink:href="#DejaVuSans-30"/>
      </g>
     </g>
    </g>
    <g id="xtick_40">
     <g id="line2d_40">
      <g>
       <use style="stroke:#000000;stroke-width:0.8;" x="955.016043" xlink:href="#med492fdb38" y="523.6"/>
      </g>
     </g>
     <g id="text_29">
      <!-- 15 -->
      <g transform="translate(948.653543 538.198437)scale(0.1 -0.1)">
       <use xlink:href="#DejaVuSans-31"/>
       <use x="63.623047" xlink:href="#DejaVuSans-35"/>
      </g>
     </g>
    </g>
   </g>
   <g id="patch_30">
    <path d="M 791.373707 513.6 
L 791.373707 364.266667 
" style="fill:none;stroke:#000000;stroke-linecap:square;stroke-linejoin:miter;stroke-width:0.8;"/>
   </g>
   <g id="patch_31">
    <path d="M 801.373707 523.6 
L 957.7875 523.6 
" style="fill:none;stroke:#000000;stroke-linecap:square;stroke-linejoin:miter;stroke-width:0.8;"/>
   </g>
   <g id="text_30">
    <!-- CDC40 -->
    <g transform="translate(838.311853 358.266667)scale(0.24 -0.24)">
     <use xlink:href="#DejaVuSans-43"/>
     <use x="69.824219" xlink:href="#DejaVuSans-44"/>
     <use x="146.826172" xlink:href="#DejaVuSans-43"/>
     <use x="216.650391" xlink:href="#DejaVuSans-34"/>
     <use x="280.273438" xlink:href="#DejaVuSans-30"/>
    </g>
   </g>
  </g>
  <g id="text_31">
   <!-- Samples -->
   <defs>
    <path d="M 34.28125 27.484375 
Q 23.390625 27.484375 19.1875 25 
Q 14.984375 22.515625 14.984375 16.5 
Q 14.984375 11.71875 18.140625 8.90625 
Q 21.296875 6.109375 26.703125 6.109375 
Q 34.1875 6.109375 38.703125 11.40625 
Q 43.21875 16.703125 43.21875 25.484375 
L 43.21875 27.484375 
z
M 52.203125 31.203125 
L 52.203125 0 
L 43.21875 0 
L 43.21875 8.296875 
Q 40.140625 3.328125 35.546875 0.953125 
Q 30.953125 -1.421875 24.3125 -1.421875 
Q 15.921875 -1.421875 10.953125 3.296875 
Q 6 8.015625 6 15.921875 
Q 6 25.140625 12.171875 29.828125 
Q 18.359375 34.515625 30.609375 34.515625 
L 43.21875 34.515625 
L 43.21875 35.40625 
Q 43.21875 41.609375 39.140625 45 
Q 35.0625 48.390625 27.6875 48.390625 
Q 23 48.390625 18.546875 47.265625 
Q 14.109375 46.140625 10.015625 43.890625 
L 10.015625 52.203125 
Q 14.9375 54.109375 19.578125 55.046875 
Q 24.21875 56 28.609375 56 
Q 40.484375 56 46.34375 49.84375 
Q 52.203125 43.703125 52.203125 31.203125 
z
" id="DejaVuSans-61"/>
    <path d="M 52 44.1875 
Q 55.375 50.25 60.0625 53.125 
Q 64.75 56 71.09375 56 
Q 79.640625 56 84.28125 50.015625 
Q 88.921875 44.046875 88.921875 33.015625 
L 88.921875 0 
L 79.890625 0 
L 79.890625 32.71875 
Q 79.890625 40.578125 77.09375 44.375 
Q 74.3125 48.1875 68.609375 48.1875 
Q 61.625 48.1875 57.5625 43.546875 
Q 53.515625 38.921875 53.515625 30.90625 
L 53.515625 0 
L 44.484375 0 
L 44.484375 32.71875 
Q 44.484375 40.625 41.703125 44.40625 
Q 38.921875 48.1875 33.109375 48.1875 
Q 26.21875 48.1875 22.15625 43.53125 
Q 18.109375 38.875 18.109375 30.90625 
L 18.109375 0 
L 9.078125 0 
L 9.078125 54.6875 
L 18.109375 54.6875 
L 18.109375 46.1875 
Q 21.1875 51.21875 25.484375 53.609375 
Q 29.78125 56 35.6875 56 
Q 41.65625 56 45.828125 52.96875 
Q 50 49.953125 52 44.1875 
z
" id="DejaVuSans-6d"/>
    <path d="M 18.109375 8.203125 
L 18.109375 -20.796875 
L 9.078125 -20.796875 
L 9.078125 54.6875 
L 18.109375 54.6875 
L 18.109375 46.390625 
Q 20.953125 51.265625 25.265625 53.625 
Q 29.59375 56 35.59375 56 
Q 45.5625 56 51.78125 48.09375 
Q 58.015625 40.1875 58.015625 27.296875 
Q 58.015625 14.40625 51.78125 6.484375 
Q 45.5625 -1.421875 35.59375 -1.421875 
Q 29.59375 -1.421875 25.265625 0.953125 
Q 20.953125 3.328125 18.109375 8.203125 
z
M 48.6875 27.296875 
Q 48.6875 37.203125 44.609375 42.84375 
Q 40.53125 48.484375 33.40625 48.484375 
Q 26.265625 48.484375 22.1875 42.84375 
Q 18.109375 37.203125 18.109375 27.296875 
Q 18.109375 17.390625 22.1875 11.75 
Q 26.265625 6.109375 33.40625 6.109375 
Q 40.53125 6.109375 44.609375 11.75 
Q 48.6875 17.390625 48.6875 27.296875 
z
" id="DejaVuSans-70"/>
    <path d="M 9.421875 75.984375 
L 18.40625 75.984375 
L 18.40625 0 
L 9.421875 0 
z
" id="DejaVuSans-6c"/>
    <path d="M 56.203125 29.59375 
L 56.203125 25.203125 
L 14.890625 25.203125 
Q 15.484375 15.921875 20.484375 11.0625 
Q 25.484375 6.203125 34.421875 6.203125 
Q 39.59375 6.203125 44.453125 7.46875 
Q 49.3125 8.734375 54.109375 11.28125 
L 54.109375 2.78125 
Q 49.265625 0.734375 44.1875 -0.34375 
Q 39.109375 -1.421875 33.890625 -1.421875 
Q 20.796875 -1.421875 13.15625 6.1875 
Q 5.515625 13.8125 5.515625 26.8125 
Q 5.515625 40.234375 12.765625 48.109375 
Q 20.015625 56 32.328125 56 
Q 43.359375 56 49.78125 48.890625 
Q 56.203125 41.796875 56.203125 29.59375 
z
M 47.21875 32.234375 
Q 47.125 39.59375 43.09375 43.984375 
Q 39.0625 48.390625 32.421875 48.390625 
Q 24.90625 48.390625 20.390625 44.140625 
Q 15.875 39.890625 15.1875 32.171875 
z
" id="DejaVuSans-65"/>
    <path d="M 44.28125 53.078125 
L 44.28125 44.578125 
Q 40.484375 46.53125 36.375 47.5 
Q 32.28125 48.484375 27.875 48.484375 
Q 21.1875 48.484375 17.84375 46.4375 
Q 14.5 44.390625 14.5 40.28125 
Q 14.5 37.15625 16.890625 35.375 
Q 19.28125 33.59375 26.515625 31.984375 
L 29.59375 31.296875 
Q 39.15625 29.25 43.1875 25.515625 
Q 47.21875 21.78125 47.21875 15.09375 
Q 47.21875 7.46875 41.1875 3.015625 
Q 35.15625 -1.421875 24.609375 -1.421875 
Q 20.21875 -1.421875 15.453125 -0.5625 
Q 10.6875 0.296875 5.421875 2 
L 5.421875 11.28125 
Q 10.40625 8.6875 15.234375 7.390625 
Q 20.0625 6.109375 24.8125 6.109375 
Q 31.15625 6.109375 34.5625 8.28125 
Q 37.984375 10.453125 37.984375 14.40625 
Q 37.984375 18.0625 35.515625 20.015625 
Q 33.0625 21.96875 24.703125 23.78125 
L 21.578125 24.515625 
Q 13.234375 26.265625 9.515625 29.90625 
Q 5.8125 33.546875 5.8125 39.890625 
Q 5.8125 47.609375 11.28125 51.796875 
Q 16.75 56 26.8125 56 
Q 31.78125 56 36.171875 55.265625 
Q 40.578125 54.546875 44.28125 53.078125 
z
" id="DejaVuSans-73"/>
   </defs>
   <g transform="translate(452.94 559.68)scale(0.24 -0.24)">
    <use xlink:href="#DejaVuSans-53"/>
    <use x="63.476562" xlink:href="#DejaVuSans-61"/>
    <use x="124.755859" xlink:href="#DejaVuSans-6d"/>
    <use x="222.167969" xlink:href="#DejaVuSans-70"/>
    <use x="285.644531" xlink:href="#DejaVuSans-6c"/>
    <use x="313.427734" xlink:href="#DejaVuSans-65"/>
    <use x="374.951172" xlink:href="#DejaVuSans-73"/>
   </g>
  </g>
  <g id="text_32">
   <!-- Expression level -->
   <defs>
    <path d="M 54.890625 54.6875 
L 35.109375 28.078125 
L 55.90625 0 
L 45.3125 0 
L 29.390625 21.484375 
L 13.484375 0 
L 2.875 0 
L 24.125 28.609375 
L 4.6875 54.6875 
L 15.28125 54.6875 
L 29.78125 35.203125 
L 44.28125 54.6875 
z
" id="DejaVuSans-78"/>
    <path d="M 41.109375 46.296875 
Q 39.59375 47.171875 37.8125 47.578125 
Q 36.03125 48 33.890625 48 
Q 26.265625 48 22.1875 43.046875 
Q 18.109375 38.09375 18.109375 28.8125 
L 18.109375 0 
L 9.078125 0 
L 9.078125 54.6875 
L 18.109375 54.6875 
L 18.109375 46.1875 
Q 20.953125 51.171875 25.484375 53.578125 
Q 30.03125 56 36.53125 56 
Q 37.453125 56 38.578125 55.875 
Q 39.703125 55.765625 41.0625 55.515625 
z
" id="DejaVuSans-72"/>
    <path d="M 9.421875 54.6875 
L 18.40625 54.6875 
L 18.40625 0 
L 9.421875 0 
z
M 9.421875 75.984375 
L 18.40625 75.984375 
L 18.40625 64.59375 
L 9.421875 64.59375 
z
" id="DejaVuSans-69"/>
    <path d="M 30.609375 48.390625 
Q 23.390625 48.390625 19.1875 42.75 
Q 14.984375 37.109375 14.984375 27.296875 
Q 14.984375 17.484375 19.15625 11.84375 
Q 23.34375 6.203125 30.609375 6.203125 
Q 37.796875 6.203125 41.984375 11.859375 
Q 46.1875 17.53125 46.1875 27.296875 
Q 46.1875 37.015625 41.984375 42.703125 
Q 37.796875 48.390625 30.609375 48.390625 
z
M 30.609375 56 
Q 42.328125 56 49.015625 48.375 
Q 55.71875 40.765625 55.71875 27.296875 
Q 55.71875 13.875 49.015625 6.21875 
Q 42.328125 -1.421875 30.609375 -1.421875 
Q 18.84375 -1.421875 12.171875 6.21875 
Q 5.515625 13.875 5.515625 27.296875 
Q 5.515625 40.765625 12.171875 48.375 
Q 18.84375 56 30.609375 56 
z
" id="DejaVuSans-6f"/>
    <path d="M 54.890625 33.015625 
L 54.890625 0 
L 45.90625 0 
L 45.90625 32.71875 
Q 45.90625 40.484375 42.875 44.328125 
Q 39.84375 48.1875 33.796875 48.1875 
Q 26.515625 48.1875 22.3125 43.546875 
Q 18.109375 38.921875 18.109375 30.90625 
L 18.109375 0 
L 9.078125 0 
L 9.078125 54.6875 
L 18.109375 54.6875 
L 18.109375 46.1875 
Q 21.34375 51.125 25.703125 53.5625 
Q 30.078125 56 35.796875 56 
Q 45.21875 56 50.046875 50.171875 
Q 54.890625 44.34375 54.890625 33.015625 
z
" id="DejaVuSans-6e"/>
    <path id="DejaVuSans-20"/>
    <path d="M 2.984375 54.6875 
L 12.5 54.6875 
L 29.59375 8.796875 
L 46.6875 54.6875 
L 56.203125 54.6875 
L 35.6875 0 
L 23.484375 0 
z
" id="DejaVuSans-76"/>
   </defs>
   <g transform="translate(25.43625 380.95125)rotate(-90)scale(0.24 -0.24)">
    <use xlink:href="#DejaVuSans-45"/>
    <use x="63.183594" xlink:href="#DejaVuSans-78"/>
    <use x="122.363281" xlink:href="#DejaVuSans-70"/>
    <use x="185.839844" xlink:href="#DejaVuSans-72"/>
    <use x="226.921875" xlink:href="#DejaVuSans-65"/>
    <use x="288.445312" xlink:href="#DejaVuSans-73"/>
    <use x="340.544922" xlink:href="#DejaVuSans-73"/>
    <use x="392.644531" xlink:href="#DejaVuSans-69"/>
    <use x="420.427734" xlink:href="#DejaVuSans-6f"/>
    <use x="481.609375" xlink:href="#DejaVuSans-6e"/>
    <use x="544.988281" xlink:href="#DejaVuSans-20"/>
    <use x="576.775391" xlink:href="#DejaVuSans-6c"/>
    <use x="604.558594" xlink:href="#DejaVuSans-65"/>
    <use x="666.082031" xlink:href="#DejaVuSans-76"/>
    <use x="725.261719" xlink:href="#DejaVuSans-65"/>
    <use x="786.785156" xlink:href="#DejaVuSans-6c"/>
   </g>
  </g>
  <g id="legend_1">
   <g id="patch_32">
    <path d="M 582.10875 54.4275 
L 986.5875 54.4275 
Q 991.3875 54.4275 991.3875 49.6275 
L 991.3875 16.8 
Q 991.3875 12 986.5875 12 
L 582.10875 12 
Q 577.30875 12 577.30875 16.8 
L 577.30875 49.6275 
Q 577.30875 54.4275 582.10875 54.4275 
z
" style="fill:#ffffff;opacity:0.8;stroke:#cccccc;stroke-linejoin:miter;"/>
   </g>
   <g id="PathCollection_31">
    <path d="M 610.90875 40.607318 
C 612.784019 40.607318 614.582734 39.862265 615.90875 38.53625 
C 617.234765 37.210234 617.979818 35.411519 617.979818 33.53625 
C 617.979818 31.660981 617.234765 29.862265 615.90875 28.53625 
C 614.582734 27.210234 612.784019 26.465182 610.90875 26.465182 
C 609.033481 26.465182 607.234765 27.210234 605.90875 28.53625 
C 604.582734 29.862265 603.837682 31.660981 603.837682 33.53625 
C 603.837682 35.411519 604.582734 37.210234 605.90875 38.53625 
C 607.234765 39.862265 609.033481 40.607318 610.90875 40.607318 
z
" style="fill:none;stroke:#000000;stroke-width:2;"/>
   </g>
   <g id="text_33">
    <!-- NN -->
    <defs>
     <path d="M 9.8125 72.90625 
L 23.09375 72.90625 
L 55.421875 11.921875 
L 55.421875 72.90625 
L 64.984375 72.90625 
L 64.984375 0 
L 51.703125 0 
L 19.390625 60.984375 
L 19.390625 0 
L 9.8125 0 
z
" id="DejaVuSans-4e"/>
    </defs>
    <g transform="translate(654.10875 39.83625)scale(0.24 -0.24)">
     <use xlink:href="#DejaVuSans-4e"/>
     <use x="74.804688" xlink:href="#DejaVuSans-4e"/>
    </g>
   </g>
   <g id="PathCollection_32">
    <path d="M 754.947682 40.607318 
L 769.089818 40.607318 
L 769.089818 26.465182 
L 754.947682 26.465182 
z
" style="fill:none;stroke:#ff0000;stroke-width:2;"/>
   </g>
   <g id="text_34">
    <!-- PP -->
    <g transform="translate(805.21875 39.83625)scale(0.24 -0.24)">
     <use xlink:href="#DejaVuSans-50"/>
     <use x="60.302734" xlink:href="#DejaVuSans-50"/>
    </g>
   </g>
   <g id="PathCollection_33">
    <path d="M 906.16125 40.607318 
L 913.232318 26.465182 
L 899.090182 26.465182 
z
" style="fill:none;stroke:#008000;stroke-width:2;"/>
   </g>
   <g id="text_35">
    <!-- NP -->
    <g transform="translate(949.36125 39.83625)scale(0.24 -0.24)">
     <use xlink:href="#DejaVuSans-4e"/>
     <use x="74.804688" xlink:href="#DejaVuSans-50"/>
    </g>
   </g>
  </g>
 </g>
 <defs>
  <clipPath id="p53fed35346">
   <rect height="149.333333" width="156.413793" x="50.5875" y="110.4"/>
  </clipPath>
  <clipPath id="pd80f907c6e">
   <rect height="149.333333" width="156.413793" x="238.284052" y="110.4"/>
  </clipPath>
  <clipPath id="p648cf43752">
   <rect height="149.333333" width="156.413793" x="425.980603" y="110.4"/>
  </clipPath>
  <clipPath id="p2e5c2eb66b">
   <rect height="149.333333" width="156.413793" x="613.677155" y="110.4"/>
  </clipPath>
  <clipPath id="p4c616c486d">
   <rect height="149.333333" width="156.413793" x="801.373707" y="110.4"/>
  </clipPath>
  <clipPath id="p55b88d357f">
   <rect height="149.333333" width="156.413793" x="50.5875" y="364.266667"/>
  </clipPath>
  <clipPath id="p701f902282">
   <rect height="149.333333" width="156.413793" x="238.284052" y="364.266667"/>
  </clipPath>
  <clipPath id="p89ed169319">
   <rect height="149.333333" width="156.413793" x="425.980603" y="364.266667"/>
  </clipPath>
  <clipPath id="pfa1bae24a0">
   <rect height="149.333333" width="156.413793" x="613.677155" y="364.266667"/>
  </clipPath>
  <clipPath id="pa6742329ab">
   <rect height="149.333333" width="156.413793" x="801.373707" y="364.266667"/>
  </clipPath>
 </defs>
</svg>
