<?xml version="1.0" encoding="utf-8" standalone="no"?>
<!DOCTYPE svg PUBLIC "-//W3C//DTD SVG 1.1//EN"
  "http://www.w3.org/Graphics/SVG/1.1/DTD/svg11.dtd">
<!-- Created with matplotlib (http://matplotlib.org/) -->
<svg height="516.6125pt" version="1.1" viewBox="0 0 1085.9275 516.6125" width="1085.9275pt" xmlns="http://www.w3.org/2000/svg" xmlns:xlink="http://www.w3.org/1999/xlink">
 <defs>
  <style type="text/css">
*{stroke-linecap:butt;stroke-linejoin:round;}
  </style>
 </defs>
 <g id="figure_1">
  <g id="patch_1">
   <path d="M 0 516.6125 
L 1085.9275 516.6125 
L 1085.9275 0 
L 0 0 
z
" style="fill:#ffffff;"/>
  </g>
  <g id="axes_1">
   <g id="patch_2">
    <path d="M 96.0275 442.7 
L 1075.2275 442.7 
L 1075.2275 10.7 
L 96.0275 10.7 
z
" style="fill:#ffffff;"/>
   </g>
   <g id="patch_3">
    <path clip-path="url(#p18f93b889e)" d="M 105.8195 128634.87206 
L 125.4035 128634.87206 
L 125.4035 157.061855 
L 105.8195 157.061855 
z
" style="fill:#3274a1;stroke:#000000;stroke-linejoin:miter;stroke-opacity:0.25;"/>
   </g>
   <g id="patch_4">
    <path clip-path="url(#p18f93b889e)" d="M 203.7395 128634.87206 
L 223.3235 128634.87206 
L 223.3235 157.061855 
L 203.7395 157.061855 
z
" style="fill:#3274a1;stroke:#000000;stroke-linejoin:miter;stroke-opacity:0.25;"/>
   </g>
   <g id="patch_5">
    <path clip-path="url(#p18f93b889e)" d="M 301.6595 128634.87206 
L 321.2435 128634.87206 
L 321.2435 157.061855 
L 301.6595 157.061855 
z
" style="fill:#3274a1;stroke:#000000;stroke-linejoin:miter;stroke-opacity:0.25;"/>
   </g>
   <g id="patch_6">
    <path clip-path="url(#p18f93b889e)" d="M 399.5795 128634.87206 
L 419.1635 128634.87206 
L 419.1635 157.061855 
L 399.5795 157.061855 
z
" style="fill:#3274a1;stroke:#000000;stroke-linejoin:miter;stroke-opacity:0.25;"/>
   </g>
   <g id="patch_7">
    <path clip-path="url(#p18f93b889e)" d="M 497.4995 128634.87206 
L 517.0835 128634.87206 
L 517.0835 157.061855 
L 497.4995 157.061855 
z
" style="fill:#3274a1;stroke:#000000;stroke-linejoin:miter;stroke-opacity:0.25;"/>
   </g>
   <g id="patch_8">
    <path clip-path="url(#p18f93b889e)" d="M 595.4195 128634.87206 
L 615.0035 128634.87206 
L 615.0035 157.061855 
L 595.4195 157.061855 
z
" style="fill:#3274a1;stroke:#000000;stroke-linejoin:miter;stroke-opacity:0.25;"/>
   </g>
   <g id="patch_9">
    <path clip-path="url(#p18f93b889e)" d="M 693.3395 128634.87206 
L 712.9235 128634.87206 
L 712.9235 157.061855 
L 693.3395 157.061855 
z
" style="fill:#3274a1;stroke:#000000;stroke-linejoin:miter;stroke-opacity:0.25;"/>
   </g>
   <g id="patch_10">
    <path clip-path="url(#p18f93b889e)" d="M 791.2595 128634.87206 
L 810.8435 128634.87206 
L 810.8435 157.061855 
L 791.2595 157.061855 
z
" style="fill:#3274a1;stroke:#000000;stroke-linejoin:miter;stroke-opacity:0.25;"/>
   </g>
   <g id="patch_11">
    <path clip-path="url(#p18f93b889e)" d="M 889.1795 128634.87206 
L 908.7635 128634.87206 
L 908.7635 157.061855 
L 889.1795 157.061855 
z
" style="fill:#3274a1;stroke:#000000;stroke-linejoin:miter;stroke-opacity:0.25;"/>
   </g>
   <g id="patch_12">
    <path clip-path="url(#p18f93b889e)" d="M 987.0995 128634.87206 
L 1006.6835 128634.87206 
L 1006.6835 157.061855 
L 987.0995 157.061855 
z
" style="fill:#3274a1;stroke:#000000;stroke-linejoin:miter;stroke-opacity:0.25;"/>
   </g>
   <g id="patch_13">
    <path clip-path="url(#p18f93b889e)" d="M 125.4035 128634.87206 
L 144.9875 128634.87206 
L 144.9875 164.143584 
L 125.4035 164.143584 
z
" style="fill:#e1812c;stroke:#000000;stroke-linejoin:miter;stroke-opacity:0.25;"/>
   </g>
   <g id="patch_14">
    <path clip-path="url(#p18f93b889e)" d="M 223.3235 128634.87206 
L 242.9075 128634.87206 
L 242.9075 156.380799 
L 223.3235 156.380799 
z
" style="fill:#e1812c;stroke:#000000;stroke-linejoin:miter;stroke-opacity:0.25;"/>
   </g>
   <g id="patch_15">
    <path clip-path="url(#p18f93b889e)" d="M 321.2435 128634.87206 
L 340.8275 128634.87206 
L 340.8275 161.406979 
L 321.2435 161.406979 
z
" style="fill:#e1812c;stroke:#000000;stroke-linejoin:miter;stroke-opacity:0.25;"/>
   </g>
   <g id="patch_16">
    <path clip-path="url(#p18f93b889e)" d="M 419.1635 128634.87206 
L 438.7475 128634.87206 
L 438.7475 156.769109 
L 419.1635 156.769109 
z
" style="fill:#e1812c;stroke:#000000;stroke-linejoin:miter;stroke-opacity:0.25;"/>
   </g>
   <g id="patch_17">
    <path clip-path="url(#p18f93b889e)" d="M 517.0835 128634.87206 
L 536.6675 128634.87206 
L 536.6675 163.753544 
L 517.0835 163.753544 
z
" style="fill:#e1812c;stroke:#000000;stroke-linejoin:miter;stroke-opacity:0.25;"/>
   </g>
   <g id="patch_18">
    <path clip-path="url(#p18f93b889e)" d="M 615.0035 128634.87206 
L 634.5875 128634.87206 
L 634.5875 162.981426 
L 615.0035 162.981426 
z
" style="fill:#e1812c;stroke:#000000;stroke-linejoin:miter;stroke-opacity:0.25;"/>
   </g>
   <g id="patch_19">
    <path clip-path="url(#p18f93b889e)" d="M 712.9235 128634.87206 
L 732.5075 128634.87206 
L 732.5075 163.974286 
L 712.9235 163.974286 
z
" style="fill:#e1812c;stroke:#000000;stroke-linejoin:miter;stroke-opacity:0.25;"/>
   </g>
   <g id="patch_20">
    <path clip-path="url(#p18f93b889e)" d="M 810.8435 128634.87206 
L 830.4275 128634.87206 
L 830.4275 156.673751 
L 810.8435 156.673751 
z
" style="fill:#e1812c;stroke:#000000;stroke-linejoin:miter;stroke-opacity:0.25;"/>
   </g>
   <g id="patch_21">
    <path clip-path="url(#p18f93b889e)" d="M 908.7635 128634.87206 
L 928.3475 128634.87206 
L 928.3475 161.866431 
L 908.7635 161.866431 
z
" style="fill:#e1812c;stroke:#000000;stroke-linejoin:miter;stroke-opacity:0.25;"/>
   </g>
   <g id="patch_22">
    <path clip-path="url(#p18f93b889e)" d="M 1006.6835 128634.87206 
L 1026.2675 128634.87206 
L 1026.2675 162.397702 
L 1006.6835 162.397702 
z
" style="fill:#e1812c;stroke:#000000;stroke-linejoin:miter;stroke-opacity:0.25;"/>
   </g>
   <g id="patch_23">
    <path clip-path="url(#p18f93b889e)" d="M 144.9875 128634.87206 
L 164.5715 128634.87206 
L 164.5715 37.899961 
L 144.9875 37.899961 
z
" style="fill:#3a923a;stroke:#000000;stroke-linejoin:miter;stroke-opacity:0.25;"/>
   </g>
   <g id="patch_24">
    <path clip-path="url(#p18f93b889e)" d="M 242.9075 128634.87206 
L 262.4915 128634.87206 
L 262.4915 125.049991 
L 242.9075 125.049991 
z
" style="fill:#3a923a;stroke:#000000;stroke-linejoin:miter;stroke-opacity:0.25;"/>
   </g>
   <g id="patch_25">
    <path clip-path="url(#p18f93b889e)" d="M 340.8275 128634.87206 
L 360.4115 128634.87206 
L 360.4115 320.810715 
L 340.8275 320.810715 
z
" style="fill:#3a923a;stroke:#000000;stroke-linejoin:miter;stroke-opacity:0.25;"/>
   </g>
   <g id="patch_26">
    <path clip-path="url(#p18f93b889e)" d="M 438.7475 128634.87206 
L 458.3315 128634.87206 
L 458.3315 296.3919 
L 438.7475 296.3919 
z
" style="fill:#3a923a;stroke:#000000;stroke-linejoin:miter;stroke-opacity:0.25;"/>
   </g>
   <g id="patch_27">
    <path clip-path="url(#p18f93b889e)" d="M 536.6675 128634.87206 
L 556.2515 128634.87206 
L 556.2515 30.336364 
L 536.6675 30.336364 
z
" style="fill:#3a923a;stroke:#000000;stroke-linejoin:miter;stroke-opacity:0.25;"/>
   </g>
   <g id="patch_28">
    <path clip-path="url(#p18f93b889e)" d="M 634.5875 128634.87206 
L 654.1715 128634.87206 
L 654.1715 293.994393 
L 634.5875 293.994393 
z
" style="fill:#3a923a;stroke:#000000;stroke-linejoin:miter;stroke-opacity:0.25;"/>
   </g>
   <g id="patch_29">
    <path clip-path="url(#p18f93b889e)" d="M 732.5075 128634.87206 
L 752.0915 128634.87206 
L 752.0915 183.312859 
L 732.5075 183.312859 
z
" style="fill:#3a923a;stroke:#000000;stroke-linejoin:miter;stroke-opacity:0.25;"/>
   </g>
   <g id="patch_30">
    <path clip-path="url(#p18f93b889e)" d="M 830.4275 128634.87206 
L 850.0115 128634.87206 
L 850.0115 397.928185 
L 830.4275 397.928185 
z
" style="fill:#3a923a;stroke:#000000;stroke-linejoin:miter;stroke-opacity:0.25;"/>
   </g>
   <g id="patch_31">
    <path clip-path="url(#p18f93b889e)" d="M 928.3475 128634.87206 
L 947.9315 128634.87206 
L 947.9315 294.306034 
L 928.3475 294.306034 
z
" style="fill:#3a923a;stroke:#000000;stroke-linejoin:miter;stroke-opacity:0.25;"/>
   </g>
   <g id="patch_32">
    <path clip-path="url(#p18f93b889e)" d="M 1026.2675 128634.87206 
L 1045.8515 128634.87206 
L 1045.8515 293.345409 
L 1026.2675 293.345409 
z
" style="fill:#3a923a;stroke:#000000;stroke-linejoin:miter;stroke-opacity:0.25;"/>
   </g>
   <g id="patch_33">
    <path clip-path="url(#p18f93b889e)" d="M 164.5715 128634.87206 
L 184.1555 128634.87206 
L 184.1555 393.188058 
L 164.5715 393.188058 
z
" style="fill:#c03d3e;stroke:#000000;stroke-linejoin:miter;stroke-opacity:0.25;"/>
   </g>
   <g id="patch_34">
    <path clip-path="url(#p18f93b889e)" d="M 262.4915 128634.87206 
L 282.0755 128634.87206 
L 282.0755 386.802138 
L 262.4915 386.802138 
z
" style="fill:#c03d3e;stroke:#000000;stroke-linejoin:miter;stroke-opacity:0.25;"/>
   </g>
   <g id="patch_35">
    <path clip-path="url(#p18f93b889e)" d="M 360.4115 128634.87206 
L 379.9955 128634.87206 
L 379.9955 423.063636 
L 360.4115 423.063636 
z
" style="fill:#c03d3e;stroke:#000000;stroke-linejoin:miter;stroke-opacity:0.25;"/>
   </g>
   <g id="patch_36">
    <path clip-path="url(#p18f93b889e)" d="M 458.3315 128634.87206 
L 477.9155 128634.87206 
L 477.9155 399.294806 
L 458.3315 399.294806 
z
" style="fill:#c03d3e;stroke:#000000;stroke-linejoin:miter;stroke-opacity:0.25;"/>
   </g>
   <g id="patch_37">
    <path clip-path="url(#p18f93b889e)" d="M 556.2515 128634.87206 
L 575.8355 128634.87206 
L 575.8355 399.755349 
L 556.2515 399.755349 
z
" style="fill:#c03d3e;stroke:#000000;stroke-linejoin:miter;stroke-opacity:0.25;"/>
   </g>
   <g id="patch_38">
    <path clip-path="url(#p18f93b889e)" d="M 654.1715 128634.87206 
L 673.7555 128634.87206 
L 673.7555 399.338816 
L 654.1715 399.338816 
z
" style="fill:#c03d3e;stroke:#000000;stroke-linejoin:miter;stroke-opacity:0.25;"/>
   </g>
   <g id="patch_39">
    <path clip-path="url(#p18f93b889e)" d="M 752.0915 128634.87206 
L 771.6755 128634.87206 
L 771.6755 405.71175 
L 752.0915 405.71175 
z
" style="fill:#c03d3e;stroke:#000000;stroke-linejoin:miter;stroke-opacity:0.25;"/>
   </g>
   <g id="patch_40">
    <path clip-path="url(#p18f93b889e)" d="M 850.0115 128634.87206 
L 869.5955 128634.87206 
L 869.5955 398.040566 
L 850.0115 398.040566 
z
" style="fill:#c03d3e;stroke:#000000;stroke-linejoin:miter;stroke-opacity:0.25;"/>
   </g>
   <g id="patch_41">
    <path clip-path="url(#p18f93b889e)" d="M 947.9315 128634.87206 
L 967.5155 128634.87206 
L 967.5155 397.980617 
L 947.9315 397.980617 
z
" style="fill:#c03d3e;stroke:#000000;stroke-linejoin:miter;stroke-opacity:0.25;"/>
   </g>
   <g id="patch_42">
    <path clip-path="url(#p18f93b889e)" d="M 1045.8515 128634.87206 
L 1065.4355 128634.87206 
L 1065.4355 398.577225 
L 1045.8515 398.577225 
z
" style="fill:#c03d3e;stroke:#000000;stroke-linejoin:miter;stroke-opacity:0.25;"/>
   </g>
   <g id="matplotlib.axis_1">
    <g id="xtick_1">
     <g id="line2d_1">
      <defs>
       <path d="M 0 0 
L 0 3.5 
" id="m6734819a0e" style="stroke:#000000;stroke-width:0.8;"/>
      </defs>
      <g>
       <use style="stroke:#000000;stroke-width:0.8;" x="144.9875" xlink:href="#m6734819a0e" y="443.7"/>
      </g>
     </g>
     <g id="text_1">
      <!-- pow2 -->
      <defs>
       <path d="M 18.109375 8.203125 
L 18.109375 -20.796875 
L 9.078125 -20.796875 
L 9.078125 54.6875 
L 18.109375 54.6875 
L 18.109375 46.390625 
Q 20.953125 51.265625 25.265625 53.625 
Q 29.59375 56 35.59375 56 
Q 45.5625 56 51.78125 48.09375 
Q 58.015625 40.1875 58.015625 27.296875 
Q 58.015625 14.40625 51.78125 6.484375 
Q 45.5625 -1.421875 35.59375 -1.421875 
Q 29.59375 -1.421875 25.265625 0.953125 
Q 20.953125 3.328125 18.109375 8.203125 
z
M 48.6875 27.296875 
Q 48.6875 37.203125 44.609375 42.84375 
Q 40.53125 48.484375 33.40625 48.484375 
Q 26.265625 48.484375 22.1875 42.84375 
Q 18.109375 37.203125 18.109375 27.296875 
Q 18.109375 17.390625 22.1875 11.75 
Q 26.265625 6.109375 33.40625 6.109375 
Q 40.53125 6.109375 44.609375 11.75 
Q 48.6875 17.390625 48.6875 27.296875 
z
" id="DejaVuSans-70"/>
       <path d="M 30.609375 48.390625 
Q 23.390625 48.390625 19.1875 42.75 
Q 14.984375 37.109375 14.984375 27.296875 
Q 14.984375 17.484375 19.15625 11.84375 
Q 23.34375 6.203125 30.609375 6.203125 
Q 37.796875 6.203125 41.984375 11.859375 
Q 46.1875 17.53125 46.1875 27.296875 
Q 46.1875 37.015625 41.984375 42.703125 
Q 37.796875 48.390625 30.609375 48.390625 
z
M 30.609375 56 
Q 42.328125 56 49.015625 48.375 
Q 55.71875 40.765625 55.71875 27.296875 
Q 55.71875 13.875 49.015625 6.21875 
Q 42.328125 -1.421875 30.609375 -1.421875 
Q 18.84375 -1.421875 12.171875 6.21875 
Q 5.515625 13.875 5.515625 27.296875 
Q 5.515625 40.765625 12.171875 48.375 
Q 18.84375 56 30.609375 56 
z
" id="DejaVuSans-6f"/>
       <path d="M 4.203125 54.6875 
L 13.1875 54.6875 
L 24.421875 12.015625 
L 35.59375 54.6875 
L 46.1875 54.6875 
L 57.421875 12.015625 
L 68.609375 54.6875 
L 77.59375 54.6875 
L 63.28125 0 
L 52.6875 0 
L 40.921875 44.828125 
L 29.109375 0 
L 18.5 0 
z
" id="DejaVuSans-77"/>
       <path d="M 19.1875 8.296875 
L 53.609375 8.296875 
L 53.609375 0 
L 7.328125 0 
L 7.328125 8.296875 
Q 12.9375 14.109375 22.625 23.890625 
Q 32.328125 33.6875 34.8125 36.53125 
Q 39.546875 41.84375 41.421875 45.53125 
Q 43.3125 49.21875 43.3125 52.78125 
Q 43.3125 58.59375 39.234375 62.25 
Q 35.15625 65.921875 28.609375 65.921875 
Q 23.96875 65.921875 18.8125 64.3125 
Q 13.671875 62.703125 7.8125 59.421875 
L 7.8125 69.390625 
Q 13.765625 71.78125 18.9375 73 
Q 24.125 74.21875 28.421875 74.21875 
Q 39.75 74.21875 46.484375 68.546875 
Q 53.21875 62.890625 53.21875 53.421875 
Q 53.21875 48.921875 51.53125 44.890625 
Q 49.859375 40.875 45.40625 35.40625 
Q 44.1875 33.984375 37.640625 27.21875 
Q 31.109375 20.453125 19.1875 8.296875 
z
" id="DejaVuSans-32"/>
      </defs>
      <g transform="translate(123.38125 462.8575)scale(0.16 -0.16)">
       <use xlink:href="#DejaVuSans-70"/>
       <use x="63.476562" xlink:href="#DejaVuSans-6f"/>
       <use x="124.658203" xlink:href="#DejaVuSans-77"/>
       <use x="206.445312" xlink:href="#DejaVuSans-32"/>
      </g>
     </g>
    </g>
    <g id="xtick_2">
     <g id="line2d_2">
      <g>
       <use style="stroke:#000000;stroke-width:0.8;" x="242.9075" xlink:href="#m6734819a0e" y="443.7"/>
      </g>
     </g>
     <g id="text_2">
      <!-- exp -->
      <defs>
       <path d="M 56.203125 29.59375 
L 56.203125 25.203125 
L 14.890625 25.203125 
Q 15.484375 15.921875 20.484375 11.0625 
Q 25.484375 6.203125 34.421875 6.203125 
Q 39.59375 6.203125 44.453125 7.46875 
Q 49.3125 8.734375 54.109375 11.28125 
L 54.109375 2.78125 
Q 49.265625 0.734375 44.1875 -0.34375 
Q 39.109375 -1.421875 33.890625 -1.421875 
Q 20.796875 -1.421875 13.15625 6.1875 
Q 5.515625 13.8125 5.515625 26.8125 
Q 5.515625 40.234375 12.765625 48.109375 
Q 20.015625 56 32.328125 56 
Q 43.359375 56 49.78125 48.890625 
Q 56.203125 41.796875 56.203125 29.59375 
z
M 47.21875 32.234375 
Q 47.125 39.59375 43.09375 43.984375 
Q 39.0625 48.390625 32.421875 48.390625 
Q 24.90625 48.390625 20.390625 44.140625 
Q 15.875 39.890625 15.1875 32.171875 
z
" id="DejaVuSans-65"/>
       <path d="M 54.890625 54.6875 
L 35.109375 28.078125 
L 55.90625 0 
L 45.3125 0 
L 29.390625 21.484375 
L 13.484375 0 
L 2.875 0 
L 24.125 28.609375 
L 4.6875 54.6875 
L 15.28125 54.6875 
L 29.78125 35.203125 
L 44.28125 54.6875 
z
" id="DejaVuSans-78"/>
      </defs>
      <g transform="translate(228.1725 462.8575)scale(0.16 -0.16)">
       <use xlink:href="#DejaVuSans-65"/>
       <use x="61.507812" xlink:href="#DejaVuSans-78"/>
       <use x="120.6875" xlink:href="#DejaVuSans-70"/>
      </g>
     </g>
    </g>
    <g id="xtick_3">
     <g id="line2d_3">
      <g>
       <use style="stroke:#000000;stroke-width:0.8;" x="340.8275" xlink:href="#m6734819a0e" y="443.7"/>
      </g>
     </g>
     <g id="text_3">
      <!-- pow -->
      <g transform="translate(324.31125 462.8575)scale(0.16 -0.16)">
       <use xlink:href="#DejaVuSans-70"/>
       <use x="63.476562" xlink:href="#DejaVuSans-6f"/>
       <use x="124.658203" xlink:href="#DejaVuSans-77"/>
      </g>
     </g>
    </g>
    <g id="xtick_4">
     <g id="line2d_4">
      <g>
       <use style="stroke:#000000;stroke-width:0.8;" x="438.7475" xlink:href="#m6734819a0e" y="443.7"/>
      </g>
     </g>
     <g id="text_4">
      <!-- log2 -->
      <defs>
       <path d="M 9.421875 75.984375 
L 18.40625 75.984375 
L 18.40625 0 
L 9.421875 0 
z
" id="DejaVuSans-6c"/>
       <path d="M 45.40625 27.984375 
Q 45.40625 37.75 41.375 43.109375 
Q 37.359375 48.484375 30.078125 48.484375 
Q 22.859375 48.484375 18.828125 43.109375 
Q 14.796875 37.75 14.796875 27.984375 
Q 14.796875 18.265625 18.828125 12.890625 
Q 22.859375 7.515625 30.078125 7.515625 
Q 37.359375 7.515625 41.375 12.890625 
Q 45.40625 18.265625 45.40625 27.984375 
z
M 54.390625 6.78125 
Q 54.390625 -7.171875 48.1875 -13.984375 
Q 42 -20.796875 29.203125 -20.796875 
Q 24.46875 -20.796875 20.265625 -20.09375 
Q 16.0625 -19.390625 12.109375 -17.921875 
L 12.109375 -9.1875 
Q 16.0625 -11.328125 19.921875 -12.34375 
Q 23.78125 -13.375 27.78125 -13.375 
Q 36.625 -13.375 41.015625 -8.765625 
Q 45.40625 -4.15625 45.40625 5.171875 
L 45.40625 9.625 
Q 42.625 4.78125 38.28125 2.390625 
Q 33.9375 0 27.875 0 
Q 17.828125 0 11.671875 7.65625 
Q 5.515625 15.328125 5.515625 27.984375 
Q 5.515625 40.671875 11.671875 48.328125 
Q 17.828125 56 27.875 56 
Q 33.9375 56 38.28125 53.609375 
Q 42.625 51.21875 45.40625 46.390625 
L 45.40625 54.6875 
L 54.390625 54.6875 
z
" id="DejaVuSans-67"/>
      </defs>
      <g transform="translate(421.46125 462.8575)scale(0.16 -0.16)">
       <use xlink:href="#DejaVuSans-6c"/>
       <use x="27.783203" xlink:href="#DejaVuSans-6f"/>
       <use x="88.964844" xlink:href="#DejaVuSans-67"/>
       <use x="152.441406" xlink:href="#DejaVuSans-32"/>
      </g>
     </g>
    </g>
    <g id="xtick_5">
     <g id="line2d_5">
      <g>
       <use style="stroke:#000000;stroke-width:0.8;" x="536.6675" xlink:href="#m6734819a0e" y="443.7"/>
      </g>
     </g>
     <g id="text_5">
      <!-- log10 -->
      <defs>
       <path d="M 12.40625 8.296875 
L 28.515625 8.296875 
L 28.515625 63.921875 
L 10.984375 60.40625 
L 10.984375 69.390625 
L 28.421875 72.90625 
L 38.28125 72.90625 
L 38.28125 8.296875 
L 54.390625 8.296875 
L 54.390625 0 
L 12.40625 0 
z
" id="DejaVuSans-31"/>
       <path d="M 31.78125 66.40625 
Q 24.171875 66.40625 20.328125 58.90625 
Q 16.5 51.421875 16.5 36.375 
Q 16.5 21.390625 20.328125 13.890625 
Q 24.171875 6.390625 31.78125 6.390625 
Q 39.453125 6.390625 43.28125 13.890625 
Q 47.125 21.390625 47.125 36.375 
Q 47.125 51.421875 43.28125 58.90625 
Q 39.453125 66.40625 31.78125 66.40625 
z
M 31.78125 74.21875 
Q 44.046875 74.21875 50.515625 64.515625 
Q 56.984375 54.828125 56.984375 36.375 
Q 56.984375 17.96875 50.515625 8.265625 
Q 44.046875 -1.421875 31.78125 -1.421875 
Q 19.53125 -1.421875 13.0625 8.265625 
Q 6.59375 17.96875 6.59375 36.375 
Q 6.59375 54.828125 13.0625 64.515625 
Q 19.53125 74.21875 31.78125 74.21875 
z
" id="DejaVuSans-30"/>
      </defs>
      <g transform="translate(514.29125 462.8575)scale(0.16 -0.16)">
       <use xlink:href="#DejaVuSans-6c"/>
       <use x="27.783203" xlink:href="#DejaVuSans-6f"/>
       <use x="88.964844" xlink:href="#DejaVuSans-67"/>
       <use x="152.441406" xlink:href="#DejaVuSans-31"/>
       <use x="216.064453" xlink:href="#DejaVuSans-30"/>
      </g>
     </g>
    </g>
    <g id="xtick_6">
     <g id="line2d_6">
      <g>
       <use style="stroke:#000000;stroke-width:0.8;" x="634.5875" xlink:href="#m6734819a0e" y="443.7"/>
      </g>
     </g>
     <g id="text_6">
      <!-- log -->
      <g transform="translate(622.39125 462.8575)scale(0.16 -0.16)">
       <use xlink:href="#DejaVuSans-6c"/>
       <use x="27.783203" xlink:href="#DejaVuSans-6f"/>
       <use x="88.964844" xlink:href="#DejaVuSans-67"/>
      </g>
     </g>
    </g>
    <g id="xtick_7">
     <g id="line2d_7">
      <g>
       <use style="stroke:#000000;stroke-width:0.8;" x="732.5075" xlink:href="#m6734819a0e" y="443.7"/>
      </g>
     </g>
     <g id="text_7">
      <!-- atanh -->
      <defs>
       <path d="M 34.28125 27.484375 
Q 23.390625 27.484375 19.1875 25 
Q 14.984375 22.515625 14.984375 16.5 
Q 14.984375 11.71875 18.140625 8.90625 
Q 21.296875 6.109375 26.703125 6.109375 
Q 34.1875 6.109375 38.703125 11.40625 
Q 43.21875 16.703125 43.21875 25.484375 
L 43.21875 27.484375 
z
M 52.203125 31.203125 
L 52.203125 0 
L 43.21875 0 
L 43.21875 8.296875 
Q 40.140625 3.328125 35.546875 0.953125 
Q 30.953125 -1.421875 24.3125 -1.421875 
Q 15.921875 -1.421875 10.953125 3.296875 
Q 6 8.015625 6 15.921875 
Q 6 25.140625 12.171875 29.828125 
Q 18.359375 34.515625 30.609375 34.515625 
L 43.21875 34.515625 
L 43.21875 35.40625 
Q 43.21875 41.609375 39.140625 45 
Q 35.0625 48.390625 27.6875 48.390625 
Q 23 48.390625 18.546875 47.265625 
Q 14.109375 46.140625 10.015625 43.890625 
L 10.015625 52.203125 
Q 14.9375 54.109375 19.578125 55.046875 
Q 24.21875 56 28.609375 56 
Q 40.484375 56 46.34375 49.84375 
Q 52.203125 43.703125 52.203125 31.203125 
z
" id="DejaVuSans-61"/>
       <path d="M 18.3125 70.21875 
L 18.3125 54.6875 
L 36.8125 54.6875 
L 36.8125 47.703125 
L 18.3125 47.703125 
L 18.3125 18.015625 
Q 18.3125 11.328125 20.140625 9.421875 
Q 21.96875 7.515625 27.59375 7.515625 
L 36.8125 7.515625 
L 36.8125 0 
L 27.59375 0 
Q 17.1875 0 13.234375 3.875 
Q 9.28125 7.765625 9.28125 18.015625 
L 9.28125 47.703125 
L 2.6875 47.703125 
L 2.6875 54.6875 
L 9.28125 54.6875 
L 9.28125 70.21875 
z
" id="DejaVuSans-74"/>
       <path d="M 54.890625 33.015625 
L 54.890625 0 
L 45.90625 0 
L 45.90625 32.71875 
Q 45.90625 40.484375 42.875 44.328125 
Q 39.84375 48.1875 33.796875 48.1875 
Q 26.515625 48.1875 22.3125 43.546875 
Q 18.109375 38.921875 18.109375 30.90625 
L 18.109375 0 
L 9.078125 0 
L 9.078125 54.6875 
L 18.109375 54.6875 
L 18.109375 46.1875 
Q 21.34375 51.125 25.703125 53.5625 
Q 30.078125 56 35.796875 56 
Q 45.21875 56 50.046875 50.171875 
Q 54.890625 44.34375 54.890625 33.015625 
z
" id="DejaVuSans-6e"/>
       <path d="M 54.890625 33.015625 
L 54.890625 0 
L 45.90625 0 
L 45.90625 32.71875 
Q 45.90625 40.484375 42.875 44.328125 
Q 39.84375 48.1875 33.796875 48.1875 
Q 26.515625 48.1875 22.3125 43.546875 
Q 18.109375 38.921875 18.109375 30.90625 
L 18.109375 0 
L 9.078125 0 
L 9.078125 75.984375 
L 18.109375 75.984375 
L 18.109375 46.1875 
Q 21.34375 51.125 25.703125 53.5625 
Q 30.078125 56 35.796875 56 
Q 45.21875 56 50.046875 50.171875 
Q 54.890625 44.34375 54.890625 33.015625 
z
" id="DejaVuSans-68"/>
      </defs>
      <g transform="translate(709.42625 462.8575)scale(0.16 -0.16)">
       <use xlink:href="#DejaVuSans-61"/>
       <use x="61.279297" xlink:href="#DejaVuSans-74"/>
       <use x="100.488281" xlink:href="#DejaVuSans-61"/>
       <use x="161.767578" xlink:href="#DejaVuSans-6e"/>
       <use x="225.146484" xlink:href="#DejaVuSans-68"/>
      </g>
     </g>
    </g>
    <g id="xtick_8">
     <g id="line2d_8">
      <g>
       <use style="stroke:#000000;stroke-width:0.8;" x="830.4275" xlink:href="#m6734819a0e" y="443.7"/>
      </g>
     </g>
     <g id="text_8">
      <!-- tanh -->
      <g transform="translate(812.24875 462.8575)scale(0.16 -0.16)">
       <use xlink:href="#DejaVuSans-74"/>
       <use x="39.208984" xlink:href="#DejaVuSans-61"/>
       <use x="100.488281" xlink:href="#DejaVuSans-6e"/>
       <use x="163.867188" xlink:href="#DejaVuSans-68"/>
      </g>
     </g>
    </g>
    <g id="xtick_9">
     <g id="line2d_9">
      <g>
       <use style="stroke:#000000;stroke-width:0.8;" x="928.3475" xlink:href="#m6734819a0e" y="443.7"/>
      </g>
     </g>
     <g id="text_9">
      <!-- sqrt -->
      <defs>
       <path d="M 44.28125 53.078125 
L 44.28125 44.578125 
Q 40.484375 46.53125 36.375 47.5 
Q 32.28125 48.484375 27.875 48.484375 
Q 21.1875 48.484375 17.84375 46.4375 
Q 14.5 44.390625 14.5 40.28125 
Q 14.5 37.15625 16.890625 35.375 
Q 19.28125 33.59375 26.515625 31.984375 
L 29.59375 31.296875 
Q 39.15625 29.25 43.1875 25.515625 
Q 47.21875 21.78125 47.21875 15.09375 
Q 47.21875 7.46875 41.1875 3.015625 
Q 35.15625 -1.421875 24.609375 -1.421875 
Q 20.21875 -1.421875 15.453125 -0.5625 
Q 10.6875 0.296875 5.421875 2 
L 5.421875 11.28125 
Q 10.40625 8.6875 15.234375 7.390625 
Q 20.0625 6.109375 24.8125 6.109375 
Q 31.15625 6.109375 34.5625 8.28125 
Q 37.984375 10.453125 37.984375 14.40625 
Q 37.984375 18.0625 35.515625 20.015625 
Q 33.0625 21.96875 24.703125 23.78125 
L 21.578125 24.515625 
Q 13.234375 26.265625 9.515625 29.90625 
Q 5.8125 33.546875 5.8125 39.890625 
Q 5.8125 47.609375 11.28125 51.796875 
Q 16.75 56 26.8125 56 
Q 31.78125 56 36.171875 55.265625 
Q 40.578125 54.546875 44.28125 53.078125 
z
" id="DejaVuSans-73"/>
       <path d="M 14.796875 27.296875 
Q 14.796875 17.390625 18.875 11.75 
Q 22.953125 6.109375 30.078125 6.109375 
Q 37.203125 6.109375 41.296875 11.75 
Q 45.40625 17.390625 45.40625 27.296875 
Q 45.40625 37.203125 41.296875 42.84375 
Q 37.203125 48.484375 30.078125 48.484375 
Q 22.953125 48.484375 18.875 42.84375 
Q 14.796875 37.203125 14.796875 27.296875 
z
M 45.40625 8.203125 
Q 42.578125 3.328125 38.25 0.953125 
Q 33.9375 -1.421875 27.875 -1.421875 
Q 17.96875 -1.421875 11.734375 6.484375 
Q 5.515625 14.40625 5.515625 27.296875 
Q 5.515625 40.1875 11.734375 48.09375 
Q 17.96875 56 27.875 56 
Q 33.9375 56 38.25 53.625 
Q 42.578125 51.265625 45.40625 46.390625 
L 45.40625 54.6875 
L 54.390625 54.6875 
L 54.390625 -20.796875 
L 45.40625 -20.796875 
z
" id="DejaVuSans-71"/>
       <path d="M 41.109375 46.296875 
Q 39.59375 47.171875 37.8125 47.578125 
Q 36.03125 48 33.890625 48 
Q 26.265625 48 22.1875 43.046875 
Q 18.109375 38.09375 18.109375 28.8125 
L 18.109375 0 
L 9.078125 0 
L 9.078125 54.6875 
L 18.109375 54.6875 
L 18.109375 46.1875 
Q 20.953125 51.171875 25.484375 53.578125 
Q 30.03125 56 36.53125 56 
Q 37.453125 56 38.578125 55.875 
Q 39.703125 55.765625 41.0625 55.515625 
z
" id="DejaVuSans-72"/>
      </defs>
      <g transform="translate(912.67625 462.8575)scale(0.16 -0.16)">
       <use xlink:href="#DejaVuSans-73"/>
       <use x="52.099609" xlink:href="#DejaVuSans-71"/>
       <use x="115.576172" xlink:href="#DejaVuSans-72"/>
       <use x="156.689453" xlink:href="#DejaVuSans-74"/>
      </g>
     </g>
    </g>
    <g id="xtick_10">
     <g id="line2d_10">
      <g>
       <use style="stroke:#000000;stroke-width:0.8;" x="1026.2675" xlink:href="#m6734819a0e" y="443.7"/>
      </g>
     </g>
     <g id="text_10">
      <!-- rsqrt -->
      <g transform="translate(1007.3075 462.8575)scale(0.16 -0.16)">
       <use xlink:href="#DejaVuSans-72"/>
       <use x="41.113281" xlink:href="#DejaVuSans-73"/>
       <use x="93.212891" xlink:href="#DejaVuSans-71"/>
       <use x="156.689453" xlink:href="#DejaVuSans-72"/>
       <use x="197.802734" xlink:href="#DejaVuSans-74"/>
      </g>
     </g>
    </g>
    <g id="text_11">
     <!-- Functions -->
     <defs>
      <path d="M 9.8125 72.90625 
L 51.703125 72.90625 
L 51.703125 64.59375 
L 19.671875 64.59375 
L 19.671875 43.109375 
L 48.578125 43.109375 
L 48.578125 34.8125 
L 19.671875 34.8125 
L 19.671875 0 
L 9.8125 0 
z
" id="DejaVuSans-46"/>
      <path d="M 8.5 21.578125 
L 8.5 54.6875 
L 17.484375 54.6875 
L 17.484375 21.921875 
Q 17.484375 14.15625 20.5 10.265625 
Q 23.53125 6.390625 29.59375 6.390625 
Q 36.859375 6.390625 41.078125 11.03125 
Q 45.3125 15.671875 45.3125 23.6875 
L 45.3125 54.6875 
L 54.296875 54.6875 
L 54.296875 0 
L 45.3125 0 
L 45.3125 8.40625 
Q 42.046875 3.421875 37.71875 1 
Q 33.40625 -1.421875 27.6875 -1.421875 
Q 18.265625 -1.421875 13.375 4.4375 
Q 8.5 10.296875 8.5 21.578125 
z
M 31.109375 56 
z
" id="DejaVuSans-75"/>
      <path d="M 48.78125 52.59375 
L 48.78125 44.1875 
Q 44.96875 46.296875 41.140625 47.34375 
Q 37.3125 48.390625 33.40625 48.390625 
Q 24.65625 48.390625 19.8125 42.84375 
Q 14.984375 37.3125 14.984375 27.296875 
Q 14.984375 17.28125 19.8125 11.734375 
Q 24.65625 6.203125 33.40625 6.203125 
Q 37.3125 6.203125 41.140625 7.25 
Q 44.96875 8.296875 48.78125 10.40625 
L 48.78125 2.09375 
Q 45.015625 0.34375 40.984375 -0.53125 
Q 36.96875 -1.421875 32.421875 -1.421875 
Q 20.0625 -1.421875 12.78125 6.34375 
Q 5.515625 14.109375 5.515625 27.296875 
Q 5.515625 40.671875 12.859375 48.328125 
Q 20.21875 56 33.015625 56 
Q 37.15625 56 41.109375 55.140625 
Q 45.0625 54.296875 48.78125 52.59375 
z
" id="DejaVuSans-63"/>
      <path d="M 9.421875 54.6875 
L 18.40625 54.6875 
L 18.40625 0 
L 9.421875 0 
z
M 9.421875 75.984375 
L 18.40625 75.984375 
L 18.40625 64.59375 
L 9.421875 64.59375 
z
" id="DejaVuSans-69"/>
     </defs>
     <g transform="translate(527.69 504.42125)scale(0.24 -0.24)">
      <use xlink:href="#DejaVuSans-46"/>
      <use x="57.441406" xlink:href="#DejaVuSans-75"/>
      <use x="120.820312" xlink:href="#DejaVuSans-6e"/>
      <use x="184.199219" xlink:href="#DejaVuSans-63"/>
      <use x="239.179688" xlink:href="#DejaVuSans-74"/>
      <use x="278.388672" xlink:href="#DejaVuSans-69"/>
      <use x="306.171875" xlink:href="#DejaVuSans-6f"/>
      <use x="367.353516" xlink:href="#DejaVuSans-6e"/>
      <use x="430.732422" xlink:href="#DejaVuSans-73"/>
     </g>
    </g>
   </g>
   <g id="matplotlib.axis_2">
    <g id="ytick_1">
     <g id="line2d_11">
      <defs>
       <path d="M 0 0 
L -3.5 0 
" id="m73ed590c74" style="stroke:#000000;stroke-width:0.8;"/>
      </defs>
      <g>
       <use style="stroke:#000000;stroke-width:0.8;" x="95.0275" xlink:href="#m73ed590c74" y="414.017475"/>
      </g>
     </g>
     <g id="text_12">
      <!-- $\mathdefault{10^{-2}}$ -->
      <defs>
       <path d="M 10.59375 35.5 
L 73.1875 35.5 
L 73.1875 27.203125 
L 10.59375 27.203125 
z
" id="DejaVuSans-2212"/>
      </defs>
      <g transform="translate(50.4275 420.096225)scale(0.16 -0.16)">
       <use transform="translate(0 0.765625)" xlink:href="#DejaVuSans-31"/>
       <use transform="translate(63.623047 0.765625)" xlink:href="#DejaVuSans-30"/>
       <use transform="translate(128.203125 39.046875)scale(0.7)" xlink:href="#DejaVuSans-2212"/>
       <use transform="translate(186.855469 39.046875)scale(0.7)" xlink:href="#DejaVuSans-32"/>
      </g>
     </g>
    </g>
    <g id="ytick_2">
     <g id="line2d_12">
      <g>
       <use style="stroke:#000000;stroke-width:0.8;" x="95.0275" xlink:href="#m73ed590c74" y="285.539665"/>
      </g>
     </g>
     <g id="text_13">
      <!-- $\mathdefault{10^{-1}}$ -->
      <g transform="translate(50.4275 291.618415)scale(0.16 -0.16)">
       <use transform="translate(0 0.684375)" xlink:href="#DejaVuSans-31"/>
       <use transform="translate(63.623047 0.684375)" xlink:href="#DejaVuSans-30"/>
       <use transform="translate(128.203125 38.965625)scale(0.7)" xlink:href="#DejaVuSans-2212"/>
       <use transform="translate(186.855469 38.965625)scale(0.7)" xlink:href="#DejaVuSans-31"/>
      </g>
     </g>
    </g>
    <g id="ytick_3">
     <g id="line2d_13">
      <g>
       <use style="stroke:#000000;stroke-width:0.8;" x="95.0275" xlink:href="#m73ed590c74" y="157.061855"/>
      </g>
     </g>
     <g id="text_14">
      <!-- $\mathdefault{10^{0}}$ -->
      <g transform="translate(59.8675 163.140605)scale(0.16 -0.16)">
       <use transform="translate(0 0.765625)" xlink:href="#DejaVuSans-31"/>
       <use transform="translate(63.623047 0.765625)" xlink:href="#DejaVuSans-30"/>
       <use transform="translate(128.203125 39.046875)scale(0.7)" xlink:href="#DejaVuSans-30"/>
      </g>
     </g>
    </g>
    <g id="ytick_4">
     <g id="line2d_14">
      <g>
       <use style="stroke:#000000;stroke-width:0.8;" x="95.0275" xlink:href="#m73ed590c74" y="28.584045"/>
      </g>
     </g>
     <g id="text_15">
      <!-- $\mathdefault{10^{1}}$ -->
      <g transform="translate(59.8675 34.662795)scale(0.16 -0.16)">
       <use transform="translate(0 0.684375)" xlink:href="#DejaVuSans-31"/>
       <use transform="translate(63.623047 0.684375)" xlink:href="#DejaVuSans-30"/>
       <use transform="translate(128.203125 38.965625)scale(0.7)" xlink:href="#DejaVuSans-31"/>
      </g>
     </g>
    </g>
    <g id="ytick_5">
     <g id="line2d_15">
      <defs>
       <path d="M 0 0 
L -2 0 
" id="m5aed31cd16" style="stroke:#000000;stroke-width:0.6;"/>
      </defs>
      <g>
       <use style="stroke:#000000;stroke-width:0.6;" x="95.0275" xlink:href="#m5aed31cd16" y="442.520117"/>
      </g>
     </g>
    </g>
    <g id="ytick_6">
     <g id="line2d_16">
      <g>
       <use style="stroke:#000000;stroke-width:0.6;" x="95.0275" xlink:href="#m5aed31cd16" y="433.91894"/>
      </g>
     </g>
    </g>
    <g id="ytick_7">
     <g id="line2d_17">
      <g>
       <use style="stroke:#000000;stroke-width:0.6;" x="95.0275" xlink:href="#m5aed31cd16" y="426.468261"/>
      </g>
     </g>
    </g>
    <g id="ytick_8">
     <g id="line2d_18">
      <g>
       <use style="stroke:#000000;stroke-width:0.6;" x="95.0275" xlink:href="#m5aed31cd16" y="419.896297"/>
      </g>
     </g>
    </g>
    <g id="ytick_9">
     <g id="line2d_19">
      <g>
       <use style="stroke:#000000;stroke-width:0.6;" x="95.0275" xlink:href="#m5aed31cd16" y="375.341801"/>
      </g>
     </g>
    </g>
    <g id="ytick_10">
     <g id="line2d_20">
      <g>
       <use style="stroke:#000000;stroke-width:0.6;" x="95.0275" xlink:href="#m5aed31cd16" y="352.717981"/>
      </g>
     </g>
    </g>
    <g id="ytick_11">
     <g id="line2d_21">
      <g>
       <use style="stroke:#000000;stroke-width:0.6;" x="95.0275" xlink:href="#m5aed31cd16" y="336.666126"/>
      </g>
     </g>
    </g>
    <g id="ytick_12">
     <g id="line2d_22">
      <g>
       <use style="stroke:#000000;stroke-width:0.6;" x="95.0275" xlink:href="#m5aed31cd16" y="324.21534"/>
      </g>
     </g>
    </g>
    <g id="ytick_13">
     <g id="line2d_23">
      <g>
       <use style="stroke:#000000;stroke-width:0.6;" x="95.0275" xlink:href="#m5aed31cd16" y="314.042307"/>
      </g>
     </g>
    </g>
    <g id="ytick_14">
     <g id="line2d_24">
      <g>
       <use style="stroke:#000000;stroke-width:0.6;" x="95.0275" xlink:href="#m5aed31cd16" y="305.44113"/>
      </g>
     </g>
    </g>
    <g id="ytick_15">
     <g id="line2d_25">
      <g>
       <use style="stroke:#000000;stroke-width:0.6;" x="95.0275" xlink:href="#m5aed31cd16" y="297.990451"/>
      </g>
     </g>
    </g>
    <g id="ytick_16">
     <g id="line2d_26">
      <g>
       <use style="stroke:#000000;stroke-width:0.6;" x="95.0275" xlink:href="#m5aed31cd16" y="291.418487"/>
      </g>
     </g>
    </g>
    <g id="ytick_17">
     <g id="line2d_27">
      <g>
       <use style="stroke:#000000;stroke-width:0.6;" x="95.0275" xlink:href="#m5aed31cd16" y="246.86399"/>
      </g>
     </g>
    </g>
    <g id="ytick_18">
     <g id="line2d_28">
      <g>
       <use style="stroke:#000000;stroke-width:0.6;" x="95.0275" xlink:href="#m5aed31cd16" y="224.240171"/>
      </g>
     </g>
    </g>
    <g id="ytick_19">
     <g id="line2d_29">
      <g>
       <use style="stroke:#000000;stroke-width:0.6;" x="95.0275" xlink:href="#m5aed31cd16" y="208.188316"/>
      </g>
     </g>
    </g>
    <g id="ytick_20">
     <g id="line2d_30">
      <g>
       <use style="stroke:#000000;stroke-width:0.6;" x="95.0275" xlink:href="#m5aed31cd16" y="195.737529"/>
      </g>
     </g>
    </g>
    <g id="ytick_21">
     <g id="line2d_31">
      <g>
       <use style="stroke:#000000;stroke-width:0.6;" x="95.0275" xlink:href="#m5aed31cd16" y="185.564496"/>
      </g>
     </g>
    </g>
    <g id="ytick_22">
     <g id="line2d_32">
      <g>
       <use style="stroke:#000000;stroke-width:0.6;" x="95.0275" xlink:href="#m5aed31cd16" y="176.963319"/>
      </g>
     </g>
    </g>
    <g id="ytick_23">
     <g id="line2d_33">
      <g>
       <use style="stroke:#000000;stroke-width:0.6;" x="95.0275" xlink:href="#m5aed31cd16" y="169.512641"/>
      </g>
     </g>
    </g>
    <g id="ytick_24">
     <g id="line2d_34">
      <g>
       <use style="stroke:#000000;stroke-width:0.6;" x="95.0275" xlink:href="#m5aed31cd16" y="162.940677"/>
      </g>
     </g>
    </g>
    <g id="ytick_25">
     <g id="line2d_35">
      <g>
       <use style="stroke:#000000;stroke-width:0.6;" x="95.0275" xlink:href="#m5aed31cd16" y="118.38618"/>
      </g>
     </g>
    </g>
    <g id="ytick_26">
     <g id="line2d_36">
      <g>
       <use style="stroke:#000000;stroke-width:0.6;" x="95.0275" xlink:href="#m5aed31cd16" y="95.762361"/>
      </g>
     </g>
    </g>
    <g id="ytick_27">
     <g id="line2d_37">
      <g>
       <use style="stroke:#000000;stroke-width:0.6;" x="95.0275" xlink:href="#m5aed31cd16" y="79.710506"/>
      </g>
     </g>
    </g>
    <g id="ytick_28">
     <g id="line2d_38">
      <g>
       <use style="stroke:#000000;stroke-width:0.6;" x="95.0275" xlink:href="#m5aed31cd16" y="67.259719"/>
      </g>
     </g>
    </g>
    <g id="ytick_29">
     <g id="line2d_39">
      <g>
       <use style="stroke:#000000;stroke-width:0.6;" x="95.0275" xlink:href="#m5aed31cd16" y="57.086686"/>
      </g>
     </g>
    </g>
    <g id="ytick_30">
     <g id="line2d_40">
      <g>
       <use style="stroke:#000000;stroke-width:0.6;" x="95.0275" xlink:href="#m5aed31cd16" y="48.485509"/>
      </g>
     </g>
    </g>
    <g id="ytick_31">
     <g id="line2d_41">
      <g>
       <use style="stroke:#000000;stroke-width:0.6;" x="95.0275" xlink:href="#m5aed31cd16" y="41.034831"/>
      </g>
     </g>
    </g>
    <g id="ytick_32">
     <g id="line2d_42">
      <g>
       <use style="stroke:#000000;stroke-width:0.6;" x="95.0275" xlink:href="#m5aed31cd16" y="34.462867"/>
      </g>
     </g>
    </g>
    <g id="text_16">
     <!-- SpeedUp -->
     <defs>
      <path d="M 53.515625 70.515625 
L 53.515625 60.890625 
Q 47.90625 63.578125 42.921875 64.890625 
Q 37.9375 66.21875 33.296875 66.21875 
Q 25.25 66.21875 20.875 63.09375 
Q 16.5 59.96875 16.5 54.203125 
Q 16.5 49.359375 19.40625 46.890625 
Q 22.3125 44.4375 30.421875 42.921875 
L 36.375 41.703125 
Q 47.40625 39.59375 52.65625 34.296875 
Q 57.90625 29 57.90625 20.125 
Q 57.90625 9.515625 50.796875 4.046875 
Q 43.703125 -1.421875 29.984375 -1.421875 
Q 24.8125 -1.421875 18.96875 -0.25 
Q 13.140625 0.921875 6.890625 3.21875 
L 6.890625 13.375 
Q 12.890625 10.015625 18.65625 8.296875 
Q 24.421875 6.59375 29.984375 6.59375 
Q 38.421875 6.59375 43.015625 9.90625 
Q 47.609375 13.234375 47.609375 19.390625 
Q 47.609375 24.75 44.3125 27.78125 
Q 41.015625 30.8125 33.5 32.328125 
L 27.484375 33.5 
Q 16.453125 35.6875 11.515625 40.375 
Q 6.59375 45.0625 6.59375 53.421875 
Q 6.59375 63.09375 13.40625 68.65625 
Q 20.21875 74.21875 32.171875 74.21875 
Q 37.3125 74.21875 42.625 73.28125 
Q 47.953125 72.359375 53.515625 70.515625 
z
" id="DejaVuSans-53"/>
      <path d="M 45.40625 46.390625 
L 45.40625 75.984375 
L 54.390625 75.984375 
L 54.390625 0 
L 45.40625 0 
L 45.40625 8.203125 
Q 42.578125 3.328125 38.25 0.953125 
Q 33.9375 -1.421875 27.875 -1.421875 
Q 17.96875 -1.421875 11.734375 6.484375 
Q 5.515625 14.40625 5.515625 27.296875 
Q 5.515625 40.1875 11.734375 48.09375 
Q 17.96875 56 27.875 56 
Q 33.9375 56 38.25 53.625 
Q 42.578125 51.265625 45.40625 46.390625 
z
M 14.796875 27.296875 
Q 14.796875 17.390625 18.875 11.75 
Q 22.953125 6.109375 30.078125 6.109375 
Q 37.203125 6.109375 41.296875 11.75 
Q 45.40625 17.390625 45.40625 27.296875 
Q 45.40625 37.203125 41.296875 42.84375 
Q 37.203125 48.484375 30.078125 48.484375 
Q 22.953125 48.484375 18.875 42.84375 
Q 14.796875 37.203125 14.796875 27.296875 
z
" id="DejaVuSans-64"/>
      <path d="M 8.6875 72.90625 
L 18.609375 72.90625 
L 18.609375 28.609375 
Q 18.609375 16.890625 22.84375 11.734375 
Q 27.09375 6.59375 36.625 6.59375 
Q 46.09375 6.59375 50.34375 11.734375 
Q 54.59375 16.890625 54.59375 28.609375 
L 54.59375 72.90625 
L 64.5 72.90625 
L 64.5 27.390625 
Q 64.5 13.140625 57.4375 5.859375 
Q 50.390625 -1.421875 36.625 -1.421875 
Q 22.796875 -1.421875 15.734375 5.859375 
Q 8.6875 13.140625 8.6875 27.390625 
z
" id="DejaVuSans-55"/>
     </defs>
     <g transform="translate(25.43625 280.7225)rotate(-90)scale(0.24 -0.24)">
      <use xlink:href="#DejaVuSans-53"/>
      <use x="63.476562" xlink:href="#DejaVuSans-70"/>
      <use x="126.953125" xlink:href="#DejaVuSans-65"/>
      <use x="188.476562" xlink:href="#DejaVuSans-65"/>
      <use x="250" xlink:href="#DejaVuSans-64"/>
      <use x="313.476562" xlink:href="#DejaVuSans-55"/>
      <use x="386.669922" xlink:href="#DejaVuSans-70"/>
     </g>
    </g>
   </g>
   <g id="LineCollection_1">
    <path clip-path="url(#p18f93b889e)" d="M -1 157.061855 
L 1086.9275 157.061855 
" style="fill:none;stroke:#000000;stroke-dasharray:14.8,6.4;stroke-dashoffset:0;stroke-opacity:0.25;stroke-width:4;"/>
   </g>
   <g id="line2d_43">
    <path clip-path="url(#p18f93b889e)" d="M 0 0 
" style="fill:none;stroke:#424242;stroke-linecap:square;stroke-width:2.7;"/>
   </g>
   <g id="line2d_44">
    <path clip-path="url(#p18f93b889e)" d="M 0 0 
" style="fill:none;stroke:#424242;stroke-linecap:square;stroke-width:2.7;"/>
   </g>
   <g id="line2d_45">
    <path clip-path="url(#p18f93b889e)" d="M 0 0 
" style="fill:none;stroke:#424242;stroke-linecap:square;stroke-width:2.7;"/>
   </g>
   <g id="line2d_46">
    <path clip-path="url(#p18f93b889e)" d="M 0 0 
" style="fill:none;stroke:#424242;stroke-linecap:square;stroke-width:2.7;"/>
   </g>
   <g id="line2d_47">
    <path clip-path="url(#p18f93b889e)" d="M 0 0 
" style="fill:none;stroke:#424242;stroke-linecap:square;stroke-width:2.7;"/>
   </g>
   <g id="line2d_48">
    <path clip-path="url(#p18f93b889e)" d="M 0 0 
" style="fill:none;stroke:#424242;stroke-linecap:square;stroke-width:2.7;"/>
   </g>
   <g id="line2d_49">
    <path clip-path="url(#p18f93b889e)" d="M 0 0 
" style="fill:none;stroke:#424242;stroke-linecap:square;stroke-width:2.7;"/>
   </g>
   <g id="line2d_50">
    <path clip-path="url(#p18f93b889e)" d="M 0 0 
" style="fill:none;stroke:#424242;stroke-linecap:square;stroke-width:2.7;"/>
   </g>
   <g id="line2d_51">
    <path clip-path="url(#p18f93b889e)" d="M 0 0 
" style="fill:none;stroke:#424242;stroke-linecap:square;stroke-width:2.7;"/>
   </g>
   <g id="line2d_52">
    <path clip-path="url(#p18f93b889e)" d="M 0 0 
" style="fill:none;stroke:#424242;stroke-linecap:square;stroke-width:2.7;"/>
   </g>
   <g id="line2d_53">
    <path clip-path="url(#p18f93b889e)" d="M 0 0 
" style="fill:none;stroke:#424242;stroke-linecap:square;stroke-width:2.7;"/>
   </g>
   <g id="line2d_54">
    <path clip-path="url(#p18f93b889e)" d="M 0 0 
" style="fill:none;stroke:#424242;stroke-linecap:square;stroke-width:2.7;"/>
   </g>
   <g id="line2d_55">
    <path clip-path="url(#p18f93b889e)" d="M 0 0 
" style="fill:none;stroke:#424242;stroke-linecap:square;stroke-width:2.7;"/>
   </g>
   <g id="line2d_56">
    <path clip-path="url(#p18f93b889e)" d="M 0 0 
" style="fill:none;stroke:#424242;stroke-linecap:square;stroke-width:2.7;"/>
   </g>
   <g id="line2d_57">
    <path clip-path="url(#p18f93b889e)" d="M 0 0 
" style="fill:none;stroke:#424242;stroke-linecap:square;stroke-width:2.7;"/>
   </g>
   <g id="line2d_58">
    <path clip-path="url(#p18f93b889e)" d="M 0 0 
" style="fill:none;stroke:#424242;stroke-linecap:square;stroke-width:2.7;"/>
   </g>
   <g id="line2d_59">
    <path clip-path="url(#p18f93b889e)" d="M 0 0 
" style="fill:none;stroke:#424242;stroke-linecap:square;stroke-width:2.7;"/>
   </g>
   <g id="line2d_60">
    <path clip-path="url(#p18f93b889e)" d="M 0 0 
" style="fill:none;stroke:#424242;stroke-linecap:square;stroke-width:2.7;"/>
   </g>
   <g id="line2d_61">
    <path clip-path="url(#p18f93b889e)" d="M 0 0 
" style="fill:none;stroke:#424242;stroke-linecap:square;stroke-width:2.7;"/>
   </g>
   <g id="line2d_62">
    <path clip-path="url(#p18f93b889e)" d="M 0 0 
" style="fill:none;stroke:#424242;stroke-linecap:square;stroke-width:2.7;"/>
   </g>
   <g id="line2d_63">
    <path clip-path="url(#p18f93b889e)" d="M 0 0 
" style="fill:none;stroke:#424242;stroke-linecap:square;stroke-width:2.7;"/>
   </g>
   <g id="line2d_64">
    <path clip-path="url(#p18f93b889e)" d="M 0 0 
" style="fill:none;stroke:#424242;stroke-linecap:square;stroke-width:2.7;"/>
   </g>
   <g id="line2d_65">
    <path clip-path="url(#p18f93b889e)" d="M 0 0 
" style="fill:none;stroke:#424242;stroke-linecap:square;stroke-width:2.7;"/>
   </g>
   <g id="line2d_66">
    <path clip-path="url(#p18f93b889e)" d="M 0 0 
" style="fill:none;stroke:#424242;stroke-linecap:square;stroke-width:2.7;"/>
   </g>
   <g id="line2d_67">
    <path clip-path="url(#p18f93b889e)" d="M 0 0 
" style="fill:none;stroke:#424242;stroke-linecap:square;stroke-width:2.7;"/>
   </g>
   <g id="line2d_68">
    <path clip-path="url(#p18f93b889e)" d="M 0 0 
" style="fill:none;stroke:#424242;stroke-linecap:square;stroke-width:2.7;"/>
   </g>
   <g id="line2d_69">
    <path clip-path="url(#p18f93b889e)" d="M 0 0 
" style="fill:none;stroke:#424242;stroke-linecap:square;stroke-width:2.7;"/>
   </g>
   <g id="line2d_70">
    <path clip-path="url(#p18f93b889e)" d="M 0 0 
" style="fill:none;stroke:#424242;stroke-linecap:square;stroke-width:2.7;"/>
   </g>
   <g id="line2d_71">
    <path clip-path="url(#p18f93b889e)" d="M 0 0 
" style="fill:none;stroke:#424242;stroke-linecap:square;stroke-width:2.7;"/>
   </g>
   <g id="line2d_72">
    <path clip-path="url(#p18f93b889e)" d="M 0 0 
" style="fill:none;stroke:#424242;stroke-linecap:square;stroke-width:2.7;"/>
   </g>
   <g id="line2d_73">
    <path clip-path="url(#p18f93b889e)" d="M 0 0 
" style="fill:none;stroke:#424242;stroke-linecap:square;stroke-width:2.7;"/>
   </g>
   <g id="line2d_74">
    <path clip-path="url(#p18f93b889e)" d="M 0 0 
" style="fill:none;stroke:#424242;stroke-linecap:square;stroke-width:2.7;"/>
   </g>
   <g id="line2d_75">
    <path clip-path="url(#p18f93b889e)" d="M 0 0 
" style="fill:none;stroke:#424242;stroke-linecap:square;stroke-width:2.7;"/>
   </g>
   <g id="line2d_76">
    <path clip-path="url(#p18f93b889e)" d="M 0 0 
" style="fill:none;stroke:#424242;stroke-linecap:square;stroke-width:2.7;"/>
   </g>
   <g id="line2d_77">
    <path clip-path="url(#p18f93b889e)" d="M 0 0 
" style="fill:none;stroke:#424242;stroke-linecap:square;stroke-width:2.7;"/>
   </g>
   <g id="line2d_78">
    <path clip-path="url(#p18f93b889e)" d="M 0 0 
" style="fill:none;stroke:#424242;stroke-linecap:square;stroke-width:2.7;"/>
   </g>
   <g id="line2d_79">
    <path clip-path="url(#p18f93b889e)" d="M 0 0 
" style="fill:none;stroke:#424242;stroke-linecap:square;stroke-width:2.7;"/>
   </g>
   <g id="line2d_80">
    <path clip-path="url(#p18f93b889e)" d="M 0 0 
" style="fill:none;stroke:#424242;stroke-linecap:square;stroke-width:2.7;"/>
   </g>
   <g id="line2d_81">
    <path clip-path="url(#p18f93b889e)" d="M 0 0 
" style="fill:none;stroke:#424242;stroke-linecap:square;stroke-width:2.7;"/>
   </g>
   <g id="line2d_82">
    <path clip-path="url(#p18f93b889e)" d="M 0 0 
" style="fill:none;stroke:#424242;stroke-linecap:square;stroke-width:2.7;"/>
   </g>
   <g id="patch_43">
    <path d="M 95.0275 442.7 
L 95.0275 10.7 
" style="fill:none;stroke:#000000;stroke-linecap:square;stroke-linejoin:miter;stroke-width:0.8;"/>
   </g>
   <g id="patch_44">
    <path d="M 96.0275 443.7 
L 1075.2275 443.7 
" style="fill:none;stroke:#000000;stroke-linecap:square;stroke-linejoin:miter;stroke-width:0.8;"/>
   </g>
   <g id="legend_1">
    <g id="patch_45">
     <path d="M 957.55925 106.766 
L 1065.1475 106.766 
Q 1068.0275 106.766 1068.0275 103.886 
L 1068.0275 20.78 
Q 1068.0275 17.9 1065.1475 17.9 
L 957.55925 17.9 
Q 954.67925 17.9 954.67925 20.78 
L 954.67925 103.886 
Q 954.67925 106.766 957.55925 106.766 
z
" style="fill:#ffffff;opacity:0.8;stroke:#cccccc;stroke-linejoin:miter;"/>
    </g>
    <g id="patch_46">
     <path d="M 960.43925 34.60175 
L 989.23925 34.60175 
L 989.23925 24.52175 
L 960.43925 24.52175 
z
" style="fill:#3274a1;stroke:#000000;stroke-linejoin:miter;stroke-opacity:0.25;"/>
    </g>
    <g id="text_17">
     <!-- NumPy -->
     <defs>
      <path d="M 9.8125 72.90625 
L 23.09375 72.90625 
L 55.421875 11.921875 
L 55.421875 72.90625 
L 64.984375 72.90625 
L 64.984375 0 
L 51.703125 0 
L 19.390625 60.984375 
L 19.390625 0 
L 9.8125 0 
z
" id="DejaVuSans-4e"/>
      <path d="M 52 44.1875 
Q 55.375 50.25 60.0625 53.125 
Q 64.75 56 71.09375 56 
Q 79.640625 56 84.28125 50.015625 
Q 88.921875 44.046875 88.921875 33.015625 
L 88.921875 0 
L 79.890625 0 
L 79.890625 32.71875 
Q 79.890625 40.578125 77.09375 44.375 
Q 74.3125 48.1875 68.609375 48.1875 
Q 61.625 48.1875 57.5625 43.546875 
Q 53.515625 38.921875 53.515625 30.90625 
L 53.515625 0 
L 44.484375 0 
L 44.484375 32.71875 
Q 44.484375 40.625 41.703125 44.40625 
Q 38.921875 48.1875 33.109375 48.1875 
Q 26.21875 48.1875 22.15625 43.53125 
Q 18.109375 38.875 18.109375 30.90625 
L 18.109375 0 
L 9.078125 0 
L 9.078125 54.6875 
L 18.109375 54.6875 
L 18.109375 46.1875 
Q 21.1875 51.21875 25.484375 53.609375 
Q 29.78125 56 35.6875 56 
Q 41.65625 56 45.828125 52.96875 
Q 50 49.953125 52 44.1875 
z
" id="DejaVuSans-6d"/>
      <path d="M 19.671875 64.796875 
L 19.671875 37.40625 
L 32.078125 37.40625 
Q 38.96875 37.40625 42.71875 40.96875 
Q 46.484375 44.53125 46.484375 51.125 
Q 46.484375 57.671875 42.71875 61.234375 
Q 38.96875 64.796875 32.078125 64.796875 
z
M 9.8125 72.90625 
L 32.078125 72.90625 
Q 44.34375 72.90625 50.609375 67.359375 
Q 56.890625 61.8125 56.890625 51.125 
Q 56.890625 40.328125 50.609375 34.8125 
Q 44.34375 29.296875 32.078125 29.296875 
L 19.671875 29.296875 
L 19.671875 0 
L 9.8125 0 
z
" id="DejaVuSans-50"/>
      <path d="M 32.171875 -5.078125 
Q 28.375 -14.84375 24.75 -17.8125 
Q 21.140625 -20.796875 15.09375 -20.796875 
L 7.90625 -20.796875 
L 7.90625 -13.28125 
L 13.1875 -13.28125 
Q 16.890625 -13.28125 18.9375 -11.515625 
Q 21 -9.765625 23.484375 -3.21875 
L 25.09375 0.875 
L 2.984375 54.6875 
L 12.5 54.6875 
L 29.59375 11.921875 
L 46.6875 54.6875 
L 56.203125 54.6875 
z
" id="DejaVuSans-79"/>
     </defs>
     <g transform="translate(1000.75925 34.60175)scale(0.144 -0.144)">
      <use xlink:href="#DejaVuSans-4e"/>
      <use x="74.804688" xlink:href="#DejaVuSans-75"/>
      <use x="138.183594" xlink:href="#DejaVuSans-6d"/>
      <use x="235.595703" xlink:href="#DejaVuSans-50"/>
      <use x="295.898438" xlink:href="#DejaVuSans-79"/>
     </g>
    </g>
    <g id="patch_47">
     <path d="M 960.43925 55.73825 
L 989.23925 55.73825 
L 989.23925 45.65825 
L 960.43925 45.65825 
z
" style="fill:#e1812c;stroke:#000000;stroke-linejoin:miter;stroke-opacity:0.25;"/>
    </g>
    <g id="text_18">
     <!-- PyFMath -->
     <defs>
      <path d="M 9.8125 72.90625 
L 24.515625 72.90625 
L 43.109375 23.296875 
L 61.8125 72.90625 
L 76.515625 72.90625 
L 76.515625 0 
L 66.890625 0 
L 66.890625 64.015625 
L 48.09375 14.015625 
L 38.1875 14.015625 
L 19.390625 64.015625 
L 19.390625 0 
L 9.8125 0 
z
" id="DejaVuSans-4d"/>
     </defs>
     <g transform="translate(1000.75925 55.73825)scale(0.144 -0.144)">
      <use xlink:href="#DejaVuSans-50"/>
      <use x="60.302734" xlink:href="#DejaVuSans-79"/>
      <use x="119.482422" xlink:href="#DejaVuSans-46"/>
      <use x="177.001953" xlink:href="#DejaVuSans-4d"/>
      <use x="263.28125" xlink:href="#DejaVuSans-61"/>
      <use x="324.560547" xlink:href="#DejaVuSans-74"/>
      <use x="363.769531" xlink:href="#DejaVuSans-68"/>
     </g>
    </g>
    <g id="patch_48">
     <path d="M 960.43925 76.87475 
L 989.23925 76.87475 
L 989.23925 66.79475 
L 960.43925 66.79475 
z
" style="fill:#3a923a;stroke:#000000;stroke-linejoin:miter;stroke-opacity:0.25;"/>
    </g>
    <g id="text_19">
     <!-- CMath -->
     <defs>
      <path d="M 64.40625 67.28125 
L 64.40625 56.890625 
Q 59.421875 61.53125 53.78125 63.8125 
Q 48.140625 66.109375 41.796875 66.109375 
Q 29.296875 66.109375 22.65625 58.46875 
Q 16.015625 50.828125 16.015625 36.375 
Q 16.015625 21.96875 22.65625 14.328125 
Q 29.296875 6.6875 41.796875 6.6875 
Q 48.140625 6.6875 53.78125 8.984375 
Q 59.421875 11.28125 64.40625 15.921875 
L 64.40625 5.609375 
Q 59.234375 2.09375 53.4375 0.328125 
Q 47.65625 -1.421875 41.21875 -1.421875 
Q 24.65625 -1.421875 15.125 8.703125 
Q 5.609375 18.84375 5.609375 36.375 
Q 5.609375 53.953125 15.125 64.078125 
Q 24.65625 74.21875 41.21875 74.21875 
Q 47.75 74.21875 53.53125 72.484375 
Q 59.328125 70.75 64.40625 67.28125 
z
" id="DejaVuSans-43"/>
     </defs>
     <g transform="translate(1000.75925 76.87475)scale(0.144 -0.144)">
      <use xlink:href="#DejaVuSans-43"/>
      <use x="69.824219" xlink:href="#DejaVuSans-4d"/>
      <use x="156.103516" xlink:href="#DejaVuSans-61"/>
      <use x="217.382812" xlink:href="#DejaVuSans-74"/>
      <use x="256.591797" xlink:href="#DejaVuSans-68"/>
     </g>
    </g>
    <g id="patch_49">
     <path d="M 960.43925 98.01125 
L 989.23925 98.01125 
L 989.23925 87.93125 
L 960.43925 87.93125 
z
" style="fill:#c03d3e;stroke:#000000;stroke-linejoin:miter;stroke-opacity:0.25;"/>
    </g>
    <g id="text_20">
     <!-- FMath -->
     <g transform="translate(1000.75925 98.01125)scale(0.144 -0.144)">
      <use xlink:href="#DejaVuSans-46"/>
      <use x="57.519531" xlink:href="#DejaVuSans-4d"/>
      <use x="143.798828" xlink:href="#DejaVuSans-61"/>
      <use x="205.078125" xlink:href="#DejaVuSans-74"/>
      <use x="244.287109" xlink:href="#DejaVuSans-68"/>
     </g>
    </g>
   </g>
  </g>
 </g>
 <defs>
  <clipPath id="p18f93b889e">
   <rect height="432" width="979.2" x="96.0275" y="10.7"/>
  </clipPath>
 </defs>
</svg>
