<?xml version="1.0" encoding="utf-8" standalone="no"?>
<!DOCTYPE svg PUBLIC "-//W3C//DTD SVG 1.1//EN"
  "http://www.w3.org/Graphics/SVG/1.1/DTD/svg11.dtd">
<!-- Created with matplotlib (http://matplotlib.org/) -->
<svg height="1388.870937pt" version="1.1" viewBox="0 0 1410.6 1388.870937" width="1410.6pt" xmlns="http://www.w3.org/2000/svg" xmlns:xlink="http://www.w3.org/1999/xlink">
 <defs>
  <style type="text/css">
*{stroke-linecap:butt;stroke-linejoin:round;}
  </style>
 </defs>
 <g id="figure_1">
  <g id="patch_1">
   <path d="M 0 1388.870937 
L 1410.6 1388.870937 
L 1410.6 0 
L 0 0 
z
" style="fill:#ffffff;"/>
  </g>
  <g id="axes_1">
   <g id="patch_2">
    <path d="M 122.4 579.276923 
L 612 579.276923 
L 612 136.2 
L 122.4 136.2 
z
" style="fill:#ffffff;"/>
   </g>
   <g id="patch_3">
    <path clip-path="url(#p2d878674ba)" d="M 165.849351 579.276923 
L 185.984416 579.276923 
L 185.984416 214.232079 
L 165.849351 214.232079 
z
" style="fill:#1f77b4;opacity:0.4;"/>
   </g>
   <g id="patch_4">
    <path clip-path="url(#p2d878674ba)" d="M 185.984416 579.276923 
L 206.119481 579.276923 
L 206.119481 332.588848 
L 185.984416 332.588848 
z
" style="fill:#1f77b4;opacity:0.4;"/>
   </g>
   <g id="patch_5">
    <path clip-path="url(#p2d878674ba)" d="M 206.119481 579.276923 
L 226.254545 579.276923 
L 226.254545 421.473453 
L 206.119481 421.473453 
z
" style="fill:#1f77b4;opacity:0.4;"/>
   </g>
   <g id="patch_6">
    <path clip-path="url(#p2d878674ba)" d="M 226.254545 579.276923 
L 246.38961 579.276923 
L 246.38961 481.311856 
L 226.254545 481.311856 
z
" style="fill:#1f77b4;opacity:0.4;"/>
   </g>
   <g id="patch_7">
    <path clip-path="url(#p2d878674ba)" d="M 246.38961 579.276923 
L 266.524675 579.276923 
L 266.524675 520.31495 
L 246.38961 520.31495 
z
" style="fill:#1f77b4;opacity:0.4;"/>
   </g>
   <g id="patch_8">
    <path clip-path="url(#p2d878674ba)" d="M 266.524675 579.276923 
L 286.65974 579.276923 
L 286.65974 544.952044 
L 266.524675 544.952044 
z
" style="fill:#1f77b4;opacity:0.4;"/>
   </g>
   <g id="patch_9">
    <path clip-path="url(#p2d878674ba)" d="M 286.65974 579.276923 
L 306.794805 579.276923 
L 306.794805 559.383237 
L 286.65974 559.383237 
z
" style="fill:#1f77b4;opacity:0.4;"/>
   </g>
   <g id="patch_10">
    <path clip-path="url(#p2d878674ba)" d="M 306.794805 579.276923 
L 326.92987 579.276923 
L 326.92987 567.738242 
L 306.794805 567.738242 
z
" style="fill:#1f77b4;opacity:0.4;"/>
   </g>
   <g id="patch_11">
    <path clip-path="url(#p2d878674ba)" d="M 326.92987 579.276923 
L 347.064935 579.276923 
L 347.064935 572.692915 
L 326.92987 572.692915 
z
" style="fill:#1f77b4;opacity:0.4;"/>
   </g>
   <g id="patch_12">
    <path clip-path="url(#p2d878674ba)" d="M 347.064935 579.276923 
L 367.2 579.276923 
L 367.2 575.742773 
L 347.064935 575.742773 
z
" style="fill:#1f77b4;opacity:0.4;"/>
   </g>
   <g id="patch_13">
    <path clip-path="url(#p2d878674ba)" d="M 367.2 579.276923 
L 387.335065 579.276923 
L 387.335065 577.483379 
L 367.2 577.483379 
z
" style="fill:#1f77b4;opacity:0.4;"/>
   </g>
   <g id="patch_14">
    <path clip-path="url(#p2d878674ba)" d="M 387.335065 579.276923 
L 407.47013 579.276923 
L 407.47013 578.56225 
L 387.335065 578.56225 
z
" style="fill:#1f77b4;opacity:0.4;"/>
   </g>
   <g id="patch_15">
    <path clip-path="url(#p2d878674ba)" d="M 407.47013 579.276923 
L 427.605195 579.276923 
L 427.605195 578.971545 
L 407.47013 578.971545 
z
" style="fill:#1f77b4;opacity:0.4;"/>
   </g>
   <g id="patch_16">
    <path clip-path="url(#p2d878674ba)" d="M 427.605195 579.276923 
L 447.74026 579.276923 
L 447.74026 579.163693 
L 427.605195 579.163693 
z
" style="fill:#1f77b4;opacity:0.4;"/>
   </g>
   <g id="patch_17">
    <path clip-path="url(#p2d878674ba)" d="M 447.74026 579.276923 
L 467.875325 579.276923 
L 467.875325 579.237219 
L 447.74026 579.237219 
z
" style="fill:#1f77b4;opacity:0.4;"/>
   </g>
   <g id="patch_18">
    <path clip-path="url(#p2d878674ba)" d="M 467.875325 579.276923 
L 488.01039 579.276923 
L 488.01039 579.266139 
L 467.875325 579.266139 
z
" style="fill:#1f77b4;opacity:0.4;"/>
   </g>
   <g id="patch_19">
    <path clip-path="url(#p2d878674ba)" d="M 488.01039 579.276923 
L 508.145455 579.276923 
L 508.145455 579.273982 
L 488.01039 579.273982 
z
" style="fill:#1f77b4;opacity:0.4;"/>
   </g>
   <g id="patch_20">
    <path clip-path="url(#p2d878674ba)" d="M 508.145455 579.276923 
L 528.280519 579.276923 
L 528.280519 579.276923 
L 508.145455 579.276923 
z
" style="fill:#1f77b4;opacity:0.4;"/>
   </g>
   <g id="patch_21">
    <path clip-path="url(#p2d878674ba)" d="M 528.280519 579.276923 
L 548.415584 579.276923 
L 548.415584 579.276923 
L 528.280519 579.276923 
z
" style="fill:#1f77b4;opacity:0.4;"/>
   </g>
   <g id="patch_22">
    <path clip-path="url(#p2d878674ba)" d="M 548.415584 579.276923 
L 568.550649 579.276923 
L 568.550649 579.276433 
L 548.415584 579.276433 
z
" style="fill:#1f77b4;opacity:0.4;"/>
   </g>
   <g id="matplotlib.axis_1">
    <g id="xtick_1">
     <g id="line2d_1">
      <defs>
       <path d="M 0 0 
L 0 3.5 
" id="m48285e440d" style="stroke:#000000;stroke-width:0.8;"/>
      </defs>
      <g>
       <use style="stroke:#000000;stroke-width:0.8;" x="161.61039" xlink:href="#m48285e440d" y="589.276923"/>
      </g>
     </g>
    </g>
    <g id="xtick_2">
     <g id="line2d_2">
      <g>
       <use style="stroke:#000000;stroke-width:0.8;" x="218.836364" xlink:href="#m48285e440d" y="589.276923"/>
      </g>
     </g>
    </g>
    <g id="xtick_3">
     <g id="line2d_3">
      <g>
       <use style="stroke:#000000;stroke-width:0.8;" x="276.062338" xlink:href="#m48285e440d" y="589.276923"/>
      </g>
     </g>
    </g>
    <g id="xtick_4">
     <g id="line2d_4">
      <g>
       <use style="stroke:#000000;stroke-width:0.8;" x="333.288312" xlink:href="#m48285e440d" y="589.276923"/>
      </g>
     </g>
    </g>
    <g id="xtick_5">
     <g id="line2d_5">
      <g>
       <use style="stroke:#000000;stroke-width:0.8;" x="390.514286" xlink:href="#m48285e440d" y="589.276923"/>
      </g>
     </g>
    </g>
    <g id="xtick_6">
     <g id="line2d_6">
      <g>
       <use style="stroke:#000000;stroke-width:0.8;" x="447.74026" xlink:href="#m48285e440d" y="589.276923"/>
      </g>
     </g>
    </g>
    <g id="xtick_7">
     <g id="line2d_7">
      <g>
       <use style="stroke:#000000;stroke-width:0.8;" x="504.966234" xlink:href="#m48285e440d" y="589.276923"/>
      </g>
     </g>
    </g>
    <g id="xtick_8">
     <g id="line2d_8">
      <g>
       <use style="stroke:#000000;stroke-width:0.8;" x="562.192208" xlink:href="#m48285e440d" y="589.276923"/>
      </g>
     </g>
    </g>
   </g>
   <g id="matplotlib.axis_2">
    <g id="ytick_1">
     <g id="line2d_9">
      <defs>
       <path d="M 0 0 
L -3.5 0 
" id="m99bd8e05fd" style="stroke:#000000;stroke-width:0.8;"/>
      </defs>
      <g>
       <use style="stroke:#000000;stroke-width:0.8;" x="112.4" xlink:href="#m99bd8e05fd" y="579.276923"/>
      </g>
     </g>
     <g id="text_1">
      <!-- 0.0 -->
      <defs>
       <path d="M 31.78125 66.40625 
Q 24.171875 66.40625 20.328125 58.90625 
Q 16.5 51.421875 16.5 36.375 
Q 16.5 21.390625 20.328125 13.890625 
Q 24.171875 6.390625 31.78125 6.390625 
Q 39.453125 6.390625 43.28125 13.890625 
Q 47.125 21.390625 47.125 36.375 
Q 47.125 51.421875 43.28125 58.90625 
Q 39.453125 66.40625 31.78125 66.40625 
z
M 31.78125 74.21875 
Q 44.046875 74.21875 50.515625 64.515625 
Q 56.984375 54.828125 56.984375 36.375 
Q 56.984375 17.96875 50.515625 8.265625 
Q 44.046875 -1.421875 31.78125 -1.421875 
Q 19.53125 -1.421875 13.0625 8.265625 
Q 6.59375 17.96875 6.59375 36.375 
Q 6.59375 54.828125 13.0625 64.515625 
Q 19.53125 74.21875 31.78125 74.21875 
z
" id="DejaVuSans-30"/>
       <path d="M 10.6875 12.40625 
L 21 12.40625 
L 21 0 
L 10.6875 0 
z
" id="DejaVuSans-2e"/>
      </defs>
      <g transform="translate(67.2325 588.395048)scale(0.24 -0.24)">
       <use xlink:href="#DejaVuSans-30"/>
       <use x="63.623047" xlink:href="#DejaVuSans-2e"/>
       <use x="95.410156" xlink:href="#DejaVuSans-30"/>
      </g>
     </g>
    </g>
    <g id="ytick_2">
     <g id="line2d_10">
      <g>
       <use style="stroke:#000000;stroke-width:0.8;" x="112.4" xlink:href="#m99bd8e05fd" y="508.532212"/>
      </g>
     </g>
     <g id="text_2">
      <!-- 0.1 -->
      <defs>
       <path d="M 12.40625 8.296875 
L 28.515625 8.296875 
L 28.515625 63.921875 
L 10.984375 60.40625 
L 10.984375 69.390625 
L 28.421875 72.90625 
L 38.28125 72.90625 
L 38.28125 8.296875 
L 54.390625 8.296875 
L 54.390625 0 
L 12.40625 0 
z
" id="DejaVuSans-31"/>
      </defs>
      <g transform="translate(67.2325 517.650337)scale(0.24 -0.24)">
       <use xlink:href="#DejaVuSans-30"/>
       <use x="63.623047" xlink:href="#DejaVuSans-2e"/>
       <use x="95.410156" xlink:href="#DejaVuSans-31"/>
      </g>
     </g>
    </g>
    <g id="ytick_3">
     <g id="line2d_11">
      <g>
       <use style="stroke:#000000;stroke-width:0.8;" x="112.4" xlink:href="#m99bd8e05fd" y="437.787501"/>
      </g>
     </g>
     <g id="text_3">
      <!-- 0.2 -->
      <defs>
       <path d="M 19.1875 8.296875 
L 53.609375 8.296875 
L 53.609375 0 
L 7.328125 0 
L 7.328125 8.296875 
Q 12.9375 14.109375 22.625 23.890625 
Q 32.328125 33.6875 34.8125 36.53125 
Q 39.546875 41.84375 41.421875 45.53125 
Q 43.3125 49.21875 43.3125 52.78125 
Q 43.3125 58.59375 39.234375 62.25 
Q 35.15625 65.921875 28.609375 65.921875 
Q 23.96875 65.921875 18.8125 64.3125 
Q 13.671875 62.703125 7.8125 59.421875 
L 7.8125 69.390625 
Q 13.765625 71.78125 18.9375 73 
Q 24.125 74.21875 28.421875 74.21875 
Q 39.75 74.21875 46.484375 68.546875 
Q 53.21875 62.890625 53.21875 53.421875 
Q 53.21875 48.921875 51.53125 44.890625 
Q 49.859375 40.875 45.40625 35.40625 
Q 44.1875 33.984375 37.640625 27.21875 
Q 31.109375 20.453125 19.1875 8.296875 
z
" id="DejaVuSans-32"/>
      </defs>
      <g transform="translate(67.2325 446.905626)scale(0.24 -0.24)">
       <use xlink:href="#DejaVuSans-30"/>
       <use x="63.623047" xlink:href="#DejaVuSans-2e"/>
       <use x="95.410156" xlink:href="#DejaVuSans-32"/>
      </g>
     </g>
    </g>
    <g id="ytick_4">
     <g id="line2d_12">
      <g>
       <use style="stroke:#000000;stroke-width:0.8;" x="112.4" xlink:href="#m99bd8e05fd" y="367.04279"/>
      </g>
     </g>
     <g id="text_4">
      <!-- 0.3 -->
      <defs>
       <path d="M 40.578125 39.3125 
Q 47.65625 37.796875 51.625 33 
Q 55.609375 28.21875 55.609375 21.1875 
Q 55.609375 10.40625 48.1875 4.484375 
Q 40.765625 -1.421875 27.09375 -1.421875 
Q 22.515625 -1.421875 17.65625 -0.515625 
Q 12.796875 0.390625 7.625 2.203125 
L 7.625 11.71875 
Q 11.71875 9.328125 16.59375 8.109375 
Q 21.484375 6.890625 26.8125 6.890625 
Q 36.078125 6.890625 40.9375 10.546875 
Q 45.796875 14.203125 45.796875 21.1875 
Q 45.796875 27.640625 41.28125 31.265625 
Q 36.765625 34.90625 28.71875 34.90625 
L 20.21875 34.90625 
L 20.21875 43.015625 
L 29.109375 43.015625 
Q 36.375 43.015625 40.234375 45.921875 
Q 44.09375 48.828125 44.09375 54.296875 
Q 44.09375 59.90625 40.109375 62.90625 
Q 36.140625 65.921875 28.71875 65.921875 
Q 24.65625 65.921875 20.015625 65.03125 
Q 15.375 64.15625 9.8125 62.3125 
L 9.8125 71.09375 
Q 15.4375 72.65625 20.34375 73.4375 
Q 25.25 74.21875 29.59375 74.21875 
Q 40.828125 74.21875 47.359375 69.109375 
Q 53.90625 64.015625 53.90625 55.328125 
Q 53.90625 49.265625 50.4375 45.09375 
Q 46.96875 40.921875 40.578125 39.3125 
z
" id="DejaVuSans-33"/>
      </defs>
      <g transform="translate(67.2325 376.160915)scale(0.24 -0.24)">
       <use xlink:href="#DejaVuSans-30"/>
       <use x="63.623047" xlink:href="#DejaVuSans-2e"/>
       <use x="95.410156" xlink:href="#DejaVuSans-33"/>
      </g>
     </g>
    </g>
    <g id="ytick_5">
     <g id="line2d_13">
      <g>
       <use style="stroke:#000000;stroke-width:0.8;" x="112.4" xlink:href="#m99bd8e05fd" y="296.298079"/>
      </g>
     </g>
     <g id="text_5">
      <!-- 0.4 -->
      <defs>
       <path d="M 37.796875 64.3125 
L 12.890625 25.390625 
L 37.796875 25.390625 
z
M 35.203125 72.90625 
L 47.609375 72.90625 
L 47.609375 25.390625 
L 58.015625 25.390625 
L 58.015625 17.1875 
L 47.609375 17.1875 
L 47.609375 0 
L 37.796875 0 
L 37.796875 17.1875 
L 4.890625 17.1875 
L 4.890625 26.703125 
z
" id="DejaVuSans-34"/>
      </defs>
      <g transform="translate(67.2325 305.416204)scale(0.24 -0.24)">
       <use xlink:href="#DejaVuSans-30"/>
       <use x="63.623047" xlink:href="#DejaVuSans-2e"/>
       <use x="95.410156" xlink:href="#DejaVuSans-34"/>
      </g>
     </g>
    </g>
    <g id="ytick_6">
     <g id="line2d_14">
      <g>
       <use style="stroke:#000000;stroke-width:0.8;" x="112.4" xlink:href="#m99bd8e05fd" y="225.553368"/>
      </g>
     </g>
     <g id="text_6">
      <!-- 0.5 -->
      <defs>
       <path d="M 10.796875 72.90625 
L 49.515625 72.90625 
L 49.515625 64.59375 
L 19.828125 64.59375 
L 19.828125 46.734375 
Q 21.96875 47.46875 24.109375 47.828125 
Q 26.265625 48.1875 28.421875 48.1875 
Q 40.625 48.1875 47.75 41.5 
Q 54.890625 34.8125 54.890625 23.390625 
Q 54.890625 11.625 47.5625 5.09375 
Q 40.234375 -1.421875 26.90625 -1.421875 
Q 22.3125 -1.421875 17.546875 -0.640625 
Q 12.796875 0.140625 7.71875 1.703125 
L 7.71875 11.625 
Q 12.109375 9.234375 16.796875 8.0625 
Q 21.484375 6.890625 26.703125 6.890625 
Q 35.15625 6.890625 40.078125 11.328125 
Q 45.015625 15.765625 45.015625 23.390625 
Q 45.015625 31 40.078125 35.4375 
Q 35.15625 39.890625 26.703125 39.890625 
Q 22.75 39.890625 18.8125 39.015625 
Q 14.890625 38.140625 10.796875 36.28125 
z
" id="DejaVuSans-35"/>
      </defs>
      <g transform="translate(67.2325 234.671493)scale(0.24 -0.24)">
       <use xlink:href="#DejaVuSans-30"/>
       <use x="63.623047" xlink:href="#DejaVuSans-2e"/>
       <use x="95.410156" xlink:href="#DejaVuSans-35"/>
      </g>
     </g>
    </g>
    <g id="ytick_7">
     <g id="line2d_15">
      <g>
       <use style="stroke:#000000;stroke-width:0.8;" x="112.4" xlink:href="#m99bd8e05fd" y="154.808657"/>
      </g>
     </g>
     <g id="text_7">
      <!-- 0.6 -->
      <defs>
       <path d="M 33.015625 40.375 
Q 26.375 40.375 22.484375 35.828125 
Q 18.609375 31.296875 18.609375 23.390625 
Q 18.609375 15.53125 22.484375 10.953125 
Q 26.375 6.390625 33.015625 6.390625 
Q 39.65625 6.390625 43.53125 10.953125 
Q 47.40625 15.53125 47.40625 23.390625 
Q 47.40625 31.296875 43.53125 35.828125 
Q 39.65625 40.375 33.015625 40.375 
z
M 52.59375 71.296875 
L 52.59375 62.3125 
Q 48.875 64.0625 45.09375 64.984375 
Q 41.3125 65.921875 37.59375 65.921875 
Q 27.828125 65.921875 22.671875 59.328125 
Q 17.53125 52.734375 16.796875 39.40625 
Q 19.671875 43.65625 24.015625 45.921875 
Q 28.375 48.1875 33.59375 48.1875 
Q 44.578125 48.1875 50.953125 41.515625 
Q 57.328125 34.859375 57.328125 23.390625 
Q 57.328125 12.15625 50.6875 5.359375 
Q 44.046875 -1.421875 33.015625 -1.421875 
Q 20.359375 -1.421875 13.671875 8.265625 
Q 6.984375 17.96875 6.984375 36.375 
Q 6.984375 53.65625 15.1875 63.9375 
Q 23.390625 74.21875 37.203125 74.21875 
Q 40.921875 74.21875 44.703125 73.484375 
Q 48.484375 72.75 52.59375 71.296875 
z
" id="DejaVuSans-36"/>
      </defs>
      <g transform="translate(67.2325 163.926782)scale(0.24 -0.24)">
       <use xlink:href="#DejaVuSans-30"/>
       <use x="63.623047" xlink:href="#DejaVuSans-2e"/>
       <use x="95.410156" xlink:href="#DejaVuSans-36"/>
      </g>
     </g>
    </g>
   </g>
   <g id="patch_23">
    <path d="M 112.4 579.276923 
L 112.4 136.2 
" style="fill:none;stroke:#000000;stroke-linecap:square;stroke-linejoin:miter;stroke-width:0.8;"/>
   </g>
   <g id="patch_24">
    <path d="M 122.4 589.276923 
L 612 589.276923 
" style="fill:none;stroke:#000000;stroke-linecap:square;stroke-linejoin:miter;stroke-width:0.8;"/>
   </g>
  </g>
  <g id="axes_2">
   <g id="patch_25">
    <path d="M 856.8 579.276923 
L 1346.4 579.276923 
L 1346.4 136.2 
L 856.8 136.2 
z
" style="fill:#ffffff;"/>
   </g>
   <g id="patch_26">
    <path clip-path="url(#p6098968092)" d="M 942.638961 579.276923 
L 961.714286 579.276923 
L 961.714286 181.47696 
L 942.638961 181.47696 
z
" style="fill:#ff7f0e;opacity:0.4;"/>
   </g>
   <g id="patch_27">
    <path clip-path="url(#p6098968092)" d="M 961.714286 579.276923 
L 980.78961 579.276923 
L 980.78961 315.873022 
L 961.714286 315.873022 
z
" style="fill:#ff7f0e;opacity:0.4;"/>
   </g>
   <g id="patch_28">
    <path clip-path="url(#p6098968092)" d="M 980.78961 579.276923 
L 999.864935 579.276923 
L 999.864935 414.495402 
L 980.78961 414.495402 
z
" style="fill:#ff7f0e;opacity:0.4;"/>
   </g>
   <g id="patch_29">
    <path clip-path="url(#p6098968092)" d="M 999.864935 579.276923 
L 1018.94026 579.276923 
L 1018.94026 478.816295 
L 999.864935 478.816295 
z
" style="fill:#ff7f0e;opacity:0.4;"/>
   </g>
   <g id="patch_30">
    <path clip-path="url(#p6098968092)" d="M 1018.94026 579.276923 
L 1038.015584 579.276923 
L 1038.015584 519.448162 
L 1018.94026 519.448162 
z
" style="fill:#ff7f0e;opacity:0.4;"/>
   </g>
   <g id="patch_31">
    <path clip-path="url(#p6098968092)" d="M 1038.015584 579.276923 
L 1057.090909 579.276923 
L 1057.090909 545.291126 
L 1038.015584 545.291126 
z
" style="fill:#ff7f0e;opacity:0.4;"/>
   </g>
   <g id="patch_32">
    <path clip-path="url(#p6098968092)" d="M 1057.090909 579.276923 
L 1076.166234 579.276923 
L 1076.166234 560.108282 
L 1057.090909 560.108282 
z
" style="fill:#ff7f0e;opacity:0.4;"/>
   </g>
   <g id="patch_33">
    <path clip-path="url(#p6098968092)" d="M 1076.166234 579.276923 
L 1095.241558 579.276923 
L 1095.241558 568.835204 
L 1076.166234 568.835204 
z
" style="fill:#ff7f0e;opacity:0.4;"/>
   </g>
   <g id="patch_34">
    <path clip-path="url(#p6098968092)" d="M 1095.241558 579.276923 
L 1114.316883 579.276923 
L 1114.316883 573.77139 
L 1095.241558 573.77139 
z
" style="fill:#ff7f0e;opacity:0.4;"/>
   </g>
   <g id="patch_35">
    <path clip-path="url(#p6098968092)" d="M 1114.316883 579.276923 
L 1133.392208 579.276923 
L 1133.392208 576.432029 
L 1114.316883 576.432029 
z
" style="fill:#ff7f0e;opacity:0.4;"/>
   </g>
   <g id="patch_36">
    <path clip-path="url(#p6098968092)" d="M 1133.392208 579.276923 
L 1152.467532 579.276923 
L 1152.467532 579.276923 
L 1133.392208 579.276923 
z
" style="fill:#ff7f0e;opacity:0.4;"/>
   </g>
   <g id="patch_37">
    <path clip-path="url(#p6098968092)" d="M 1152.467532 579.276923 
L 1171.542857 579.276923 
L 1171.542857 577.730411 
L 1152.467532 577.730411 
z
" style="fill:#ff7f0e;opacity:0.4;"/>
   </g>
   <g id="patch_38">
    <path clip-path="url(#p6098968092)" d="M 1171.542857 579.276923 
L 1190.618182 579.276923 
L 1190.618182 578.436107 
L 1171.542857 578.436107 
z
" style="fill:#ff7f0e;opacity:0.4;"/>
   </g>
   <g id="patch_39">
    <path clip-path="url(#p6098968092)" d="M 1190.618182 579.276923 
L 1209.693506 579.276923 
L 1209.693506 578.913327 
L 1190.618182 578.913327 
z
" style="fill:#ff7f0e;opacity:0.4;"/>
   </g>
   <g id="patch_40">
    <path clip-path="url(#p6098968092)" d="M 1209.693506 579.276923 
L 1228.768831 579.276923 
L 1228.768831 579.151016 
L 1209.693506 579.151016 
z
" style="fill:#ff7f0e;opacity:0.4;"/>
   </g>
   <g id="patch_41">
    <path clip-path="url(#p6098968092)" d="M 1228.768831 579.276923 
L 1247.844156 579.276923 
L 1247.844156 579.227788 
L 1228.768831 579.227788 
z
" style="fill:#ff7f0e;opacity:0.4;"/>
   </g>
   <g id="patch_42">
    <path clip-path="url(#p6098968092)" d="M 1247.844156 579.276923 
L 1266.919481 579.276923 
L 1266.919481 579.257883 
L 1247.844156 579.257883 
z
" style="fill:#ff7f0e;opacity:0.4;"/>
   </g>
   <g id="patch_43">
    <path clip-path="url(#p6098968092)" d="M 1266.919481 579.276923 
L 1285.994805 579.276923 
L 1285.994805 579.274466 
L 1266.919481 579.274466 
z
" style="fill:#ff7f0e;opacity:0.4;"/>
   </g>
   <g id="patch_44">
    <path clip-path="url(#p6098968092)" d="M 1285.994805 579.276923 
L 1305.07013 579.276923 
L 1305.07013 579.275695 
L 1285.994805 579.275695 
z
" style="fill:#ff7f0e;opacity:0.4;"/>
   </g>
   <g id="patch_45">
    <path clip-path="url(#p6098968092)" d="M 1305.07013 579.276923 
L 1324.145455 579.276923 
L 1324.145455 579.276309 
L 1305.07013 579.276309 
z
" style="fill:#ff7f0e;opacity:0.4;"/>
   </g>
   <g id="matplotlib.axis_3">
    <g id="xtick_9">
     <g id="line2d_16">
      <g>
       <use style="stroke:#000000;stroke-width:0.8;" x="896.01039" xlink:href="#m48285e440d" y="589.276923"/>
      </g>
     </g>
    </g>
    <g id="xtick_10">
     <g id="line2d_17">
      <g>
       <use style="stroke:#000000;stroke-width:0.8;" x="953.236364" xlink:href="#m48285e440d" y="589.276923"/>
      </g>
     </g>
    </g>
    <g id="xtick_11">
     <g id="line2d_18">
      <g>
       <use style="stroke:#000000;stroke-width:0.8;" x="1010.462338" xlink:href="#m48285e440d" y="589.276923"/>
      </g>
     </g>
    </g>
    <g id="xtick_12">
     <g id="line2d_19">
      <g>
       <use style="stroke:#000000;stroke-width:0.8;" x="1067.688312" xlink:href="#m48285e440d" y="589.276923"/>
      </g>
     </g>
    </g>
    <g id="xtick_13">
     <g id="line2d_20">
      <g>
       <use style="stroke:#000000;stroke-width:0.8;" x="1124.914286" xlink:href="#m48285e440d" y="589.276923"/>
      </g>
     </g>
    </g>
    <g id="xtick_14">
     <g id="line2d_21">
      <g>
       <use style="stroke:#000000;stroke-width:0.8;" x="1182.14026" xlink:href="#m48285e440d" y="589.276923"/>
      </g>
     </g>
    </g>
    <g id="xtick_15">
     <g id="line2d_22">
      <g>
       <use style="stroke:#000000;stroke-width:0.8;" x="1239.366234" xlink:href="#m48285e440d" y="589.276923"/>
      </g>
     </g>
    </g>
    <g id="xtick_16">
     <g id="line2d_23">
      <g>
       <use style="stroke:#000000;stroke-width:0.8;" x="1296.592208" xlink:href="#m48285e440d" y="589.276923"/>
      </g>
     </g>
    </g>
   </g>
   <g id="matplotlib.axis_4">
    <g id="ytick_8">
     <g id="line2d_24">
      <g>
       <use style="stroke:#000000;stroke-width:0.8;" x="846.8" xlink:href="#m99bd8e05fd" y="579.276923"/>
      </g>
     </g>
    </g>
    <g id="ytick_9">
     <g id="line2d_25">
      <g>
       <use style="stroke:#000000;stroke-width:0.8;" x="846.8" xlink:href="#m99bd8e05fd" y="508.532212"/>
      </g>
     </g>
    </g>
    <g id="ytick_10">
     <g id="line2d_26">
      <g>
       <use style="stroke:#000000;stroke-width:0.8;" x="846.8" xlink:href="#m99bd8e05fd" y="437.787501"/>
      </g>
     </g>
    </g>
    <g id="ytick_11">
     <g id="line2d_27">
      <g>
       <use style="stroke:#000000;stroke-width:0.8;" x="846.8" xlink:href="#m99bd8e05fd" y="367.04279"/>
      </g>
     </g>
    </g>
    <g id="ytick_12">
     <g id="line2d_28">
      <g>
       <use style="stroke:#000000;stroke-width:0.8;" x="846.8" xlink:href="#m99bd8e05fd" y="296.298079"/>
      </g>
     </g>
    </g>
    <g id="ytick_13">
     <g id="line2d_29">
      <g>
       <use style="stroke:#000000;stroke-width:0.8;" x="846.8" xlink:href="#m99bd8e05fd" y="225.553368"/>
      </g>
     </g>
    </g>
    <g id="ytick_14">
     <g id="line2d_30">
      <g>
       <use style="stroke:#000000;stroke-width:0.8;" x="846.8" xlink:href="#m99bd8e05fd" y="154.808657"/>
      </g>
     </g>
    </g>
   </g>
   <g id="patch_46">
    <path d="M 846.8 579.276923 
L 846.8 136.2 
" style="fill:none;stroke:#000000;stroke-linecap:square;stroke-linejoin:miter;stroke-width:0.8;"/>
   </g>
   <g id="patch_47">
    <path d="M 856.8 589.276923 
L 1346.4 589.276923 
" style="fill:none;stroke:#000000;stroke-linecap:square;stroke-linejoin:miter;stroke-width:0.8;"/>
   </g>
  </g>
  <g id="axes_3">
   <g id="patch_48">
    <path d="M 122.4 1288.2 
L 612 1288.2 
L 612 845.123077 
L 122.4 845.123077 
z
" style="fill:#ffffff;"/>
   </g>
   <g id="patch_49">
    <path clip-path="url(#p3c9be9d831)" d="M 144.654545 1288.2 
L 162.67013 1288.2 
L 162.67013 866.221978 
L 144.654545 866.221978 
z
" style="fill:#2ca02c;opacity:0.4;"/>
   </g>
   <g id="patch_50">
    <path clip-path="url(#p3c9be9d831)" d="M 162.67013 1288.2 
L 180.685714 1288.2 
L 180.685714 1009.180595 
L 162.67013 1009.180595 
z
" style="fill:#2ca02c;opacity:0.4;"/>
   </g>
   <g id="patch_51">
    <path clip-path="url(#p3c9be9d831)" d="M 180.685714 1288.2 
L 198.701299 1288.2 
L 198.701299 1111.564907 
L 180.685714 1111.564907 
z
" style="fill:#2ca02c;opacity:0.4;"/>
   </g>
   <g id="patch_52">
    <path clip-path="url(#p3c9be9d831)" d="M 198.701299 1288.2 
L 216.716883 1288.2 
L 216.716883 1178.510561 
L 198.701299 1178.510561 
z
" style="fill:#2ca02c;opacity:0.4;"/>
   </g>
   <g id="patch_53">
    <path clip-path="url(#p3c9be9d831)" d="M 216.716883 1288.2 
L 234.732468 1288.2 
L 234.732468 1223.751197 
L 216.716883 1223.751197 
z
" style="fill:#2ca02c;opacity:0.4;"/>
   </g>
   <g id="patch_54">
    <path clip-path="url(#p3c9be9d831)" d="M 234.732468 1288.2 
L 252.748052 1288.2 
L 252.748052 1252.595738 
L 234.732468 1252.595738 
z
" style="fill:#2ca02c;opacity:0.4;"/>
   </g>
   <g id="patch_55">
    <path clip-path="url(#p3c9be9d831)" d="M 252.748052 1288.2 
L 270.763636 1288.2 
L 270.763636 1288.2 
L 252.748052 1288.2 
z
" style="fill:#2ca02c;opacity:0.4;"/>
   </g>
   <g id="patch_56">
    <path clip-path="url(#p3c9be9d831)" d="M 270.763636 1288.2 
L 288.779221 1288.2 
L 288.779221 1269.415753 
L 270.763636 1269.415753 
z
" style="fill:#2ca02c;opacity:0.4;"/>
   </g>
   <g id="patch_57">
    <path clip-path="url(#p3c9be9d831)" d="M 288.779221 1288.2 
L 306.794805 1288.2 
L 306.794805 1278.647388 
L 288.779221 1278.647388 
z
" style="fill:#2ca02c;opacity:0.4;"/>
   </g>
   <g id="patch_58">
    <path clip-path="url(#p3c9be9d831)" d="M 306.794805 1288.2 
L 324.81039 1288.2 
L 324.81039 1283.736999 
L 306.794805 1283.736999 
z
" style="fill:#2ca02c;opacity:0.4;"/>
   </g>
   <g id="patch_59">
    <path clip-path="url(#p3c9be9d831)" d="M 324.81039 1288.2 
L 342.825974 1288.2 
L 342.825974 1286.236407 
L 324.81039 1286.236407 
z
" style="fill:#2ca02c;opacity:0.4;"/>
   </g>
   <g id="patch_60">
    <path clip-path="url(#p3c9be9d831)" d="M 342.825974 1288.2 
L 360.841558 1288.2 
L 360.841558 1287.329139 
L 342.825974 1287.329139 
z
" style="fill:#2ca02c;opacity:0.4;"/>
   </g>
   <g id="patch_61">
    <path clip-path="url(#p3c9be9d831)" d="M 360.841558 1288.2 
L 378.857143 1288.2 
L 378.857143 1287.850249 
L 360.841558 1287.850249 
z
" style="fill:#2ca02c;opacity:0.4;"/>
   </g>
   <g id="patch_62">
    <path clip-path="url(#p3c9be9d831)" d="M 378.857143 1288.2 
L 396.872727 1288.2 
L 396.872727 1288.2 
L 378.857143 1288.2 
z
" style="fill:#2ca02c;opacity:0.4;"/>
   </g>
   <g id="patch_63">
    <path clip-path="url(#p3c9be9d831)" d="M 396.872727 1288.2 
L 414.888312 1288.2 
L 414.888312 1288.047823 
L 396.872727 1288.047823 
z
" style="fill:#2ca02c;opacity:0.4;"/>
   </g>
   <g id="patch_64">
    <path clip-path="url(#p3c9be9d831)" d="M 414.888312 1288.2 
L 432.903896 1288.2 
L 432.903896 1288.146291 
L 414.888312 1288.146291 
z
" style="fill:#2ca02c;opacity:0.4;"/>
   </g>
   <g id="patch_65">
    <path clip-path="url(#p3c9be9d831)" d="M 432.903896 1288.2 
L 450.919481 1288.2 
L 450.919481 1288.184015 
L 432.903896 1288.184015 
z
" style="fill:#2ca02c;opacity:0.4;"/>
   </g>
   <g id="patch_66">
    <path clip-path="url(#p3c9be9d831)" d="M 450.919481 1288.2 
L 468.935065 1288.2 
L 468.935065 1288.192967 
L 450.919481 1288.192967 
z
" style="fill:#2ca02c;opacity:0.4;"/>
   </g>
   <g id="patch_67">
    <path clip-path="url(#p3c9be9d831)" d="M 468.935065 1288.2 
L 486.950649 1288.2 
L 486.950649 1288.196803 
L 468.935065 1288.196803 
z
" style="fill:#2ca02c;opacity:0.4;"/>
   </g>
   <g id="patch_68">
    <path clip-path="url(#p3c9be9d831)" d="M 486.950649 1288.2 
L 504.966234 1288.2 
L 504.966234 1288.198721 
L 486.950649 1288.198721 
z
" style="fill:#2ca02c;opacity:0.4;"/>
   </g>
   <g id="matplotlib.axis_5">
    <g id="xtick_17">
     <g id="line2d_31">
      <g>
       <use style="stroke:#000000;stroke-width:0.8;" x="161.61039" xlink:href="#m48285e440d" y="1298.2"/>
      </g>
     </g>
     <g id="text_8">
      <!-- 68 -->
      <defs>
       <path d="M 31.78125 34.625 
Q 24.75 34.625 20.71875 30.859375 
Q 16.703125 27.09375 16.703125 20.515625 
Q 16.703125 13.921875 20.71875 10.15625 
Q 24.75 6.390625 31.78125 6.390625 
Q 38.8125 6.390625 42.859375 10.171875 
Q 46.921875 13.96875 46.921875 20.515625 
Q 46.921875 27.09375 42.890625 30.859375 
Q 38.875 34.625 31.78125 34.625 
z
M 21.921875 38.8125 
Q 15.578125 40.375 12.03125 44.71875 
Q 8.5 49.078125 8.5 55.328125 
Q 8.5 64.0625 14.71875 69.140625 
Q 20.953125 74.21875 31.78125 74.21875 
Q 42.671875 74.21875 48.875 69.140625 
Q 55.078125 64.0625 55.078125 55.328125 
Q 55.078125 49.078125 51.53125 44.71875 
Q 48 40.375 41.703125 38.8125 
Q 48.828125 37.15625 52.796875 32.3125 
Q 56.78125 27.484375 56.78125 20.515625 
Q 56.78125 9.90625 50.3125 4.234375 
Q 43.84375 -1.421875 31.78125 -1.421875 
Q 19.734375 -1.421875 13.25 4.234375 
Q 6.78125 9.90625 6.78125 20.515625 
Q 6.78125 27.484375 10.78125 32.3125 
Q 14.796875 37.15625 21.921875 38.8125 
z
M 18.3125 54.390625 
Q 18.3125 48.734375 21.84375 45.5625 
Q 25.390625 42.390625 31.78125 42.390625 
Q 38.140625 42.390625 41.71875 45.5625 
Q 45.3125 48.734375 45.3125 54.390625 
Q 45.3125 60.0625 41.71875 63.234375 
Q 38.140625 66.40625 31.78125 66.40625 
Q 25.390625 66.40625 21.84375 63.234375 
Q 18.3125 60.0625 18.3125 54.390625 
z
" id="DejaVuSans-38"/>
      </defs>
      <g transform="translate(146.34039 1323.43625)scale(0.24 -0.24)">
       <use xlink:href="#DejaVuSans-36"/>
       <use x="63.623047" xlink:href="#DejaVuSans-38"/>
      </g>
     </g>
    </g>
    <g id="xtick_18">
     <g id="line2d_32">
      <g>
       <use style="stroke:#000000;stroke-width:0.8;" x="218.836364" xlink:href="#m48285e440d" y="1298.2"/>
      </g>
     </g>
     <g id="text_9">
      <!-- 70 -->
      <defs>
       <path d="M 8.203125 72.90625 
L 55.078125 72.90625 
L 55.078125 68.703125 
L 28.609375 0 
L 18.3125 0 
L 43.21875 64.59375 
L 8.203125 64.59375 
z
" id="DejaVuSans-37"/>
      </defs>
      <g transform="translate(203.566364 1323.43625)scale(0.24 -0.24)">
       <use xlink:href="#DejaVuSans-37"/>
       <use x="63.623047" xlink:href="#DejaVuSans-30"/>
      </g>
     </g>
    </g>
    <g id="xtick_19">
     <g id="line2d_33">
      <g>
       <use style="stroke:#000000;stroke-width:0.8;" x="276.062338" xlink:href="#m48285e440d" y="1298.2"/>
      </g>
     </g>
     <g id="text_10">
      <!-- 72 -->
      <g transform="translate(260.792338 1323.43625)scale(0.24 -0.24)">
       <use xlink:href="#DejaVuSans-37"/>
       <use x="63.623047" xlink:href="#DejaVuSans-32"/>
      </g>
     </g>
    </g>
    <g id="xtick_20">
     <g id="line2d_34">
      <g>
       <use style="stroke:#000000;stroke-width:0.8;" x="333.288312" xlink:href="#m48285e440d" y="1298.2"/>
      </g>
     </g>
     <g id="text_11">
      <!-- 74 -->
      <g transform="translate(318.018312 1323.43625)scale(0.24 -0.24)">
       <use xlink:href="#DejaVuSans-37"/>
       <use x="63.623047" xlink:href="#DejaVuSans-34"/>
      </g>
     </g>
    </g>
    <g id="xtick_21">
     <g id="line2d_35">
      <g>
       <use style="stroke:#000000;stroke-width:0.8;" x="390.514286" xlink:href="#m48285e440d" y="1298.2"/>
      </g>
     </g>
     <g id="text_12">
      <!-- 76 -->
      <g transform="translate(375.244286 1323.43625)scale(0.24 -0.24)">
       <use xlink:href="#DejaVuSans-37"/>
       <use x="63.623047" xlink:href="#DejaVuSans-36"/>
      </g>
     </g>
    </g>
    <g id="xtick_22">
     <g id="line2d_36">
      <g>
       <use style="stroke:#000000;stroke-width:0.8;" x="447.74026" xlink:href="#m48285e440d" y="1298.2"/>
      </g>
     </g>
     <g id="text_13">
      <!-- 78 -->
      <g transform="translate(432.47026 1323.43625)scale(0.24 -0.24)">
       <use xlink:href="#DejaVuSans-37"/>
       <use x="63.623047" xlink:href="#DejaVuSans-38"/>
      </g>
     </g>
    </g>
    <g id="xtick_23">
     <g id="line2d_37">
      <g>
       <use style="stroke:#000000;stroke-width:0.8;" x="504.966234" xlink:href="#m48285e440d" y="1298.2"/>
      </g>
     </g>
     <g id="text_14">
      <!-- 80 -->
      <g transform="translate(489.696234 1323.43625)scale(0.24 -0.24)">
       <use xlink:href="#DejaVuSans-38"/>
       <use x="63.623047" xlink:href="#DejaVuSans-30"/>
      </g>
     </g>
    </g>
    <g id="xtick_24">
     <g id="line2d_38">
      <g>
       <use style="stroke:#000000;stroke-width:0.8;" x="562.192208" xlink:href="#m48285e440d" y="1298.2"/>
      </g>
     </g>
     <g id="text_15">
      <!-- 82 -->
      <g transform="translate(546.922208 1323.43625)scale(0.24 -0.24)">
       <use xlink:href="#DejaVuSans-38"/>
       <use x="63.623047" xlink:href="#DejaVuSans-32"/>
      </g>
     </g>
    </g>
   </g>
   <g id="matplotlib.axis_6">
    <g id="ytick_15">
     <g id="line2d_39">
      <g>
       <use style="stroke:#000000;stroke-width:0.8;" x="112.4" xlink:href="#m99bd8e05fd" y="1288.2"/>
      </g>
     </g>
     <g id="text_16">
      <!-- 0.0 -->
      <g transform="translate(67.2325 1297.318125)scale(0.24 -0.24)">
       <use xlink:href="#DejaVuSans-30"/>
       <use x="63.623047" xlink:href="#DejaVuSans-2e"/>
       <use x="95.410156" xlink:href="#DejaVuSans-30"/>
      </g>
     </g>
    </g>
    <g id="ytick_16">
     <g id="line2d_40">
      <g>
       <use style="stroke:#000000;stroke-width:0.8;" x="112.4" xlink:href="#m99bd8e05fd" y="1217.455289"/>
      </g>
     </g>
     <g id="text_17">
      <!-- 0.1 -->
      <g transform="translate(67.2325 1226.573414)scale(0.24 -0.24)">
       <use xlink:href="#DejaVuSans-30"/>
       <use x="63.623047" xlink:href="#DejaVuSans-2e"/>
       <use x="95.410156" xlink:href="#DejaVuSans-31"/>
      </g>
     </g>
    </g>
    <g id="ytick_17">
     <g id="line2d_41">
      <g>
       <use style="stroke:#000000;stroke-width:0.8;" x="112.4" xlink:href="#m99bd8e05fd" y="1146.710578"/>
      </g>
     </g>
     <g id="text_18">
      <!-- 0.2 -->
      <g transform="translate(67.2325 1155.828703)scale(0.24 -0.24)">
       <use xlink:href="#DejaVuSans-30"/>
       <use x="63.623047" xlink:href="#DejaVuSans-2e"/>
       <use x="95.410156" xlink:href="#DejaVuSans-32"/>
      </g>
     </g>
    </g>
    <g id="ytick_18">
     <g id="line2d_42">
      <g>
       <use style="stroke:#000000;stroke-width:0.8;" x="112.4" xlink:href="#m99bd8e05fd" y="1075.965867"/>
      </g>
     </g>
     <g id="text_19">
      <!-- 0.3 -->
      <g transform="translate(67.2325 1085.083992)scale(0.24 -0.24)">
       <use xlink:href="#DejaVuSans-30"/>
       <use x="63.623047" xlink:href="#DejaVuSans-2e"/>
       <use x="95.410156" xlink:href="#DejaVuSans-33"/>
      </g>
     </g>
    </g>
    <g id="ytick_19">
     <g id="line2d_43">
      <g>
       <use style="stroke:#000000;stroke-width:0.8;" x="112.4" xlink:href="#m99bd8e05fd" y="1005.221156"/>
      </g>
     </g>
     <g id="text_20">
      <!-- 0.4 -->
      <g transform="translate(67.2325 1014.339281)scale(0.24 -0.24)">
       <use xlink:href="#DejaVuSans-30"/>
       <use x="63.623047" xlink:href="#DejaVuSans-2e"/>
       <use x="95.410156" xlink:href="#DejaVuSans-34"/>
      </g>
     </g>
    </g>
    <g id="ytick_20">
     <g id="line2d_44">
      <g>
       <use style="stroke:#000000;stroke-width:0.8;" x="112.4" xlink:href="#m99bd8e05fd" y="934.476445"/>
      </g>
     </g>
     <g id="text_21">
      <!-- 0.5 -->
      <g transform="translate(67.2325 943.59457)scale(0.24 -0.24)">
       <use xlink:href="#DejaVuSans-30"/>
       <use x="63.623047" xlink:href="#DejaVuSans-2e"/>
       <use x="95.410156" xlink:href="#DejaVuSans-35"/>
      </g>
     </g>
    </g>
    <g id="ytick_21">
     <g id="line2d_45">
      <g>
       <use style="stroke:#000000;stroke-width:0.8;" x="112.4" xlink:href="#m99bd8e05fd" y="863.731734"/>
      </g>
     </g>
     <g id="text_22">
      <!-- 0.6 -->
      <g transform="translate(67.2325 872.849859)scale(0.24 -0.24)">
       <use xlink:href="#DejaVuSans-30"/>
       <use x="63.623047" xlink:href="#DejaVuSans-2e"/>
       <use x="95.410156" xlink:href="#DejaVuSans-36"/>
      </g>
     </g>
    </g>
   </g>
   <g id="patch_69">
    <path d="M 112.4 1288.2 
L 112.4 845.123077 
" style="fill:none;stroke:#000000;stroke-linecap:square;stroke-linejoin:miter;stroke-width:0.8;"/>
   </g>
   <g id="patch_70">
    <path d="M 122.4 1298.2 
L 612 1298.2 
" style="fill:none;stroke:#000000;stroke-linecap:square;stroke-linejoin:miter;stroke-width:0.8;"/>
   </g>
  </g>
  <g id="axes_4">
   <g id="patch_71">
    <path d="M 856.8 1288.2 
L 1346.4 1288.2 
L 1346.4 845.123077 
L 856.8 845.123077 
z
" style="fill:#ffffff;"/>
   </g>
   <g id="patch_72">
    <path clip-path="url(#pedd07b2f6b)" d="M 900.249351 1288.2 
L 920.384416 1288.2 
L 920.384416 966.857052 
L 900.249351 966.857052 
z
" style="fill:#d62728;opacity:0.4;"/>
   </g>
   <g id="patch_73">
    <path clip-path="url(#pedd07b2f6b)" d="M 920.384416 1288.2 
L 940.519481 1288.2 
L 940.519481 1028.014511 
L 920.384416 1028.014511 
z
" style="fill:#d62728;opacity:0.4;"/>
   </g>
   <g id="patch_74">
    <path clip-path="url(#pedd07b2f6b)" d="M 940.519481 1288.2 
L 960.654545 1288.2 
L 960.654545 1117.757901 
L 940.519481 1117.757901 
z
" style="fill:#d62728;opacity:0.4;"/>
   </g>
   <g id="patch_75">
    <path clip-path="url(#pedd07b2f6b)" d="M 960.654545 1288.2 
L 980.78961 1288.2 
L 980.78961 1182.024039 
L 960.654545 1182.024039 
z
" style="fill:#d62728;opacity:0.4;"/>
   </g>
   <g id="patch_76">
    <path clip-path="url(#pedd07b2f6b)" d="M 980.78961 1288.2 
L 1000.924675 1288.2 
L 1000.924675 1224.900483 
L 980.78961 1224.900483 
z
" style="fill:#d62728;opacity:0.4;"/>
   </g>
   <g id="patch_77">
    <path clip-path="url(#pedd07b2f6b)" d="M 1000.924675 1288.2 
L 1021.05974 1288.2 
L 1021.05974 1251.202695 
L 1000.924675 1251.202695 
z
" style="fill:#d62728;opacity:0.4;"/>
   </g>
   <g id="patch_78">
    <path clip-path="url(#pedd07b2f6b)" d="M 1021.05974 1288.2 
L 1041.194805 1288.2 
L 1041.194805 1266.954416 
L 1021.05974 1266.954416 
z
" style="fill:#d62728;opacity:0.4;"/>
   </g>
   <g id="patch_79">
    <path clip-path="url(#pedd07b2f6b)" d="M 1041.194805 1288.2 
L 1061.32987 1288.2 
L 1061.32987 1276.447113 
L 1041.194805 1276.447113 
z
" style="fill:#d62728;opacity:0.4;"/>
   </g>
   <g id="patch_80">
    <path clip-path="url(#pedd07b2f6b)" d="M 1061.32987 1288.2 
L 1081.464935 1288.2 
L 1081.464935 1281.575797 
L 1061.32987 1281.575797 
z
" style="fill:#d62728;opacity:0.4;"/>
   </g>
   <g id="patch_81">
    <path clip-path="url(#pedd07b2f6b)" d="M 1081.464935 1288.2 
L 1101.6 1288.2 
L 1101.6 1284.433998 
L 1081.464935 1284.433998 
z
" style="fill:#d62728;opacity:0.4;"/>
   </g>
   <g id="patch_82">
    <path clip-path="url(#pedd07b2f6b)" d="M 1101.6 1288.2 
L 1121.735065 1288.2 
L 1121.735065 1286.158918 
L 1101.6 1286.158918 
z
" style="fill:#d62728;opacity:0.4;"/>
   </g>
   <g id="patch_83">
    <path clip-path="url(#pedd07b2f6b)" d="M 1121.735065 1288.2 
L 1141.87013 1288.2 
L 1141.87013 1287.316708 
L 1121.735065 1287.316708 
z
" style="fill:#d62728;opacity:0.4;"/>
   </g>
   <g id="patch_84">
    <path clip-path="url(#pedd07b2f6b)" d="M 1141.87013 1288.2 
L 1162.005195 1288.2 
L 1162.005195 1287.836291 
L 1141.87013 1287.836291 
z
" style="fill:#d62728;opacity:0.4;"/>
   </g>
   <g id="patch_85">
    <path clip-path="url(#pedd07b2f6b)" d="M 1162.005195 1288.2 
L 1182.14026 1288.2 
L 1182.14026 1288.072555 
L 1162.005195 1288.072555 
z
" style="fill:#d62728;opacity:0.4;"/>
   </g>
   <g id="patch_86">
    <path clip-path="url(#pedd07b2f6b)" d="M 1182.14026 1288.2 
L 1202.275325 1288.2 
L 1202.275325 1288.152453 
L 1182.14026 1288.152453 
z
" style="fill:#d62728;opacity:0.4;"/>
   </g>
   <g id="patch_87">
    <path clip-path="url(#pedd07b2f6b)" d="M 1202.275325 1288.2 
L 1222.41039 1288.2 
L 1222.41039 1288.183824 
L 1202.275325 1288.183824 
z
" style="fill:#d62728;opacity:0.4;"/>
   </g>
   <g id="patch_88">
    <path clip-path="url(#pedd07b2f6b)" d="M 1222.41039 1288.2 
L 1242.545455 1288.2 
L 1242.545455 1288.194608 
L 1222.41039 1288.194608 
z
" style="fill:#d62728;opacity:0.4;"/>
   </g>
   <g id="patch_89">
    <path clip-path="url(#pedd07b2f6b)" d="M 1242.545455 1288.2 
L 1262.680519 1288.2 
L 1262.680519 1288.197549 
L 1242.545455 1288.197549 
z
" style="fill:#d62728;opacity:0.4;"/>
   </g>
   <g id="patch_90">
    <path clip-path="url(#pedd07b2f6b)" d="M 1262.680519 1288.2 
L 1282.815584 1288.2 
L 1282.815584 1288.2 
L 1262.680519 1288.2 
z
" style="fill:#d62728;opacity:0.4;"/>
   </g>
   <g id="patch_91">
    <path clip-path="url(#pedd07b2f6b)" d="M 1282.815584 1288.2 
L 1302.950649 1288.2 
L 1302.950649 1288.19951 
L 1282.815584 1288.19951 
z
" style="fill:#d62728;opacity:0.4;"/>
   </g>
   <g id="matplotlib.axis_7">
    <g id="xtick_25">
     <g id="line2d_46">
      <g>
       <use style="stroke:#000000;stroke-width:0.8;" x="896.01039" xlink:href="#m48285e440d" y="1298.2"/>
      </g>
     </g>
     <g id="text_23">
      <!-- 68 -->
      <g transform="translate(880.74039 1323.43625)scale(0.24 -0.24)">
       <use xlink:href="#DejaVuSans-36"/>
       <use x="63.623047" xlink:href="#DejaVuSans-38"/>
      </g>
     </g>
    </g>
    <g id="xtick_26">
     <g id="line2d_47">
      <g>
       <use style="stroke:#000000;stroke-width:0.8;" x="953.236364" xlink:href="#m48285e440d" y="1298.2"/>
      </g>
     </g>
     <g id="text_24">
      <!-- 70 -->
      <g transform="translate(937.966364 1323.43625)scale(0.24 -0.24)">
       <use xlink:href="#DejaVuSans-37"/>
       <use x="63.623047" xlink:href="#DejaVuSans-30"/>
      </g>
     </g>
    </g>
    <g id="xtick_27">
     <g id="line2d_48">
      <g>
       <use style="stroke:#000000;stroke-width:0.8;" x="1010.462338" xlink:href="#m48285e440d" y="1298.2"/>
      </g>
     </g>
     <g id="text_25">
      <!-- 72 -->
      <g transform="translate(995.192338 1323.43625)scale(0.24 -0.24)">
       <use xlink:href="#DejaVuSans-37"/>
       <use x="63.623047" xlink:href="#DejaVuSans-32"/>
      </g>
     </g>
    </g>
    <g id="xtick_28">
     <g id="line2d_49">
      <g>
       <use style="stroke:#000000;stroke-width:0.8;" x="1067.688312" xlink:href="#m48285e440d" y="1298.2"/>
      </g>
     </g>
     <g id="text_26">
      <!-- 74 -->
      <g transform="translate(1052.418312 1323.43625)scale(0.24 -0.24)">
       <use xlink:href="#DejaVuSans-37"/>
       <use x="63.623047" xlink:href="#DejaVuSans-34"/>
      </g>
     </g>
    </g>
    <g id="xtick_29">
     <g id="line2d_50">
      <g>
       <use style="stroke:#000000;stroke-width:0.8;" x="1124.914286" xlink:href="#m48285e440d" y="1298.2"/>
      </g>
     </g>
     <g id="text_27">
      <!-- 76 -->
      <g transform="translate(1109.644286 1323.43625)scale(0.24 -0.24)">
       <use xlink:href="#DejaVuSans-37"/>
       <use x="63.623047" xlink:href="#DejaVuSans-36"/>
      </g>
     </g>
    </g>
    <g id="xtick_30">
     <g id="line2d_51">
      <g>
       <use style="stroke:#000000;stroke-width:0.8;" x="1182.14026" xlink:href="#m48285e440d" y="1298.2"/>
      </g>
     </g>
     <g id="text_28">
      <!-- 78 -->
      <g transform="translate(1166.87026 1323.43625)scale(0.24 -0.24)">
       <use xlink:href="#DejaVuSans-37"/>
       <use x="63.623047" xlink:href="#DejaVuSans-38"/>
      </g>
     </g>
    </g>
    <g id="xtick_31">
     <g id="line2d_52">
      <g>
       <use style="stroke:#000000;stroke-width:0.8;" x="1239.366234" xlink:href="#m48285e440d" y="1298.2"/>
      </g>
     </g>
     <g id="text_29">
      <!-- 80 -->
      <g transform="translate(1224.096234 1323.43625)scale(0.24 -0.24)">
       <use xlink:href="#DejaVuSans-38"/>
       <use x="63.623047" xlink:href="#DejaVuSans-30"/>
      </g>
     </g>
    </g>
    <g id="xtick_32">
     <g id="line2d_53">
      <g>
       <use style="stroke:#000000;stroke-width:0.8;" x="1296.592208" xlink:href="#m48285e440d" y="1298.2"/>
      </g>
     </g>
     <g id="text_30">
      <!-- 82 -->
      <g transform="translate(1281.322208 1323.43625)scale(0.24 -0.24)">
       <use xlink:href="#DejaVuSans-38"/>
       <use x="63.623047" xlink:href="#DejaVuSans-32"/>
      </g>
     </g>
    </g>
   </g>
   <g id="matplotlib.axis_8">
    <g id="ytick_22">
     <g id="line2d_54">
      <g>
       <use style="stroke:#000000;stroke-width:0.8;" x="846.8" xlink:href="#m99bd8e05fd" y="1288.2"/>
      </g>
     </g>
    </g>
    <g id="ytick_23">
     <g id="line2d_55">
      <g>
       <use style="stroke:#000000;stroke-width:0.8;" x="846.8" xlink:href="#m99bd8e05fd" y="1217.455289"/>
      </g>
     </g>
    </g>
    <g id="ytick_24">
     <g id="line2d_56">
      <g>
       <use style="stroke:#000000;stroke-width:0.8;" x="846.8" xlink:href="#m99bd8e05fd" y="1146.710578"/>
      </g>
     </g>
    </g>
    <g id="ytick_25">
     <g id="line2d_57">
      <g>
       <use style="stroke:#000000;stroke-width:0.8;" x="846.8" xlink:href="#m99bd8e05fd" y="1075.965867"/>
      </g>
     </g>
    </g>
    <g id="ytick_26">
     <g id="line2d_58">
      <g>
       <use style="stroke:#000000;stroke-width:0.8;" x="846.8" xlink:href="#m99bd8e05fd" y="1005.221156"/>
      </g>
     </g>
    </g>
    <g id="ytick_27">
     <g id="line2d_59">
      <g>
       <use style="stroke:#000000;stroke-width:0.8;" x="846.8" xlink:href="#m99bd8e05fd" y="934.476445"/>
      </g>
     </g>
    </g>
    <g id="ytick_28">
     <g id="line2d_60">
      <g>
       <use style="stroke:#000000;stroke-width:0.8;" x="846.8" xlink:href="#m99bd8e05fd" y="863.731734"/>
      </g>
     </g>
    </g>
   </g>
   <g id="patch_92">
    <path d="M 846.8 1288.2 
L 846.8 845.123077 
" style="fill:none;stroke:#000000;stroke-linecap:square;stroke-linejoin:miter;stroke-width:0.8;"/>
   </g>
   <g id="patch_93">
    <path d="M 856.8 1298.2 
L 1346.4 1298.2 
" style="fill:none;stroke:#000000;stroke-linecap:square;stroke-linejoin:miter;stroke-width:0.8;"/>
   </g>
  </g>
  <g id="text_31">
   <!-- Performances (%) -->
   <defs>
    <path d="M 19.671875 64.796875 
L 19.671875 37.40625 
L 32.078125 37.40625 
Q 38.96875 37.40625 42.71875 40.96875 
Q 46.484375 44.53125 46.484375 51.125 
Q 46.484375 57.671875 42.71875 61.234375 
Q 38.96875 64.796875 32.078125 64.796875 
z
M 9.8125 72.90625 
L 32.078125 72.90625 
Q 44.34375 72.90625 50.609375 67.359375 
Q 56.890625 61.8125 56.890625 51.125 
Q 56.890625 40.328125 50.609375 34.8125 
Q 44.34375 29.296875 32.078125 29.296875 
L 19.671875 29.296875 
L 19.671875 0 
L 9.8125 0 
z
" id="DejaVuSans-50"/>
    <path d="M 56.203125 29.59375 
L 56.203125 25.203125 
L 14.890625 25.203125 
Q 15.484375 15.921875 20.484375 11.0625 
Q 25.484375 6.203125 34.421875 6.203125 
Q 39.59375 6.203125 44.453125 7.46875 
Q 49.3125 8.734375 54.109375 11.28125 
L 54.109375 2.78125 
Q 49.265625 0.734375 44.1875 -0.34375 
Q 39.109375 -1.421875 33.890625 -1.421875 
Q 20.796875 -1.421875 13.15625 6.1875 
Q 5.515625 13.8125 5.515625 26.8125 
Q 5.515625 40.234375 12.765625 48.109375 
Q 20.015625 56 32.328125 56 
Q 43.359375 56 49.78125 48.890625 
Q 56.203125 41.796875 56.203125 29.59375 
z
M 47.21875 32.234375 
Q 47.125 39.59375 43.09375 43.984375 
Q 39.0625 48.390625 32.421875 48.390625 
Q 24.90625 48.390625 20.390625 44.140625 
Q 15.875 39.890625 15.1875 32.171875 
z
" id="DejaVuSans-65"/>
    <path d="M 41.109375 46.296875 
Q 39.59375 47.171875 37.8125 47.578125 
Q 36.03125 48 33.890625 48 
Q 26.265625 48 22.1875 43.046875 
Q 18.109375 38.09375 18.109375 28.8125 
L 18.109375 0 
L 9.078125 0 
L 9.078125 54.6875 
L 18.109375 54.6875 
L 18.109375 46.1875 
Q 20.953125 51.171875 25.484375 53.578125 
Q 30.03125 56 36.53125 56 
Q 37.453125 56 38.578125 55.875 
Q 39.703125 55.765625 41.0625 55.515625 
z
" id="DejaVuSans-72"/>
    <path d="M 37.109375 75.984375 
L 37.109375 68.5 
L 28.515625 68.5 
Q 23.6875 68.5 21.796875 66.546875 
Q 19.921875 64.59375 19.921875 59.515625 
L 19.921875 54.6875 
L 34.71875 54.6875 
L 34.71875 47.703125 
L 19.921875 47.703125 
L 19.921875 0 
L 10.890625 0 
L 10.890625 47.703125 
L 2.296875 47.703125 
L 2.296875 54.6875 
L 10.890625 54.6875 
L 10.890625 58.5 
Q 10.890625 67.625 15.140625 71.796875 
Q 19.390625 75.984375 28.609375 75.984375 
z
" id="DejaVuSans-66"/>
    <path d="M 30.609375 48.390625 
Q 23.390625 48.390625 19.1875 42.75 
Q 14.984375 37.109375 14.984375 27.296875 
Q 14.984375 17.484375 19.15625 11.84375 
Q 23.34375 6.203125 30.609375 6.203125 
Q 37.796875 6.203125 41.984375 11.859375 
Q 46.1875 17.53125 46.1875 27.296875 
Q 46.1875 37.015625 41.984375 42.703125 
Q 37.796875 48.390625 30.609375 48.390625 
z
M 30.609375 56 
Q 42.328125 56 49.015625 48.375 
Q 55.71875 40.765625 55.71875 27.296875 
Q 55.71875 13.875 49.015625 6.21875 
Q 42.328125 -1.421875 30.609375 -1.421875 
Q 18.84375 -1.421875 12.171875 6.21875 
Q 5.515625 13.875 5.515625 27.296875 
Q 5.515625 40.765625 12.171875 48.375 
Q 18.84375 56 30.609375 56 
z
" id="DejaVuSans-6f"/>
    <path d="M 52 44.1875 
Q 55.375 50.25 60.0625 53.125 
Q 64.75 56 71.09375 56 
Q 79.640625 56 84.28125 50.015625 
Q 88.921875 44.046875 88.921875 33.015625 
L 88.921875 0 
L 79.890625 0 
L 79.890625 32.71875 
Q 79.890625 40.578125 77.09375 44.375 
Q 74.3125 48.1875 68.609375 48.1875 
Q 61.625 48.1875 57.5625 43.546875 
Q 53.515625 38.921875 53.515625 30.90625 
L 53.515625 0 
L 44.484375 0 
L 44.484375 32.71875 
Q 44.484375 40.625 41.703125 44.40625 
Q 38.921875 48.1875 33.109375 48.1875 
Q 26.21875 48.1875 22.15625 43.53125 
Q 18.109375 38.875 18.109375 30.90625 
L 18.109375 0 
L 9.078125 0 
L 9.078125 54.6875 
L 18.109375 54.6875 
L 18.109375 46.1875 
Q 21.1875 51.21875 25.484375 53.609375 
Q 29.78125 56 35.6875 56 
Q 41.65625 56 45.828125 52.96875 
Q 50 49.953125 52 44.1875 
z
" id="DejaVuSans-6d"/>
    <path d="M 34.28125 27.484375 
Q 23.390625 27.484375 19.1875 25 
Q 14.984375 22.515625 14.984375 16.5 
Q 14.984375 11.71875 18.140625 8.90625 
Q 21.296875 6.109375 26.703125 6.109375 
Q 34.1875 6.109375 38.703125 11.40625 
Q 43.21875 16.703125 43.21875 25.484375 
L 43.21875 27.484375 
z
M 52.203125 31.203125 
L 52.203125 0 
L 43.21875 0 
L 43.21875 8.296875 
Q 40.140625 3.328125 35.546875 0.953125 
Q 30.953125 -1.421875 24.3125 -1.421875 
Q 15.921875 -1.421875 10.953125 3.296875 
Q 6 8.015625 6 15.921875 
Q 6 25.140625 12.171875 29.828125 
Q 18.359375 34.515625 30.609375 34.515625 
L 43.21875 34.515625 
L 43.21875 35.40625 
Q 43.21875 41.609375 39.140625 45 
Q 35.0625 48.390625 27.6875 48.390625 
Q 23 48.390625 18.546875 47.265625 
Q 14.109375 46.140625 10.015625 43.890625 
L 10.015625 52.203125 
Q 14.9375 54.109375 19.578125 55.046875 
Q 24.21875 56 28.609375 56 
Q 40.484375 56 46.34375 49.84375 
Q 52.203125 43.703125 52.203125 31.203125 
z
" id="DejaVuSans-61"/>
    <path d="M 54.890625 33.015625 
L 54.890625 0 
L 45.90625 0 
L 45.90625 32.71875 
Q 45.90625 40.484375 42.875 44.328125 
Q 39.84375 48.1875 33.796875 48.1875 
Q 26.515625 48.1875 22.3125 43.546875 
Q 18.109375 38.921875 18.109375 30.90625 
L 18.109375 0 
L 9.078125 0 
L 9.078125 54.6875 
L 18.109375 54.6875 
L 18.109375 46.1875 
Q 21.34375 51.125 25.703125 53.5625 
Q 30.078125 56 35.796875 56 
Q 45.21875 56 50.046875 50.171875 
Q 54.890625 44.34375 54.890625 33.015625 
z
" id="DejaVuSans-6e"/>
    <path d="M 48.78125 52.59375 
L 48.78125 44.1875 
Q 44.96875 46.296875 41.140625 47.34375 
Q 37.3125 48.390625 33.40625 48.390625 
Q 24.65625 48.390625 19.8125 42.84375 
Q 14.984375 37.3125 14.984375 27.296875 
Q 14.984375 17.28125 19.8125 11.734375 
Q 24.65625 6.203125 33.40625 6.203125 
Q 37.3125 6.203125 41.140625 7.25 
Q 44.96875 8.296875 48.78125 10.40625 
L 48.78125 2.09375 
Q 45.015625 0.34375 40.984375 -0.53125 
Q 36.96875 -1.421875 32.421875 -1.421875 
Q 20.0625 -1.421875 12.78125 6.34375 
Q 5.515625 14.109375 5.515625 27.296875 
Q 5.515625 40.671875 12.859375 48.328125 
Q 20.21875 56 33.015625 56 
Q 37.15625 56 41.109375 55.140625 
Q 45.0625 54.296875 48.78125 52.59375 
z
" id="DejaVuSans-63"/>
    <path d="M 44.28125 53.078125 
L 44.28125 44.578125 
Q 40.484375 46.53125 36.375 47.5 
Q 32.28125 48.484375 27.875 48.484375 
Q 21.1875 48.484375 17.84375 46.4375 
Q 14.5 44.390625 14.5 40.28125 
Q 14.5 37.15625 16.890625 35.375 
Q 19.28125 33.59375 26.515625 31.984375 
L 29.59375 31.296875 
Q 39.15625 29.25 43.1875 25.515625 
Q 47.21875 21.78125 47.21875 15.09375 
Q 47.21875 7.46875 41.1875 3.015625 
Q 35.15625 -1.421875 24.609375 -1.421875 
Q 20.21875 -1.421875 15.453125 -0.5625 
Q 10.6875 0.296875 5.421875 2 
L 5.421875 11.28125 
Q 10.40625 8.6875 15.234375 7.390625 
Q 20.0625 6.109375 24.8125 6.109375 
Q 31.15625 6.109375 34.5625 8.28125 
Q 37.984375 10.453125 37.984375 14.40625 
Q 37.984375 18.0625 35.515625 20.015625 
Q 33.0625 21.96875 24.703125 23.78125 
L 21.578125 24.515625 
Q 13.234375 26.265625 9.515625 29.90625 
Q 5.8125 33.546875 5.8125 39.890625 
Q 5.8125 47.609375 11.28125 51.796875 
Q 16.75 56 26.8125 56 
Q 31.78125 56 36.171875 55.265625 
Q 40.578125 54.546875 44.28125 53.078125 
z
" id="DejaVuSans-73"/>
    <path id="DejaVuSans-20"/>
    <path d="M 31 75.875 
Q 24.46875 64.65625 21.28125 53.65625 
Q 18.109375 42.671875 18.109375 31.390625 
Q 18.109375 20.125 21.3125 9.0625 
Q 24.515625 -2 31 -13.1875 
L 23.1875 -13.1875 
Q 15.875 -1.703125 12.234375 9.375 
Q 8.59375 20.453125 8.59375 31.390625 
Q 8.59375 42.28125 12.203125 53.3125 
Q 15.828125 64.359375 23.1875 75.875 
z
" id="DejaVuSans-28"/>
    <path d="M 72.703125 32.078125 
Q 68.453125 32.078125 66.03125 28.46875 
Q 63.625 24.859375 63.625 18.40625 
Q 63.625 12.0625 66.03125 8.421875 
Q 68.453125 4.78125 72.703125 4.78125 
Q 76.859375 4.78125 79.265625 8.421875 
Q 81.6875 12.0625 81.6875 18.40625 
Q 81.6875 24.8125 79.265625 28.4375 
Q 76.859375 32.078125 72.703125 32.078125 
z
M 72.703125 38.28125 
Q 80.421875 38.28125 84.953125 32.90625 
Q 89.5 27.546875 89.5 18.40625 
Q 89.5 9.28125 84.9375 3.921875 
Q 80.375 -1.421875 72.703125 -1.421875 
Q 64.890625 -1.421875 60.34375 3.921875 
Q 55.8125 9.28125 55.8125 18.40625 
Q 55.8125 27.59375 60.375 32.9375 
Q 64.9375 38.28125 72.703125 38.28125 
z
M 22.3125 68.015625 
Q 18.109375 68.015625 15.6875 64.375 
Q 13.28125 60.75 13.28125 54.390625 
Q 13.28125 47.953125 15.671875 44.328125 
Q 18.0625 40.71875 22.3125 40.71875 
Q 26.5625 40.71875 28.96875 44.328125 
Q 31.390625 47.953125 31.390625 54.390625 
Q 31.390625 60.6875 28.953125 64.34375 
Q 26.515625 68.015625 22.3125 68.015625 
z
M 66.40625 74.21875 
L 74.21875 74.21875 
L 28.609375 -1.421875 
L 20.796875 -1.421875 
z
M 22.3125 74.21875 
Q 30.03125 74.21875 34.609375 68.875 
Q 39.203125 63.53125 39.203125 54.390625 
Q 39.203125 45.171875 34.640625 39.84375 
Q 30.078125 34.515625 22.3125 34.515625 
Q 14.546875 34.515625 10.03125 39.859375 
Q 5.515625 45.21875 5.515625 54.390625 
Q 5.515625 63.484375 10.046875 68.84375 
Q 14.59375 74.21875 22.3125 74.21875 
z
" id="DejaVuSans-25"/>
    <path d="M 8.015625 75.875 
L 15.828125 75.875 
Q 23.140625 64.359375 26.78125 53.3125 
Q 30.421875 42.28125 30.421875 31.390625 
Q 30.421875 20.453125 26.78125 9.375 
Q 23.140625 -1.703125 15.828125 -13.1875 
L 8.015625 -13.1875 
Q 14.5 -2 17.703125 9.0625 
Q 20.90625 20.125 20.90625 31.390625 
Q 20.90625 42.671875 17.703125 53.65625 
Q 14.5 64.65625 8.015625 75.875 
z
" id="DejaVuSans-29"/>
   </defs>
   <g transform="translate(546.10125 1374.6)scale(0.34 -0.34)">
    <use xlink:href="#DejaVuSans-50"/>
    <use x="60.255859" xlink:href="#DejaVuSans-65"/>
    <use x="121.779297" xlink:href="#DejaVuSans-72"/>
    <use x="162.892578" xlink:href="#DejaVuSans-66"/>
    <use x="198.097656" xlink:href="#DejaVuSans-6f"/>
    <use x="259.279297" xlink:href="#DejaVuSans-72"/>
    <use x="300.376953" xlink:href="#DejaVuSans-6d"/>
    <use x="397.789062" xlink:href="#DejaVuSans-61"/>
    <use x="459.068359" xlink:href="#DejaVuSans-6e"/>
    <use x="522.447266" xlink:href="#DejaVuSans-63"/>
    <use x="577.427734" xlink:href="#DejaVuSans-65"/>
    <use x="638.951172" xlink:href="#DejaVuSans-73"/>
    <use x="691.050781" xlink:href="#DejaVuSans-20"/>
    <use x="722.837891" xlink:href="#DejaVuSans-28"/>
    <use x="761.851562" xlink:href="#DejaVuSans-25"/>
    <use x="856.871094" xlink:href="#DejaVuSans-29"/>
   </g>
  </g>
  <g id="text_32">
   <!-- Lengths of couples plateus -->
   <defs>
    <path d="M 9.8125 72.90625 
L 19.671875 72.90625 
L 19.671875 8.296875 
L 55.171875 8.296875 
L 55.171875 0 
L 9.8125 0 
z
" id="DejaVuSans-4c"/>
    <path d="M 45.40625 27.984375 
Q 45.40625 37.75 41.375 43.109375 
Q 37.359375 48.484375 30.078125 48.484375 
Q 22.859375 48.484375 18.828125 43.109375 
Q 14.796875 37.75 14.796875 27.984375 
Q 14.796875 18.265625 18.828125 12.890625 
Q 22.859375 7.515625 30.078125 7.515625 
Q 37.359375 7.515625 41.375 12.890625 
Q 45.40625 18.265625 45.40625 27.984375 
z
M 54.390625 6.78125 
Q 54.390625 -7.171875 48.1875 -13.984375 
Q 42 -20.796875 29.203125 -20.796875 
Q 24.46875 -20.796875 20.265625 -20.09375 
Q 16.0625 -19.390625 12.109375 -17.921875 
L 12.109375 -9.1875 
Q 16.0625 -11.328125 19.921875 -12.34375 
Q 23.78125 -13.375 27.78125 -13.375 
Q 36.625 -13.375 41.015625 -8.765625 
Q 45.40625 -4.15625 45.40625 5.171875 
L 45.40625 9.625 
Q 42.625 4.78125 38.28125 2.390625 
Q 33.9375 0 27.875 0 
Q 17.828125 0 11.671875 7.65625 
Q 5.515625 15.328125 5.515625 27.984375 
Q 5.515625 40.671875 11.671875 48.328125 
Q 17.828125 56 27.875 56 
Q 33.9375 56 38.28125 53.609375 
Q 42.625 51.21875 45.40625 46.390625 
L 45.40625 54.6875 
L 54.390625 54.6875 
z
" id="DejaVuSans-67"/>
    <path d="M 18.3125 70.21875 
L 18.3125 54.6875 
L 36.8125 54.6875 
L 36.8125 47.703125 
L 18.3125 47.703125 
L 18.3125 18.015625 
Q 18.3125 11.328125 20.140625 9.421875 
Q 21.96875 7.515625 27.59375 7.515625 
L 36.8125 7.515625 
L 36.8125 0 
L 27.59375 0 
Q 17.1875 0 13.234375 3.875 
Q 9.28125 7.765625 9.28125 18.015625 
L 9.28125 47.703125 
L 2.6875 47.703125 
L 2.6875 54.6875 
L 9.28125 54.6875 
L 9.28125 70.21875 
z
" id="DejaVuSans-74"/>
    <path d="M 54.890625 33.015625 
L 54.890625 0 
L 45.90625 0 
L 45.90625 32.71875 
Q 45.90625 40.484375 42.875 44.328125 
Q 39.84375 48.1875 33.796875 48.1875 
Q 26.515625 48.1875 22.3125 43.546875 
Q 18.109375 38.921875 18.109375 30.90625 
L 18.109375 0 
L 9.078125 0 
L 9.078125 75.984375 
L 18.109375 75.984375 
L 18.109375 46.1875 
Q 21.34375 51.125 25.703125 53.5625 
Q 30.078125 56 35.796875 56 
Q 45.21875 56 50.046875 50.171875 
Q 54.890625 44.34375 54.890625 33.015625 
z
" id="DejaVuSans-68"/>
    <path d="M 8.5 21.578125 
L 8.5 54.6875 
L 17.484375 54.6875 
L 17.484375 21.921875 
Q 17.484375 14.15625 20.5 10.265625 
Q 23.53125 6.390625 29.59375 6.390625 
Q 36.859375 6.390625 41.078125 11.03125 
Q 45.3125 15.671875 45.3125 23.6875 
L 45.3125 54.6875 
L 54.296875 54.6875 
L 54.296875 0 
L 45.3125 0 
L 45.3125 8.40625 
Q 42.046875 3.421875 37.71875 1 
Q 33.40625 -1.421875 27.6875 -1.421875 
Q 18.265625 -1.421875 13.375 4.4375 
Q 8.5 10.296875 8.5 21.578125 
z
M 31.109375 56 
z
" id="DejaVuSans-75"/>
    <path d="M 18.109375 8.203125 
L 18.109375 -20.796875 
L 9.078125 -20.796875 
L 9.078125 54.6875 
L 18.109375 54.6875 
L 18.109375 46.390625 
Q 20.953125 51.265625 25.265625 53.625 
Q 29.59375 56 35.59375 56 
Q 45.5625 56 51.78125 48.09375 
Q 58.015625 40.1875 58.015625 27.296875 
Q 58.015625 14.40625 51.78125 6.484375 
Q 45.5625 -1.421875 35.59375 -1.421875 
Q 29.59375 -1.421875 25.265625 0.953125 
Q 20.953125 3.328125 18.109375 8.203125 
z
M 48.6875 27.296875 
Q 48.6875 37.203125 44.609375 42.84375 
Q 40.53125 48.484375 33.40625 48.484375 
Q 26.265625 48.484375 22.1875 42.84375 
Q 18.109375 37.203125 18.109375 27.296875 
Q 18.109375 17.390625 22.1875 11.75 
Q 26.265625 6.109375 33.40625 6.109375 
Q 40.53125 6.109375 44.609375 11.75 
Q 48.6875 17.390625 48.6875 27.296875 
z
" id="DejaVuSans-70"/>
    <path d="M 9.421875 75.984375 
L 18.40625 75.984375 
L 18.40625 0 
L 9.421875 0 
z
" id="DejaVuSans-6c"/>
   </defs>
   <g transform="translate(33.034688 940.626875)rotate(-90)scale(0.34 -0.34)">
    <use xlink:href="#DejaVuSans-4c"/>
    <use x="55.697266" xlink:href="#DejaVuSans-65"/>
    <use x="117.220703" xlink:href="#DejaVuSans-6e"/>
    <use x="180.599609" xlink:href="#DejaVuSans-67"/>
    <use x="244.076172" xlink:href="#DejaVuSans-74"/>
    <use x="283.285156" xlink:href="#DejaVuSans-68"/>
    <use x="346.664062" xlink:href="#DejaVuSans-73"/>
    <use x="398.763672" xlink:href="#DejaVuSans-20"/>
    <use x="430.550781" xlink:href="#DejaVuSans-6f"/>
    <use x="491.732422" xlink:href="#DejaVuSans-66"/>
    <use x="526.9375" xlink:href="#DejaVuSans-20"/>
    <use x="558.724609" xlink:href="#DejaVuSans-63"/>
    <use x="613.705078" xlink:href="#DejaVuSans-6f"/>
    <use x="674.886719" xlink:href="#DejaVuSans-75"/>
    <use x="738.265625" xlink:href="#DejaVuSans-70"/>
    <use x="801.742188" xlink:href="#DejaVuSans-6c"/>
    <use x="829.525391" xlink:href="#DejaVuSans-65"/>
    <use x="891.048828" xlink:href="#DejaVuSans-73"/>
    <use x="943.148438" xlink:href="#DejaVuSans-20"/>
    <use x="974.935547" xlink:href="#DejaVuSans-70"/>
    <use x="1038.412109" xlink:href="#DejaVuSans-6c"/>
    <use x="1066.195312" xlink:href="#DejaVuSans-61"/>
    <use x="1127.474609" xlink:href="#DejaVuSans-74"/>
    <use x="1166.683594" xlink:href="#DejaVuSans-65"/>
    <use x="1228.207031" xlink:href="#DejaVuSans-75"/>
    <use x="1291.585938" xlink:href="#DejaVuSans-73"/>
   </g>
   <!--           (Normalized) -->
   <defs>
    <path d="M 9.8125 72.90625 
L 23.09375 72.90625 
L 55.421875 11.921875 
L 55.421875 72.90625 
L 64.984375 72.90625 
L 64.984375 0 
L 51.703125 0 
L 19.390625 60.984375 
L 19.390625 0 
L 9.8125 0 
z
" id="DejaVuSans-4e"/>
    <path d="M 9.421875 54.6875 
L 18.40625 54.6875 
L 18.40625 0 
L 9.421875 0 
z
M 9.421875 75.984375 
L 18.40625 75.984375 
L 18.40625 64.59375 
L 9.421875 64.59375 
z
" id="DejaVuSans-69"/>
    <path d="M 5.515625 54.6875 
L 48.1875 54.6875 
L 48.1875 46.484375 
L 14.40625 7.171875 
L 48.1875 7.171875 
L 48.1875 0 
L 4.296875 0 
L 4.296875 8.203125 
L 38.09375 47.515625 
L 5.515625 47.515625 
z
" id="DejaVuSans-7a"/>
    <path d="M 45.40625 46.390625 
L 45.40625 75.984375 
L 54.390625 75.984375 
L 54.390625 0 
L 45.40625 0 
L 45.40625 8.203125 
Q 42.578125 3.328125 38.25 0.953125 
Q 33.9375 -1.421875 27.875 -1.421875 
Q 17.96875 -1.421875 11.734375 6.484375 
Q 5.515625 14.40625 5.515625 27.296875 
Q 5.515625 40.1875 11.734375 48.09375 
Q 17.96875 56 27.875 56 
Q 33.9375 56 38.25 53.625 
Q 42.578125 51.265625 45.40625 46.390625 
z
M 14.796875 27.296875 
Q 14.796875 17.390625 18.875 11.75 
Q 22.953125 6.109375 30.078125 6.109375 
Q 37.203125 6.109375 41.296875 11.75 
Q 45.40625 17.390625 45.40625 27.296875 
Q 45.40625 37.203125 41.296875 42.84375 
Q 37.203125 48.484375 30.078125 48.484375 
Q 22.953125 48.484375 18.875 42.84375 
Q 14.796875 37.203125 14.796875 27.296875 
z
" id="DejaVuSans-64"/>
   </defs>
   <g transform="translate(71.10725 940.626875)rotate(-90)scale(0.34 -0.34)">
    <use xlink:href="#DejaVuSans-20"/>
    <use x="31.787109" xlink:href="#DejaVuSans-20"/>
    <use x="63.574219" xlink:href="#DejaVuSans-20"/>
    <use x="95.361328" xlink:href="#DejaVuSans-20"/>
    <use x="127.148438" xlink:href="#DejaVuSans-20"/>
    <use x="158.935547" xlink:href="#DejaVuSans-20"/>
    <use x="190.722656" xlink:href="#DejaVuSans-20"/>
    <use x="222.509766" xlink:href="#DejaVuSans-20"/>
    <use x="254.296875" xlink:href="#DejaVuSans-20"/>
    <use x="286.083984" xlink:href="#DejaVuSans-20"/>
    <use x="317.871094" xlink:href="#DejaVuSans-28"/>
    <use x="356.884766" xlink:href="#DejaVuSans-4e"/>
    <use x="431.689453" xlink:href="#DejaVuSans-6f"/>
    <use x="492.871094" xlink:href="#DejaVuSans-72"/>
    <use x="533.96875" xlink:href="#DejaVuSans-6d"/>
    <use x="631.380859" xlink:href="#DejaVuSans-61"/>
    <use x="692.660156" xlink:href="#DejaVuSans-6c"/>
    <use x="720.443359" xlink:href="#DejaVuSans-69"/>
    <use x="748.226562" xlink:href="#DejaVuSans-7a"/>
    <use x="800.716797" xlink:href="#DejaVuSans-65"/>
    <use x="862.240234" xlink:href="#DejaVuSans-64"/>
    <use x="925.716797" xlink:href="#DejaVuSans-29"/>
   </g>
  </g>
  <g id="legend_1">
   <g id="patch_94">
    <path d="M 1142.264062 200.1375 
L 1389.6 200.1375 
Q 1395.6 200.1375 1395.6 194.1375 
L 1395.6 21 
Q 1395.6 15 1389.6 15 
L 1142.264062 15 
Q 1136.264062 15 1136.264062 21 
L 1136.264062 194.1375 
Q 1136.264062 200.1375 1142.264062 200.1375 
z
" style="fill:#ffffff;opacity:0.8;stroke:#cccccc;stroke-linejoin:miter;"/>
   </g>
   <g id="patch_95">
    <path d="M 1148.264062 49.795313 
L 1208.264062 49.795313 
L 1208.264062 28.795313 
L 1148.264062 28.795313 
z
" style="fill:#1f77b4;opacity:0.5;stroke:#000000;stroke-linejoin:miter;stroke-width:2;"/>
   </g>
   <g id="text_33">
    <!-- Training 1 -->
    <defs>
     <path d="M -0.296875 72.90625 
L 61.375 72.90625 
L 61.375 64.59375 
L 35.5 64.59375 
L 35.5 0 
L 25.59375 0 
L 25.59375 64.59375 
L -0.296875 64.59375 
z
" id="DejaVuSans-54"/>
    </defs>
    <g transform="translate(1232.264062 49.795313)scale(0.3 -0.3)">
     <use xlink:href="#DejaVuSans-54"/>
     <use x="60.865234" xlink:href="#DejaVuSans-72"/>
     <use x="101.978516" xlink:href="#DejaVuSans-61"/>
     <use x="163.257812" xlink:href="#DejaVuSans-69"/>
     <use x="191.041016" xlink:href="#DejaVuSans-6e"/>
     <use x="254.419922" xlink:href="#DejaVuSans-69"/>
     <use x="282.203125" xlink:href="#DejaVuSans-6e"/>
     <use x="345.582031" xlink:href="#DejaVuSans-67"/>
     <use x="409.058594" xlink:href="#DejaVuSans-20"/>
     <use x="440.845703" xlink:href="#DejaVuSans-31"/>
    </g>
   </g>
   <g id="patch_96">
    <path d="M 1148.264062 93.829688 
L 1208.264062 93.829688 
L 1208.264062 72.829688 
L 1148.264062 72.829688 
z
" style="fill:#ff7f0e;opacity:0.5;stroke:#000000;stroke-linejoin:miter;stroke-width:2;"/>
   </g>
   <g id="text_34">
    <!-- Training 2 -->
    <g transform="translate(1232.264062 93.829688)scale(0.3 -0.3)">
     <use xlink:href="#DejaVuSans-54"/>
     <use x="60.865234" xlink:href="#DejaVuSans-72"/>
     <use x="101.978516" xlink:href="#DejaVuSans-61"/>
     <use x="163.257812" xlink:href="#DejaVuSans-69"/>
     <use x="191.041016" xlink:href="#DejaVuSans-6e"/>
     <use x="254.419922" xlink:href="#DejaVuSans-69"/>
     <use x="282.203125" xlink:href="#DejaVuSans-6e"/>
     <use x="345.582031" xlink:href="#DejaVuSans-67"/>
     <use x="409.058594" xlink:href="#DejaVuSans-20"/>
     <use x="440.845703" xlink:href="#DejaVuSans-32"/>
    </g>
   </g>
   <g id="patch_97">
    <path d="M 1148.264062 137.864063 
L 1208.264062 137.864063 
L 1208.264062 116.864063 
L 1148.264062 116.864063 
z
" style="fill:#2ca02c;opacity:0.5;stroke:#000000;stroke-linejoin:miter;stroke-width:2;"/>
   </g>
   <g id="text_35">
    <!-- Training 3 -->
    <g transform="translate(1232.264062 137.864063)scale(0.3 -0.3)">
     <use xlink:href="#DejaVuSans-54"/>
     <use x="60.865234" xlink:href="#DejaVuSans-72"/>
     <use x="101.978516" xlink:href="#DejaVuSans-61"/>
     <use x="163.257812" xlink:href="#DejaVuSans-69"/>
     <use x="191.041016" xlink:href="#DejaVuSans-6e"/>
     <use x="254.419922" xlink:href="#DejaVuSans-69"/>
     <use x="282.203125" xlink:href="#DejaVuSans-6e"/>
     <use x="345.582031" xlink:href="#DejaVuSans-67"/>
     <use x="409.058594" xlink:href="#DejaVuSans-20"/>
     <use x="440.845703" xlink:href="#DejaVuSans-33"/>
    </g>
   </g>
   <g id="patch_98">
    <path d="M 1148.264062 181.898438 
L 1208.264062 181.898438 
L 1208.264062 160.898438 
L 1148.264062 160.898438 
z
" style="fill:#d62728;opacity:0.5;stroke:#000000;stroke-linejoin:miter;stroke-width:2;"/>
   </g>
   <g id="text_36">
    <!-- Training 4 -->
    <g transform="translate(1232.264062 181.898438)scale(0.3 -0.3)">
     <use xlink:href="#DejaVuSans-54"/>
     <use x="60.865234" xlink:href="#DejaVuSans-72"/>
     <use x="101.978516" xlink:href="#DejaVuSans-61"/>
     <use x="163.257812" xlink:href="#DejaVuSans-69"/>
     <use x="191.041016" xlink:href="#DejaVuSans-6e"/>
     <use x="254.419922" xlink:href="#DejaVuSans-69"/>
     <use x="282.203125" xlink:href="#DejaVuSans-6e"/>
     <use x="345.582031" xlink:href="#DejaVuSans-67"/>
     <use x="409.058594" xlink:href="#DejaVuSans-20"/>
     <use x="440.845703" xlink:href="#DejaVuSans-34"/>
    </g>
   </g>
  </g>
 </g>
 <defs>
  <clipPath id="p2d878674ba">
   <rect height="443.076923" width="489.6" x="122.4" y="136.2"/>
  </clipPath>
  <clipPath id="p6098968092">
   <rect height="443.076923" width="489.6" x="856.8" y="136.2"/>
  </clipPath>
  <clipPath id="p3c9be9d831">
   <rect height="443.076923" width="489.6" x="122.4" y="845.123077"/>
  </clipPath>
  <clipPath id="pedd07b2f6b">
   <rect height="443.076923" width="489.6" x="856.8" y="845.123077"/>
  </clipPath>
 </defs>
</svg>
