<?xml version="1.0" encoding="utf-8" standalone="no"?>
<!DOCTYPE svg PUBLIC "-//W3C//DTD SVG 1.1//EN"
  "http://www.w3.org/Graphics/SVG/1.1/DTD/svg11.dtd">
<!-- Created with matplotlib (http://matplotlib.org/) -->
<svg height="511.1325pt" version="1.1" viewBox="0 0 965.2875 511.1325" width="965.2875pt" xmlns="http://www.w3.org/2000/svg" xmlns:xlink="http://www.w3.org/1999/xlink">
 <defs>
  <style type="text/css">
*{stroke-linecap:butt;stroke-linejoin:round;}
  </style>
 </defs>
 <g id="figure_1">
  <g id="patch_1">
   <path d="M 0 511.1325 
L 965.2875 511.1325 
L 965.2875 0 
L 0 0 
z
" style="fill:#ffffff;"/>
  </g>
  <g id="axes_1">
   <g id="patch_2">
    <path d="M 61.7875 454.22 
L 467.605682 454.22 
L 467.605682 10.7 
L 61.7875 10.7 
z
" style="fill:#ffffff;"/>
   </g>
   <g id="PolyCollection_1">
    <path clip-path="url(#p2ee73281a5)" d="M 61.7875 755.588331 
L 61.7875 70.164836 
L 64.106461 46.170873 
L 66.425422 53.155674 
L 68.744383 61.193247 
L 71.063344 80.329683 
L 73.382305 84.012232 
L 75.701266 102.941447 
L 78.020227 106.261346 
L 80.339188 115.832582 
L 82.658149 123.416224 
L 84.97711 133.033847 
L 87.296071 138.434287 
L 89.615032 142.494374 
L 91.933994 148.576428 
L 94.252955 149.346047 
L 96.571916 156.586353 
L 98.890877 175.415263 
L 101.209838 180.569855 
L 103.528799 191.717922 
L 105.84776 199.954783 
L 108.166721 212.832237 
L 110.485682 221.174462 
L 112.804643 221.114106 
L 115.123604 218.100182 
L 117.442565 229.213645 
L 119.761526 231.151402 
L 122.080487 233.106691 
L 124.399448 237.197415 
L 126.718409 235.016454 
L 129.03737 237.226099 
L 131.356331 236.881727 
L 133.675292 241.047408 
L 135.994253 242.170768 
L 138.313214 252.487825 
L 140.632175 255.43306 
L 142.951136 260.772511 
L 145.270097 265.995736 
L 147.589058 268.761973 
L 149.908019 275.805548 
L 152.226981 274.526097 
L 154.545942 277.660043 
L 156.864903 284.911615 
L 159.183864 291.204253 
L 161.502825 283.22465 
L 163.821786 284.724513 
L 166.140747 285.94243 
L 168.459708 288.9252 
L 170.778669 290.607423 
L 173.09763 292.906394 
L 175.416591 291.540146 
L 177.735552 292.853942 
L 180.054513 292.190951 
L 182.373474 292.019512 
L 184.692435 290.706176 
L 187.011396 287.893638 
L 189.330357 291.338127 
L 191.649318 295.004495 
L 193.968279 290.684448 
L 196.28724 292.26993 
L 198.606201 296.043472 
L 200.925162 298.528252 
L 203.244123 298.364918 
L 205.563084 298.599155 
L 207.882045 297.109408 
L 210.201006 296.423971 
L 212.519968 295.380022 
L 214.838929 293.0893 
L 217.15789 295.903879 
L 219.476851 296.506744 
L 221.795812 299.000807 
L 224.114773 299.63977 
L 226.433734 297.415497 
L 228.752695 295.356397 
L 231.071656 295.163661 
L 233.390617 296.763025 
L 235.709578 292.649739 
L 238.028539 292.358366 
L 240.3475 294.3311 
L 242.666461 290.415924 
L 244.985422 295.116067 
L 247.304383 297.123922 
L 249.623344 298.28683 
L 251.942305 300.459226 
L 254.261266 301.483258 
L 256.580227 300.420886 
L 258.899188 302.613947 
L 261.218149 301.125867 
L 263.53711 300.16061 
L 265.856071 301.501853 
L 268.175032 301.100173 
L 270.493994 302.571526 
L 272.812955 304.011465 
L 275.131916 303.533478 
L 277.450877 305.571683 
L 279.769838 305.620974 
L 282.088799 303.069171 
L 284.40776 304.396791 
L 286.726721 303.544313 
L 289.045682 301.942391 
L 291.364643 303.013155 
L 293.683604 306.031363 
L 296.002565 304.831753 
L 298.321526 304.844917 
L 300.640487 302.220515 
L 302.959448 303.230608 
L 305.278409 305.383288 
L 307.59737 304.680261 
L 309.916331 302.807774 
L 312.235292 302.010622 
L 314.554253 305.96592 
L 316.873214 305.327042 
L 319.192175 302.815822 
L 321.511136 302.716637 
L 323.830097 303.65758 
L 326.149058 301.544763 
L 328.468019 303.897824 
L 330.786981 296.853501 
L 333.105942 294.265284 
L 335.424903 293.883004 
L 337.743864 296.915897 
L 340.062825 295.984841 
L 342.381786 294.691681 
L 344.700747 295.090171 
L 347.019708 293.440023 
L 349.338669 294.434912 
L 351.65763 293.405246 
L 353.976591 294.086143 
L 356.295552 293.552313 
L 358.614513 292.193509 
L 360.933474 294.194093 
L 363.252435 291.704744 
L 365.571396 292.808474 
L 367.890357 292.081104 
L 370.209318 287.696419 
L 372.528279 282.861856 
L 374.84724 282.851681 
L 377.166201 277.57339 
L 379.485162 273.873367 
L 381.804123 272.613575 
L 384.123084 272.137398 
L 386.442045 259.022201 
L 388.761006 258.117213 
L 391.079968 256.56303 
L 393.398929 253.301878 
L 395.71789 249.645195 
L 398.036851 242.607972 
L 400.355812 245.61839 
L 402.674773 243.706557 
L 404.993734 241.377754 
L 407.312695 241.388273 
L 409.631656 233.1471 
L 411.950617 230.140763 
L 414.269578 224.655711 
L 416.588539 223.586096 
L 418.9075 225.159593 
L 421.226461 215.964861 
L 423.545422 206.631483 
L 425.864383 194.946137 
L 428.183344 199.331454 
L 430.502305 194.513532 
L 432.821266 189.110218 
L 435.140227 172.289882 
L 437.459188 144.882786 
L 439.778149 155.856914 
L 442.09711 150.211488 
L 444.416071 145.313437 
L 446.735032 149.332712 
L 449.053994 143.115174 
L 451.372955 143.254509 
L 453.691916 131.785408 
L 456.010877 128.327899 
L 458.329838 104.636403 
L 460.648799 87.634943 
L 462.96776 79.055894 
L 465.286721 78.740263 
L 467.605682 74.790023 
L 467.605682 755.588331 
L 467.605682 755.588331 
L 465.286721 755.588331 
L 462.96776 755.588331 
L 460.648799 755.588331 
L 458.329838 755.588331 
L 456.010877 755.588331 
L 453.691916 755.588331 
L 451.372955 755.588331 
L 449.053994 755.588331 
L 446.735032 755.588331 
L 444.416071 755.588331 
L 442.09711 755.588331 
L 439.778149 755.588331 
L 437.459188 755.588331 
L 435.140227 755.588331 
L 432.821266 755.588331 
L 430.502305 755.588331 
L 428.183344 755.588331 
L 425.864383 755.588331 
L 423.545422 755.588331 
L 421.226461 755.588331 
L 418.9075 755.588331 
L 416.588539 755.588331 
L 414.269578 755.588331 
L 411.950617 755.588331 
L 409.631656 755.588331 
L 407.312695 755.588331 
L 404.993734 755.588331 
L 402.674773 755.588331 
L 400.355812 755.588331 
L 398.036851 755.588331 
L 395.71789 755.588331 
L 393.398929 755.588331 
L 391.079968 755.588331 
L 388.761006 755.588331 
L 386.442045 755.588331 
L 384.123084 755.588331 
L 381.804123 755.588331 
L 379.485162 755.588331 
L 377.166201 755.588331 
L 374.84724 755.588331 
L 372.528279 755.588331 
L 370.209318 755.588331 
L 367.890357 755.588331 
L 365.571396 755.588331 
L 363.252435 755.588331 
L 360.933474 755.588331 
L 358.614513 755.588331 
L 356.295552 755.588331 
L 353.976591 755.588331 
L 351.65763 755.588331 
L 349.338669 755.588331 
L 347.019708 755.588331 
L 344.700747 755.588331 
L 342.381786 755.588331 
L 340.062825 755.588331 
L 337.743864 755.588331 
L 335.424903 755.588331 
L 333.105942 755.588331 
L 330.786981 755.588331 
L 328.468019 755.588331 
L 326.149058 755.588331 
L 323.830097 755.588331 
L 321.511136 755.588331 
L 319.192175 755.588331 
L 316.873214 755.588331 
L 314.554253 755.588331 
L 312.235292 755.588331 
L 309.916331 755.588331 
L 307.59737 755.588331 
L 305.278409 755.588331 
L 302.959448 755.588331 
L 300.640487 755.588331 
L 298.321526 755.588331 
L 296.002565 755.588331 
L 293.683604 755.588331 
L 291.364643 755.588331 
L 289.045682 755.588331 
L 286.726721 755.588331 
L 284.40776 755.588331 
L 282.088799 755.588331 
L 279.769838 755.588331 
L 277.450877 755.588331 
L 275.131916 755.588331 
L 272.812955 755.588331 
L 270.493994 755.588331 
L 268.175032 755.588331 
L 265.856071 755.588331 
L 263.53711 755.588331 
L 261.218149 755.588331 
L 258.899188 755.588331 
L 256.580227 755.588331 
L 254.261266 755.588331 
L 251.942305 755.588331 
L 249.623344 755.588331 
L 247.304383 755.588331 
L 244.985422 755.588331 
L 242.666461 755.588331 
L 240.3475 755.588331 
L 238.028539 755.588331 
L 235.709578 755.588331 
L 233.390617 755.588331 
L 231.071656 755.588331 
L 228.752695 755.588331 
L 226.433734 755.588331 
L 224.114773 755.588331 
L 221.795812 755.588331 
L 219.476851 755.588331 
L 217.15789 755.588331 
L 214.838929 755.588331 
L 212.519968 755.588331 
L 210.201006 755.588331 
L 207.882045 755.588331 
L 205.563084 755.588331 
L 203.244123 755.588331 
L 200.925162 755.588331 
L 198.606201 755.588331 
L 196.28724 755.588331 
L 193.968279 755.588331 
L 191.649318 755.588331 
L 189.330357 755.588331 
L 187.011396 755.588331 
L 184.692435 755.588331 
L 182.373474 755.588331 
L 180.054513 755.588331 
L 177.735552 755.588331 
L 175.416591 755.588331 
L 173.09763 755.588331 
L 170.778669 755.588331 
L 168.459708 755.588331 
L 166.140747 755.588331 
L 163.821786 755.588331 
L 161.502825 755.588331 
L 159.183864 755.588331 
L 156.864903 755.588331 
L 154.545942 755.588331 
L 152.226981 755.588331 
L 149.908019 755.588331 
L 147.589058 755.588331 
L 145.270097 755.588331 
L 142.951136 755.588331 
L 140.632175 755.588331 
L 138.313214 755.588331 
L 135.994253 755.588331 
L 133.675292 755.588331 
L 131.356331 755.588331 
L 129.03737 755.588331 
L 126.718409 755.588331 
L 124.399448 755.588331 
L 122.080487 755.588331 
L 119.761526 755.588331 
L 117.442565 755.588331 
L 115.123604 755.588331 
L 112.804643 755.588331 
L 110.485682 755.588331 
L 108.166721 755.588331 
L 105.84776 755.588331 
L 103.528799 755.588331 
L 101.209838 755.588331 
L 98.890877 755.588331 
L 96.571916 755.588331 
L 94.252955 755.588331 
L 91.933994 755.588331 
L 89.615032 755.588331 
L 87.296071 755.588331 
L 84.97711 755.588331 
L 82.658149 755.588331 
L 80.339188 755.588331 
L 78.020227 755.588331 
L 75.701266 755.588331 
L 73.382305 755.588331 
L 71.063344 755.588331 
L 68.744383 755.588331 
L 66.425422 755.588331 
L 64.106461 755.588331 
L 61.7875 755.588331 
z
" style="fill:#add8e6;fill-opacity:0.5;stroke:#add8e6;stroke-opacity:0.5;"/>
   </g>
   <g id="PolyCollection_2">
    <path clip-path="url(#p2ee73281a5)" d="M 61.7875 755.588331 
L 61.7875 62.768296 
L 64.106461 60.940616 
L 66.425422 65.115149 
L 68.744383 72.366261 
L 71.063344 98.727597 
L 73.382305 121.833472 
L 75.701266 135.29557 
L 78.020227 141.931803 
L 80.339188 158.637981 
L 82.658149 168.178119 
L 84.97711 172.22556 
L 87.296071 174.455323 
L 89.615032 174.108308 
L 91.933994 171.197447 
L 94.252955 174.945238 
L 96.571916 181.66229 
L 98.890877 195.118294 
L 101.209838 198.795957 
L 103.528799 205.336426 
L 105.84776 212.698133 
L 108.166721 225.884434 
L 110.485682 238.714121 
L 112.804643 244.869982 
L 115.123604 243.188132 
L 117.442565 250.797181 
L 119.761526 255.027126 
L 122.080487 256.248089 
L 124.399448 260.853848 
L 126.718409 259.707035 
L 129.03737 262.14695 
L 131.356331 263.689005 
L 133.675292 267.503531 
L 135.994253 271.303745 
L 138.313214 275.811383 
L 140.632175 278.621967 
L 142.951136 283.996223 
L 145.270097 288.421318 
L 147.589058 290.059309 
L 149.908019 294.261375 
L 152.226981 295.926929 
L 154.545942 300.846019 
L 156.864903 303.783407 
L 159.183864 308.135299 
L 161.502825 305.864695 
L 163.821786 305.52544 
L 166.140747 306.264507 
L 168.459708 307.107473 
L 170.778669 308.590781 
L 173.09763 311.240676 
L 175.416591 312.382229 
L 177.735552 312.108387 
L 180.054513 312.169663 
L 182.373474 309.905641 
L 184.692435 310.682761 
L 187.011396 312.074991 
L 189.330357 315.758661 
L 191.649318 318.456322 
L 193.968279 319.948225 
L 196.28724 322.334653 
L 198.606201 323.966005 
L 200.925162 327.659073 
L 203.244123 325.149232 
L 205.563084 321.512525 
L 207.882045 322.232451 
L 210.201006 321.80134 
L 212.519968 320.679561 
L 214.838929 319.523782 
L 217.15789 319.759657 
L 219.476851 320.52393 
L 221.795812 321.875003 
L 224.114773 321.035314 
L 226.433734 320.716579 
L 228.752695 319.748074 
L 231.071656 319.498432 
L 233.390617 319.164954 
L 235.709578 318.359437 
L 238.028539 318.127356 
L 240.3475 318.807994 
L 242.666461 317.78468 
L 244.985422 319.26773 
L 247.304383 319.830301 
L 249.623344 322.922889 
L 251.942305 325.03904 
L 254.261266 326.544681 
L 256.580227 327.02284 
L 258.899188 328.291743 
L 261.218149 328.578288 
L 263.53711 327.485336 
L 265.856071 326.588366 
L 268.175032 326.359389 
L 270.493994 328.142895 
L 272.812955 329.071766 
L 275.131916 328.851497 
L 277.450877 328.157696 
L 279.769838 327.623061 
L 282.088799 326.305989 
L 284.40776 327.601822 
L 286.726721 325.757328 
L 289.045682 324.248469 
L 291.364643 324.639056 
L 293.683604 328.122345 
L 296.002565 336.942959 
L 298.321526 339.416156 
L 300.640487 329.249068 
L 302.959448 329.302985 
L 305.278409 329.350292 
L 307.59737 328.750617 
L 309.916331 328.153701 
L 312.235292 327.890235 
L 314.554253 327.561211 
L 316.873214 328.050321 
L 319.192175 327.991833 
L 321.511136 327.606622 
L 323.830097 329.358397 
L 326.149058 331.855047 
L 328.468019 329.055269 
L 330.786981 324.569992 
L 333.105942 323.161466 
L 335.424903 321.102222 
L 337.743864 318.953393 
L 340.062825 315.352813 
L 342.381786 315.521262 
L 344.700747 314.574025 
L 347.019708 314.191055 
L 349.338669 314.826656 
L 351.65763 315.032296 
L 353.976591 314.61501 
L 356.295552 311.753842 
L 358.614513 310.457377 
L 360.933474 311.254271 
L 363.252435 309.436046 
L 365.571396 308.693271 
L 367.890357 309.430154 
L 370.209318 307.111123 
L 372.528279 305.340637 
L 374.84724 302.336024 
L 377.166201 299.805662 
L 379.485162 294.917641 
L 381.804123 292.438437 
L 384.123084 291.588258 
L 386.442045 284.224252 
L 388.761006 281.346185 
L 391.079968 276.705104 
L 393.398929 275.096371 
L 395.71789 272.550575 
L 398.036851 269.035584 
L 400.355812 268.587517 
L 402.674773 269.008223 
L 404.993734 268.154969 
L 407.312695 270.130031 
L 409.631656 263.472875 
L 411.950617 254.060058 
L 414.269578 249.145567 
L 416.588539 243.534917 
L 418.9075 239.426948 
L 421.226461 231.923723 
L 423.545422 221.42876 
L 425.864383 207.960742 
L 428.183344 209.272813 
L 430.502305 207.832213 
L 432.821266 199.440727 
L 435.140227 184.343052 
L 437.459188 159.618672 
L 439.778149 166.182593 
L 442.09711 173.851653 
L 444.416071 174.550398 
L 446.735032 170.880495 
L 449.053994 162.113769 
L 451.372955 153.185463 
L 453.691916 134.616312 
L 456.010877 105.833396 
L 458.329838 77.282074 
L 460.648799 65.479179 
L 462.96776 62.4537 
L 465.286721 59.790872 
L 467.605682 60.319644 
L 467.605682 755.588331 
L 467.605682 755.588331 
L 465.286721 755.588331 
L 462.96776 755.588331 
L 460.648799 755.588331 
L 458.329838 755.588331 
L 456.010877 755.588331 
L 453.691916 755.588331 
L 451.372955 755.588331 
L 449.053994 755.588331 
L 446.735032 755.588331 
L 444.416071 755.588331 
L 442.09711 755.588331 
L 439.778149 755.588331 
L 437.459188 755.588331 
L 435.140227 755.588331 
L 432.821266 755.588331 
L 430.502305 755.588331 
L 428.183344 755.588331 
L 425.864383 755.588331 
L 423.545422 755.588331 
L 421.226461 755.588331 
L 418.9075 755.588331 
L 416.588539 755.588331 
L 414.269578 755.588331 
L 411.950617 755.588331 
L 409.631656 755.588331 
L 407.312695 755.588331 
L 404.993734 755.588331 
L 402.674773 755.588331 
L 400.355812 755.588331 
L 398.036851 755.588331 
L 395.71789 755.588331 
L 393.398929 755.588331 
L 391.079968 755.588331 
L 388.761006 755.588331 
L 386.442045 755.588331 
L 384.123084 755.588331 
L 381.804123 755.588331 
L 379.485162 755.588331 
L 377.166201 755.588331 
L 374.84724 755.588331 
L 372.528279 755.588331 
L 370.209318 755.588331 
L 367.890357 755.588331 
L 365.571396 755.588331 
L 363.252435 755.588331 
L 360.933474 755.588331 
L 358.614513 755.588331 
L 356.295552 755.588331 
L 353.976591 755.588331 
L 351.65763 755.588331 
L 349.338669 755.588331 
L 347.019708 755.588331 
L 344.700747 755.588331 
L 342.381786 755.588331 
L 340.062825 755.588331 
L 337.743864 755.588331 
L 335.424903 755.588331 
L 333.105942 755.588331 
L 330.786981 755.588331 
L 328.468019 755.588331 
L 326.149058 755.588331 
L 323.830097 755.588331 
L 321.511136 755.588331 
L 319.192175 755.588331 
L 316.873214 755.588331 
L 314.554253 755.588331 
L 312.235292 755.588331 
L 309.916331 755.588331 
L 307.59737 755.588331 
L 305.278409 755.588331 
L 302.959448 755.588331 
L 300.640487 755.588331 
L 298.321526 755.588331 
L 296.002565 755.588331 
L 293.683604 755.588331 
L 291.364643 755.588331 
L 289.045682 755.588331 
L 286.726721 755.588331 
L 284.40776 755.588331 
L 282.088799 755.588331 
L 279.769838 755.588331 
L 277.450877 755.588331 
L 275.131916 755.588331 
L 272.812955 755.588331 
L 270.493994 755.588331 
L 268.175032 755.588331 
L 265.856071 755.588331 
L 263.53711 755.588331 
L 261.218149 755.588331 
L 258.899188 755.588331 
L 256.580227 755.588331 
L 254.261266 755.588331 
L 251.942305 755.588331 
L 249.623344 755.588331 
L 247.304383 755.588331 
L 244.985422 755.588331 
L 242.666461 755.588331 
L 240.3475 755.588331 
L 238.028539 755.588331 
L 235.709578 755.588331 
L 233.390617 755.588331 
L 231.071656 755.588331 
L 228.752695 755.588331 
L 226.433734 755.588331 
L 224.114773 755.588331 
L 221.795812 755.588331 
L 219.476851 755.588331 
L 217.15789 755.588331 
L 214.838929 755.588331 
L 212.519968 755.588331 
L 210.201006 755.588331 
L 207.882045 755.588331 
L 205.563084 755.588331 
L 203.244123 755.588331 
L 200.925162 755.588331 
L 198.606201 755.588331 
L 196.28724 755.588331 
L 193.968279 755.588331 
L 191.649318 755.588331 
L 189.330357 755.588331 
L 187.011396 755.588331 
L 184.692435 755.588331 
L 182.373474 755.588331 
L 180.054513 755.588331 
L 177.735552 755.588331 
L 175.416591 755.588331 
L 173.09763 755.588331 
L 170.778669 755.588331 
L 168.459708 755.588331 
L 166.140747 755.588331 
L 163.821786 755.588331 
L 161.502825 755.588331 
L 159.183864 755.588331 
L 156.864903 755.588331 
L 154.545942 755.588331 
L 152.226981 755.588331 
L 149.908019 755.588331 
L 147.589058 755.588331 
L 145.270097 755.588331 
L 142.951136 755.588331 
L 140.632175 755.588331 
L 138.313214 755.588331 
L 135.994253 755.588331 
L 133.675292 755.588331 
L 131.356331 755.588331 
L 129.03737 755.588331 
L 126.718409 755.588331 
L 124.399448 755.588331 
L 122.080487 755.588331 
L 119.761526 755.588331 
L 117.442565 755.588331 
L 115.123604 755.588331 
L 112.804643 755.588331 
L 110.485682 755.588331 
L 108.166721 755.588331 
L 105.84776 755.588331 
L 103.528799 755.588331 
L 101.209838 755.588331 
L 98.890877 755.588331 
L 96.571916 755.588331 
L 94.252955 755.588331 
L 91.933994 755.588331 
L 89.615032 755.588331 
L 87.296071 755.588331 
L 84.97711 755.588331 
L 82.658149 755.588331 
L 80.339188 755.588331 
L 78.020227 755.588331 
L 75.701266 755.588331 
L 73.382305 755.588331 
L 71.063344 755.588331 
L 68.744383 755.588331 
L 66.425422 755.588331 
L 64.106461 755.588331 
L 61.7875 755.588331 
z
" style="fill:#90ee90;fill-opacity:0.5;stroke:#90ee90;stroke-opacity:0.5;"/>
   </g>
   <g id="matplotlib.axis_1">
    <g id="xtick_1">
     <g id="line2d_1">
      <defs>
       <path d="M 0 0 
L 0 3.5 
" id="m4ea7d29b76" style="stroke:#000000;stroke-width:0.8;"/>
      </defs>
      <g>
       <use style="stroke:#000000;stroke-width:0.8;" x="61.7875" xlink:href="#m4ea7d29b76" y="454.22"/>
      </g>
     </g>
     <g id="text_1">
      <!-- 0 -->
      <defs>
       <path d="M 31.78125 66.40625 
Q 24.171875 66.40625 20.328125 58.90625 
Q 16.5 51.421875 16.5 36.375 
Q 16.5 21.390625 20.328125 13.890625 
Q 24.171875 6.390625 31.78125 6.390625 
Q 39.453125 6.390625 43.28125 13.890625 
Q 47.125 21.390625 47.125 36.375 
Q 47.125 51.421875 43.28125 58.90625 
Q 39.453125 66.40625 31.78125 66.40625 
z
M 31.78125 74.21875 
Q 44.046875 74.21875 50.515625 64.515625 
Q 56.984375 54.828125 56.984375 36.375 
Q 56.984375 17.96875 50.515625 8.265625 
Q 44.046875 -1.421875 31.78125 -1.421875 
Q 19.53125 -1.421875 13.0625 8.265625 
Q 6.59375 17.96875 6.59375 36.375 
Q 6.59375 54.828125 13.0625 64.515625 
Q 19.53125 74.21875 31.78125 74.21875 
z
" id="DejaVuSans-30"/>
      </defs>
      <g transform="translate(56.6975 473.3775)scale(0.16 -0.16)">
       <use xlink:href="#DejaVuSans-30"/>
      </g>
     </g>
    </g>
    <g id="xtick_2">
     <g id="line2d_2">
      <g>
       <use style="stroke:#000000;stroke-width:0.8;" x="108.166721" xlink:href="#m4ea7d29b76" y="454.22"/>
      </g>
     </g>
     <g id="text_2">
      <!-- 20 -->
      <defs>
       <path d="M 19.1875 8.296875 
L 53.609375 8.296875 
L 53.609375 0 
L 7.328125 0 
L 7.328125 8.296875 
Q 12.9375 14.109375 22.625 23.890625 
Q 32.328125 33.6875 34.8125 36.53125 
Q 39.546875 41.84375 41.421875 45.53125 
Q 43.3125 49.21875 43.3125 52.78125 
Q 43.3125 58.59375 39.234375 62.25 
Q 35.15625 65.921875 28.609375 65.921875 
Q 23.96875 65.921875 18.8125 64.3125 
Q 13.671875 62.703125 7.8125 59.421875 
L 7.8125 69.390625 
Q 13.765625 71.78125 18.9375 73 
Q 24.125 74.21875 28.421875 74.21875 
Q 39.75 74.21875 46.484375 68.546875 
Q 53.21875 62.890625 53.21875 53.421875 
Q 53.21875 48.921875 51.53125 44.890625 
Q 49.859375 40.875 45.40625 35.40625 
Q 44.1875 33.984375 37.640625 27.21875 
Q 31.109375 20.453125 19.1875 8.296875 
z
" id="DejaVuSans-32"/>
      </defs>
      <g transform="translate(97.986721 473.3775)scale(0.16 -0.16)">
       <use xlink:href="#DejaVuSans-32"/>
       <use x="63.623047" xlink:href="#DejaVuSans-30"/>
      </g>
     </g>
    </g>
    <g id="xtick_3">
     <g id="line2d_3">
      <g>
       <use style="stroke:#000000;stroke-width:0.8;" x="154.545942" xlink:href="#m4ea7d29b76" y="454.22"/>
      </g>
     </g>
     <g id="text_3">
      <!-- 40 -->
      <defs>
       <path d="M 37.796875 64.3125 
L 12.890625 25.390625 
L 37.796875 25.390625 
z
M 35.203125 72.90625 
L 47.609375 72.90625 
L 47.609375 25.390625 
L 58.015625 25.390625 
L 58.015625 17.1875 
L 47.609375 17.1875 
L 47.609375 0 
L 37.796875 0 
L 37.796875 17.1875 
L 4.890625 17.1875 
L 4.890625 26.703125 
z
" id="DejaVuSans-34"/>
      </defs>
      <g transform="translate(144.365942 473.3775)scale(0.16 -0.16)">
       <use xlink:href="#DejaVuSans-34"/>
       <use x="63.623047" xlink:href="#DejaVuSans-30"/>
      </g>
     </g>
    </g>
    <g id="xtick_4">
     <g id="line2d_4">
      <g>
       <use style="stroke:#000000;stroke-width:0.8;" x="200.925162" xlink:href="#m4ea7d29b76" y="454.22"/>
      </g>
     </g>
     <g id="text_4">
      <!-- 60 -->
      <defs>
       <path d="M 33.015625 40.375 
Q 26.375 40.375 22.484375 35.828125 
Q 18.609375 31.296875 18.609375 23.390625 
Q 18.609375 15.53125 22.484375 10.953125 
Q 26.375 6.390625 33.015625 6.390625 
Q 39.65625 6.390625 43.53125 10.953125 
Q 47.40625 15.53125 47.40625 23.390625 
Q 47.40625 31.296875 43.53125 35.828125 
Q 39.65625 40.375 33.015625 40.375 
z
M 52.59375 71.296875 
L 52.59375 62.3125 
Q 48.875 64.0625 45.09375 64.984375 
Q 41.3125 65.921875 37.59375 65.921875 
Q 27.828125 65.921875 22.671875 59.328125 
Q 17.53125 52.734375 16.796875 39.40625 
Q 19.671875 43.65625 24.015625 45.921875 
Q 28.375 48.1875 33.59375 48.1875 
Q 44.578125 48.1875 50.953125 41.515625 
Q 57.328125 34.859375 57.328125 23.390625 
Q 57.328125 12.15625 50.6875 5.359375 
Q 44.046875 -1.421875 33.015625 -1.421875 
Q 20.359375 -1.421875 13.671875 8.265625 
Q 6.984375 17.96875 6.984375 36.375 
Q 6.984375 53.65625 15.1875 63.9375 
Q 23.390625 74.21875 37.203125 74.21875 
Q 40.921875 74.21875 44.703125 73.484375 
Q 48.484375 72.75 52.59375 71.296875 
z
" id="DejaVuSans-36"/>
      </defs>
      <g transform="translate(190.745162 473.3775)scale(0.16 -0.16)">
       <use xlink:href="#DejaVuSans-36"/>
       <use x="63.623047" xlink:href="#DejaVuSans-30"/>
      </g>
     </g>
    </g>
    <g id="xtick_5">
     <g id="line2d_5">
      <g>
       <use style="stroke:#000000;stroke-width:0.8;" x="247.304383" xlink:href="#m4ea7d29b76" y="454.22"/>
      </g>
     </g>
     <g id="text_5">
      <!-- 80 -->
      <defs>
       <path d="M 31.78125 34.625 
Q 24.75 34.625 20.71875 30.859375 
Q 16.703125 27.09375 16.703125 20.515625 
Q 16.703125 13.921875 20.71875 10.15625 
Q 24.75 6.390625 31.78125 6.390625 
Q 38.8125 6.390625 42.859375 10.171875 
Q 46.921875 13.96875 46.921875 20.515625 
Q 46.921875 27.09375 42.890625 30.859375 
Q 38.875 34.625 31.78125 34.625 
z
M 21.921875 38.8125 
Q 15.578125 40.375 12.03125 44.71875 
Q 8.5 49.078125 8.5 55.328125 
Q 8.5 64.0625 14.71875 69.140625 
Q 20.953125 74.21875 31.78125 74.21875 
Q 42.671875 74.21875 48.875 69.140625 
Q 55.078125 64.0625 55.078125 55.328125 
Q 55.078125 49.078125 51.53125 44.71875 
Q 48 40.375 41.703125 38.8125 
Q 48.828125 37.15625 52.796875 32.3125 
Q 56.78125 27.484375 56.78125 20.515625 
Q 56.78125 9.90625 50.3125 4.234375 
Q 43.84375 -1.421875 31.78125 -1.421875 
Q 19.734375 -1.421875 13.25 4.234375 
Q 6.78125 9.90625 6.78125 20.515625 
Q 6.78125 27.484375 10.78125 32.3125 
Q 14.796875 37.15625 21.921875 38.8125 
z
M 18.3125 54.390625 
Q 18.3125 48.734375 21.84375 45.5625 
Q 25.390625 42.390625 31.78125 42.390625 
Q 38.140625 42.390625 41.71875 45.5625 
Q 45.3125 48.734375 45.3125 54.390625 
Q 45.3125 60.0625 41.71875 63.234375 
Q 38.140625 66.40625 31.78125 66.40625 
Q 25.390625 66.40625 21.84375 63.234375 
Q 18.3125 60.0625 18.3125 54.390625 
z
" id="DejaVuSans-38"/>
      </defs>
      <g transform="translate(237.124383 473.3775)scale(0.16 -0.16)">
       <use xlink:href="#DejaVuSans-38"/>
       <use x="63.623047" xlink:href="#DejaVuSans-30"/>
      </g>
     </g>
    </g>
    <g id="xtick_6">
     <g id="line2d_6">
      <g>
       <use style="stroke:#000000;stroke-width:0.8;" x="293.683604" xlink:href="#m4ea7d29b76" y="454.22"/>
      </g>
     </g>
     <g id="text_6">
      <!-- 100 -->
      <defs>
       <path d="M 12.40625 8.296875 
L 28.515625 8.296875 
L 28.515625 63.921875 
L 10.984375 60.40625 
L 10.984375 69.390625 
L 28.421875 72.90625 
L 38.28125 72.90625 
L 38.28125 8.296875 
L 54.390625 8.296875 
L 54.390625 0 
L 12.40625 0 
z
" id="DejaVuSans-31"/>
      </defs>
      <g transform="translate(278.413604 473.3775)scale(0.16 -0.16)">
       <use xlink:href="#DejaVuSans-31"/>
       <use x="63.623047" xlink:href="#DejaVuSans-30"/>
       <use x="127.246094" xlink:href="#DejaVuSans-30"/>
      </g>
     </g>
    </g>
    <g id="xtick_7">
     <g id="line2d_7">
      <g>
       <use style="stroke:#000000;stroke-width:0.8;" x="340.062825" xlink:href="#m4ea7d29b76" y="454.22"/>
      </g>
     </g>
     <g id="text_7">
      <!-- 120 -->
      <g transform="translate(324.792825 473.3775)scale(0.16 -0.16)">
       <use xlink:href="#DejaVuSans-31"/>
       <use x="63.623047" xlink:href="#DejaVuSans-32"/>
       <use x="127.246094" xlink:href="#DejaVuSans-30"/>
      </g>
     </g>
    </g>
    <g id="xtick_8">
     <g id="line2d_8">
      <g>
       <use style="stroke:#000000;stroke-width:0.8;" x="386.442045" xlink:href="#m4ea7d29b76" y="454.22"/>
      </g>
     </g>
     <g id="text_8">
      <!-- 140 -->
      <g transform="translate(371.172045 473.3775)scale(0.16 -0.16)">
       <use xlink:href="#DejaVuSans-31"/>
       <use x="63.623047" xlink:href="#DejaVuSans-34"/>
       <use x="127.246094" xlink:href="#DejaVuSans-30"/>
      </g>
     </g>
    </g>
    <g id="xtick_9">
     <g id="line2d_9">
      <g>
       <use style="stroke:#000000;stroke-width:0.8;" x="432.821266" xlink:href="#m4ea7d29b76" y="454.22"/>
      </g>
     </g>
     <g id="text_9">
      <!-- 160 -->
      <g transform="translate(417.551266 473.3775)scale(0.16 -0.16)">
       <use xlink:href="#DejaVuSans-31"/>
       <use x="63.623047" xlink:href="#DejaVuSans-36"/>
       <use x="127.246094" xlink:href="#DejaVuSans-30"/>
      </g>
     </g>
    </g>
    <g id="text_10">
     <!-- Slice -->
     <defs>
      <path d="M 53.515625 70.515625 
L 53.515625 60.890625 
Q 47.90625 63.578125 42.921875 64.890625 
Q 37.9375 66.21875 33.296875 66.21875 
Q 25.25 66.21875 20.875 63.09375 
Q 16.5 59.96875 16.5 54.203125 
Q 16.5 49.359375 19.40625 46.890625 
Q 22.3125 44.4375 30.421875 42.921875 
L 36.375 41.703125 
Q 47.40625 39.59375 52.65625 34.296875 
Q 57.90625 29 57.90625 20.125 
Q 57.90625 9.515625 50.796875 4.046875 
Q 43.703125 -1.421875 29.984375 -1.421875 
Q 24.8125 -1.421875 18.96875 -0.25 
Q 13.140625 0.921875 6.890625 3.21875 
L 6.890625 13.375 
Q 12.890625 10.015625 18.65625 8.296875 
Q 24.421875 6.59375 29.984375 6.59375 
Q 38.421875 6.59375 43.015625 9.90625 
Q 47.609375 13.234375 47.609375 19.390625 
Q 47.609375 24.75 44.3125 27.78125 
Q 41.015625 30.8125 33.5 32.328125 
L 27.484375 33.5 
Q 16.453125 35.6875 11.515625 40.375 
Q 6.59375 45.0625 6.59375 53.421875 
Q 6.59375 63.09375 13.40625 68.65625 
Q 20.21875 74.21875 32.171875 74.21875 
Q 37.3125 74.21875 42.625 73.28125 
Q 47.953125 72.359375 53.515625 70.515625 
z
" id="DejaVuSans-53"/>
      <path d="M 9.421875 75.984375 
L 18.40625 75.984375 
L 18.40625 0 
L 9.421875 0 
z
" id="DejaVuSans-6c"/>
      <path d="M 9.421875 54.6875 
L 18.40625 54.6875 
L 18.40625 0 
L 9.421875 0 
z
M 9.421875 75.984375 
L 18.40625 75.984375 
L 18.40625 64.59375 
L 9.421875 64.59375 
z
" id="DejaVuSans-69"/>
      <path d="M 48.78125 52.59375 
L 48.78125 44.1875 
Q 44.96875 46.296875 41.140625 47.34375 
Q 37.3125 48.390625 33.40625 48.390625 
Q 24.65625 48.390625 19.8125 42.84375 
Q 14.984375 37.3125 14.984375 27.296875 
Q 14.984375 17.28125 19.8125 11.734375 
Q 24.65625 6.203125 33.40625 6.203125 
Q 37.3125 6.203125 41.140625 7.25 
Q 44.96875 8.296875 48.78125 10.40625 
L 48.78125 2.09375 
Q 45.015625 0.34375 40.984375 -0.53125 
Q 36.96875 -1.421875 32.421875 -1.421875 
Q 20.0625 -1.421875 12.78125 6.34375 
Q 5.515625 14.109375 5.515625 27.296875 
Q 5.515625 40.671875 12.859375 48.328125 
Q 20.21875 56 33.015625 56 
Q 37.15625 56 41.109375 55.140625 
Q 45.0625 54.296875 48.78125 52.59375 
z
" id="DejaVuSans-63"/>
      <path d="M 56.203125 29.59375 
L 56.203125 25.203125 
L 14.890625 25.203125 
Q 15.484375 15.921875 20.484375 11.0625 
Q 25.484375 6.203125 34.421875 6.203125 
Q 39.59375 6.203125 44.453125 7.46875 
Q 49.3125 8.734375 54.109375 11.28125 
L 54.109375 2.78125 
Q 49.265625 0.734375 44.1875 -0.34375 
Q 39.109375 -1.421875 33.890625 -1.421875 
Q 20.796875 -1.421875 13.15625 6.1875 
Q 5.515625 13.8125 5.515625 26.8125 
Q 5.515625 40.234375 12.765625 48.109375 
Q 20.015625 56 32.328125 56 
Q 43.359375 56 49.78125 48.890625 
Q 56.203125 41.796875 56.203125 29.59375 
z
M 47.21875 32.234375 
Q 47.125 39.59375 43.09375 43.984375 
Q 39.0625 48.390625 32.421875 48.390625 
Q 24.90625 48.390625 20.390625 44.140625 
Q 15.875 39.890625 15.1875 32.171875 
z
" id="DejaVuSans-65"/>
     </defs>
     <g transform="translate(236.429091 498.94125)scale(0.24 -0.24)">
      <use xlink:href="#DejaVuSans-53"/>
      <use x="63.476562" xlink:href="#DejaVuSans-6c"/>
      <use x="91.259766" xlink:href="#DejaVuSans-69"/>
      <use x="119.042969" xlink:href="#DejaVuSans-63"/>
      <use x="174.023438" xlink:href="#DejaVuSans-65"/>
     </g>
    </g>
   </g>
   <g id="matplotlib.axis_2">
    <g id="ytick_1">
     <g id="line2d_10">
      <defs>
       <path d="M 0 0 
L -3.5 0 
" id="m7fc819b2b2" style="stroke:#000000;stroke-width:0.8;"/>
      </defs>
      <g>
       <use style="stroke:#000000;stroke-width:0.8;" x="61.7875" xlink:href="#m7fc819b2b2" y="454.22"/>
      </g>
     </g>
     <g id="text_11">
      <!-- 20 -->
      <g transform="translate(34.4275 460.29875)scale(0.16 -0.16)">
       <use xlink:href="#DejaVuSans-32"/>
       <use x="63.623047" xlink:href="#DejaVuSans-30"/>
      </g>
     </g>
    </g>
    <g id="ytick_2">
     <g id="line2d_11">
      <g>
       <use style="stroke:#000000;stroke-width:0.8;" x="61.7875" xlink:href="#m7fc819b2b2" y="378.877917"/>
      </g>
     </g>
     <g id="text_12">
      <!-- 25 -->
      <defs>
       <path d="M 10.796875 72.90625 
L 49.515625 72.90625 
L 49.515625 64.59375 
L 19.828125 64.59375 
L 19.828125 46.734375 
Q 21.96875 47.46875 24.109375 47.828125 
Q 26.265625 48.1875 28.421875 48.1875 
Q 40.625 48.1875 47.75 41.5 
Q 54.890625 34.8125 54.890625 23.390625 
Q 54.890625 11.625 47.5625 5.09375 
Q 40.234375 -1.421875 26.90625 -1.421875 
Q 22.3125 -1.421875 17.546875 -0.640625 
Q 12.796875 0.140625 7.71875 1.703125 
L 7.71875 11.625 
Q 12.109375 9.234375 16.796875 8.0625 
Q 21.484375 6.890625 26.703125 6.890625 
Q 35.15625 6.890625 40.078125 11.328125 
Q 45.015625 15.765625 45.015625 23.390625 
Q 45.015625 31 40.078125 35.4375 
Q 35.15625 39.890625 26.703125 39.890625 
Q 22.75 39.890625 18.8125 39.015625 
Q 14.890625 38.140625 10.796875 36.28125 
z
" id="DejaVuSans-35"/>
      </defs>
      <g transform="translate(34.4275 384.956667)scale(0.16 -0.16)">
       <use xlink:href="#DejaVuSans-32"/>
       <use x="63.623047" xlink:href="#DejaVuSans-35"/>
      </g>
     </g>
    </g>
    <g id="ytick_3">
     <g id="line2d_12">
      <g>
       <use style="stroke:#000000;stroke-width:0.8;" x="61.7875" xlink:href="#m7fc819b2b2" y="303.535834"/>
      </g>
     </g>
     <g id="text_13">
      <!-- 30 -->
      <defs>
       <path d="M 40.578125 39.3125 
Q 47.65625 37.796875 51.625 33 
Q 55.609375 28.21875 55.609375 21.1875 
Q 55.609375 10.40625 48.1875 4.484375 
Q 40.765625 -1.421875 27.09375 -1.421875 
Q 22.515625 -1.421875 17.65625 -0.515625 
Q 12.796875 0.390625 7.625 2.203125 
L 7.625 11.71875 
Q 11.71875 9.328125 16.59375 8.109375 
Q 21.484375 6.890625 26.8125 6.890625 
Q 36.078125 6.890625 40.9375 10.546875 
Q 45.796875 14.203125 45.796875 21.1875 
Q 45.796875 27.640625 41.28125 31.265625 
Q 36.765625 34.90625 28.71875 34.90625 
L 20.21875 34.90625 
L 20.21875 43.015625 
L 29.109375 43.015625 
Q 36.375 43.015625 40.234375 45.921875 
Q 44.09375 48.828125 44.09375 54.296875 
Q 44.09375 59.90625 40.109375 62.90625 
Q 36.140625 65.921875 28.71875 65.921875 
Q 24.65625 65.921875 20.015625 65.03125 
Q 15.375 64.15625 9.8125 62.3125 
L 9.8125 71.09375 
Q 15.4375 72.65625 20.34375 73.4375 
Q 25.25 74.21875 29.59375 74.21875 
Q 40.828125 74.21875 47.359375 69.109375 
Q 53.90625 64.015625 53.90625 55.328125 
Q 53.90625 49.265625 50.4375 45.09375 
Q 46.96875 40.921875 40.578125 39.3125 
z
" id="DejaVuSans-33"/>
      </defs>
      <g transform="translate(34.4275 309.614584)scale(0.16 -0.16)">
       <use xlink:href="#DejaVuSans-33"/>
       <use x="63.623047" xlink:href="#DejaVuSans-30"/>
      </g>
     </g>
    </g>
    <g id="ytick_4">
     <g id="line2d_13">
      <g>
       <use style="stroke:#000000;stroke-width:0.8;" x="61.7875" xlink:href="#m7fc819b2b2" y="228.193751"/>
      </g>
     </g>
     <g id="text_14">
      <!-- 35 -->
      <g transform="translate(34.4275 234.272501)scale(0.16 -0.16)">
       <use xlink:href="#DejaVuSans-33"/>
       <use x="63.623047" xlink:href="#DejaVuSans-35"/>
      </g>
     </g>
    </g>
    <g id="ytick_5">
     <g id="line2d_14">
      <g>
       <use style="stroke:#000000;stroke-width:0.8;" x="61.7875" xlink:href="#m7fc819b2b2" y="152.851669"/>
      </g>
     </g>
     <g id="text_15">
      <!-- 40 -->
      <g transform="translate(34.4275 158.930419)scale(0.16 -0.16)">
       <use xlink:href="#DejaVuSans-34"/>
       <use x="63.623047" xlink:href="#DejaVuSans-30"/>
      </g>
     </g>
    </g>
    <g id="ytick_6">
     <g id="line2d_15">
      <g>
       <use style="stroke:#000000;stroke-width:0.8;" x="61.7875" xlink:href="#m7fc819b2b2" y="77.509586"/>
      </g>
     </g>
     <g id="text_16">
      <!-- 45 -->
      <g transform="translate(34.4275 83.588336)scale(0.16 -0.16)">
       <use xlink:href="#DejaVuSans-34"/>
       <use x="63.623047" xlink:href="#DejaVuSans-35"/>
      </g>
     </g>
    </g>
    <g id="text_17">
     <!-- PSNR -->
     <defs>
      <path d="M 19.671875 64.796875 
L 19.671875 37.40625 
L 32.078125 37.40625 
Q 38.96875 37.40625 42.71875 40.96875 
Q 46.484375 44.53125 46.484375 51.125 
Q 46.484375 57.671875 42.71875 61.234375 
Q 38.96875 64.796875 32.078125 64.796875 
z
M 9.8125 72.90625 
L 32.078125 72.90625 
Q 44.34375 72.90625 50.609375 67.359375 
Q 56.890625 61.8125 56.890625 51.125 
Q 56.890625 40.328125 50.609375 34.8125 
Q 44.34375 29.296875 32.078125 29.296875 
L 19.671875 29.296875 
L 19.671875 0 
L 9.8125 0 
z
" id="DejaVuSans-50"/>
      <path d="M 9.8125 72.90625 
L 23.09375 72.90625 
L 55.421875 11.921875 
L 55.421875 72.90625 
L 64.984375 72.90625 
L 64.984375 0 
L 51.703125 0 
L 19.390625 60.984375 
L 19.390625 0 
L 9.8125 0 
z
" id="DejaVuSans-4e"/>
      <path d="M 44.390625 34.1875 
Q 47.5625 33.109375 50.5625 29.59375 
Q 53.5625 26.078125 56.59375 19.921875 
L 66.609375 0 
L 56 0 
L 46.6875 18.703125 
Q 43.0625 26.03125 39.671875 28.421875 
Q 36.28125 30.8125 30.421875 30.8125 
L 19.671875 30.8125 
L 19.671875 0 
L 9.8125 0 
L 9.8125 72.90625 
L 32.078125 72.90625 
Q 44.578125 72.90625 50.734375 67.671875 
Q 56.890625 62.453125 56.890625 51.90625 
Q 56.890625 45.015625 53.6875 40.46875 
Q 50.484375 35.9375 44.390625 34.1875 
z
M 19.671875 64.796875 
L 19.671875 38.921875 
L 32.078125 38.921875 
Q 39.203125 38.921875 42.84375 42.21875 
Q 46.484375 45.515625 46.484375 51.90625 
Q 46.484375 58.296875 42.84375 61.546875 
Q 39.203125 64.796875 32.078125 64.796875 
z
" id="DejaVuSans-52"/>
     </defs>
     <g transform="translate(25.43625 264.629375)rotate(-90)scale(0.24 -0.24)">
      <use xlink:href="#DejaVuSans-50"/>
      <use x="60.302734" xlink:href="#DejaVuSans-53"/>
      <use x="123.779297" xlink:href="#DejaVuSans-4e"/>
      <use x="198.583984" xlink:href="#DejaVuSans-52"/>
     </g>
    </g>
   </g>
   <g id="line2d_16">
    <path clip-path="url(#p2ee73281a5)" d="M 61.7875 70.164836 
L 64.106461 46.170873 
L 66.425422 53.155674 
L 68.744383 61.193247 
L 71.063344 80.329683 
L 73.382305 84.012232 
L 75.701266 102.941447 
L 78.020227 106.261346 
L 80.339188 115.832582 
L 82.658149 123.416224 
L 84.97711 133.033847 
L 87.296071 138.434287 
L 89.615032 142.494374 
L 91.933994 148.576428 
L 94.252955 149.346047 
L 96.571916 156.586353 
L 98.890877 175.415263 
L 101.209838 180.569855 
L 103.528799 191.717922 
L 105.84776 199.954783 
L 108.166721 212.832237 
L 110.485682 221.174462 
L 112.804643 221.114106 
L 115.123604 218.100182 
L 117.442565 229.213645 
L 122.080487 233.106691 
L 124.399448 237.197415 
L 126.718409 235.016454 
L 129.03737 237.226099 
L 131.356331 236.881727 
L 133.675292 241.047408 
L 135.994253 242.170768 
L 138.313214 252.487825 
L 140.632175 255.43306 
L 145.270097 265.995736 
L 147.589058 268.761973 
L 149.908019 275.805548 
L 152.226981 274.526097 
L 154.545942 277.660043 
L 156.864903 284.911615 
L 159.183864 291.204253 
L 161.502825 283.22465 
L 163.821786 284.724513 
L 166.140747 285.94243 
L 168.459708 288.9252 
L 170.778669 290.607423 
L 173.09763 292.906394 
L 175.416591 291.540146 
L 177.735552 292.853942 
L 180.054513 292.190951 
L 182.373474 292.019512 
L 184.692435 290.706176 
L 187.011396 287.893638 
L 189.330357 291.338127 
L 191.649318 295.004495 
L 193.968279 290.684448 
L 196.28724 292.26993 
L 198.606201 296.043472 
L 200.925162 298.528252 
L 203.244123 298.364918 
L 205.563084 298.599155 
L 207.882045 297.109408 
L 210.201006 296.423971 
L 212.519968 295.380022 
L 214.838929 293.0893 
L 217.15789 295.903879 
L 219.476851 296.506744 
L 221.795812 299.000807 
L 224.114773 299.63977 
L 226.433734 297.415497 
L 228.752695 295.356397 
L 231.071656 295.163661 
L 233.390617 296.763025 
L 235.709578 292.649739 
L 238.028539 292.358366 
L 240.3475 294.3311 
L 242.666461 290.415924 
L 244.985422 295.116067 
L 247.304383 297.123922 
L 249.623344 298.28683 
L 251.942305 300.459226 
L 254.261266 301.483258 
L 256.580227 300.420886 
L 258.899188 302.613947 
L 261.218149 301.125867 
L 263.53711 300.16061 
L 265.856071 301.501853 
L 268.175032 301.100173 
L 272.812955 304.011465 
L 275.131916 303.533478 
L 277.450877 305.571683 
L 279.769838 305.620974 
L 282.088799 303.069171 
L 284.40776 304.396791 
L 286.726721 303.544313 
L 289.045682 301.942391 
L 291.364643 303.013155 
L 293.683604 306.031363 
L 296.002565 304.831753 
L 298.321526 304.844917 
L 300.640487 302.220515 
L 302.959448 303.230608 
L 305.278409 305.383288 
L 307.59737 304.680261 
L 309.916331 302.807774 
L 312.235292 302.010622 
L 314.554253 305.96592 
L 316.873214 305.327042 
L 319.192175 302.815822 
L 321.511136 302.716637 
L 323.830097 303.65758 
L 326.149058 301.544763 
L 328.468019 303.897824 
L 330.786981 296.853501 
L 333.105942 294.265284 
L 335.424903 293.883004 
L 337.743864 296.915897 
L 340.062825 295.984841 
L 342.381786 294.691681 
L 344.700747 295.090171 
L 347.019708 293.440023 
L 349.338669 294.434912 
L 351.65763 293.405246 
L 353.976591 294.086143 
L 356.295552 293.552313 
L 358.614513 292.193509 
L 360.933474 294.194093 
L 363.252435 291.704744 
L 365.571396 292.808474 
L 367.890357 292.081104 
L 370.209318 287.696419 
L 372.528279 282.861856 
L 374.84724 282.851681 
L 377.166201 277.57339 
L 379.485162 273.873367 
L 381.804123 272.613575 
L 384.123084 272.137398 
L 386.442045 259.022201 
L 388.761006 258.117213 
L 391.079968 256.56303 
L 393.398929 253.301878 
L 395.71789 249.645195 
L 398.036851 242.607972 
L 400.355812 245.61839 
L 402.674773 243.706557 
L 404.993734 241.377754 
L 407.312695 241.388273 
L 409.631656 233.1471 
L 411.950617 230.140763 
L 414.269578 224.655711 
L 416.588539 223.586096 
L 418.9075 225.159593 
L 423.545422 206.631483 
L 425.864383 194.946137 
L 428.183344 199.331454 
L 430.502305 194.513532 
L 432.821266 189.110218 
L 435.140227 172.289882 
L 437.459188 144.882786 
L 439.778149 155.856914 
L 442.09711 150.211488 
L 444.416071 145.313437 
L 446.735032 149.332712 
L 449.053994 143.115174 
L 451.372955 143.254509 
L 453.691916 131.785408 
L 456.010877 128.327899 
L 458.329838 104.636403 
L 460.648799 87.634943 
L 462.96776 79.055894 
L 465.286721 78.740263 
L 467.605682 74.790023 
L 467.605682 74.790023 
" style="fill:none;stroke:#add8e6;stroke-linecap:square;stroke-width:1.5;"/>
   </g>
   <g id="line2d_17">
    <path clip-path="url(#p2ee73281a5)" d="M 61.7875 62.768296 
L 64.106461 60.940616 
L 66.425422 65.115149 
L 68.744383 72.366261 
L 71.063344 98.727597 
L 73.382305 121.833472 
L 75.701266 135.29557 
L 78.020227 141.931803 
L 80.339188 158.637981 
L 82.658149 168.178119 
L 84.97711 172.22556 
L 87.296071 174.455323 
L 89.615032 174.108308 
L 91.933994 171.197447 
L 94.252955 174.945238 
L 96.571916 181.66229 
L 98.890877 195.118294 
L 101.209838 198.795957 
L 103.528799 205.336426 
L 105.84776 212.698133 
L 110.485682 238.714121 
L 112.804643 244.869982 
L 115.123604 243.188132 
L 117.442565 250.797181 
L 119.761526 255.027126 
L 122.080487 256.248089 
L 124.399448 260.853848 
L 126.718409 259.707035 
L 129.03737 262.14695 
L 131.356331 263.689005 
L 135.994253 271.303745 
L 138.313214 275.811383 
L 140.632175 278.621967 
L 142.951136 283.996223 
L 145.270097 288.421318 
L 147.589058 290.059309 
L 149.908019 294.261375 
L 152.226981 295.926929 
L 154.545942 300.846019 
L 156.864903 303.783407 
L 159.183864 308.135299 
L 161.502825 305.864695 
L 163.821786 305.52544 
L 168.459708 307.107473 
L 170.778669 308.590781 
L 173.09763 311.240676 
L 175.416591 312.382229 
L 177.735552 312.108387 
L 180.054513 312.169663 
L 182.373474 309.905641 
L 184.692435 310.682761 
L 187.011396 312.074991 
L 189.330357 315.758661 
L 191.649318 318.456322 
L 193.968279 319.948225 
L 196.28724 322.334653 
L 198.606201 323.966005 
L 200.925162 327.659073 
L 203.244123 325.149232 
L 205.563084 321.512525 
L 207.882045 322.232451 
L 210.201006 321.80134 
L 214.838929 319.523782 
L 217.15789 319.759657 
L 219.476851 320.52393 
L 221.795812 321.875003 
L 224.114773 321.035314 
L 226.433734 320.716579 
L 228.752695 319.748074 
L 233.390617 319.164954 
L 235.709578 318.359437 
L 238.028539 318.127356 
L 240.3475 318.807994 
L 242.666461 317.78468 
L 244.985422 319.26773 
L 247.304383 319.830301 
L 249.623344 322.922889 
L 251.942305 325.03904 
L 254.261266 326.544681 
L 256.580227 327.02284 
L 258.899188 328.291743 
L 261.218149 328.578288 
L 263.53711 327.485336 
L 265.856071 326.588366 
L 268.175032 326.359389 
L 270.493994 328.142895 
L 272.812955 329.071766 
L 275.131916 328.851497 
L 277.450877 328.157696 
L 279.769838 327.623061 
L 282.088799 326.305989 
L 284.40776 327.601822 
L 286.726721 325.757328 
L 289.045682 324.248469 
L 291.364643 324.639056 
L 293.683604 328.122345 
L 296.002565 336.942959 
L 298.321526 339.416156 
L 300.640487 329.249068 
L 305.278409 329.350292 
L 309.916331 328.153701 
L 314.554253 327.561211 
L 316.873214 328.050321 
L 319.192175 327.991833 
L 321.511136 327.606622 
L 323.830097 329.358397 
L 326.149058 331.855047 
L 328.468019 329.055269 
L 330.786981 324.569992 
L 333.105942 323.161466 
L 337.743864 318.953393 
L 340.062825 315.352813 
L 342.381786 315.521262 
L 344.700747 314.574025 
L 347.019708 314.191055 
L 349.338669 314.826656 
L 351.65763 315.032296 
L 353.976591 314.61501 
L 356.295552 311.753842 
L 358.614513 310.457377 
L 360.933474 311.254271 
L 363.252435 309.436046 
L 365.571396 308.693271 
L 367.890357 309.430154 
L 370.209318 307.111123 
L 372.528279 305.340637 
L 374.84724 302.336024 
L 377.166201 299.805662 
L 379.485162 294.917641 
L 381.804123 292.438437 
L 384.123084 291.588258 
L 386.442045 284.224252 
L 388.761006 281.346185 
L 391.079968 276.705104 
L 393.398929 275.096371 
L 395.71789 272.550575 
L 398.036851 269.035584 
L 400.355812 268.587517 
L 402.674773 269.008223 
L 404.993734 268.154969 
L 407.312695 270.130031 
L 409.631656 263.472875 
L 411.950617 254.060058 
L 414.269578 249.145567 
L 416.588539 243.534917 
L 418.9075 239.426948 
L 421.226461 231.923723 
L 423.545422 221.42876 
L 425.864383 207.960742 
L 428.183344 209.272813 
L 430.502305 207.832213 
L 432.821266 199.440727 
L 435.140227 184.343052 
L 437.459188 159.618672 
L 439.778149 166.182593 
L 442.09711 173.851653 
L 444.416071 174.550398 
L 446.735032 170.880495 
L 451.372955 153.185463 
L 453.691916 134.616312 
L 458.329838 77.282074 
L 460.648799 65.479179 
L 462.96776 62.4537 
L 465.286721 59.790872 
L 467.605682 60.319644 
L 467.605682 60.319644 
" style="fill:none;stroke:#90ee90;stroke-linecap:square;stroke-width:1.5;"/>
   </g>
   <g id="patch_3">
    <path d="M 61.7875 454.22 
L 61.7875 10.7 
" style="fill:none;stroke:#000000;stroke-linecap:square;stroke-linejoin:miter;stroke-width:0.8;"/>
   </g>
   <g id="patch_4">
    <path d="M 467.605682 454.22 
L 467.605682 10.7 
" style="fill:none;stroke:#000000;stroke-linecap:square;stroke-linejoin:miter;stroke-width:0.8;"/>
   </g>
   <g id="patch_5">
    <path d="M 61.7875 454.22 
L 467.605682 454.22 
" style="fill:none;stroke:#000000;stroke-linecap:square;stroke-linejoin:miter;stroke-width:0.8;"/>
   </g>
   <g id="patch_6">
    <path d="M 61.7875 10.7 
L 467.605682 10.7 
" style="fill:none;stroke:#000000;stroke-linecap:square;stroke-linejoin:miter;stroke-width:0.8;"/>
   </g>
   <g id="legend_1">
    <g id="patch_7">
     <path d="M 287.365682 100.355 
L 450.805682 100.355 
Q 455.605682 100.355 455.605682 95.555 
L 455.605682 27.5 
Q 455.605682 22.7 450.805682 22.7 
L 287.365682 22.7 
Q 282.565682 22.7 282.565682 27.5 
L 282.565682 95.555 
Q 282.565682 100.355 287.365682 100.355 
z
" style="fill:#ffffff;opacity:0.8;stroke:#cccccc;stroke-linejoin:miter;"/>
    </g>
    <g id="patch_8">
     <path d="M 292.165682 50.53625 
L 340.165682 50.53625 
L 340.165682 33.73625 
L 292.165682 33.73625 
z
" style="fill:#add8e6;opacity:0.5;stroke:#add8e6;stroke-linejoin:miter;"/>
    </g>
    <g id="text_18">
     <!-- EDSR -->
     <defs>
      <path d="M 9.8125 72.90625 
L 55.90625 72.90625 
L 55.90625 64.59375 
L 19.671875 64.59375 
L 19.671875 43.015625 
L 54.390625 43.015625 
L 54.390625 34.71875 
L 19.671875 34.71875 
L 19.671875 8.296875 
L 56.78125 8.296875 
L 56.78125 0 
L 9.8125 0 
z
" id="DejaVuSans-45"/>
      <path d="M 19.671875 64.796875 
L 19.671875 8.109375 
L 31.59375 8.109375 
Q 46.6875 8.109375 53.6875 14.9375 
Q 60.6875 21.78125 60.6875 36.53125 
Q 60.6875 51.171875 53.6875 57.984375 
Q 46.6875 64.796875 31.59375 64.796875 
z
M 9.8125 72.90625 
L 30.078125 72.90625 
Q 51.265625 72.90625 61.171875 64.09375 
Q 71.09375 55.28125 71.09375 36.53125 
Q 71.09375 17.671875 61.125 8.828125 
Q 51.171875 0 30.078125 0 
L 9.8125 0 
z
" id="DejaVuSans-44"/>
     </defs>
     <g transform="translate(359.365682 50.53625)scale(0.24 -0.24)">
      <use xlink:href="#DejaVuSans-45"/>
      <use x="63.183594" xlink:href="#DejaVuSans-44"/>
      <use x="140.185547" xlink:href="#DejaVuSans-53"/>
      <use x="203.662109" xlink:href="#DejaVuSans-52"/>
     </g>
    </g>
    <g id="patch_9">
     <path d="M 292.165682 85.76375 
L 340.165682 85.76375 
L 340.165682 68.96375 
L 292.165682 68.96375 
z
" style="fill:#90ee90;opacity:0.5;stroke:#90ee90;stroke-linejoin:miter;"/>
    </g>
    <g id="text_19">
     <!-- Bicubic -->
     <defs>
      <path d="M 19.671875 34.8125 
L 19.671875 8.109375 
L 35.5 8.109375 
Q 43.453125 8.109375 47.28125 11.40625 
Q 51.125 14.703125 51.125 21.484375 
Q 51.125 28.328125 47.28125 31.5625 
Q 43.453125 34.8125 35.5 34.8125 
z
M 19.671875 64.796875 
L 19.671875 42.828125 
L 34.28125 42.828125 
Q 41.5 42.828125 45.03125 45.53125 
Q 48.578125 48.25 48.578125 53.8125 
Q 48.578125 59.328125 45.03125 62.0625 
Q 41.5 64.796875 34.28125 64.796875 
z
M 9.8125 72.90625 
L 35.015625 72.90625 
Q 46.296875 72.90625 52.390625 68.21875 
Q 58.5 63.53125 58.5 54.890625 
Q 58.5 48.1875 55.375 44.234375 
Q 52.25 40.28125 46.1875 39.3125 
Q 53.46875 37.75 57.5 32.78125 
Q 61.53125 27.828125 61.53125 20.40625 
Q 61.53125 10.640625 54.890625 5.3125 
Q 48.25 0 35.984375 0 
L 9.8125 0 
z
" id="DejaVuSans-42"/>
      <path d="M 8.5 21.578125 
L 8.5 54.6875 
L 17.484375 54.6875 
L 17.484375 21.921875 
Q 17.484375 14.15625 20.5 10.265625 
Q 23.53125 6.390625 29.59375 6.390625 
Q 36.859375 6.390625 41.078125 11.03125 
Q 45.3125 15.671875 45.3125 23.6875 
L 45.3125 54.6875 
L 54.296875 54.6875 
L 54.296875 0 
L 45.3125 0 
L 45.3125 8.40625 
Q 42.046875 3.421875 37.71875 1 
Q 33.40625 -1.421875 27.6875 -1.421875 
Q 18.265625 -1.421875 13.375 4.4375 
Q 8.5 10.296875 8.5 21.578125 
z
M 31.109375 56 
z
" id="DejaVuSans-75"/>
      <path d="M 48.6875 27.296875 
Q 48.6875 37.203125 44.609375 42.84375 
Q 40.53125 48.484375 33.40625 48.484375 
Q 26.265625 48.484375 22.1875 42.84375 
Q 18.109375 37.203125 18.109375 27.296875 
Q 18.109375 17.390625 22.1875 11.75 
Q 26.265625 6.109375 33.40625 6.109375 
Q 40.53125 6.109375 44.609375 11.75 
Q 48.6875 17.390625 48.6875 27.296875 
z
M 18.109375 46.390625 
Q 20.953125 51.265625 25.265625 53.625 
Q 29.59375 56 35.59375 56 
Q 45.5625 56 51.78125 48.09375 
Q 58.015625 40.1875 58.015625 27.296875 
Q 58.015625 14.40625 51.78125 6.484375 
Q 45.5625 -1.421875 35.59375 -1.421875 
Q 29.59375 -1.421875 25.265625 0.953125 
Q 20.953125 3.328125 18.109375 8.203125 
L 18.109375 0 
L 9.078125 0 
L 9.078125 75.984375 
L 18.109375 75.984375 
z
" id="DejaVuSans-62"/>
     </defs>
     <g transform="translate(359.365682 85.76375)scale(0.24 -0.24)">
      <use xlink:href="#DejaVuSans-42"/>
      <use x="68.603516" xlink:href="#DejaVuSans-69"/>
      <use x="96.386719" xlink:href="#DejaVuSans-63"/>
      <use x="151.367188" xlink:href="#DejaVuSans-75"/>
      <use x="214.746094" xlink:href="#DejaVuSans-62"/>
      <use x="278.222656" xlink:href="#DejaVuSans-69"/>
      <use x="306.005859" xlink:href="#DejaVuSans-63"/>
     </g>
    </g>
   </g>
  </g>
  <g id="axes_2">
   <g id="patch_10">
    <path d="M 548.769318 454.22 
L 954.5875 454.22 
L 954.5875 10.7 
L 548.769318 10.7 
z
" style="fill:#ffffff;"/>
   </g>
   <g id="PolyCollection_3">
    <path clip-path="url(#p1e18514449)" d="M 548.769318 1362.127056 
L 548.769318 77.942171 
L 551.088279 78.788344 
L 553.40724 79.65979 
L 555.726201 81.011638 
L 558.045162 82.119022 
L 560.364123 84.035447 
L 562.683084 86.312114 
L 565.002045 88.094099 
L 567.321006 89.021046 
L 569.639968 89.200027 
L 571.958929 90.517613 
L 574.27789 92.678888 
L 576.596851 95.042664 
L 578.915812 97.598499 
L 581.234773 101.662437 
L 583.553734 105.299747 
L 585.872695 111.455182 
L 588.191656 117.33239 
L 590.510617 122.909509 
L 592.829578 129.130815 
L 595.148539 136.401303 
L 597.4675 140.995936 
L 599.786461 142.758307 
L 602.105422 143.126927 
L 604.424383 153.340415 
L 606.743344 158.318957 
L 609.062305 159.469992 
L 611.381266 162.834587 
L 613.700227 167.079659 
L 616.019188 168.645797 
L 618.338149 169.545159 
L 620.65711 175.826775 
L 622.976071 178.201935 
L 625.295032 189.466311 
L 627.613994 193.682183 
L 629.932955 197.773188 
L 632.251916 208.325973 
L 634.570877 211.656855 
L 636.889838 213.194584 
L 639.208799 216.887337 
L 641.52776 222.859329 
L 643.846721 232.897433 
L 646.165682 236.761493 
L 648.484643 233.060491 
L 650.803604 237.969928 
L 653.122565 243.736016 
L 655.441526 248.125611 
L 657.760487 254.025552 
L 660.079448 258.274465 
L 662.398409 256.939105 
L 664.71737 262.177713 
L 667.036331 260.871008 
L 669.355292 259.807685 
L 671.674253 258.596817 
L 673.993214 257.535701 
L 676.312175 262.948788 
L 678.631136 269.768164 
L 680.950097 263.617125 
L 683.269058 268.042644 
L 685.588019 274.124925 
L 687.906981 271.001715 
L 690.225942 273.183849 
L 692.544903 282.277555 
L 694.863864 285.628523 
L 697.182825 287.497539 
L 699.501786 287.0835 
L 701.820747 289.207216 
L 704.139708 294.073414 
L 706.458669 296.893527 
L 708.77763 301.610389 
L 711.096591 302.11002 
L 713.415552 291.376032 
L 715.734513 292.034297 
L 718.053474 292.065144 
L 720.372435 289.129466 
L 722.691396 291.215911 
L 725.010357 293.983084 
L 727.329318 299.864853 
L 729.648279 290.456653 
L 731.96724 296.502809 
L 734.286201 304.203443 
L 736.605162 304.531367 
L 738.924123 309.193202 
L 741.243084 315.639762 
L 743.562045 308.802445 
L 745.881006 306.040464 
L 748.199968 304.196939 
L 750.518929 304.528867 
L 752.83789 307.598212 
L 755.156851 298.163895 
L 757.475812 303.724994 
L 759.794773 312.146458 
L 762.113734 313.738892 
L 764.432695 318.438516 
L 766.751656 323.400875 
L 769.070617 324.065161 
L 771.389578 319.623154 
L 773.708539 318.214868 
L 776.0275 313.703473 
L 778.346461 311.046663 
L 780.665422 311.028778 
L 782.984383 302.96191 
L 785.303344 297.439511 
L 787.622305 296.834417 
L 789.941266 302.71623 
L 792.260227 308.859714 
L 794.579188 307.4596 
L 796.898149 306.857225 
L 799.21711 301.23946 
L 801.536071 304.242019 
L 803.855032 306.222373 
L 806.173994 300.971087 
L 808.492955 295.739457 
L 810.811916 286.105667 
L 813.130877 278.981997 
L 815.449838 276.481496 
L 817.768799 268.108202 
L 820.08776 270.238343 
L 822.406721 267.461909 
L 824.725682 273.620581 
L 827.044643 272.727992 
L 829.363604 267.090905 
L 831.682565 266.405215 
L 834.001526 267.750489 
L 836.320487 268.771983 
L 838.639448 263.313859 
L 840.958409 261.563995 
L 843.27737 256.097569 
L 845.596331 255.302176 
L 847.915292 258.899426 
L 850.234253 253.366035 
L 852.553214 250.452644 
L 854.872175 249.397772 
L 857.191136 243.756617 
L 859.510097 238.022047 
L 861.829058 233.634686 
L 864.148019 224.03087 
L 866.466981 220.819349 
L 868.785942 219.591162 
L 871.104903 218.86036 
L 873.423864 209.258611 
L 875.742825 206.217722 
L 878.061786 199.87134 
L 880.380747 194.176169 
L 882.699708 188.49408 
L 885.018669 182.748708 
L 887.33763 179.376811 
L 889.656591 177.382796 
L 891.975552 171.12923 
L 894.294513 166.444892 
L 896.613474 163.430491 
L 898.932435 158.798856 
L 901.251396 152.379886 
L 903.570357 150.697859 
L 905.889318 144.592455 
L 908.208279 138.103577 
L 910.52724 134.100453 
L 912.846201 126.596228 
L 915.165162 125.364846 
L 917.484123 120.497682 
L 919.803084 123.11009 
L 922.122045 118.260453 
L 924.441006 106.940678 
L 926.759968 103.954678 
L 929.078929 99.32923 
L 931.39789 94.788304 
L 933.716851 93.132209 
L 936.035812 92.427137 
L 938.354773 91.051367 
L 940.673734 89.261743 
L 942.992695 88.132807 
L 945.311656 86.628045 
L 947.630617 85.836511 
L 949.949578 84.083646 
L 952.268539 82.965567 
L 954.5875 82.536336 
L 954.5875 1362.127056 
L 954.5875 1362.127056 
L 952.268539 1362.127056 
L 949.949578 1362.127056 
L 947.630617 1362.127056 
L 945.311656 1362.127056 
L 942.992695 1362.127056 
L 940.673734 1362.127056 
L 938.354773 1362.127056 
L 936.035812 1362.127056 
L 933.716851 1362.127056 
L 931.39789 1362.127056 
L 929.078929 1362.127056 
L 926.759968 1362.127056 
L 924.441006 1362.127056 
L 922.122045 1362.127056 
L 919.803084 1362.127056 
L 917.484123 1362.127056 
L 915.165162 1362.127056 
L 912.846201 1362.127056 
L 910.52724 1362.127056 
L 908.208279 1362.127056 
L 905.889318 1362.127056 
L 903.570357 1362.127056 
L 901.251396 1362.127056 
L 898.932435 1362.127056 
L 896.613474 1362.127056 
L 894.294513 1362.127056 
L 891.975552 1362.127056 
L 889.656591 1362.127056 
L 887.33763 1362.127056 
L 885.018669 1362.127056 
L 882.699708 1362.127056 
L 880.380747 1362.127056 
L 878.061786 1362.127056 
L 875.742825 1362.127056 
L 873.423864 1362.127056 
L 871.104903 1362.127056 
L 868.785942 1362.127056 
L 866.466981 1362.127056 
L 864.148019 1362.127056 
L 861.829058 1362.127056 
L 859.510097 1362.127056 
L 857.191136 1362.127056 
L 854.872175 1362.127056 
L 852.553214 1362.127056 
L 850.234253 1362.127056 
L 847.915292 1362.127056 
L 845.596331 1362.127056 
L 843.27737 1362.127056 
L 840.958409 1362.127056 
L 838.639448 1362.127056 
L 836.320487 1362.127056 
L 834.001526 1362.127056 
L 831.682565 1362.127056 
L 829.363604 1362.127056 
L 827.044643 1362.127056 
L 824.725682 1362.127056 
L 822.406721 1362.127056 
L 820.08776 1362.127056 
L 817.768799 1362.127056 
L 815.449838 1362.127056 
L 813.130877 1362.127056 
L 810.811916 1362.127056 
L 808.492955 1362.127056 
L 806.173994 1362.127056 
L 803.855032 1362.127056 
L 801.536071 1362.127056 
L 799.21711 1362.127056 
L 796.898149 1362.127056 
L 794.579188 1362.127056 
L 792.260227 1362.127056 
L 789.941266 1362.127056 
L 787.622305 1362.127056 
L 785.303344 1362.127056 
L 782.984383 1362.127056 
L 780.665422 1362.127056 
L 778.346461 1362.127056 
L 776.0275 1362.127056 
L 773.708539 1362.127056 
L 771.389578 1362.127056 
L 769.070617 1362.127056 
L 766.751656 1362.127056 
L 764.432695 1362.127056 
L 762.113734 1362.127056 
L 759.794773 1362.127056 
L 757.475812 1362.127056 
L 755.156851 1362.127056 
L 752.83789 1362.127056 
L 750.518929 1362.127056 
L 748.199968 1362.127056 
L 745.881006 1362.127056 
L 743.562045 1362.127056 
L 741.243084 1362.127056 
L 738.924123 1362.127056 
L 736.605162 1362.127056 
L 734.286201 1362.127056 
L 731.96724 1362.127056 
L 729.648279 1362.127056 
L 727.329318 1362.127056 
L 725.010357 1362.127056 
L 722.691396 1362.127056 
L 720.372435 1362.127056 
L 718.053474 1362.127056 
L 715.734513 1362.127056 
L 713.415552 1362.127056 
L 711.096591 1362.127056 
L 708.77763 1362.127056 
L 706.458669 1362.127056 
L 704.139708 1362.127056 
L 701.820747 1362.127056 
L 699.501786 1362.127056 
L 697.182825 1362.127056 
L 694.863864 1362.127056 
L 692.544903 1362.127056 
L 690.225942 1362.127056 
L 687.906981 1362.127056 
L 685.588019 1362.127056 
L 683.269058 1362.127056 
L 680.950097 1362.127056 
L 678.631136 1362.127056 
L 676.312175 1362.127056 
L 673.993214 1362.127056 
L 671.674253 1362.127056 
L 669.355292 1362.127056 
L 667.036331 1362.127056 
L 664.71737 1362.127056 
L 662.398409 1362.127056 
L 660.079448 1362.127056 
L 657.760487 1362.127056 
L 655.441526 1362.127056 
L 653.122565 1362.127056 
L 650.803604 1362.127056 
L 648.484643 1362.127056 
L 646.165682 1362.127056 
L 643.846721 1362.127056 
L 641.52776 1362.127056 
L 639.208799 1362.127056 
L 636.889838 1362.127056 
L 634.570877 1362.127056 
L 632.251916 1362.127056 
L 629.932955 1362.127056 
L 627.613994 1362.127056 
L 625.295032 1362.127056 
L 622.976071 1362.127056 
L 620.65711 1362.127056 
L 618.338149 1362.127056 
L 616.019188 1362.127056 
L 613.700227 1362.127056 
L 611.381266 1362.127056 
L 609.062305 1362.127056 
L 606.743344 1362.127056 
L 604.424383 1362.127056 
L 602.105422 1362.127056 
L 599.786461 1362.127056 
L 597.4675 1362.127056 
L 595.148539 1362.127056 
L 592.829578 1362.127056 
L 590.510617 1362.127056 
L 588.191656 1362.127056 
L 585.872695 1362.127056 
L 583.553734 1362.127056 
L 581.234773 1362.127056 
L 578.915812 1362.127056 
L 576.596851 1362.127056 
L 574.27789 1362.127056 
L 571.958929 1362.127056 
L 569.639968 1362.127056 
L 567.321006 1362.127056 
L 565.002045 1362.127056 
L 562.683084 1362.127056 
L 560.364123 1362.127056 
L 558.045162 1362.127056 
L 555.726201 1362.127056 
L 553.40724 1362.127056 
L 551.088279 1362.127056 
L 548.769318 1362.127056 
z
" style="fill:#add8e6;fill-opacity:0.5;stroke:#add8e6;stroke-opacity:0.5;"/>
   </g>
   <g id="PolyCollection_4">
    <path clip-path="url(#p1e18514449)" d="M 548.769318 1362.127056 
L 548.769318 75.053669 
L 551.088279 75.390431 
L 553.40724 76.189473 
L 555.726201 77.606426 
L 558.045162 80.202911 
L 560.364123 81.48891 
L 562.683084 84.278192 
L 565.002045 87.454035 
L 567.321006 89.906067 
L 569.639968 91.165831 
L 571.958929 92.97782 
L 574.27789 95.388489 
L 576.596851 97.094885 
L 578.915812 97.830007 
L 581.234773 103.711517 
L 583.553734 107.086699 
L 585.872695 114.905348 
L 588.191656 121.114658 
L 590.510617 125.946068 
L 592.829578 131.308369 
L 595.148539 142.037669 
L 597.4675 151.641765 
L 599.786461 160.356677 
L 602.105422 163.50836 
L 604.424383 172.965989 
L 606.743344 180.089256 
L 609.062305 183.811754 
L 611.381266 190.488731 
L 613.700227 196.8131 
L 616.019188 202.893103 
L 618.338149 207.488224 
L 620.65711 215.396141 
L 622.976071 224.229979 
L 625.295032 231.651822 
L 627.613994 237.94748 
L 629.932955 246.641531 
L 632.251916 257.45213 
L 634.570877 262.065493 
L 636.889838 267.459526 
L 639.208799 275.135194 
L 641.52776 286.705417 
L 643.846721 291.717302 
L 646.165682 297.915883 
L 648.484643 298.966232 
L 650.803604 302.611076 
L 653.122565 307.865643 
L 655.441526 308.891499 
L 657.760487 315.724929 
L 660.079448 321.544882 
L 662.398409 324.119952 
L 664.71737 325.864312 
L 667.036331 326.733924 
L 669.355292 325.422162 
L 671.674253 326.043629 
L 673.993214 329.157623 
L 676.312175 335.411782 
L 678.631136 341.659472 
L 680.950097 343.009517 
L 683.269058 349.567324 
L 685.588019 353.694819 
L 687.906981 352.551584 
L 690.225942 350.856669 
L 692.544903 353.555731 
L 694.863864 360.216984 
L 697.182825 365.282543 
L 699.501786 361.906844 
L 701.820747 363.440999 
L 704.139708 365.014137 
L 706.458669 368.402344 
L 708.77763 371.798469 
L 711.096591 369.35588 
L 713.415552 362.547034 
L 715.734513 359.246046 
L 718.053474 360.563339 
L 720.372435 360.652982 
L 722.691396 368.086454 
L 725.010357 371.433165 
L 727.329318 378.416194 
L 729.648279 373.541515 
L 731.96724 377.25964 
L 734.286201 383.390622 
L 736.605162 391.823888 
L 738.924123 399.577237 
L 741.243084 408.759915 
L 743.562045 403.7319 
L 745.881006 400.07618 
L 748.199968 398.161316 
L 750.518929 400.233146 
L 752.83789 395.121624 
L 755.156851 388.510402 
L 757.475812 396.629963 
L 759.794773 406.125883 
L 762.113734 408.669034 
L 764.432695 409.608614 
L 766.751656 408.586181 
L 769.070617 405.82055 
L 771.389578 401.077612 
L 773.708539 397.499965 
L 776.0275 391.289386 
L 778.346461 385.853262 
L 780.665422 389.270474 
L 782.984383 385.62685 
L 785.303344 381.244025 
L 787.622305 376.274827 
L 789.941266 382.08865 
L 792.260227 384.203121 
L 794.579188 382.147891 
L 796.898149 381.892649 
L 799.21711 377.24393 
L 801.536071 376.061448 
L 803.855032 377.505829 
L 806.173994 376.376479 
L 808.492955 371.969914 
L 810.811916 368.001013 
L 813.130877 364.917856 
L 815.449838 356.643819 
L 817.768799 350.687954 
L 820.08776 348.603767 
L 822.406721 347.012729 
L 824.725682 344.361694 
L 827.044643 338.015069 
L 829.363604 335.419334 
L 831.682565 331.147818 
L 834.001526 335.470395 
L 836.320487 335.967979 
L 838.639448 334.05236 
L 840.958409 329.887073 
L 843.27737 321.509052 
L 845.596331 318.516922 
L 847.915292 321.883208 
L 850.234253 318.352687 
L 852.553214 313.458896 
L 854.872175 309.934154 
L 857.191136 304.140506 
L 859.510097 302.661682 
L 861.829058 296.109403 
L 864.148019 286.946683 
L 866.466981 277.160623 
L 868.785942 275.793352 
L 871.104903 271.781122 
L 873.423864 260.273755 
L 875.742825 254.393012 
L 878.061786 240.817698 
L 880.380747 236.614005 
L 882.699708 229.997944 
L 885.018669 221.334748 
L 887.33763 214.560516 
L 889.656591 209.545043 
L 891.975552 202.068181 
L 894.294513 197.037192 
L 896.613474 193.332254 
L 898.932435 181.589625 
L 901.251396 174.784041 
L 903.570357 165.376522 
L 905.889318 157.73066 
L 908.208279 150.560938 
L 910.52724 141.843686 
L 912.846201 130.879203 
L 915.165162 128.882989 
L 917.484123 125.779552 
L 919.803084 124.867298 
L 922.122045 119.363992 
L 924.441006 106.470756 
L 926.759968 101.948956 
L 929.078929 98.689874 
L 931.39789 95.487275 
L 933.716851 94.223937 
L 936.035812 91.828509 
L 938.354773 89.077501 
L 940.673734 86.514068 
L 942.992695 84.876778 
L 945.311656 81.787896 
L 947.630617 80.299546 
L 949.949578 78.643077 
L 952.268539 78.021856 
L 954.5875 77.813566 
L 954.5875 1362.127056 
L 954.5875 1362.127056 
L 952.268539 1362.127056 
L 949.949578 1362.127056 
L 947.630617 1362.127056 
L 945.311656 1362.127056 
L 942.992695 1362.127056 
L 940.673734 1362.127056 
L 938.354773 1362.127056 
L 936.035812 1362.127056 
L 933.716851 1362.127056 
L 931.39789 1362.127056 
L 929.078929 1362.127056 
L 926.759968 1362.127056 
L 924.441006 1362.127056 
L 922.122045 1362.127056 
L 919.803084 1362.127056 
L 917.484123 1362.127056 
L 915.165162 1362.127056 
L 912.846201 1362.127056 
L 910.52724 1362.127056 
L 908.208279 1362.127056 
L 905.889318 1362.127056 
L 903.570357 1362.127056 
L 901.251396 1362.127056 
L 898.932435 1362.127056 
L 896.613474 1362.127056 
L 894.294513 1362.127056 
L 891.975552 1362.127056 
L 889.656591 1362.127056 
L 887.33763 1362.127056 
L 885.018669 1362.127056 
L 882.699708 1362.127056 
L 880.380747 1362.127056 
L 878.061786 1362.127056 
L 875.742825 1362.127056 
L 873.423864 1362.127056 
L 871.104903 1362.127056 
L 868.785942 1362.127056 
L 866.466981 1362.127056 
L 864.148019 1362.127056 
L 861.829058 1362.127056 
L 859.510097 1362.127056 
L 857.191136 1362.127056 
L 854.872175 1362.127056 
L 852.553214 1362.127056 
L 850.234253 1362.127056 
L 847.915292 1362.127056 
L 845.596331 1362.127056 
L 843.27737 1362.127056 
L 840.958409 1362.127056 
L 838.639448 1362.127056 
L 836.320487 1362.127056 
L 834.001526 1362.127056 
L 831.682565 1362.127056 
L 829.363604 1362.127056 
L 827.044643 1362.127056 
L 824.725682 1362.127056 
L 822.406721 1362.127056 
L 820.08776 1362.127056 
L 817.768799 1362.127056 
L 815.449838 1362.127056 
L 813.130877 1362.127056 
L 810.811916 1362.127056 
L 808.492955 1362.127056 
L 806.173994 1362.127056 
L 803.855032 1362.127056 
L 801.536071 1362.127056 
L 799.21711 1362.127056 
L 796.898149 1362.127056 
L 794.579188 1362.127056 
L 792.260227 1362.127056 
L 789.941266 1362.127056 
L 787.622305 1362.127056 
L 785.303344 1362.127056 
L 782.984383 1362.127056 
L 780.665422 1362.127056 
L 778.346461 1362.127056 
L 776.0275 1362.127056 
L 773.708539 1362.127056 
L 771.389578 1362.127056 
L 769.070617 1362.127056 
L 766.751656 1362.127056 
L 764.432695 1362.127056 
L 762.113734 1362.127056 
L 759.794773 1362.127056 
L 757.475812 1362.127056 
L 755.156851 1362.127056 
L 752.83789 1362.127056 
L 750.518929 1362.127056 
L 748.199968 1362.127056 
L 745.881006 1362.127056 
L 743.562045 1362.127056 
L 741.243084 1362.127056 
L 738.924123 1362.127056 
L 736.605162 1362.127056 
L 734.286201 1362.127056 
L 731.96724 1362.127056 
L 729.648279 1362.127056 
L 727.329318 1362.127056 
L 725.010357 1362.127056 
L 722.691396 1362.127056 
L 720.372435 1362.127056 
L 718.053474 1362.127056 
L 715.734513 1362.127056 
L 713.415552 1362.127056 
L 711.096591 1362.127056 
L 708.77763 1362.127056 
L 706.458669 1362.127056 
L 704.139708 1362.127056 
L 701.820747 1362.127056 
L 699.501786 1362.127056 
L 697.182825 1362.127056 
L 694.863864 1362.127056 
L 692.544903 1362.127056 
L 690.225942 1362.127056 
L 687.906981 1362.127056 
L 685.588019 1362.127056 
L 683.269058 1362.127056 
L 680.950097 1362.127056 
L 678.631136 1362.127056 
L 676.312175 1362.127056 
L 673.993214 1362.127056 
L 671.674253 1362.127056 
L 669.355292 1362.127056 
L 667.036331 1362.127056 
L 664.71737 1362.127056 
L 662.398409 1362.127056 
L 660.079448 1362.127056 
L 657.760487 1362.127056 
L 655.441526 1362.127056 
L 653.122565 1362.127056 
L 650.803604 1362.127056 
L 648.484643 1362.127056 
L 646.165682 1362.127056 
L 643.846721 1362.127056 
L 641.52776 1362.127056 
L 639.208799 1362.127056 
L 636.889838 1362.127056 
L 634.570877 1362.127056 
L 632.251916 1362.127056 
L 629.932955 1362.127056 
L 627.613994 1362.127056 
L 625.295032 1362.127056 
L 622.976071 1362.127056 
L 620.65711 1362.127056 
L 618.338149 1362.127056 
L 616.019188 1362.127056 
L 613.700227 1362.127056 
L 611.381266 1362.127056 
L 609.062305 1362.127056 
L 606.743344 1362.127056 
L 604.424383 1362.127056 
L 602.105422 1362.127056 
L 599.786461 1362.127056 
L 597.4675 1362.127056 
L 595.148539 1362.127056 
L 592.829578 1362.127056 
L 590.510617 1362.127056 
L 588.191656 1362.127056 
L 585.872695 1362.127056 
L 583.553734 1362.127056 
L 581.234773 1362.127056 
L 578.915812 1362.127056 
L 576.596851 1362.127056 
L 574.27789 1362.127056 
L 571.958929 1362.127056 
L 569.639968 1362.127056 
L 567.321006 1362.127056 
L 565.002045 1362.127056 
L 562.683084 1362.127056 
L 560.364123 1362.127056 
L 558.045162 1362.127056 
L 555.726201 1362.127056 
L 553.40724 1362.127056 
L 551.088279 1362.127056 
L 548.769318 1362.127056 
z
" style="fill:#90ee90;fill-opacity:0.5;stroke:#90ee90;stroke-opacity:0.5;"/>
   </g>
   <g id="matplotlib.axis_3">
    <g id="xtick_10">
     <g id="line2d_18">
      <g>
       <use style="stroke:#000000;stroke-width:0.8;" x="548.769318" xlink:href="#m4ea7d29b76" y="454.22"/>
      </g>
     </g>
     <g id="text_20">
      <!-- 0 -->
      <g transform="translate(543.679318 473.3775)scale(0.16 -0.16)">
       <use xlink:href="#DejaVuSans-30"/>
      </g>
     </g>
    </g>
    <g id="xtick_11">
     <g id="line2d_19">
      <g>
       <use style="stroke:#000000;stroke-width:0.8;" x="595.148539" xlink:href="#m4ea7d29b76" y="454.22"/>
      </g>
     </g>
     <g id="text_21">
      <!-- 20 -->
      <g transform="translate(584.968539 473.3775)scale(0.16 -0.16)">
       <use xlink:href="#DejaVuSans-32"/>
       <use x="63.623047" xlink:href="#DejaVuSans-30"/>
      </g>
     </g>
    </g>
    <g id="xtick_12">
     <g id="line2d_20">
      <g>
       <use style="stroke:#000000;stroke-width:0.8;" x="641.52776" xlink:href="#m4ea7d29b76" y="454.22"/>
      </g>
     </g>
     <g id="text_22">
      <!-- 40 -->
      <g transform="translate(631.34776 473.3775)scale(0.16 -0.16)">
       <use xlink:href="#DejaVuSans-34"/>
       <use x="63.623047" xlink:href="#DejaVuSans-30"/>
      </g>
     </g>
    </g>
    <g id="xtick_13">
     <g id="line2d_21">
      <g>
       <use style="stroke:#000000;stroke-width:0.8;" x="687.906981" xlink:href="#m4ea7d29b76" y="454.22"/>
      </g>
     </g>
     <g id="text_23">
      <!-- 60 -->
      <g transform="translate(677.726981 473.3775)scale(0.16 -0.16)">
       <use xlink:href="#DejaVuSans-36"/>
       <use x="63.623047" xlink:href="#DejaVuSans-30"/>
      </g>
     </g>
    </g>
    <g id="xtick_14">
     <g id="line2d_22">
      <g>
       <use style="stroke:#000000;stroke-width:0.8;" x="734.286201" xlink:href="#m4ea7d29b76" y="454.22"/>
      </g>
     </g>
     <g id="text_24">
      <!-- 80 -->
      <g transform="translate(724.106201 473.3775)scale(0.16 -0.16)">
       <use xlink:href="#DejaVuSans-38"/>
       <use x="63.623047" xlink:href="#DejaVuSans-30"/>
      </g>
     </g>
    </g>
    <g id="xtick_15">
     <g id="line2d_23">
      <g>
       <use style="stroke:#000000;stroke-width:0.8;" x="780.665422" xlink:href="#m4ea7d29b76" y="454.22"/>
      </g>
     </g>
     <g id="text_25">
      <!-- 100 -->
      <g transform="translate(765.395422 473.3775)scale(0.16 -0.16)">
       <use xlink:href="#DejaVuSans-31"/>
       <use x="63.623047" xlink:href="#DejaVuSans-30"/>
       <use x="127.246094" xlink:href="#DejaVuSans-30"/>
      </g>
     </g>
    </g>
    <g id="xtick_16">
     <g id="line2d_24">
      <g>
       <use style="stroke:#000000;stroke-width:0.8;" x="827.044643" xlink:href="#m4ea7d29b76" y="454.22"/>
      </g>
     </g>
     <g id="text_26">
      <!-- 120 -->
      <g transform="translate(811.774643 473.3775)scale(0.16 -0.16)">
       <use xlink:href="#DejaVuSans-31"/>
       <use x="63.623047" xlink:href="#DejaVuSans-32"/>
       <use x="127.246094" xlink:href="#DejaVuSans-30"/>
      </g>
     </g>
    </g>
    <g id="xtick_17">
     <g id="line2d_25">
      <g>
       <use style="stroke:#000000;stroke-width:0.8;" x="873.423864" xlink:href="#m4ea7d29b76" y="454.22"/>
      </g>
     </g>
     <g id="text_27">
      <!-- 140 -->
      <g transform="translate(858.153864 473.3775)scale(0.16 -0.16)">
       <use xlink:href="#DejaVuSans-31"/>
       <use x="63.623047" xlink:href="#DejaVuSans-34"/>
       <use x="127.246094" xlink:href="#DejaVuSans-30"/>
      </g>
     </g>
    </g>
    <g id="xtick_18">
     <g id="line2d_26">
      <g>
       <use style="stroke:#000000;stroke-width:0.8;" x="919.803084" xlink:href="#m4ea7d29b76" y="454.22"/>
      </g>
     </g>
     <g id="text_28">
      <!-- 160 -->
      <g transform="translate(904.533084 473.3775)scale(0.16 -0.16)">
       <use xlink:href="#DejaVuSans-31"/>
       <use x="63.623047" xlink:href="#DejaVuSans-36"/>
       <use x="127.246094" xlink:href="#DejaVuSans-30"/>
      </g>
     </g>
    </g>
    <g id="text_29">
     <!-- Slice -->
     <g transform="translate(723.410909 498.94125)scale(0.24 -0.24)">
      <use xlink:href="#DejaVuSans-53"/>
      <use x="63.476562" xlink:href="#DejaVuSans-6c"/>
      <use x="91.259766" xlink:href="#DejaVuSans-69"/>
      <use x="119.042969" xlink:href="#DejaVuSans-63"/>
      <use x="174.023438" xlink:href="#DejaVuSans-65"/>
     </g>
    </g>
   </g>
   <g id="matplotlib.axis_4">
    <g id="ytick_7">
     <g id="line2d_27">
      <g>
       <use style="stroke:#000000;stroke-width:0.8;" x="548.769318" xlink:href="#m7fc819b2b2" y="454.22"/>
      </g>
     </g>
     <g id="text_30">
      <!-- 0.70 -->
      <defs>
       <path d="M 10.6875 12.40625 
L 21 12.40625 
L 21 0 
L 10.6875 0 
z
" id="DejaVuSans-2e"/>
       <path d="M 8.203125 72.90625 
L 55.078125 72.90625 
L 55.078125 68.703125 
L 28.609375 0 
L 18.3125 0 
L 43.21875 64.59375 
L 8.203125 64.59375 
z
" id="DejaVuSans-37"/>
      </defs>
      <g transform="translate(506.144318 460.29875)scale(0.16 -0.16)">
       <use xlink:href="#DejaVuSans-30"/>
       <use x="63.623047" xlink:href="#DejaVuSans-2e"/>
       <use x="95.410156" xlink:href="#DejaVuSans-37"/>
       <use x="159.033203" xlink:href="#DejaVuSans-30"/>
      </g>
     </g>
    </g>
    <g id="ytick_8">
     <g id="line2d_28">
      <g>
       <use style="stroke:#000000;stroke-width:0.8;" x="548.769318" xlink:href="#m7fc819b2b2" y="389.369496"/>
      </g>
     </g>
     <g id="text_31">
      <!-- 0.75 -->
      <g transform="translate(506.144318 395.448246)scale(0.16 -0.16)">
       <use xlink:href="#DejaVuSans-30"/>
       <use x="63.623047" xlink:href="#DejaVuSans-2e"/>
       <use x="95.410156" xlink:href="#DejaVuSans-37"/>
       <use x="159.033203" xlink:href="#DejaVuSans-35"/>
      </g>
     </g>
    </g>
    <g id="ytick_9">
     <g id="line2d_29">
      <g>
       <use style="stroke:#000000;stroke-width:0.8;" x="548.769318" xlink:href="#m7fc819b2b2" y="324.518992"/>
      </g>
     </g>
     <g id="text_32">
      <!-- 0.80 -->
      <g transform="translate(506.144318 330.597742)scale(0.16 -0.16)">
       <use xlink:href="#DejaVuSans-30"/>
       <use x="63.623047" xlink:href="#DejaVuSans-2e"/>
       <use x="95.410156" xlink:href="#DejaVuSans-38"/>
       <use x="159.033203" xlink:href="#DejaVuSans-30"/>
      </g>
     </g>
    </g>
    <g id="ytick_10">
     <g id="line2d_30">
      <g>
       <use style="stroke:#000000;stroke-width:0.8;" x="548.769318" xlink:href="#m7fc819b2b2" y="259.668488"/>
      </g>
     </g>
     <g id="text_33">
      <!-- 0.85 -->
      <g transform="translate(506.144318 265.747238)scale(0.16 -0.16)">
       <use xlink:href="#DejaVuSans-30"/>
       <use x="63.623047" xlink:href="#DejaVuSans-2e"/>
       <use x="95.410156" xlink:href="#DejaVuSans-38"/>
       <use x="159.033203" xlink:href="#DejaVuSans-35"/>
      </g>
     </g>
    </g>
    <g id="ytick_11">
     <g id="line2d_31">
      <g>
       <use style="stroke:#000000;stroke-width:0.8;" x="548.769318" xlink:href="#m7fc819b2b2" y="194.817984"/>
      </g>
     </g>
     <g id="text_34">
      <!-- 0.90 -->
      <defs>
       <path d="M 10.984375 1.515625 
L 10.984375 10.5 
Q 14.703125 8.734375 18.5 7.8125 
Q 22.3125 6.890625 25.984375 6.890625 
Q 35.75 6.890625 40.890625 13.453125 
Q 46.046875 20.015625 46.78125 33.40625 
Q 43.953125 29.203125 39.59375 26.953125 
Q 35.25 24.703125 29.984375 24.703125 
Q 19.046875 24.703125 12.671875 31.3125 
Q 6.296875 37.9375 6.296875 49.421875 
Q 6.296875 60.640625 12.9375 67.421875 
Q 19.578125 74.21875 30.609375 74.21875 
Q 43.265625 74.21875 49.921875 64.515625 
Q 56.59375 54.828125 56.59375 36.375 
Q 56.59375 19.140625 48.40625 8.859375 
Q 40.234375 -1.421875 26.421875 -1.421875 
Q 22.703125 -1.421875 18.890625 -0.6875 
Q 15.09375 0.046875 10.984375 1.515625 
z
M 30.609375 32.421875 
Q 37.25 32.421875 41.125 36.953125 
Q 45.015625 41.5 45.015625 49.421875 
Q 45.015625 57.28125 41.125 61.84375 
Q 37.25 66.40625 30.609375 66.40625 
Q 23.96875 66.40625 20.09375 61.84375 
Q 16.21875 57.28125 16.21875 49.421875 
Q 16.21875 41.5 20.09375 36.953125 
Q 23.96875 32.421875 30.609375 32.421875 
z
" id="DejaVuSans-39"/>
      </defs>
      <g transform="translate(506.144318 200.896734)scale(0.16 -0.16)">
       <use xlink:href="#DejaVuSans-30"/>
       <use x="63.623047" xlink:href="#DejaVuSans-2e"/>
       <use x="95.410156" xlink:href="#DejaVuSans-39"/>
       <use x="159.033203" xlink:href="#DejaVuSans-30"/>
      </g>
     </g>
    </g>
    <g id="ytick_12">
     <g id="line2d_32">
      <g>
       <use style="stroke:#000000;stroke-width:0.8;" x="548.769318" xlink:href="#m7fc819b2b2" y="129.96748"/>
      </g>
     </g>
     <g id="text_35">
      <!-- 0.95 -->
      <g transform="translate(506.144318 136.04623)scale(0.16 -0.16)">
       <use xlink:href="#DejaVuSans-30"/>
       <use x="63.623047" xlink:href="#DejaVuSans-2e"/>
       <use x="95.410156" xlink:href="#DejaVuSans-39"/>
       <use x="159.033203" xlink:href="#DejaVuSans-35"/>
      </g>
     </g>
    </g>
    <g id="ytick_13">
     <g id="line2d_33">
      <g>
       <use style="stroke:#000000;stroke-width:0.8;" x="548.769318" xlink:href="#m7fc819b2b2" y="65.116976"/>
      </g>
     </g>
     <g id="text_36">
      <!-- 1.00 -->
      <g transform="translate(506.144318 71.195726)scale(0.16 -0.16)">
       <use xlink:href="#DejaVuSans-31"/>
       <use x="63.623047" xlink:href="#DejaVuSans-2e"/>
       <use x="95.410156" xlink:href="#DejaVuSans-30"/>
       <use x="159.033203" xlink:href="#DejaVuSans-30"/>
      </g>
     </g>
    </g>
    <g id="text_37">
     <!-- SSIM -->
     <defs>
      <path d="M 9.8125 72.90625 
L 19.671875 72.90625 
L 19.671875 0 
L 9.8125 0 
z
" id="DejaVuSans-49"/>
      <path d="M 9.8125 72.90625 
L 24.515625 72.90625 
L 43.109375 23.296875 
L 61.8125 72.90625 
L 76.515625 72.90625 
L 76.515625 0 
L 66.890625 0 
L 66.890625 64.015625 
L 48.09375 14.015625 
L 38.1875 14.015625 
L 19.390625 64.015625 
L 19.390625 0 
L 9.8125 0 
z
" id="DejaVuSans-4d"/>
     </defs>
     <g transform="translate(497.153068 261.59)rotate(-90)scale(0.24 -0.24)">
      <use xlink:href="#DejaVuSans-53"/>
      <use x="63.476562" xlink:href="#DejaVuSans-53"/>
      <use x="126.953125" xlink:href="#DejaVuSans-49"/>
      <use x="156.445312" xlink:href="#DejaVuSans-4d"/>
     </g>
    </g>
   </g>
   <g id="line2d_34">
    <path clip-path="url(#p1e18514449)" d="M 548.769318 77.942171 
L 553.40724 79.65979 
L 555.726201 81.011638 
L 558.045162 82.119022 
L 560.364123 84.035447 
L 562.683084 86.312114 
L 565.002045 88.094099 
L 567.321006 89.021046 
L 569.639968 89.200027 
L 571.958929 90.517613 
L 574.27789 92.678888 
L 576.596851 95.042664 
L 578.915812 97.598499 
L 581.234773 101.662437 
L 583.553734 105.299747 
L 588.191656 117.33239 
L 590.510617 122.909509 
L 592.829578 129.130815 
L 595.148539 136.401303 
L 597.4675 140.995936 
L 599.786461 142.758307 
L 602.105422 143.126927 
L 604.424383 153.340415 
L 606.743344 158.318957 
L 609.062305 159.469992 
L 611.381266 162.834587 
L 613.700227 167.079659 
L 616.019188 168.645797 
L 618.338149 169.545159 
L 620.65711 175.826775 
L 622.976071 178.201935 
L 625.295032 189.466311 
L 629.932955 197.773188 
L 632.251916 208.325973 
L 634.570877 211.656855 
L 636.889838 213.194584 
L 639.208799 216.887337 
L 641.52776 222.859329 
L 643.846721 232.897433 
L 646.165682 236.761493 
L 648.484643 233.060491 
L 650.803604 237.969928 
L 653.122565 243.736016 
L 655.441526 248.125611 
L 657.760487 254.025552 
L 660.079448 258.274465 
L 662.398409 256.939105 
L 664.71737 262.177713 
L 667.036331 260.871008 
L 669.355292 259.807685 
L 671.674253 258.596817 
L 673.993214 257.535701 
L 676.312175 262.948788 
L 678.631136 269.768164 
L 680.950097 263.617125 
L 683.269058 268.042644 
L 685.588019 274.124925 
L 687.906981 271.001715 
L 690.225942 273.183849 
L 692.544903 282.277555 
L 694.863864 285.628523 
L 697.182825 287.497539 
L 699.501786 287.0835 
L 701.820747 289.207216 
L 704.139708 294.073414 
L 706.458669 296.893527 
L 708.77763 301.610389 
L 711.096591 302.11002 
L 713.415552 291.376032 
L 715.734513 292.034297 
L 718.053474 292.065144 
L 720.372435 289.129466 
L 722.691396 291.215911 
L 725.010357 293.983084 
L 727.329318 299.864853 
L 729.648279 290.456653 
L 731.96724 296.502809 
L 734.286201 304.203443 
L 736.605162 304.531367 
L 738.924123 309.193202 
L 741.243084 315.639762 
L 743.562045 308.802445 
L 745.881006 306.040464 
L 748.199968 304.196939 
L 750.518929 304.528867 
L 752.83789 307.598212 
L 755.156851 298.163895 
L 757.475812 303.724994 
L 759.794773 312.146458 
L 762.113734 313.738892 
L 764.432695 318.438516 
L 766.751656 323.400875 
L 769.070617 324.065161 
L 771.389578 319.623154 
L 773.708539 318.214868 
L 776.0275 313.703473 
L 778.346461 311.046663 
L 780.665422 311.028778 
L 782.984383 302.96191 
L 785.303344 297.439511 
L 787.622305 296.834417 
L 792.260227 308.859714 
L 794.579188 307.4596 
L 796.898149 306.857225 
L 799.21711 301.23946 
L 801.536071 304.242019 
L 803.855032 306.222373 
L 808.492955 295.739457 
L 810.811916 286.105667 
L 813.130877 278.981997 
L 815.449838 276.481496 
L 817.768799 268.108202 
L 820.08776 270.238343 
L 822.406721 267.461909 
L 824.725682 273.620581 
L 827.044643 272.727992 
L 829.363604 267.090905 
L 831.682565 266.405215 
L 834.001526 267.750489 
L 836.320487 268.771983 
L 838.639448 263.313859 
L 840.958409 261.563995 
L 843.27737 256.097569 
L 845.596331 255.302176 
L 847.915292 258.899426 
L 850.234253 253.366035 
L 852.553214 250.452644 
L 854.872175 249.397772 
L 859.510097 238.022047 
L 861.829058 233.634686 
L 864.148019 224.03087 
L 866.466981 220.819349 
L 868.785942 219.591162 
L 871.104903 218.86036 
L 873.423864 209.258611 
L 875.742825 206.217722 
L 878.061786 199.87134 
L 885.018669 182.748708 
L 887.33763 179.376811 
L 889.656591 177.382796 
L 891.975552 171.12923 
L 894.294513 166.444892 
L 896.613474 163.430491 
L 898.932435 158.798856 
L 901.251396 152.379886 
L 903.570357 150.697859 
L 905.889318 144.592455 
L 908.208279 138.103577 
L 910.52724 134.100453 
L 912.846201 126.596228 
L 915.165162 125.364846 
L 917.484123 120.497682 
L 919.803084 123.11009 
L 922.122045 118.260453 
L 924.441006 106.940678 
L 926.759968 103.954678 
L 931.39789 94.788304 
L 933.716851 93.132209 
L 936.035812 92.427137 
L 938.354773 91.051367 
L 940.673734 89.261743 
L 942.992695 88.132807 
L 945.311656 86.628045 
L 947.630617 85.836511 
L 949.949578 84.083646 
L 952.268539 82.965567 
L 954.5875 82.536336 
L 954.5875 82.536336 
" style="fill:none;stroke:#add8e6;stroke-linecap:square;stroke-width:1.5;"/>
   </g>
   <g id="line2d_35">
    <path clip-path="url(#p1e18514449)" d="M 548.769318 75.053669 
L 551.088279 75.390431 
L 553.40724 76.189473 
L 555.726201 77.606426 
L 558.045162 80.202911 
L 560.364123 81.48891 
L 562.683084 84.278192 
L 565.002045 87.454035 
L 567.321006 89.906067 
L 569.639968 91.165831 
L 571.958929 92.97782 
L 574.27789 95.388489 
L 576.596851 97.094885 
L 578.915812 97.830007 
L 581.234773 103.711517 
L 583.553734 107.086699 
L 585.872695 114.905348 
L 588.191656 121.114658 
L 590.510617 125.946068 
L 592.829578 131.308369 
L 595.148539 142.037669 
L 597.4675 151.641765 
L 599.786461 160.356677 
L 602.105422 163.50836 
L 604.424383 172.965989 
L 606.743344 180.089256 
L 609.062305 183.811754 
L 611.381266 190.488731 
L 616.019188 202.893103 
L 618.338149 207.488224 
L 620.65711 215.396141 
L 622.976071 224.229979 
L 625.295032 231.651822 
L 627.613994 237.94748 
L 629.932955 246.641531 
L 632.251916 257.45213 
L 634.570877 262.065493 
L 636.889838 267.459526 
L 639.208799 275.135194 
L 641.52776 286.705417 
L 643.846721 291.717302 
L 646.165682 297.915883 
L 648.484643 298.966232 
L 650.803604 302.611076 
L 653.122565 307.865643 
L 655.441526 308.891499 
L 657.760487 315.724929 
L 660.079448 321.544882 
L 662.398409 324.119952 
L 664.71737 325.864312 
L 667.036331 326.733924 
L 669.355292 325.422162 
L 671.674253 326.043629 
L 673.993214 329.157623 
L 678.631136 341.659472 
L 680.950097 343.009517 
L 683.269058 349.567324 
L 685.588019 353.694819 
L 687.906981 352.551584 
L 690.225942 350.856669 
L 692.544903 353.555731 
L 694.863864 360.216984 
L 697.182825 365.282543 
L 699.501786 361.906844 
L 704.139708 365.014137 
L 708.77763 371.798469 
L 711.096591 369.35588 
L 713.415552 362.547034 
L 715.734513 359.246046 
L 718.053474 360.563339 
L 720.372435 360.652982 
L 722.691396 368.086454 
L 725.010357 371.433165 
L 727.329318 378.416194 
L 729.648279 373.541515 
L 731.96724 377.25964 
L 734.286201 383.390622 
L 736.605162 391.823888 
L 738.924123 399.577237 
L 741.243084 408.759915 
L 743.562045 403.7319 
L 745.881006 400.07618 
L 748.199968 398.161316 
L 750.518929 400.233146 
L 752.83789 395.121624 
L 755.156851 388.510402 
L 757.475812 396.629963 
L 759.794773 406.125883 
L 762.113734 408.669034 
L 764.432695 409.608614 
L 766.751656 408.586181 
L 769.070617 405.82055 
L 771.389578 401.077612 
L 773.708539 397.499965 
L 776.0275 391.289386 
L 778.346461 385.853262 
L 780.665422 389.270474 
L 782.984383 385.62685 
L 785.303344 381.244025 
L 787.622305 376.274827 
L 789.941266 382.08865 
L 792.260227 384.203121 
L 794.579188 382.147891 
L 796.898149 381.892649 
L 799.21711 377.24393 
L 801.536071 376.061448 
L 803.855032 377.505829 
L 806.173994 376.376479 
L 808.492955 371.969914 
L 810.811916 368.001013 
L 813.130877 364.917856 
L 815.449838 356.643819 
L 817.768799 350.687954 
L 820.08776 348.603767 
L 822.406721 347.012729 
L 824.725682 344.361694 
L 827.044643 338.015069 
L 829.363604 335.419334 
L 831.682565 331.147818 
L 834.001526 335.470395 
L 836.320487 335.967979 
L 838.639448 334.05236 
L 840.958409 329.887073 
L 843.27737 321.509052 
L 845.596331 318.516922 
L 847.915292 321.883208 
L 850.234253 318.352687 
L 852.553214 313.458896 
L 854.872175 309.934154 
L 857.191136 304.140506 
L 859.510097 302.661682 
L 861.829058 296.109403 
L 864.148019 286.946683 
L 866.466981 277.160623 
L 868.785942 275.793352 
L 871.104903 271.781122 
L 873.423864 260.273755 
L 875.742825 254.393012 
L 878.061786 240.817698 
L 880.380747 236.614005 
L 882.699708 229.997944 
L 885.018669 221.334748 
L 887.33763 214.560516 
L 889.656591 209.545043 
L 891.975552 202.068181 
L 894.294513 197.037192 
L 896.613474 193.332254 
L 898.932435 181.589625 
L 901.251396 174.784041 
L 903.570357 165.376522 
L 905.889318 157.73066 
L 908.208279 150.560938 
L 910.52724 141.843686 
L 912.846201 130.879203 
L 915.165162 128.882989 
L 917.484123 125.779552 
L 919.803084 124.867298 
L 922.122045 119.363992 
L 924.441006 106.470756 
L 926.759968 101.948956 
L 931.39789 95.487275 
L 933.716851 94.223937 
L 936.035812 91.828509 
L 938.354773 89.077501 
L 940.673734 86.514068 
L 942.992695 84.876778 
L 945.311656 81.787896 
L 947.630617 80.299546 
L 949.949578 78.643077 
L 952.268539 78.021856 
L 954.5875 77.813566 
L 954.5875 77.813566 
" style="fill:none;stroke:#90ee90;stroke-linecap:square;stroke-width:1.5;"/>
   </g>
   <g id="patch_11">
    <path d="M 548.769318 454.22 
L 548.769318 10.7 
" style="fill:none;stroke:#000000;stroke-linecap:square;stroke-linejoin:miter;stroke-width:0.8;"/>
   </g>
   <g id="patch_12">
    <path d="M 954.5875 454.22 
L 954.5875 10.7 
" style="fill:none;stroke:#000000;stroke-linecap:square;stroke-linejoin:miter;stroke-width:0.8;"/>
   </g>
   <g id="patch_13">
    <path d="M 548.769318 454.22 
L 954.5875 454.22 
" style="fill:none;stroke:#000000;stroke-linecap:square;stroke-linejoin:miter;stroke-width:0.8;"/>
   </g>
   <g id="patch_14">
    <path d="M 548.769318 10.7 
L 954.5875 10.7 
" style="fill:none;stroke:#000000;stroke-linecap:square;stroke-linejoin:miter;stroke-width:0.8;"/>
   </g>
   <g id="legend_2">
    <g id="patch_15">
     <path d="M 669.958409 100.355 
L 833.398409 100.355 
Q 838.198409 100.355 838.198409 95.555 
L 838.198409 27.5 
Q 838.198409 22.7 833.398409 22.7 
L 669.958409 22.7 
Q 665.158409 22.7 665.158409 27.5 
L 665.158409 95.555 
Q 665.158409 100.355 669.958409 100.355 
z
" style="fill:#ffffff;opacity:0.8;stroke:#cccccc;stroke-linejoin:miter;"/>
    </g>
    <g id="patch_16">
     <path d="M 674.758409 50.53625 
L 722.758409 50.53625 
L 722.758409 33.73625 
L 674.758409 33.73625 
z
" style="fill:#add8e6;opacity:0.5;stroke:#add8e6;stroke-linejoin:miter;"/>
    </g>
    <g id="text_38">
     <!-- EDSR -->
     <g transform="translate(741.958409 50.53625)scale(0.24 -0.24)">
      <use xlink:href="#DejaVuSans-45"/>
      <use x="63.183594" xlink:href="#DejaVuSans-44"/>
      <use x="140.185547" xlink:href="#DejaVuSans-53"/>
      <use x="203.662109" xlink:href="#DejaVuSans-52"/>
     </g>
    </g>
    <g id="patch_17">
     <path d="M 674.758409 85.76375 
L 722.758409 85.76375 
L 722.758409 68.96375 
L 674.758409 68.96375 
z
" style="fill:#90ee90;opacity:0.5;stroke:#90ee90;stroke-linejoin:miter;"/>
    </g>
    <g id="text_39">
     <!-- Bicubic -->
     <g transform="translate(741.958409 85.76375)scale(0.24 -0.24)">
      <use xlink:href="#DejaVuSans-42"/>
      <use x="68.603516" xlink:href="#DejaVuSans-69"/>
      <use x="96.386719" xlink:href="#DejaVuSans-63"/>
      <use x="151.367188" xlink:href="#DejaVuSans-75"/>
      <use x="214.746094" xlink:href="#DejaVuSans-62"/>
      <use x="278.222656" xlink:href="#DejaVuSans-69"/>
      <use x="306.005859" xlink:href="#DejaVuSans-63"/>
     </g>
    </g>
   </g>
  </g>
 </g>
 <defs>
  <clipPath id="p2ee73281a5">
   <rect height="443.52" width="405.818182" x="61.7875" y="10.7"/>
  </clipPath>
  <clipPath id="p1e18514449">
   <rect height="443.52" width="405.818182" x="548.769318" y="10.7"/>
  </clipPath>
 </defs>
</svg>
