<?xml version="1.0" encoding="utf-8" standalone="no"?>
<!DOCTYPE svg PUBLIC "-//W3C//DTD SVG 1.1//EN"
  "http://www.w3.org/Graphics/SVG/1.1/DTD/svg11.dtd">
<!-- Created with matplotlib (http://matplotlib.org/) -->
<svg height="455.6925pt" version="1.1" viewBox="0 0 980.5525 455.6925" width="980.5525pt" xmlns="http://www.w3.org/2000/svg" xmlns:xlink="http://www.w3.org/1999/xlink">
 <defs>
  <style type="text/css">
*{stroke-linecap:butt;stroke-linejoin:round;}
  </style>
 </defs>
 <g id="figure_1">
  <g id="patch_1">
   <path d="M 0 455.6925 
L 980.5525 455.6925 
L 980.5525 0 
L 0 0 
z
" style="fill:#ffffff;"/>
  </g>
  <g id="axes_1">
   <g id="patch_2">
    <path d="M 77.0525 398.78 
L 449.0525 398.78 
L 449.0525 10.7 
L 77.0525 10.7 
z
" style="fill:#ffffff;"/>
   </g>
   <g id="matplotlib.axis_1">
    <g id="xtick_1">
     <g id="line2d_1">
      <defs>
       <path d="M 0 0 
L 0 3.5 
" id="m8393adb89a" style="stroke:#000000;stroke-width:0.8;"/>
      </defs>
      <g>
       <use style="stroke:#000000;stroke-width:0.8;" x="93.961591" xlink:href="#m8393adb89a" y="398.78"/>
      </g>
     </g>
     <g id="text_1">
      <!-- 0 -->
      <defs>
       <path d="M 31.78125 66.40625 
Q 24.171875 66.40625 20.328125 58.90625 
Q 16.5 51.421875 16.5 36.375 
Q 16.5 21.390625 20.328125 13.890625 
Q 24.171875 6.390625 31.78125 6.390625 
Q 39.453125 6.390625 43.28125 13.890625 
Q 47.125 21.390625 47.125 36.375 
Q 47.125 51.421875 43.28125 58.90625 
Q 39.453125 66.40625 31.78125 66.40625 
z
M 31.78125 74.21875 
Q 44.046875 74.21875 50.515625 64.515625 
Q 56.984375 54.828125 56.984375 36.375 
Q 56.984375 17.96875 50.515625 8.265625 
Q 44.046875 -1.421875 31.78125 -1.421875 
Q 19.53125 -1.421875 13.0625 8.265625 
Q 6.59375 17.96875 6.59375 36.375 
Q 6.59375 54.828125 13.0625 64.515625 
Q 19.53125 74.21875 31.78125 74.21875 
z
" id="DejaVuSans-30"/>
      </defs>
      <g transform="translate(88.871591 417.9375)scale(0.16 -0.16)">
       <use xlink:href="#DejaVuSans-30"/>
      </g>
     </g>
    </g>
    <g id="xtick_2">
     <g id="line2d_2">
      <g>
       <use style="stroke:#000000;stroke-width:0.8;" x="186.614144" xlink:href="#m8393adb89a" y="398.78"/>
      </g>
     </g>
     <g id="text_2">
      <!-- 20 -->
      <defs>
       <path d="M 19.1875 8.296875 
L 53.609375 8.296875 
L 53.609375 0 
L 7.328125 0 
L 7.328125 8.296875 
Q 12.9375 14.109375 22.625 23.890625 
Q 32.328125 33.6875 34.8125 36.53125 
Q 39.546875 41.84375 41.421875 45.53125 
Q 43.3125 49.21875 43.3125 52.78125 
Q 43.3125 58.59375 39.234375 62.25 
Q 35.15625 65.921875 28.609375 65.921875 
Q 23.96875 65.921875 18.8125 64.3125 
Q 13.671875 62.703125 7.8125 59.421875 
L 7.8125 69.390625 
Q 13.765625 71.78125 18.9375 73 
Q 24.125 74.21875 28.421875 74.21875 
Q 39.75 74.21875 46.484375 68.546875 
Q 53.21875 62.890625 53.21875 53.421875 
Q 53.21875 48.921875 51.53125 44.890625 
Q 49.859375 40.875 45.40625 35.40625 
Q 44.1875 33.984375 37.640625 27.21875 
Q 31.109375 20.453125 19.1875 8.296875 
z
" id="DejaVuSans-32"/>
      </defs>
      <g transform="translate(176.434144 417.9375)scale(0.16 -0.16)">
       <use xlink:href="#DejaVuSans-32"/>
       <use x="63.623047" xlink:href="#DejaVuSans-30"/>
      </g>
     </g>
    </g>
    <g id="xtick_3">
     <g id="line2d_3">
      <g>
       <use style="stroke:#000000;stroke-width:0.8;" x="279.266697" xlink:href="#m8393adb89a" y="398.78"/>
      </g>
     </g>
     <g id="text_3">
      <!-- 40 -->
      <defs>
       <path d="M 37.796875 64.3125 
L 12.890625 25.390625 
L 37.796875 25.390625 
z
M 35.203125 72.90625 
L 47.609375 72.90625 
L 47.609375 25.390625 
L 58.015625 25.390625 
L 58.015625 17.1875 
L 47.609375 17.1875 
L 47.609375 0 
L 37.796875 0 
L 37.796875 17.1875 
L 4.890625 17.1875 
L 4.890625 26.703125 
z
" id="DejaVuSans-34"/>
      </defs>
      <g transform="translate(269.086697 417.9375)scale(0.16 -0.16)">
       <use xlink:href="#DejaVuSans-34"/>
       <use x="63.623047" xlink:href="#DejaVuSans-30"/>
      </g>
     </g>
    </g>
    <g id="xtick_4">
     <g id="line2d_4">
      <g>
       <use style="stroke:#000000;stroke-width:0.8;" x="371.91925" xlink:href="#m8393adb89a" y="398.78"/>
      </g>
     </g>
     <g id="text_4">
      <!-- 60 -->
      <defs>
       <path d="M 33.015625 40.375 
Q 26.375 40.375 22.484375 35.828125 
Q 18.609375 31.296875 18.609375 23.390625 
Q 18.609375 15.53125 22.484375 10.953125 
Q 26.375 6.390625 33.015625 6.390625 
Q 39.65625 6.390625 43.53125 10.953125 
Q 47.40625 15.53125 47.40625 23.390625 
Q 47.40625 31.296875 43.53125 35.828125 
Q 39.65625 40.375 33.015625 40.375 
z
M 52.59375 71.296875 
L 52.59375 62.3125 
Q 48.875 64.0625 45.09375 64.984375 
Q 41.3125 65.921875 37.59375 65.921875 
Q 27.828125 65.921875 22.671875 59.328125 
Q 17.53125 52.734375 16.796875 39.40625 
Q 19.671875 43.65625 24.015625 45.921875 
Q 28.375 48.1875 33.59375 48.1875 
Q 44.578125 48.1875 50.953125 41.515625 
Q 57.328125 34.859375 57.328125 23.390625 
Q 57.328125 12.15625 50.6875 5.359375 
Q 44.046875 -1.421875 33.015625 -1.421875 
Q 20.359375 -1.421875 13.671875 8.265625 
Q 6.984375 17.96875 6.984375 36.375 
Q 6.984375 53.65625 15.1875 63.9375 
Q 23.390625 74.21875 37.203125 74.21875 
Q 40.921875 74.21875 44.703125 73.484375 
Q 48.484375 72.75 52.59375 71.296875 
z
" id="DejaVuSans-36"/>
      </defs>
      <g transform="translate(361.73925 417.9375)scale(0.16 -0.16)">
       <use xlink:href="#DejaVuSans-36"/>
       <use x="63.623047" xlink:href="#DejaVuSans-30"/>
      </g>
     </g>
    </g>
    <g id="text_5">
     <!-- Steps -->
     <defs>
      <path d="M 53.515625 70.515625 
L 53.515625 60.890625 
Q 47.90625 63.578125 42.921875 64.890625 
Q 37.9375 66.21875 33.296875 66.21875 
Q 25.25 66.21875 20.875 63.09375 
Q 16.5 59.96875 16.5 54.203125 
Q 16.5 49.359375 19.40625 46.890625 
Q 22.3125 44.4375 30.421875 42.921875 
L 36.375 41.703125 
Q 47.40625 39.59375 52.65625 34.296875 
Q 57.90625 29 57.90625 20.125 
Q 57.90625 9.515625 50.796875 4.046875 
Q 43.703125 -1.421875 29.984375 -1.421875 
Q 24.8125 -1.421875 18.96875 -0.25 
Q 13.140625 0.921875 6.890625 3.21875 
L 6.890625 13.375 
Q 12.890625 10.015625 18.65625 8.296875 
Q 24.421875 6.59375 29.984375 6.59375 
Q 38.421875 6.59375 43.015625 9.90625 
Q 47.609375 13.234375 47.609375 19.390625 
Q 47.609375 24.75 44.3125 27.78125 
Q 41.015625 30.8125 33.5 32.328125 
L 27.484375 33.5 
Q 16.453125 35.6875 11.515625 40.375 
Q 6.59375 45.0625 6.59375 53.421875 
Q 6.59375 63.09375 13.40625 68.65625 
Q 20.21875 74.21875 32.171875 74.21875 
Q 37.3125 74.21875 42.625 73.28125 
Q 47.953125 72.359375 53.515625 70.515625 
z
" id="DejaVuSans-53"/>
      <path d="M 18.3125 70.21875 
L 18.3125 54.6875 
L 36.8125 54.6875 
L 36.8125 47.703125 
L 18.3125 47.703125 
L 18.3125 18.015625 
Q 18.3125 11.328125 20.140625 9.421875 
Q 21.96875 7.515625 27.59375 7.515625 
L 36.8125 7.515625 
L 36.8125 0 
L 27.59375 0 
Q 17.1875 0 13.234375 3.875 
Q 9.28125 7.765625 9.28125 18.015625 
L 9.28125 47.703125 
L 2.6875 47.703125 
L 2.6875 54.6875 
L 9.28125 54.6875 
L 9.28125 70.21875 
z
" id="DejaVuSans-74"/>
      <path d="M 56.203125 29.59375 
L 56.203125 25.203125 
L 14.890625 25.203125 
Q 15.484375 15.921875 20.484375 11.0625 
Q 25.484375 6.203125 34.421875 6.203125 
Q 39.59375 6.203125 44.453125 7.46875 
Q 49.3125 8.734375 54.109375 11.28125 
L 54.109375 2.78125 
Q 49.265625 0.734375 44.1875 -0.34375 
Q 39.109375 -1.421875 33.890625 -1.421875 
Q 20.796875 -1.421875 13.15625 6.1875 
Q 5.515625 13.8125 5.515625 26.8125 
Q 5.515625 40.234375 12.765625 48.109375 
Q 20.015625 56 32.328125 56 
Q 43.359375 56 49.78125 48.890625 
Q 56.203125 41.796875 56.203125 29.59375 
z
M 47.21875 32.234375 
Q 47.125 39.59375 43.09375 43.984375 
Q 39.0625 48.390625 32.421875 48.390625 
Q 24.90625 48.390625 20.390625 44.140625 
Q 15.875 39.890625 15.1875 32.171875 
z
" id="DejaVuSans-65"/>
      <path d="M 18.109375 8.203125 
L 18.109375 -20.796875 
L 9.078125 -20.796875 
L 9.078125 54.6875 
L 18.109375 54.6875 
L 18.109375 46.390625 
Q 20.953125 51.265625 25.265625 53.625 
Q 29.59375 56 35.59375 56 
Q 45.5625 56 51.78125 48.09375 
Q 58.015625 40.1875 58.015625 27.296875 
Q 58.015625 14.40625 51.78125 6.484375 
Q 45.5625 -1.421875 35.59375 -1.421875 
Q 29.59375 -1.421875 25.265625 0.953125 
Q 20.953125 3.328125 18.109375 8.203125 
z
M 48.6875 27.296875 
Q 48.6875 37.203125 44.609375 42.84375 
Q 40.53125 48.484375 33.40625 48.484375 
Q 26.265625 48.484375 22.1875 42.84375 
Q 18.109375 37.203125 18.109375 27.296875 
Q 18.109375 17.390625 22.1875 11.75 
Q 26.265625 6.109375 33.40625 6.109375 
Q 40.53125 6.109375 44.609375 11.75 
Q 48.6875 17.390625 48.6875 27.296875 
z
" id="DejaVuSans-70"/>
      <path d="M 44.28125 53.078125 
L 44.28125 44.578125 
Q 40.484375 46.53125 36.375 47.5 
Q 32.28125 48.484375 27.875 48.484375 
Q 21.1875 48.484375 17.84375 46.4375 
Q 14.5 44.390625 14.5 40.28125 
Q 14.5 37.15625 16.890625 35.375 
Q 19.28125 33.59375 26.515625 31.984375 
L 29.59375 31.296875 
Q 39.15625 29.25 43.1875 25.515625 
Q 47.21875 21.78125 47.21875 15.09375 
Q 47.21875 7.46875 41.1875 3.015625 
Q 35.15625 -1.421875 24.609375 -1.421875 
Q 20.21875 -1.421875 15.453125 -0.5625 
Q 10.6875 0.296875 5.421875 2 
L 5.421875 11.28125 
Q 10.40625 8.6875 15.234375 7.390625 
Q 20.0625 6.109375 24.8125 6.109375 
Q 31.15625 6.109375 34.5625 8.28125 
Q 37.984375 10.453125 37.984375 14.40625 
Q 37.984375 18.0625 35.515625 20.015625 
Q 33.0625 21.96875 24.703125 23.78125 
L 21.578125 24.515625 
Q 13.234375 26.265625 9.515625 29.90625 
Q 5.8125 33.546875 5.8125 39.890625 
Q 5.8125 47.609375 11.28125 51.796875 
Q 16.75 56 26.8125 56 
Q 31.78125 56 36.171875 55.265625 
Q 40.578125 54.546875 44.28125 53.078125 
z
" id="DejaVuSans-73"/>
     </defs>
     <g transform="translate(229.476875 443.50125)scale(0.24 -0.24)">
      <use xlink:href="#DejaVuSans-53"/>
      <use x="63.476562" xlink:href="#DejaVuSans-74"/>
      <use x="102.685547" xlink:href="#DejaVuSans-65"/>
      <use x="164.208984" xlink:href="#DejaVuSans-70"/>
      <use x="227.685547" xlink:href="#DejaVuSans-73"/>
     </g>
    </g>
   </g>
   <g id="matplotlib.axis_2">
    <g id="ytick_1">
     <g id="line2d_5">
      <defs>
       <path d="M 0 0 
L -3.5 0 
" id="m2b6f0b399e" style="stroke:#000000;stroke-width:0.8;"/>
      </defs>
      <g>
       <use style="stroke:#000000;stroke-width:0.8;" x="77.0525" xlink:href="#m2b6f0b399e" y="383.572926"/>
      </g>
     </g>
     <g id="text_6">
      <!-- 0.00 -->
      <defs>
       <path d="M 10.6875 12.40625 
L 21 12.40625 
L 21 0 
L 10.6875 0 
z
" id="DejaVuSans-2e"/>
      </defs>
      <g transform="translate(34.4275 389.651676)scale(0.16 -0.16)">
       <use xlink:href="#DejaVuSans-30"/>
       <use x="63.623047" xlink:href="#DejaVuSans-2e"/>
       <use x="95.410156" xlink:href="#DejaVuSans-30"/>
       <use x="159.033203" xlink:href="#DejaVuSans-30"/>
      </g>
     </g>
    </g>
    <g id="ytick_2">
     <g id="line2d_6">
      <g>
       <use style="stroke:#000000;stroke-width:0.8;" x="77.0525" xlink:href="#m2b6f0b399e" y="319.245681"/>
      </g>
     </g>
     <g id="text_7">
      <!-- 0.05 -->
      <defs>
       <path d="M 10.796875 72.90625 
L 49.515625 72.90625 
L 49.515625 64.59375 
L 19.828125 64.59375 
L 19.828125 46.734375 
Q 21.96875 47.46875 24.109375 47.828125 
Q 26.265625 48.1875 28.421875 48.1875 
Q 40.625 48.1875 47.75 41.5 
Q 54.890625 34.8125 54.890625 23.390625 
Q 54.890625 11.625 47.5625 5.09375 
Q 40.234375 -1.421875 26.90625 -1.421875 
Q 22.3125 -1.421875 17.546875 -0.640625 
Q 12.796875 0.140625 7.71875 1.703125 
L 7.71875 11.625 
Q 12.109375 9.234375 16.796875 8.0625 
Q 21.484375 6.890625 26.703125 6.890625 
Q 35.15625 6.890625 40.078125 11.328125 
Q 45.015625 15.765625 45.015625 23.390625 
Q 45.015625 31 40.078125 35.4375 
Q 35.15625 39.890625 26.703125 39.890625 
Q 22.75 39.890625 18.8125 39.015625 
Q 14.890625 38.140625 10.796875 36.28125 
z
" id="DejaVuSans-35"/>
      </defs>
      <g transform="translate(34.4275 325.324431)scale(0.16 -0.16)">
       <use xlink:href="#DejaVuSans-30"/>
       <use x="63.623047" xlink:href="#DejaVuSans-2e"/>
       <use x="95.410156" xlink:href="#DejaVuSans-30"/>
       <use x="159.033203" xlink:href="#DejaVuSans-35"/>
      </g>
     </g>
    </g>
    <g id="ytick_3">
     <g id="line2d_7">
      <g>
       <use style="stroke:#000000;stroke-width:0.8;" x="77.0525" xlink:href="#m2b6f0b399e" y="254.918436"/>
      </g>
     </g>
     <g id="text_8">
      <!-- 0.10 -->
      <defs>
       <path d="M 12.40625 8.296875 
L 28.515625 8.296875 
L 28.515625 63.921875 
L 10.984375 60.40625 
L 10.984375 69.390625 
L 28.421875 72.90625 
L 38.28125 72.90625 
L 38.28125 8.296875 
L 54.390625 8.296875 
L 54.390625 0 
L 12.40625 0 
z
" id="DejaVuSans-31"/>
      </defs>
      <g transform="translate(34.4275 260.997186)scale(0.16 -0.16)">
       <use xlink:href="#DejaVuSans-30"/>
       <use x="63.623047" xlink:href="#DejaVuSans-2e"/>
       <use x="95.410156" xlink:href="#DejaVuSans-31"/>
       <use x="159.033203" xlink:href="#DejaVuSans-30"/>
      </g>
     </g>
    </g>
    <g id="ytick_4">
     <g id="line2d_8">
      <g>
       <use style="stroke:#000000;stroke-width:0.8;" x="77.0525" xlink:href="#m2b6f0b399e" y="190.591191"/>
      </g>
     </g>
     <g id="text_9">
      <!-- 0.15 -->
      <g transform="translate(34.4275 196.669941)scale(0.16 -0.16)">
       <use xlink:href="#DejaVuSans-30"/>
       <use x="63.623047" xlink:href="#DejaVuSans-2e"/>
       <use x="95.410156" xlink:href="#DejaVuSans-31"/>
       <use x="159.033203" xlink:href="#DejaVuSans-35"/>
      </g>
     </g>
    </g>
    <g id="ytick_5">
     <g id="line2d_9">
      <g>
       <use style="stroke:#000000;stroke-width:0.8;" x="77.0525" xlink:href="#m2b6f0b399e" y="126.263946"/>
      </g>
     </g>
     <g id="text_10">
      <!-- 0.20 -->
      <g transform="translate(34.4275 132.342696)scale(0.16 -0.16)">
       <use xlink:href="#DejaVuSans-30"/>
       <use x="63.623047" xlink:href="#DejaVuSans-2e"/>
       <use x="95.410156" xlink:href="#DejaVuSans-32"/>
       <use x="159.033203" xlink:href="#DejaVuSans-30"/>
      </g>
     </g>
    </g>
    <g id="ytick_6">
     <g id="line2d_10">
      <g>
       <use style="stroke:#000000;stroke-width:0.8;" x="77.0525" xlink:href="#m2b6f0b399e" y="61.936702"/>
      </g>
     </g>
     <g id="text_11">
      <!-- 0.25 -->
      <g transform="translate(34.4275 68.015452)scale(0.16 -0.16)">
       <use xlink:href="#DejaVuSans-30"/>
       <use x="63.623047" xlink:href="#DejaVuSans-2e"/>
       <use x="95.410156" xlink:href="#DejaVuSans-32"/>
       <use x="159.033203" xlink:href="#DejaVuSans-35"/>
      </g>
     </g>
    </g>
    <g id="text_12">
     <!-- Loss -->
     <defs>
      <path d="M 9.8125 72.90625 
L 19.671875 72.90625 
L 19.671875 8.296875 
L 55.171875 8.296875 
L 55.171875 0 
L 9.8125 0 
z
" id="DejaVuSans-4c"/>
      <path d="M 30.609375 48.390625 
Q 23.390625 48.390625 19.1875 42.75 
Q 14.984375 37.109375 14.984375 27.296875 
Q 14.984375 17.484375 19.15625 11.84375 
Q 23.34375 6.203125 30.609375 6.203125 
Q 37.796875 6.203125 41.984375 11.859375 
Q 46.1875 17.53125 46.1875 27.296875 
Q 46.1875 37.015625 41.984375 42.703125 
Q 37.796875 48.390625 30.609375 48.390625 
z
M 30.609375 56 
Q 42.328125 56 49.015625 48.375 
Q 55.71875 40.765625 55.71875 27.296875 
Q 55.71875 13.875 49.015625 6.21875 
Q 42.328125 -1.421875 30.609375 -1.421875 
Q 18.84375 -1.421875 12.171875 6.21875 
Q 5.515625 13.875 5.515625 27.296875 
Q 5.515625 40.765625 12.171875 48.375 
Q 18.84375 56 30.609375 56 
z
" id="DejaVuSans-6f"/>
     </defs>
     <g transform="translate(25.43625 231.269375)rotate(-90)scale(0.24 -0.24)">
      <use xlink:href="#DejaVuSans-4c"/>
      <use x="55.697266" xlink:href="#DejaVuSans-6f"/>
      <use x="116.878906" xlink:href="#DejaVuSans-73"/>
      <use x="168.978516" xlink:href="#DejaVuSans-73"/>
     </g>
    </g>
   </g>
   <g id="line2d_11">
    <path clip-path="url(#p7f05d38b11)" d="M 93.961591 28.34 
L 98.594219 274.619315 
L 103.226846 303.297525 
L 107.859474 318.044496 
L 112.492101 325.404028 
L 117.124729 329.914996 
L 121.757357 340.614266 
L 126.389984 344.951367 
L 131.022612 348.909312 
L 135.65524 356.493997 
L 140.287867 362.22746 
L 144.920495 361.184157 
L 149.553123 367.064938 
L 154.18575 371.545708 
L 158.818378 368.051218 
L 163.451006 372.416037 
L 168.083633 374.561472 
L 172.716261 375.358625 
L 177.348889 376.330236 
L 181.981516 376.754335 
L 186.614144 378.339157 
L 191.246771 378.703893 
L 195.879399 378.81584 
L 200.512027 379.007973 
L 205.144654 379.653826 
L 209.777282 379.486543 
L 214.40991 379.818309 
L 219.042537 379.66331 
L 223.675165 380.097549 
L 228.307793 380.24331 
L 232.94042 380.512019 
L 237.573048 379.432595 
L 242.205676 380.008396 
L 246.838303 380.524526 
L 251.470931 380.694661 
L 256.103559 380.976612 
L 260.736186 380.969963 
L 265.368814 381.027229 
L 270.001441 381.056344 
L 274.634069 381.089052 
L 279.266697 381.053828 
L 283.899324 381.113748 
L 288.531952 381.082016 
L 293.16458 381.09837 
L 297.797207 381.099132 
L 302.429835 381.060046 
L 307.062463 381.112129 
L 311.69509 381.123284 
L 316.327718 381.108936 
L 320.960346 381.081699 
L 325.592973 381.08892 
L 330.225601 381.07734 
L 334.858229 381.092905 
L 339.490856 381.124517 
L 344.123484 381.084174 
L 348.756111 381.080231 
L 353.388739 381.07699 
L 358.021367 381.082607 
L 362.653994 381.068507 
L 367.286622 381.066898 
L 371.91925 381.081824 
L 376.551877 381.104709 
L 381.184505 381.094128 
L 385.817133 381.14 
L 390.44976 381.07317 
L 395.082388 381.106049 
L 399.715016 381.114393 
L 404.347643 381.09319 
L 408.980271 381.089228 
L 413.612899 381.09173 
L 418.245526 381.084088 
L 422.878154 381.090652 
L 427.510781 381.103474 
L 432.143409 381.071799 
" style="fill:none;stroke:#1f77b4;stroke-linecap:square;stroke-width:1.5;"/>
    <defs>
     <path d="M 0 3 
C 0.795609 3 1.55874 2.683901 2.12132 2.12132 
C 2.683901 1.55874 3 0.795609 3 0 
C 3 -0.795609 2.683901 -1.55874 2.12132 -2.12132 
C 1.55874 -2.683901 0.795609 -3 0 -3 
C -0.795609 -3 -1.55874 -2.683901 -2.12132 -2.12132 
C -2.683901 -1.55874 -3 -0.795609 -3 0 
C -3 0.795609 -2.683901 1.55874 -2.12132 2.12132 
C -1.55874 2.683901 -0.795609 3 0 3 
z
" id="me2e30facc8" style="stroke:#1f77b4;"/>
    </defs>
    <g clip-path="url(#p7f05d38b11)">
     <use style="fill:#1f77b4;stroke:#1f77b4;" x="93.961591" xlink:href="#me2e30facc8" y="28.34"/>
     <use style="fill:#1f77b4;stroke:#1f77b4;" x="98.594219" xlink:href="#me2e30facc8" y="274.619315"/>
     <use style="fill:#1f77b4;stroke:#1f77b4;" x="103.226846" xlink:href="#me2e30facc8" y="303.297525"/>
     <use style="fill:#1f77b4;stroke:#1f77b4;" x="107.859474" xlink:href="#me2e30facc8" y="318.044496"/>
     <use style="fill:#1f77b4;stroke:#1f77b4;" x="112.492101" xlink:href="#me2e30facc8" y="325.404028"/>
     <use style="fill:#1f77b4;stroke:#1f77b4;" x="117.124729" xlink:href="#me2e30facc8" y="329.914996"/>
     <use style="fill:#1f77b4;stroke:#1f77b4;" x="121.757357" xlink:href="#me2e30facc8" y="340.614266"/>
     <use style="fill:#1f77b4;stroke:#1f77b4;" x="126.389984" xlink:href="#me2e30facc8" y="344.951367"/>
     <use style="fill:#1f77b4;stroke:#1f77b4;" x="131.022612" xlink:href="#me2e30facc8" y="348.909312"/>
     <use style="fill:#1f77b4;stroke:#1f77b4;" x="135.65524" xlink:href="#me2e30facc8" y="356.493997"/>
     <use style="fill:#1f77b4;stroke:#1f77b4;" x="140.287867" xlink:href="#me2e30facc8" y="362.22746"/>
     <use style="fill:#1f77b4;stroke:#1f77b4;" x="144.920495" xlink:href="#me2e30facc8" y="361.184157"/>
     <use style="fill:#1f77b4;stroke:#1f77b4;" x="149.553123" xlink:href="#me2e30facc8" y="367.064938"/>
     <use style="fill:#1f77b4;stroke:#1f77b4;" x="154.18575" xlink:href="#me2e30facc8" y="371.545708"/>
     <use style="fill:#1f77b4;stroke:#1f77b4;" x="158.818378" xlink:href="#me2e30facc8" y="368.051218"/>
     <use style="fill:#1f77b4;stroke:#1f77b4;" x="163.451006" xlink:href="#me2e30facc8" y="372.416037"/>
     <use style="fill:#1f77b4;stroke:#1f77b4;" x="168.083633" xlink:href="#me2e30facc8" y="374.561472"/>
     <use style="fill:#1f77b4;stroke:#1f77b4;" x="172.716261" xlink:href="#me2e30facc8" y="375.358625"/>
     <use style="fill:#1f77b4;stroke:#1f77b4;" x="177.348889" xlink:href="#me2e30facc8" y="376.330236"/>
     <use style="fill:#1f77b4;stroke:#1f77b4;" x="181.981516" xlink:href="#me2e30facc8" y="376.754335"/>
     <use style="fill:#1f77b4;stroke:#1f77b4;" x="186.614144" xlink:href="#me2e30facc8" y="378.339157"/>
     <use style="fill:#1f77b4;stroke:#1f77b4;" x="191.246771" xlink:href="#me2e30facc8" y="378.703893"/>
     <use style="fill:#1f77b4;stroke:#1f77b4;" x="195.879399" xlink:href="#me2e30facc8" y="378.81584"/>
     <use style="fill:#1f77b4;stroke:#1f77b4;" x="200.512027" xlink:href="#me2e30facc8" y="379.007973"/>
     <use style="fill:#1f77b4;stroke:#1f77b4;" x="205.144654" xlink:href="#me2e30facc8" y="379.653826"/>
     <use style="fill:#1f77b4;stroke:#1f77b4;" x="209.777282" xlink:href="#me2e30facc8" y="379.486543"/>
     <use style="fill:#1f77b4;stroke:#1f77b4;" x="214.40991" xlink:href="#me2e30facc8" y="379.818309"/>
     <use style="fill:#1f77b4;stroke:#1f77b4;" x="219.042537" xlink:href="#me2e30facc8" y="379.66331"/>
     <use style="fill:#1f77b4;stroke:#1f77b4;" x="223.675165" xlink:href="#me2e30facc8" y="380.097549"/>
     <use style="fill:#1f77b4;stroke:#1f77b4;" x="228.307793" xlink:href="#me2e30facc8" y="380.24331"/>
     <use style="fill:#1f77b4;stroke:#1f77b4;" x="232.94042" xlink:href="#me2e30facc8" y="380.512019"/>
     <use style="fill:#1f77b4;stroke:#1f77b4;" x="237.573048" xlink:href="#me2e30facc8" y="379.432595"/>
     <use style="fill:#1f77b4;stroke:#1f77b4;" x="242.205676" xlink:href="#me2e30facc8" y="380.008396"/>
     <use style="fill:#1f77b4;stroke:#1f77b4;" x="246.838303" xlink:href="#me2e30facc8" y="380.524526"/>
     <use style="fill:#1f77b4;stroke:#1f77b4;" x="251.470931" xlink:href="#me2e30facc8" y="380.694661"/>
     <use style="fill:#1f77b4;stroke:#1f77b4;" x="256.103559" xlink:href="#me2e30facc8" y="380.976612"/>
     <use style="fill:#1f77b4;stroke:#1f77b4;" x="260.736186" xlink:href="#me2e30facc8" y="380.969963"/>
     <use style="fill:#1f77b4;stroke:#1f77b4;" x="265.368814" xlink:href="#me2e30facc8" y="381.027229"/>
     <use style="fill:#1f77b4;stroke:#1f77b4;" x="270.001441" xlink:href="#me2e30facc8" y="381.056344"/>
     <use style="fill:#1f77b4;stroke:#1f77b4;" x="274.634069" xlink:href="#me2e30facc8" y="381.089052"/>
     <use style="fill:#1f77b4;stroke:#1f77b4;" x="279.266697" xlink:href="#me2e30facc8" y="381.053828"/>
     <use style="fill:#1f77b4;stroke:#1f77b4;" x="283.899324" xlink:href="#me2e30facc8" y="381.113748"/>
     <use style="fill:#1f77b4;stroke:#1f77b4;" x="288.531952" xlink:href="#me2e30facc8" y="381.082016"/>
     <use style="fill:#1f77b4;stroke:#1f77b4;" x="293.16458" xlink:href="#me2e30facc8" y="381.09837"/>
     <use style="fill:#1f77b4;stroke:#1f77b4;" x="297.797207" xlink:href="#me2e30facc8" y="381.099132"/>
     <use style="fill:#1f77b4;stroke:#1f77b4;" x="302.429835" xlink:href="#me2e30facc8" y="381.060046"/>
     <use style="fill:#1f77b4;stroke:#1f77b4;" x="307.062463" xlink:href="#me2e30facc8" y="381.112129"/>
     <use style="fill:#1f77b4;stroke:#1f77b4;" x="311.69509" xlink:href="#me2e30facc8" y="381.123284"/>
     <use style="fill:#1f77b4;stroke:#1f77b4;" x="316.327718" xlink:href="#me2e30facc8" y="381.108936"/>
     <use style="fill:#1f77b4;stroke:#1f77b4;" x="320.960346" xlink:href="#me2e30facc8" y="381.081699"/>
     <use style="fill:#1f77b4;stroke:#1f77b4;" x="325.592973" xlink:href="#me2e30facc8" y="381.08892"/>
     <use style="fill:#1f77b4;stroke:#1f77b4;" x="330.225601" xlink:href="#me2e30facc8" y="381.07734"/>
     <use style="fill:#1f77b4;stroke:#1f77b4;" x="334.858229" xlink:href="#me2e30facc8" y="381.092905"/>
     <use style="fill:#1f77b4;stroke:#1f77b4;" x="339.490856" xlink:href="#me2e30facc8" y="381.124517"/>
     <use style="fill:#1f77b4;stroke:#1f77b4;" x="344.123484" xlink:href="#me2e30facc8" y="381.084174"/>
     <use style="fill:#1f77b4;stroke:#1f77b4;" x="348.756111" xlink:href="#me2e30facc8" y="381.080231"/>
     <use style="fill:#1f77b4;stroke:#1f77b4;" x="353.388739" xlink:href="#me2e30facc8" y="381.07699"/>
     <use style="fill:#1f77b4;stroke:#1f77b4;" x="358.021367" xlink:href="#me2e30facc8" y="381.082607"/>
     <use style="fill:#1f77b4;stroke:#1f77b4;" x="362.653994" xlink:href="#me2e30facc8" y="381.068507"/>
     <use style="fill:#1f77b4;stroke:#1f77b4;" x="367.286622" xlink:href="#me2e30facc8" y="381.066898"/>
     <use style="fill:#1f77b4;stroke:#1f77b4;" x="371.91925" xlink:href="#me2e30facc8" y="381.081824"/>
     <use style="fill:#1f77b4;stroke:#1f77b4;" x="376.551877" xlink:href="#me2e30facc8" y="381.104709"/>
     <use style="fill:#1f77b4;stroke:#1f77b4;" x="381.184505" xlink:href="#me2e30facc8" y="381.094128"/>
     <use style="fill:#1f77b4;stroke:#1f77b4;" x="385.817133" xlink:href="#me2e30facc8" y="381.14"/>
     <use style="fill:#1f77b4;stroke:#1f77b4;" x="390.44976" xlink:href="#me2e30facc8" y="381.07317"/>
     <use style="fill:#1f77b4;stroke:#1f77b4;" x="395.082388" xlink:href="#me2e30facc8" y="381.106049"/>
     <use style="fill:#1f77b4;stroke:#1f77b4;" x="399.715016" xlink:href="#me2e30facc8" y="381.114393"/>
     <use style="fill:#1f77b4;stroke:#1f77b4;" x="404.347643" xlink:href="#me2e30facc8" y="381.09319"/>
     <use style="fill:#1f77b4;stroke:#1f77b4;" x="408.980271" xlink:href="#me2e30facc8" y="381.089228"/>
     <use style="fill:#1f77b4;stroke:#1f77b4;" x="413.612899" xlink:href="#me2e30facc8" y="381.09173"/>
     <use style="fill:#1f77b4;stroke:#1f77b4;" x="418.245526" xlink:href="#me2e30facc8" y="381.084088"/>
     <use style="fill:#1f77b4;stroke:#1f77b4;" x="422.878154" xlink:href="#me2e30facc8" y="381.090652"/>
     <use style="fill:#1f77b4;stroke:#1f77b4;" x="427.510781" xlink:href="#me2e30facc8" y="381.103474"/>
     <use style="fill:#1f77b4;stroke:#1f77b4;" x="432.143409" xlink:href="#me2e30facc8" y="381.071799"/>
    </g>
   </g>
   <g id="line2d_12">
    <path clip-path="url(#p7f05d38b11)" d="M 93.961591 294.855603 
L 98.594219 293.249379 
L 103.226846 292.986267 
L 107.859474 309.542641 
L 112.492101 303.110555 
L 117.124729 346.866544 
L 121.757357 342.661452 
L 126.389984 328.057392 
L 131.022612 323.826378 
L 135.65524 342.064146 
L 140.287867 343.408671 
L 144.920495 341.522737 
L 149.553123 348.775635 
L 154.18575 337.364784 
L 158.818378 322.706378 
L 163.451006 350.574158 
L 168.083633 345.383734 
L 172.716261 348.305173 
L 177.348889 348.013481 
L 181.981516 356.204031 
L 186.614144 350.411763 
L 191.246771 349.129414 
L 195.879399 348.692056 
L 200.512027 354.660033 
L 205.144654 340.762961 
L 209.777282 352.595516 
L 214.40991 336.337841 
L 219.042537 332.291286 
L 223.675165 351.611976 
L 228.307793 357.305441 
L 232.94042 353.658676 
L 237.573048 358.093147 
L 242.205676 357.642118 
L 246.838303 330.512201 
L 251.470931 351.651275 
L 256.103559 352.114008 
L 260.736186 349.999632 
L 265.368814 351.857049 
L 270.001441 351.925425 
L 274.634069 352.177107 
L 279.266697 352.066162 
L 283.899324 350.986889 
L 288.531952 350.653627 
L 293.16458 350.471222 
L 297.797207 350.534309 
L 302.429835 350.497151 
L 307.062463 350.483611 
L 311.69509 350.467371 
L 316.327718 350.470062 
L 320.960346 350.46856 
L 325.592973 350.469276 
L 330.225601 350.469154 
L 334.858229 350.46919 
L 339.490856 350.46914 
L 344.123484 350.469233 
L 348.756111 350.469197 
L 353.388739 350.469159 
L 358.021367 350.469173 
L 362.653994 350.469144 
L 367.286622 350.469183 
L 371.91925 350.469183 
L 376.551877 350.469171 
L 381.184505 350.469159 
L 385.817133 350.469159 
L 390.44976 350.469159 
L 395.082388 350.469159 
L 399.715016 350.469159 
L 404.347643 350.469159 
L 408.980271 350.469159 
L 413.612899 350.469159 
L 418.245526 350.469159 
L 422.878154 350.469159 
L 427.510781 350.469159 
L 432.143409 350.469159 
" style="fill:none;stroke:#ff7f0e;stroke-linecap:square;stroke-width:1.5;"/>
    <defs>
     <path d="M 0 3 
C 0.795609 3 1.55874 2.683901 2.12132 2.12132 
C 2.683901 1.55874 3 0.795609 3 0 
C 3 -0.795609 2.683901 -1.55874 2.12132 -2.12132 
C 1.55874 -2.683901 0.795609 -3 0 -3 
C -0.795609 -3 -1.55874 -2.683901 -2.12132 -2.12132 
C -2.683901 -1.55874 -3 -0.795609 -3 0 
C -3 0.795609 -2.683901 1.55874 -2.12132 2.12132 
C -1.55874 2.683901 -0.795609 3 0 3 
z
" id="mdd3102f1a1" style="stroke:#ff7f0e;"/>
    </defs>
    <g clip-path="url(#p7f05d38b11)">
     <use style="fill:#ff7f0e;stroke:#ff7f0e;" x="93.961591" xlink:href="#mdd3102f1a1" y="294.855603"/>
     <use style="fill:#ff7f0e;stroke:#ff7f0e;" x="98.594219" xlink:href="#mdd3102f1a1" y="293.249379"/>
     <use style="fill:#ff7f0e;stroke:#ff7f0e;" x="103.226846" xlink:href="#mdd3102f1a1" y="292.986267"/>
     <use style="fill:#ff7f0e;stroke:#ff7f0e;" x="107.859474" xlink:href="#mdd3102f1a1" y="309.542641"/>
     <use style="fill:#ff7f0e;stroke:#ff7f0e;" x="112.492101" xlink:href="#mdd3102f1a1" y="303.110555"/>
     <use style="fill:#ff7f0e;stroke:#ff7f0e;" x="117.124729" xlink:href="#mdd3102f1a1" y="346.866544"/>
     <use style="fill:#ff7f0e;stroke:#ff7f0e;" x="121.757357" xlink:href="#mdd3102f1a1" y="342.661452"/>
     <use style="fill:#ff7f0e;stroke:#ff7f0e;" x="126.389984" xlink:href="#mdd3102f1a1" y="328.057392"/>
     <use style="fill:#ff7f0e;stroke:#ff7f0e;" x="131.022612" xlink:href="#mdd3102f1a1" y="323.826378"/>
     <use style="fill:#ff7f0e;stroke:#ff7f0e;" x="135.65524" xlink:href="#mdd3102f1a1" y="342.064146"/>
     <use style="fill:#ff7f0e;stroke:#ff7f0e;" x="140.287867" xlink:href="#mdd3102f1a1" y="343.408671"/>
     <use style="fill:#ff7f0e;stroke:#ff7f0e;" x="144.920495" xlink:href="#mdd3102f1a1" y="341.522737"/>
     <use style="fill:#ff7f0e;stroke:#ff7f0e;" x="149.553123" xlink:href="#mdd3102f1a1" y="348.775635"/>
     <use style="fill:#ff7f0e;stroke:#ff7f0e;" x="154.18575" xlink:href="#mdd3102f1a1" y="337.364784"/>
     <use style="fill:#ff7f0e;stroke:#ff7f0e;" x="158.818378" xlink:href="#mdd3102f1a1" y="322.706378"/>
     <use style="fill:#ff7f0e;stroke:#ff7f0e;" x="163.451006" xlink:href="#mdd3102f1a1" y="350.574158"/>
     <use style="fill:#ff7f0e;stroke:#ff7f0e;" x="168.083633" xlink:href="#mdd3102f1a1" y="345.383734"/>
     <use style="fill:#ff7f0e;stroke:#ff7f0e;" x="172.716261" xlink:href="#mdd3102f1a1" y="348.305173"/>
     <use style="fill:#ff7f0e;stroke:#ff7f0e;" x="177.348889" xlink:href="#mdd3102f1a1" y="348.013481"/>
     <use style="fill:#ff7f0e;stroke:#ff7f0e;" x="181.981516" xlink:href="#mdd3102f1a1" y="356.204031"/>
     <use style="fill:#ff7f0e;stroke:#ff7f0e;" x="186.614144" xlink:href="#mdd3102f1a1" y="350.411763"/>
     <use style="fill:#ff7f0e;stroke:#ff7f0e;" x="191.246771" xlink:href="#mdd3102f1a1" y="349.129414"/>
     <use style="fill:#ff7f0e;stroke:#ff7f0e;" x="195.879399" xlink:href="#mdd3102f1a1" y="348.692056"/>
     <use style="fill:#ff7f0e;stroke:#ff7f0e;" x="200.512027" xlink:href="#mdd3102f1a1" y="354.660033"/>
     <use style="fill:#ff7f0e;stroke:#ff7f0e;" x="205.144654" xlink:href="#mdd3102f1a1" y="340.762961"/>
     <use style="fill:#ff7f0e;stroke:#ff7f0e;" x="209.777282" xlink:href="#mdd3102f1a1" y="352.595516"/>
     <use style="fill:#ff7f0e;stroke:#ff7f0e;" x="214.40991" xlink:href="#mdd3102f1a1" y="336.337841"/>
     <use style="fill:#ff7f0e;stroke:#ff7f0e;" x="219.042537" xlink:href="#mdd3102f1a1" y="332.291286"/>
     <use style="fill:#ff7f0e;stroke:#ff7f0e;" x="223.675165" xlink:href="#mdd3102f1a1" y="351.611976"/>
     <use style="fill:#ff7f0e;stroke:#ff7f0e;" x="228.307793" xlink:href="#mdd3102f1a1" y="357.305441"/>
     <use style="fill:#ff7f0e;stroke:#ff7f0e;" x="232.94042" xlink:href="#mdd3102f1a1" y="353.658676"/>
     <use style="fill:#ff7f0e;stroke:#ff7f0e;" x="237.573048" xlink:href="#mdd3102f1a1" y="358.093147"/>
     <use style="fill:#ff7f0e;stroke:#ff7f0e;" x="242.205676" xlink:href="#mdd3102f1a1" y="357.642118"/>
     <use style="fill:#ff7f0e;stroke:#ff7f0e;" x="246.838303" xlink:href="#mdd3102f1a1" y="330.512201"/>
     <use style="fill:#ff7f0e;stroke:#ff7f0e;" x="251.470931" xlink:href="#mdd3102f1a1" y="351.651275"/>
     <use style="fill:#ff7f0e;stroke:#ff7f0e;" x="256.103559" xlink:href="#mdd3102f1a1" y="352.114008"/>
     <use style="fill:#ff7f0e;stroke:#ff7f0e;" x="260.736186" xlink:href="#mdd3102f1a1" y="349.999632"/>
     <use style="fill:#ff7f0e;stroke:#ff7f0e;" x="265.368814" xlink:href="#mdd3102f1a1" y="351.857049"/>
     <use style="fill:#ff7f0e;stroke:#ff7f0e;" x="270.001441" xlink:href="#mdd3102f1a1" y="351.925425"/>
     <use style="fill:#ff7f0e;stroke:#ff7f0e;" x="274.634069" xlink:href="#mdd3102f1a1" y="352.177107"/>
     <use style="fill:#ff7f0e;stroke:#ff7f0e;" x="279.266697" xlink:href="#mdd3102f1a1" y="352.066162"/>
     <use style="fill:#ff7f0e;stroke:#ff7f0e;" x="283.899324" xlink:href="#mdd3102f1a1" y="350.986889"/>
     <use style="fill:#ff7f0e;stroke:#ff7f0e;" x="288.531952" xlink:href="#mdd3102f1a1" y="350.653627"/>
     <use style="fill:#ff7f0e;stroke:#ff7f0e;" x="293.16458" xlink:href="#mdd3102f1a1" y="350.471222"/>
     <use style="fill:#ff7f0e;stroke:#ff7f0e;" x="297.797207" xlink:href="#mdd3102f1a1" y="350.534309"/>
     <use style="fill:#ff7f0e;stroke:#ff7f0e;" x="302.429835" xlink:href="#mdd3102f1a1" y="350.497151"/>
     <use style="fill:#ff7f0e;stroke:#ff7f0e;" x="307.062463" xlink:href="#mdd3102f1a1" y="350.483611"/>
     <use style="fill:#ff7f0e;stroke:#ff7f0e;" x="311.69509" xlink:href="#mdd3102f1a1" y="350.467371"/>
     <use style="fill:#ff7f0e;stroke:#ff7f0e;" x="316.327718" xlink:href="#mdd3102f1a1" y="350.470062"/>
     <use style="fill:#ff7f0e;stroke:#ff7f0e;" x="320.960346" xlink:href="#mdd3102f1a1" y="350.46856"/>
     <use style="fill:#ff7f0e;stroke:#ff7f0e;" x="325.592973" xlink:href="#mdd3102f1a1" y="350.469276"/>
     <use style="fill:#ff7f0e;stroke:#ff7f0e;" x="330.225601" xlink:href="#mdd3102f1a1" y="350.469154"/>
     <use style="fill:#ff7f0e;stroke:#ff7f0e;" x="334.858229" xlink:href="#mdd3102f1a1" y="350.46919"/>
     <use style="fill:#ff7f0e;stroke:#ff7f0e;" x="339.490856" xlink:href="#mdd3102f1a1" y="350.46914"/>
     <use style="fill:#ff7f0e;stroke:#ff7f0e;" x="344.123484" xlink:href="#mdd3102f1a1" y="350.469233"/>
     <use style="fill:#ff7f0e;stroke:#ff7f0e;" x="348.756111" xlink:href="#mdd3102f1a1" y="350.469197"/>
     <use style="fill:#ff7f0e;stroke:#ff7f0e;" x="353.388739" xlink:href="#mdd3102f1a1" y="350.469159"/>
     <use style="fill:#ff7f0e;stroke:#ff7f0e;" x="358.021367" xlink:href="#mdd3102f1a1" y="350.469173"/>
     <use style="fill:#ff7f0e;stroke:#ff7f0e;" x="362.653994" xlink:href="#mdd3102f1a1" y="350.469144"/>
     <use style="fill:#ff7f0e;stroke:#ff7f0e;" x="367.286622" xlink:href="#mdd3102f1a1" y="350.469183"/>
     <use style="fill:#ff7f0e;stroke:#ff7f0e;" x="371.91925" xlink:href="#mdd3102f1a1" y="350.469183"/>
     <use style="fill:#ff7f0e;stroke:#ff7f0e;" x="376.551877" xlink:href="#mdd3102f1a1" y="350.469171"/>
     <use style="fill:#ff7f0e;stroke:#ff7f0e;" x="381.184505" xlink:href="#mdd3102f1a1" y="350.469159"/>
     <use style="fill:#ff7f0e;stroke:#ff7f0e;" x="385.817133" xlink:href="#mdd3102f1a1" y="350.469159"/>
     <use style="fill:#ff7f0e;stroke:#ff7f0e;" x="390.44976" xlink:href="#mdd3102f1a1" y="350.469159"/>
     <use style="fill:#ff7f0e;stroke:#ff7f0e;" x="395.082388" xlink:href="#mdd3102f1a1" y="350.469159"/>
     <use style="fill:#ff7f0e;stroke:#ff7f0e;" x="399.715016" xlink:href="#mdd3102f1a1" y="350.469159"/>
     <use style="fill:#ff7f0e;stroke:#ff7f0e;" x="404.347643" xlink:href="#mdd3102f1a1" y="350.469159"/>
     <use style="fill:#ff7f0e;stroke:#ff7f0e;" x="408.980271" xlink:href="#mdd3102f1a1" y="350.469159"/>
     <use style="fill:#ff7f0e;stroke:#ff7f0e;" x="413.612899" xlink:href="#mdd3102f1a1" y="350.469159"/>
     <use style="fill:#ff7f0e;stroke:#ff7f0e;" x="418.245526" xlink:href="#mdd3102f1a1" y="350.469159"/>
     <use style="fill:#ff7f0e;stroke:#ff7f0e;" x="422.878154" xlink:href="#mdd3102f1a1" y="350.469159"/>
     <use style="fill:#ff7f0e;stroke:#ff7f0e;" x="427.510781" xlink:href="#mdd3102f1a1" y="350.469159"/>
     <use style="fill:#ff7f0e;stroke:#ff7f0e;" x="432.143409" xlink:href="#mdd3102f1a1" y="350.469159"/>
    </g>
   </g>
   <g id="patch_3">
    <path d="M 77.0525 398.78 
L 77.0525 10.7 
" style="fill:none;stroke:#000000;stroke-linecap:square;stroke-linejoin:miter;stroke-width:0.8;"/>
   </g>
   <g id="patch_4">
    <path d="M 449.0525 398.78 
L 449.0525 10.7 
" style="fill:none;stroke:#000000;stroke-linecap:square;stroke-linejoin:miter;stroke-width:0.8;"/>
   </g>
   <g id="patch_5">
    <path d="M 77.0525 398.78 
L 449.0525 398.78 
" style="fill:none;stroke:#000000;stroke-linecap:square;stroke-linejoin:miter;stroke-width:0.8;"/>
   </g>
   <g id="patch_6">
    <path d="M 77.0525 10.7 
L 449.0525 10.7 
" style="fill:none;stroke:#000000;stroke-linecap:square;stroke-linejoin:miter;stroke-width:0.8;"/>
   </g>
   <g id="legend_1">
    <g id="patch_7">
     <path d="M 227.59625 85.4125 
L 435.0525 85.4125 
Q 439.0525 85.4125 439.0525 81.4125 
L 439.0525 24.7 
Q 439.0525 20.7 435.0525 20.7 
L 227.59625 20.7 
Q 223.59625 20.7 223.59625 24.7 
L 223.59625 81.4125 
Q 223.59625 85.4125 227.59625 85.4125 
z
" style="fill:#ffffff;opacity:0.8;stroke:#cccccc;stroke-linejoin:miter;"/>
    </g>
    <g id="line2d_13">
     <path d="M 231.59625 36.896875 
L 271.59625 36.896875 
" style="fill:none;stroke:#1f77b4;stroke-linecap:square;stroke-width:1.5;"/>
    </g>
    <g id="line2d_14">
     <g>
      <use style="fill:#1f77b4;stroke:#1f77b4;" x="251.59625" xlink:href="#me2e30facc8" y="36.896875"/>
     </g>
    </g>
    <g id="text_13">
     <!-- training loss -->
     <defs>
      <path d="M 41.109375 46.296875 
Q 39.59375 47.171875 37.8125 47.578125 
Q 36.03125 48 33.890625 48 
Q 26.265625 48 22.1875 43.046875 
Q 18.109375 38.09375 18.109375 28.8125 
L 18.109375 0 
L 9.078125 0 
L 9.078125 54.6875 
L 18.109375 54.6875 
L 18.109375 46.1875 
Q 20.953125 51.171875 25.484375 53.578125 
Q 30.03125 56 36.53125 56 
Q 37.453125 56 38.578125 55.875 
Q 39.703125 55.765625 41.0625 55.515625 
z
" id="DejaVuSans-72"/>
      <path d="M 34.28125 27.484375 
Q 23.390625 27.484375 19.1875 25 
Q 14.984375 22.515625 14.984375 16.5 
Q 14.984375 11.71875 18.140625 8.90625 
Q 21.296875 6.109375 26.703125 6.109375 
Q 34.1875 6.109375 38.703125 11.40625 
Q 43.21875 16.703125 43.21875 25.484375 
L 43.21875 27.484375 
z
M 52.203125 31.203125 
L 52.203125 0 
L 43.21875 0 
L 43.21875 8.296875 
Q 40.140625 3.328125 35.546875 0.953125 
Q 30.953125 -1.421875 24.3125 -1.421875 
Q 15.921875 -1.421875 10.953125 3.296875 
Q 6 8.015625 6 15.921875 
Q 6 25.140625 12.171875 29.828125 
Q 18.359375 34.515625 30.609375 34.515625 
L 43.21875 34.515625 
L 43.21875 35.40625 
Q 43.21875 41.609375 39.140625 45 
Q 35.0625 48.390625 27.6875 48.390625 
Q 23 48.390625 18.546875 47.265625 
Q 14.109375 46.140625 10.015625 43.890625 
L 10.015625 52.203125 
Q 14.9375 54.109375 19.578125 55.046875 
Q 24.21875 56 28.609375 56 
Q 40.484375 56 46.34375 49.84375 
Q 52.203125 43.703125 52.203125 31.203125 
z
" id="DejaVuSans-61"/>
      <path d="M 9.421875 54.6875 
L 18.40625 54.6875 
L 18.40625 0 
L 9.421875 0 
z
M 9.421875 75.984375 
L 18.40625 75.984375 
L 18.40625 64.59375 
L 9.421875 64.59375 
z
" id="DejaVuSans-69"/>
      <path d="M 54.890625 33.015625 
L 54.890625 0 
L 45.90625 0 
L 45.90625 32.71875 
Q 45.90625 40.484375 42.875 44.328125 
Q 39.84375 48.1875 33.796875 48.1875 
Q 26.515625 48.1875 22.3125 43.546875 
Q 18.109375 38.921875 18.109375 30.90625 
L 18.109375 0 
L 9.078125 0 
L 9.078125 54.6875 
L 18.109375 54.6875 
L 18.109375 46.1875 
Q 21.34375 51.125 25.703125 53.5625 
Q 30.078125 56 35.796875 56 
Q 45.21875 56 50.046875 50.171875 
Q 54.890625 44.34375 54.890625 33.015625 
z
" id="DejaVuSans-6e"/>
      <path d="M 45.40625 27.984375 
Q 45.40625 37.75 41.375 43.109375 
Q 37.359375 48.484375 30.078125 48.484375 
Q 22.859375 48.484375 18.828125 43.109375 
Q 14.796875 37.75 14.796875 27.984375 
Q 14.796875 18.265625 18.828125 12.890625 
Q 22.859375 7.515625 30.078125 7.515625 
Q 37.359375 7.515625 41.375 12.890625 
Q 45.40625 18.265625 45.40625 27.984375 
z
M 54.390625 6.78125 
Q 54.390625 -7.171875 48.1875 -13.984375 
Q 42 -20.796875 29.203125 -20.796875 
Q 24.46875 -20.796875 20.265625 -20.09375 
Q 16.0625 -19.390625 12.109375 -17.921875 
L 12.109375 -9.1875 
Q 16.0625 -11.328125 19.921875 -12.34375 
Q 23.78125 -13.375 27.78125 -13.375 
Q 36.625 -13.375 41.015625 -8.765625 
Q 45.40625 -4.15625 45.40625 5.171875 
L 45.40625 9.625 
Q 42.625 4.78125 38.28125 2.390625 
Q 33.9375 0 27.875 0 
Q 17.828125 0 11.671875 7.65625 
Q 5.515625 15.328125 5.515625 27.984375 
Q 5.515625 40.671875 11.671875 48.328125 
Q 17.828125 56 27.875 56 
Q 33.9375 56 38.28125 53.609375 
Q 42.625 51.21875 45.40625 46.390625 
L 45.40625 54.6875 
L 54.390625 54.6875 
z
" id="DejaVuSans-67"/>
      <path id="DejaVuSans-20"/>
      <path d="M 9.421875 75.984375 
L 18.40625 75.984375 
L 18.40625 0 
L 9.421875 0 
z
" id="DejaVuSans-6c"/>
     </defs>
     <g transform="translate(287.59625 43.896875)scale(0.2 -0.2)">
      <use xlink:href="#DejaVuSans-74"/>
      <use x="39.208984" xlink:href="#DejaVuSans-72"/>
      <use x="80.322266" xlink:href="#DejaVuSans-61"/>
      <use x="141.601562" xlink:href="#DejaVuSans-69"/>
      <use x="169.384766" xlink:href="#DejaVuSans-6e"/>
      <use x="232.763672" xlink:href="#DejaVuSans-69"/>
      <use x="260.546875" xlink:href="#DejaVuSans-6e"/>
      <use x="323.925781" xlink:href="#DejaVuSans-67"/>
      <use x="387.402344" xlink:href="#DejaVuSans-20"/>
      <use x="419.189453" xlink:href="#DejaVuSans-6c"/>
      <use x="446.972656" xlink:href="#DejaVuSans-6f"/>
      <use x="508.154297" xlink:href="#DejaVuSans-73"/>
      <use x="560.253906" xlink:href="#DejaVuSans-73"/>
     </g>
    </g>
    <g id="line2d_15">
     <path d="M 231.59625 66.253125 
L 271.59625 66.253125 
" style="fill:none;stroke:#ff7f0e;stroke-linecap:square;stroke-width:1.5;"/>
    </g>
    <g id="line2d_16">
     <g>
      <use style="fill:#ff7f0e;stroke:#ff7f0e;" x="251.59625" xlink:href="#mdd3102f1a1" y="66.253125"/>
     </g>
    </g>
    <g id="text_14">
     <!-- validation loss -->
     <defs>
      <path d="M 2.984375 54.6875 
L 12.5 54.6875 
L 29.59375 8.796875 
L 46.6875 54.6875 
L 56.203125 54.6875 
L 35.6875 0 
L 23.484375 0 
z
" id="DejaVuSans-76"/>
      <path d="M 45.40625 46.390625 
L 45.40625 75.984375 
L 54.390625 75.984375 
L 54.390625 0 
L 45.40625 0 
L 45.40625 8.203125 
Q 42.578125 3.328125 38.25 0.953125 
Q 33.9375 -1.421875 27.875 -1.421875 
Q 17.96875 -1.421875 11.734375 6.484375 
Q 5.515625 14.40625 5.515625 27.296875 
Q 5.515625 40.1875 11.734375 48.09375 
Q 17.96875 56 27.875 56 
Q 33.9375 56 38.25 53.625 
Q 42.578125 51.265625 45.40625 46.390625 
z
M 14.796875 27.296875 
Q 14.796875 17.390625 18.875 11.75 
Q 22.953125 6.109375 30.078125 6.109375 
Q 37.203125 6.109375 41.296875 11.75 
Q 45.40625 17.390625 45.40625 27.296875 
Q 45.40625 37.203125 41.296875 42.84375 
Q 37.203125 48.484375 30.078125 48.484375 
Q 22.953125 48.484375 18.875 42.84375 
Q 14.796875 37.203125 14.796875 27.296875 
z
" id="DejaVuSans-64"/>
     </defs>
     <g transform="translate(287.59625 73.253125)scale(0.2 -0.2)">
      <use xlink:href="#DejaVuSans-76"/>
      <use x="59.179688" xlink:href="#DejaVuSans-61"/>
      <use x="120.458984" xlink:href="#DejaVuSans-6c"/>
      <use x="148.242188" xlink:href="#DejaVuSans-69"/>
      <use x="176.025391" xlink:href="#DejaVuSans-64"/>
      <use x="239.501953" xlink:href="#DejaVuSans-61"/>
      <use x="300.78125" xlink:href="#DejaVuSans-74"/>
      <use x="339.990234" xlink:href="#DejaVuSans-69"/>
      <use x="367.773438" xlink:href="#DejaVuSans-6f"/>
      <use x="428.955078" xlink:href="#DejaVuSans-6e"/>
      <use x="492.333984" xlink:href="#DejaVuSans-20"/>
      <use x="524.121094" xlink:href="#DejaVuSans-6c"/>
      <use x="551.904297" xlink:href="#DejaVuSans-6f"/>
      <use x="613.085938" xlink:href="#DejaVuSans-73"/>
      <use x="665.185547" xlink:href="#DejaVuSans-73"/>
     </g>
    </g>
   </g>
  </g>
  <g id="axes_2">
   <g id="patch_8">
    <path d="M 597.8525 398.78 
L 969.8525 398.78 
L 969.8525 10.7 
L 597.8525 10.7 
z
" style="fill:#ffffff;"/>
   </g>
   <g id="matplotlib.axis_3">
    <g id="xtick_5">
     <g id="line2d_17">
      <g>
       <use style="stroke:#000000;stroke-width:0.8;" x="614.761591" xlink:href="#m8393adb89a" y="398.78"/>
      </g>
     </g>
     <g id="text_15">
      <!-- 0 -->
      <g transform="translate(609.671591 417.9375)scale(0.16 -0.16)">
       <use xlink:href="#DejaVuSans-30"/>
      </g>
     </g>
    </g>
    <g id="xtick_6">
     <g id="line2d_18">
      <g>
       <use style="stroke:#000000;stroke-width:0.8;" x="707.414144" xlink:href="#m8393adb89a" y="398.78"/>
      </g>
     </g>
     <g id="text_16">
      <!-- 20 -->
      <g transform="translate(697.234144 417.9375)scale(0.16 -0.16)">
       <use xlink:href="#DejaVuSans-32"/>
       <use x="63.623047" xlink:href="#DejaVuSans-30"/>
      </g>
     </g>
    </g>
    <g id="xtick_7">
     <g id="line2d_19">
      <g>
       <use style="stroke:#000000;stroke-width:0.8;" x="800.066697" xlink:href="#m8393adb89a" y="398.78"/>
      </g>
     </g>
     <g id="text_17">
      <!-- 40 -->
      <g transform="translate(789.886697 417.9375)scale(0.16 -0.16)">
       <use xlink:href="#DejaVuSans-34"/>
       <use x="63.623047" xlink:href="#DejaVuSans-30"/>
      </g>
     </g>
    </g>
    <g id="xtick_8">
     <g id="line2d_20">
      <g>
       <use style="stroke:#000000;stroke-width:0.8;" x="892.71925" xlink:href="#m8393adb89a" y="398.78"/>
      </g>
     </g>
     <g id="text_18">
      <!-- 60 -->
      <g transform="translate(882.53925 417.9375)scale(0.16 -0.16)">
       <use xlink:href="#DejaVuSans-36"/>
       <use x="63.623047" xlink:href="#DejaVuSans-30"/>
      </g>
     </g>
    </g>
    <g id="text_19">
     <!-- Steps -->
     <g transform="translate(750.276875 443.50125)scale(0.24 -0.24)">
      <use xlink:href="#DejaVuSans-53"/>
      <use x="63.476562" xlink:href="#DejaVuSans-74"/>
      <use x="102.685547" xlink:href="#DejaVuSans-65"/>
      <use x="164.208984" xlink:href="#DejaVuSans-70"/>
      <use x="227.685547" xlink:href="#DejaVuSans-73"/>
     </g>
    </g>
   </g>
   <g id="matplotlib.axis_4">
    <g id="ytick_7">
     <g id="line2d_21">
      <g>
       <use style="stroke:#000000;stroke-width:0.8;" x="597.8525" xlink:href="#m2b6f0b399e" y="386.812342"/>
      </g>
     </g>
     <g id="text_20">
      <!-- 0.93 -->
      <defs>
       <path d="M 10.984375 1.515625 
L 10.984375 10.5 
Q 14.703125 8.734375 18.5 7.8125 
Q 22.3125 6.890625 25.984375 6.890625 
Q 35.75 6.890625 40.890625 13.453125 
Q 46.046875 20.015625 46.78125 33.40625 
Q 43.953125 29.203125 39.59375 26.953125 
Q 35.25 24.703125 29.984375 24.703125 
Q 19.046875 24.703125 12.671875 31.3125 
Q 6.296875 37.9375 6.296875 49.421875 
Q 6.296875 60.640625 12.9375 67.421875 
Q 19.578125 74.21875 30.609375 74.21875 
Q 43.265625 74.21875 49.921875 64.515625 
Q 56.59375 54.828125 56.59375 36.375 
Q 56.59375 19.140625 48.40625 8.859375 
Q 40.234375 -1.421875 26.421875 -1.421875 
Q 22.703125 -1.421875 18.890625 -0.6875 
Q 15.09375 0.046875 10.984375 1.515625 
z
M 30.609375 32.421875 
Q 37.25 32.421875 41.125 36.953125 
Q 45.015625 41.5 45.015625 49.421875 
Q 45.015625 57.28125 41.125 61.84375 
Q 37.25 66.40625 30.609375 66.40625 
Q 23.96875 66.40625 20.09375 61.84375 
Q 16.21875 57.28125 16.21875 49.421875 
Q 16.21875 41.5 20.09375 36.953125 
Q 23.96875 32.421875 30.609375 32.421875 
z
" id="DejaVuSans-39"/>
       <path d="M 40.578125 39.3125 
Q 47.65625 37.796875 51.625 33 
Q 55.609375 28.21875 55.609375 21.1875 
Q 55.609375 10.40625 48.1875 4.484375 
Q 40.765625 -1.421875 27.09375 -1.421875 
Q 22.515625 -1.421875 17.65625 -0.515625 
Q 12.796875 0.390625 7.625 2.203125 
L 7.625 11.71875 
Q 11.71875 9.328125 16.59375 8.109375 
Q 21.484375 6.890625 26.8125 6.890625 
Q 36.078125 6.890625 40.9375 10.546875 
Q 45.796875 14.203125 45.796875 21.1875 
Q 45.796875 27.640625 41.28125 31.265625 
Q 36.765625 34.90625 28.71875 34.90625 
L 20.21875 34.90625 
L 20.21875 43.015625 
L 29.109375 43.015625 
Q 36.375 43.015625 40.234375 45.921875 
Q 44.09375 48.828125 44.09375 54.296875 
Q 44.09375 59.90625 40.109375 62.90625 
Q 36.140625 65.921875 28.71875 65.921875 
Q 24.65625 65.921875 20.015625 65.03125 
Q 15.375 64.15625 9.8125 62.3125 
L 9.8125 71.09375 
Q 15.4375 72.65625 20.34375 73.4375 
Q 25.25 74.21875 29.59375 74.21875 
Q 40.828125 74.21875 47.359375 69.109375 
Q 53.90625 64.015625 53.90625 55.328125 
Q 53.90625 49.265625 50.4375 45.09375 
Q 46.96875 40.921875 40.578125 39.3125 
z
" id="DejaVuSans-33"/>
      </defs>
      <g transform="translate(555.2275 392.891092)scale(0.16 -0.16)">
       <use xlink:href="#DejaVuSans-30"/>
       <use x="63.623047" xlink:href="#DejaVuSans-2e"/>
       <use x="95.410156" xlink:href="#DejaVuSans-39"/>
       <use x="159.033203" xlink:href="#DejaVuSans-33"/>
      </g>
     </g>
    </g>
    <g id="ytick_8">
     <g id="line2d_22">
      <g>
       <use style="stroke:#000000;stroke-width:0.8;" x="597.8525" xlink:href="#m2b6f0b399e" y="334.678301"/>
      </g>
     </g>
     <g id="text_21">
      <!-- 0.94 -->
      <g transform="translate(555.2275 340.757051)scale(0.16 -0.16)">
       <use xlink:href="#DejaVuSans-30"/>
       <use x="63.623047" xlink:href="#DejaVuSans-2e"/>
       <use x="95.410156" xlink:href="#DejaVuSans-39"/>
       <use x="159.033203" xlink:href="#DejaVuSans-34"/>
      </g>
     </g>
    </g>
    <g id="ytick_9">
     <g id="line2d_23">
      <g>
       <use style="stroke:#000000;stroke-width:0.8;" x="597.8525" xlink:href="#m2b6f0b399e" y="282.544261"/>
      </g>
     </g>
     <g id="text_22">
      <!-- 0.95 -->
      <g transform="translate(555.2275 288.623011)scale(0.16 -0.16)">
       <use xlink:href="#DejaVuSans-30"/>
       <use x="63.623047" xlink:href="#DejaVuSans-2e"/>
       <use x="95.410156" xlink:href="#DejaVuSans-39"/>
       <use x="159.033203" xlink:href="#DejaVuSans-35"/>
      </g>
     </g>
    </g>
    <g id="ytick_10">
     <g id="line2d_24">
      <g>
       <use style="stroke:#000000;stroke-width:0.8;" x="597.8525" xlink:href="#m2b6f0b399e" y="230.41022"/>
      </g>
     </g>
     <g id="text_23">
      <!-- 0.96 -->
      <g transform="translate(555.2275 236.48897)scale(0.16 -0.16)">
       <use xlink:href="#DejaVuSans-30"/>
       <use x="63.623047" xlink:href="#DejaVuSans-2e"/>
       <use x="95.410156" xlink:href="#DejaVuSans-39"/>
       <use x="159.033203" xlink:href="#DejaVuSans-36"/>
      </g>
     </g>
    </g>
    <g id="ytick_11">
     <g id="line2d_25">
      <g>
       <use style="stroke:#000000;stroke-width:0.8;" x="597.8525" xlink:href="#m2b6f0b399e" y="178.276179"/>
      </g>
     </g>
     <g id="text_24">
      <!-- 0.97 -->
      <defs>
       <path d="M 8.203125 72.90625 
L 55.078125 72.90625 
L 55.078125 68.703125 
L 28.609375 0 
L 18.3125 0 
L 43.21875 64.59375 
L 8.203125 64.59375 
z
" id="DejaVuSans-37"/>
      </defs>
      <g transform="translate(555.2275 184.354929)scale(0.16 -0.16)">
       <use xlink:href="#DejaVuSans-30"/>
       <use x="63.623047" xlink:href="#DejaVuSans-2e"/>
       <use x="95.410156" xlink:href="#DejaVuSans-39"/>
       <use x="159.033203" xlink:href="#DejaVuSans-37"/>
      </g>
     </g>
    </g>
    <g id="ytick_12">
     <g id="line2d_26">
      <g>
       <use style="stroke:#000000;stroke-width:0.8;" x="597.8525" xlink:href="#m2b6f0b399e" y="126.142139"/>
      </g>
     </g>
     <g id="text_25">
      <!-- 0.98 -->
      <defs>
       <path d="M 31.78125 34.625 
Q 24.75 34.625 20.71875 30.859375 
Q 16.703125 27.09375 16.703125 20.515625 
Q 16.703125 13.921875 20.71875 10.15625 
Q 24.75 6.390625 31.78125 6.390625 
Q 38.8125 6.390625 42.859375 10.171875 
Q 46.921875 13.96875 46.921875 20.515625 
Q 46.921875 27.09375 42.890625 30.859375 
Q 38.875 34.625 31.78125 34.625 
z
M 21.921875 38.8125 
Q 15.578125 40.375 12.03125 44.71875 
Q 8.5 49.078125 8.5 55.328125 
Q 8.5 64.0625 14.71875 69.140625 
Q 20.953125 74.21875 31.78125 74.21875 
Q 42.671875 74.21875 48.875 69.140625 
Q 55.078125 64.0625 55.078125 55.328125 
Q 55.078125 49.078125 51.53125 44.71875 
Q 48 40.375 41.703125 38.8125 
Q 48.828125 37.15625 52.796875 32.3125 
Q 56.78125 27.484375 56.78125 20.515625 
Q 56.78125 9.90625 50.3125 4.234375 
Q 43.84375 -1.421875 31.78125 -1.421875 
Q 19.734375 -1.421875 13.25 4.234375 
Q 6.78125 9.90625 6.78125 20.515625 
Q 6.78125 27.484375 10.78125 32.3125 
Q 14.796875 37.15625 21.921875 38.8125 
z
M 18.3125 54.390625 
Q 18.3125 48.734375 21.84375 45.5625 
Q 25.390625 42.390625 31.78125 42.390625 
Q 38.140625 42.390625 41.71875 45.5625 
Q 45.3125 48.734375 45.3125 54.390625 
Q 45.3125 60.0625 41.71875 63.234375 
Q 38.140625 66.40625 31.78125 66.40625 
Q 25.390625 66.40625 21.84375 63.234375 
Q 18.3125 60.0625 18.3125 54.390625 
z
" id="DejaVuSans-38"/>
      </defs>
      <g transform="translate(555.2275 132.220889)scale(0.16 -0.16)">
       <use xlink:href="#DejaVuSans-30"/>
       <use x="63.623047" xlink:href="#DejaVuSans-2e"/>
       <use x="95.410156" xlink:href="#DejaVuSans-39"/>
       <use x="159.033203" xlink:href="#DejaVuSans-38"/>
      </g>
     </g>
    </g>
    <g id="ytick_13">
     <g id="line2d_27">
      <g>
       <use style="stroke:#000000;stroke-width:0.8;" x="597.8525" xlink:href="#m2b6f0b399e" y="74.008098"/>
      </g>
     </g>
     <g id="text_26">
      <!-- 0.99 -->
      <g transform="translate(555.2275 80.086848)scale(0.16 -0.16)">
       <use xlink:href="#DejaVuSans-30"/>
       <use x="63.623047" xlink:href="#DejaVuSans-2e"/>
       <use x="95.410156" xlink:href="#DejaVuSans-39"/>
       <use x="159.033203" xlink:href="#DejaVuSans-39"/>
      </g>
     </g>
    </g>
    <g id="ytick_14">
     <g id="line2d_28">
      <g>
       <use style="stroke:#000000;stroke-width:0.8;" x="597.8525" xlink:href="#m2b6f0b399e" y="21.874058"/>
      </g>
     </g>
     <g id="text_27">
      <!-- 1.00 -->
      <g transform="translate(555.2275 27.952808)scale(0.16 -0.16)">
       <use xlink:href="#DejaVuSans-31"/>
       <use x="63.623047" xlink:href="#DejaVuSans-2e"/>
       <use x="95.410156" xlink:href="#DejaVuSans-30"/>
       <use x="159.033203" xlink:href="#DejaVuSans-30"/>
      </g>
     </g>
    </g>
    <g id="text_28">
     <!-- Accuracy -->
     <defs>
      <path d="M 34.1875 63.1875 
L 20.796875 26.90625 
L 47.609375 26.90625 
z
M 28.609375 72.90625 
L 39.796875 72.90625 
L 67.578125 0 
L 57.328125 0 
L 50.6875 18.703125 
L 17.828125 18.703125 
L 11.1875 0 
L 0.78125 0 
z
" id="DejaVuSans-41"/>
      <path d="M 48.78125 52.59375 
L 48.78125 44.1875 
Q 44.96875 46.296875 41.140625 47.34375 
Q 37.3125 48.390625 33.40625 48.390625 
Q 24.65625 48.390625 19.8125 42.84375 
Q 14.984375 37.3125 14.984375 27.296875 
Q 14.984375 17.28125 19.8125 11.734375 
Q 24.65625 6.203125 33.40625 6.203125 
Q 37.3125 6.203125 41.140625 7.25 
Q 44.96875 8.296875 48.78125 10.40625 
L 48.78125 2.09375 
Q 45.015625 0.34375 40.984375 -0.53125 
Q 36.96875 -1.421875 32.421875 -1.421875 
Q 20.0625 -1.421875 12.78125 6.34375 
Q 5.515625 14.109375 5.515625 27.296875 
Q 5.515625 40.671875 12.859375 48.328125 
Q 20.21875 56 33.015625 56 
Q 37.15625 56 41.109375 55.140625 
Q 45.0625 54.296875 48.78125 52.59375 
z
" id="DejaVuSans-63"/>
      <path d="M 8.5 21.578125 
L 8.5 54.6875 
L 17.484375 54.6875 
L 17.484375 21.921875 
Q 17.484375 14.15625 20.5 10.265625 
Q 23.53125 6.390625 29.59375 6.390625 
Q 36.859375 6.390625 41.078125 11.03125 
Q 45.3125 15.671875 45.3125 23.6875 
L 45.3125 54.6875 
L 54.296875 54.6875 
L 54.296875 0 
L 45.3125 0 
L 45.3125 8.40625 
Q 42.046875 3.421875 37.71875 1 
Q 33.40625 -1.421875 27.6875 -1.421875 
Q 18.265625 -1.421875 13.375 4.4375 
Q 8.5 10.296875 8.5 21.578125 
z
M 31.109375 56 
z
" id="DejaVuSans-75"/>
      <path d="M 32.171875 -5.078125 
Q 28.375 -14.84375 24.75 -17.8125 
Q 21.140625 -20.796875 15.09375 -20.796875 
L 7.90625 -20.796875 
L 7.90625 -13.28125 
L 13.1875 -13.28125 
Q 16.890625 -13.28125 18.9375 -11.515625 
Q 21 -9.765625 23.484375 -3.21875 
L 25.09375 0.875 
L 2.984375 54.6875 
L 12.5 54.6875 
L 29.59375 11.921875 
L 46.6875 54.6875 
L 56.203125 54.6875 
z
" id="DejaVuSans-79"/>
     </defs>
     <g transform="translate(546.23625 259.735625)rotate(-90)scale(0.24 -0.24)">
      <use xlink:href="#DejaVuSans-41"/>
      <use x="68.392578" xlink:href="#DejaVuSans-63"/>
      <use x="123.373047" xlink:href="#DejaVuSans-63"/>
      <use x="178.353516" xlink:href="#DejaVuSans-75"/>
      <use x="241.732422" xlink:href="#DejaVuSans-72"/>
      <use x="282.845703" xlink:href="#DejaVuSans-61"/>
      <use x="344.125" xlink:href="#DejaVuSans-63"/>
      <use x="399.105469" xlink:href="#DejaVuSans-79"/>
     </g>
    </g>
   </g>
   <g id="line2d_29">
    <path clip-path="url(#p0df646ae8d)" d="M 614.761591 381.14 
L 619.394219 148.07149 
L 624.026846 148.07149 
L 628.659474 148.063411 
L 633.292101 145.312713 
L 637.924729 119.941782 
L 642.557357 100.381747 
L 647.189984 90.785379 
L 651.822612 80.210481 
L 656.45524 69.16605 
L 661.087867 59.249616 
L 665.720495 60.921103 
L 670.353123 50.726554 
L 674.98575 42.673958 
L 679.618378 47.878283 
L 684.251006 41.403329 
L 688.883633 37.975833 
L 693.516261 36.805263 
L 698.148889 35.274232 
L 702.781516 35.024395 
L 707.414144 32.489974 
L 712.046771 31.854194 
L 716.679399 31.836171 
L 721.312027 31.475087 
L 725.944654 30.540993 
L 730.577282 30.79456 
L 735.20991 30.277794 
L 739.842537 30.490653 
L 744.475165 29.886568 
L 749.107793 29.618708 
L 753.74042 29.319773 
L 758.373048 31.010837 
L 763.005676 29.99191 
L 767.638303 29.179939 
L 772.270931 29.096659 
L 776.903559 28.594809 
L 781.536186 28.625262 
L 786.168814 28.564357 
L 790.801441 28.488224 
L 795.434069 28.417997 
L 800.066697 28.534525 
L 804.699324 28.378221 
L 809.331952 28.408363 
L 813.96458 28.428251 
L 818.597207 28.383193 
L 823.229835 28.475173 
L 827.862463 28.387854 
L 832.49509 28.359577 
L 837.127718 28.396866 
L 841.760346 28.451557 
L 846.392973 28.400595 
L 851.025601 28.462744 
L 855.658229 28.441302 
L 860.290856 28.372939 
L 864.923484 28.434777 
L 869.556111 28.454664 
L 874.188739 28.454664 
L 878.821367 28.432291 
L 883.453994 28.483563 
L 888.086622 28.50718 
L 892.71925 28.471755 
L 897.351877 28.410539 
L 901.984505 28.405878 
L 906.617133 28.34 
L 911.24976 28.472066 
L 915.882388 28.375114 
L 920.515016 28.408985 
L 925.147643 28.430426 
L 929.780271 28.462744 
L 934.412899 28.429805 
L 939.045526 28.42794 
L 943.678154 28.400595 
L 948.310781 28.413957 
L 952.943409 28.468648 
" style="fill:none;stroke:#1f77b4;stroke-linecap:square;stroke-width:1.5;"/>
    <g clip-path="url(#p0df646ae8d)">
     <use style="fill:#1f77b4;stroke:#1f77b4;" x="614.761591" xlink:href="#me2e30facc8" y="381.14"/>
     <use style="fill:#1f77b4;stroke:#1f77b4;" x="619.394219" xlink:href="#me2e30facc8" y="148.07149"/>
     <use style="fill:#1f77b4;stroke:#1f77b4;" x="624.026846" xlink:href="#me2e30facc8" y="148.07149"/>
     <use style="fill:#1f77b4;stroke:#1f77b4;" x="628.659474" xlink:href="#me2e30facc8" y="148.063411"/>
     <use style="fill:#1f77b4;stroke:#1f77b4;" x="633.292101" xlink:href="#me2e30facc8" y="145.312713"/>
     <use style="fill:#1f77b4;stroke:#1f77b4;" x="637.924729" xlink:href="#me2e30facc8" y="119.941782"/>
     <use style="fill:#1f77b4;stroke:#1f77b4;" x="642.557357" xlink:href="#me2e30facc8" y="100.381747"/>
     <use style="fill:#1f77b4;stroke:#1f77b4;" x="647.189984" xlink:href="#me2e30facc8" y="90.785379"/>
     <use style="fill:#1f77b4;stroke:#1f77b4;" x="651.822612" xlink:href="#me2e30facc8" y="80.210481"/>
     <use style="fill:#1f77b4;stroke:#1f77b4;" x="656.45524" xlink:href="#me2e30facc8" y="69.16605"/>
     <use style="fill:#1f77b4;stroke:#1f77b4;" x="661.087867" xlink:href="#me2e30facc8" y="59.249616"/>
     <use style="fill:#1f77b4;stroke:#1f77b4;" x="665.720495" xlink:href="#me2e30facc8" y="60.921103"/>
     <use style="fill:#1f77b4;stroke:#1f77b4;" x="670.353123" xlink:href="#me2e30facc8" y="50.726554"/>
     <use style="fill:#1f77b4;stroke:#1f77b4;" x="674.98575" xlink:href="#me2e30facc8" y="42.673958"/>
     <use style="fill:#1f77b4;stroke:#1f77b4;" x="679.618378" xlink:href="#me2e30facc8" y="47.878283"/>
     <use style="fill:#1f77b4;stroke:#1f77b4;" x="684.251006" xlink:href="#me2e30facc8" y="41.403329"/>
     <use style="fill:#1f77b4;stroke:#1f77b4;" x="688.883633" xlink:href="#me2e30facc8" y="37.975833"/>
     <use style="fill:#1f77b4;stroke:#1f77b4;" x="693.516261" xlink:href="#me2e30facc8" y="36.805263"/>
     <use style="fill:#1f77b4;stroke:#1f77b4;" x="698.148889" xlink:href="#me2e30facc8" y="35.274232"/>
     <use style="fill:#1f77b4;stroke:#1f77b4;" x="702.781516" xlink:href="#me2e30facc8" y="35.024395"/>
     <use style="fill:#1f77b4;stroke:#1f77b4;" x="707.414144" xlink:href="#me2e30facc8" y="32.489974"/>
     <use style="fill:#1f77b4;stroke:#1f77b4;" x="712.046771" xlink:href="#me2e30facc8" y="31.854194"/>
     <use style="fill:#1f77b4;stroke:#1f77b4;" x="716.679399" xlink:href="#me2e30facc8" y="31.836171"/>
     <use style="fill:#1f77b4;stroke:#1f77b4;" x="721.312027" xlink:href="#me2e30facc8" y="31.475087"/>
     <use style="fill:#1f77b4;stroke:#1f77b4;" x="725.944654" xlink:href="#me2e30facc8" y="30.540993"/>
     <use style="fill:#1f77b4;stroke:#1f77b4;" x="730.577282" xlink:href="#me2e30facc8" y="30.79456"/>
     <use style="fill:#1f77b4;stroke:#1f77b4;" x="735.20991" xlink:href="#me2e30facc8" y="30.277794"/>
     <use style="fill:#1f77b4;stroke:#1f77b4;" x="739.842537" xlink:href="#me2e30facc8" y="30.490653"/>
     <use style="fill:#1f77b4;stroke:#1f77b4;" x="744.475165" xlink:href="#me2e30facc8" y="29.886568"/>
     <use style="fill:#1f77b4;stroke:#1f77b4;" x="749.107793" xlink:href="#me2e30facc8" y="29.618708"/>
     <use style="fill:#1f77b4;stroke:#1f77b4;" x="753.74042" xlink:href="#me2e30facc8" y="29.319773"/>
     <use style="fill:#1f77b4;stroke:#1f77b4;" x="758.373048" xlink:href="#me2e30facc8" y="31.010837"/>
     <use style="fill:#1f77b4;stroke:#1f77b4;" x="763.005676" xlink:href="#me2e30facc8" y="29.99191"/>
     <use style="fill:#1f77b4;stroke:#1f77b4;" x="767.638303" xlink:href="#me2e30facc8" y="29.179939"/>
     <use style="fill:#1f77b4;stroke:#1f77b4;" x="772.270931" xlink:href="#me2e30facc8" y="29.096659"/>
     <use style="fill:#1f77b4;stroke:#1f77b4;" x="776.903559" xlink:href="#me2e30facc8" y="28.594809"/>
     <use style="fill:#1f77b4;stroke:#1f77b4;" x="781.536186" xlink:href="#me2e30facc8" y="28.625262"/>
     <use style="fill:#1f77b4;stroke:#1f77b4;" x="786.168814" xlink:href="#me2e30facc8" y="28.564357"/>
     <use style="fill:#1f77b4;stroke:#1f77b4;" x="790.801441" xlink:href="#me2e30facc8" y="28.488224"/>
     <use style="fill:#1f77b4;stroke:#1f77b4;" x="795.434069" xlink:href="#me2e30facc8" y="28.417997"/>
     <use style="fill:#1f77b4;stroke:#1f77b4;" x="800.066697" xlink:href="#me2e30facc8" y="28.534525"/>
     <use style="fill:#1f77b4;stroke:#1f77b4;" x="804.699324" xlink:href="#me2e30facc8" y="28.378221"/>
     <use style="fill:#1f77b4;stroke:#1f77b4;" x="809.331952" xlink:href="#me2e30facc8" y="28.408363"/>
     <use style="fill:#1f77b4;stroke:#1f77b4;" x="813.96458" xlink:href="#me2e30facc8" y="28.428251"/>
     <use style="fill:#1f77b4;stroke:#1f77b4;" x="818.597207" xlink:href="#me2e30facc8" y="28.383193"/>
     <use style="fill:#1f77b4;stroke:#1f77b4;" x="823.229835" xlink:href="#me2e30facc8" y="28.475173"/>
     <use style="fill:#1f77b4;stroke:#1f77b4;" x="827.862463" xlink:href="#me2e30facc8" y="28.387854"/>
     <use style="fill:#1f77b4;stroke:#1f77b4;" x="832.49509" xlink:href="#me2e30facc8" y="28.359577"/>
     <use style="fill:#1f77b4;stroke:#1f77b4;" x="837.127718" xlink:href="#me2e30facc8" y="28.396866"/>
     <use style="fill:#1f77b4;stroke:#1f77b4;" x="841.760346" xlink:href="#me2e30facc8" y="28.451557"/>
     <use style="fill:#1f77b4;stroke:#1f77b4;" x="846.392973" xlink:href="#me2e30facc8" y="28.400595"/>
     <use style="fill:#1f77b4;stroke:#1f77b4;" x="851.025601" xlink:href="#me2e30facc8" y="28.462744"/>
     <use style="fill:#1f77b4;stroke:#1f77b4;" x="855.658229" xlink:href="#me2e30facc8" y="28.441302"/>
     <use style="fill:#1f77b4;stroke:#1f77b4;" x="860.290856" xlink:href="#me2e30facc8" y="28.372939"/>
     <use style="fill:#1f77b4;stroke:#1f77b4;" x="864.923484" xlink:href="#me2e30facc8" y="28.434777"/>
     <use style="fill:#1f77b4;stroke:#1f77b4;" x="869.556111" xlink:href="#me2e30facc8" y="28.454664"/>
     <use style="fill:#1f77b4;stroke:#1f77b4;" x="874.188739" xlink:href="#me2e30facc8" y="28.454664"/>
     <use style="fill:#1f77b4;stroke:#1f77b4;" x="878.821367" xlink:href="#me2e30facc8" y="28.432291"/>
     <use style="fill:#1f77b4;stroke:#1f77b4;" x="883.453994" xlink:href="#me2e30facc8" y="28.483563"/>
     <use style="fill:#1f77b4;stroke:#1f77b4;" x="888.086622" xlink:href="#me2e30facc8" y="28.50718"/>
     <use style="fill:#1f77b4;stroke:#1f77b4;" x="892.71925" xlink:href="#me2e30facc8" y="28.471755"/>
     <use style="fill:#1f77b4;stroke:#1f77b4;" x="897.351877" xlink:href="#me2e30facc8" y="28.410539"/>
     <use style="fill:#1f77b4;stroke:#1f77b4;" x="901.984505" xlink:href="#me2e30facc8" y="28.405878"/>
     <use style="fill:#1f77b4;stroke:#1f77b4;" x="906.617133" xlink:href="#me2e30facc8" y="28.34"/>
     <use style="fill:#1f77b4;stroke:#1f77b4;" x="911.24976" xlink:href="#me2e30facc8" y="28.472066"/>
     <use style="fill:#1f77b4;stroke:#1f77b4;" x="915.882388" xlink:href="#me2e30facc8" y="28.375114"/>
     <use style="fill:#1f77b4;stroke:#1f77b4;" x="920.515016" xlink:href="#me2e30facc8" y="28.408985"/>
     <use style="fill:#1f77b4;stroke:#1f77b4;" x="925.147643" xlink:href="#me2e30facc8" y="28.430426"/>
     <use style="fill:#1f77b4;stroke:#1f77b4;" x="929.780271" xlink:href="#me2e30facc8" y="28.462744"/>
     <use style="fill:#1f77b4;stroke:#1f77b4;" x="934.412899" xlink:href="#me2e30facc8" y="28.429805"/>
     <use style="fill:#1f77b4;stroke:#1f77b4;" x="939.045526" xlink:href="#me2e30facc8" y="28.42794"/>
     <use style="fill:#1f77b4;stroke:#1f77b4;" x="943.678154" xlink:href="#me2e30facc8" y="28.400595"/>
     <use style="fill:#1f77b4;stroke:#1f77b4;" x="948.310781" xlink:href="#me2e30facc8" y="28.413957"/>
     <use style="fill:#1f77b4;stroke:#1f77b4;" x="952.943409" xlink:href="#me2e30facc8" y="28.468648"/>
    </g>
   </g>
   <g id="line2d_30">
    <path clip-path="url(#p0df646ae8d)" d="M 614.761591 96.084481 
L 619.394219 96.084481 
L 624.026846 96.085103 
L 628.659474 96.967924 
L 633.292101 115.563412 
L 637.924729 78.143418 
L 642.557357 105.032329 
L 647.189984 126.277213 
L 651.822612 134.137459 
L 656.45524 102.136824 
L 661.087867 94.653198 
L 665.720495 95.470453 
L 670.353123 81.439159 
L 674.98575 98.82741 
L 679.618378 115.277839 
L 684.251006 76.975645 
L 688.883633 86.018891 
L 693.516261 74.6401 
L 698.148889 76.405742 
L 702.781516 62.463632 
L 707.414144 65.872173 
L 712.046771 63.434082 
L 716.679399 68.772338 
L 721.312027 59.775393 
L 725.944654 73.856095 
L 730.577282 62.298627 
L 735.20991 79.889172 
L 739.842537 79.481788 
L 744.475165 59.332274 
L 749.107793 52.770933 
L 753.74042 56.649318 
L 758.373048 54.068596 
L 763.005676 51.636721 
L 767.638303 80.727246 
L 772.270931 57.565699 
L 776.903559 55.969412 
L 781.536186 57.633441 
L 786.168814 55.585333 
L 790.801441 55.436177 
L 795.434069 55.117976 
L 800.066697 55.137863 
L 804.699324 56.19439 
L 809.331952 56.51228 
L 813.96458 56.653979 
L 818.597207 56.571943 
L 823.229835 56.619486 
L 827.862463 56.626633 
L 832.49509 56.639374 
L 837.127718 56.636577 
L 841.760346 56.638442 
L 846.392973 56.636577 
L 851.025601 56.635956 
L 855.658229 56.636577 
L 860.290856 56.636577 
L 864.923484 56.636577 
L 869.556111 56.636577 
L 874.188739 56.636577 
L 878.821367 56.636577 
L 883.453994 56.636577 
L 888.086622 56.636577 
L 892.71925 56.636577 
L 897.351877 56.636577 
L 901.984505 56.636577 
L 906.617133 56.636577 
L 911.24976 56.636577 
L 915.882388 56.636577 
L 920.515016 56.636577 
L 925.147643 56.636577 
L 929.780271 56.636577 
L 934.412899 56.636577 
L 939.045526 56.636577 
L 943.678154 56.636577 
L 948.310781 56.636577 
L 952.943409 56.636577 
" style="fill:none;stroke:#ff7f0e;stroke-linecap:square;stroke-width:1.5;"/>
    <g clip-path="url(#p0df646ae8d)">
     <use style="fill:#ff7f0e;stroke:#ff7f0e;" x="614.761591" xlink:href="#mdd3102f1a1" y="96.084481"/>
     <use style="fill:#ff7f0e;stroke:#ff7f0e;" x="619.394219" xlink:href="#mdd3102f1a1" y="96.084481"/>
     <use style="fill:#ff7f0e;stroke:#ff7f0e;" x="624.026846" xlink:href="#mdd3102f1a1" y="96.085103"/>
     <use style="fill:#ff7f0e;stroke:#ff7f0e;" x="628.659474" xlink:href="#mdd3102f1a1" y="96.967924"/>
     <use style="fill:#ff7f0e;stroke:#ff7f0e;" x="633.292101" xlink:href="#mdd3102f1a1" y="115.563412"/>
     <use style="fill:#ff7f0e;stroke:#ff7f0e;" x="637.924729" xlink:href="#mdd3102f1a1" y="78.143418"/>
     <use style="fill:#ff7f0e;stroke:#ff7f0e;" x="642.557357" xlink:href="#mdd3102f1a1" y="105.032329"/>
     <use style="fill:#ff7f0e;stroke:#ff7f0e;" x="647.189984" xlink:href="#mdd3102f1a1" y="126.277213"/>
     <use style="fill:#ff7f0e;stroke:#ff7f0e;" x="651.822612" xlink:href="#mdd3102f1a1" y="134.137459"/>
     <use style="fill:#ff7f0e;stroke:#ff7f0e;" x="656.45524" xlink:href="#mdd3102f1a1" y="102.136824"/>
     <use style="fill:#ff7f0e;stroke:#ff7f0e;" x="661.087867" xlink:href="#mdd3102f1a1" y="94.653198"/>
     <use style="fill:#ff7f0e;stroke:#ff7f0e;" x="665.720495" xlink:href="#mdd3102f1a1" y="95.470453"/>
     <use style="fill:#ff7f0e;stroke:#ff7f0e;" x="670.353123" xlink:href="#mdd3102f1a1" y="81.439159"/>
     <use style="fill:#ff7f0e;stroke:#ff7f0e;" x="674.98575" xlink:href="#mdd3102f1a1" y="98.82741"/>
     <use style="fill:#ff7f0e;stroke:#ff7f0e;" x="679.618378" xlink:href="#mdd3102f1a1" y="115.277839"/>
     <use style="fill:#ff7f0e;stroke:#ff7f0e;" x="684.251006" xlink:href="#mdd3102f1a1" y="76.975645"/>
     <use style="fill:#ff7f0e;stroke:#ff7f0e;" x="688.883633" xlink:href="#mdd3102f1a1" y="86.018891"/>
     <use style="fill:#ff7f0e;stroke:#ff7f0e;" x="693.516261" xlink:href="#mdd3102f1a1" y="74.6401"/>
     <use style="fill:#ff7f0e;stroke:#ff7f0e;" x="698.148889" xlink:href="#mdd3102f1a1" y="76.405742"/>
     <use style="fill:#ff7f0e;stroke:#ff7f0e;" x="702.781516" xlink:href="#mdd3102f1a1" y="62.463632"/>
     <use style="fill:#ff7f0e;stroke:#ff7f0e;" x="707.414144" xlink:href="#mdd3102f1a1" y="65.872173"/>
     <use style="fill:#ff7f0e;stroke:#ff7f0e;" x="712.046771" xlink:href="#mdd3102f1a1" y="63.434082"/>
     <use style="fill:#ff7f0e;stroke:#ff7f0e;" x="716.679399" xlink:href="#mdd3102f1a1" y="68.772338"/>
     <use style="fill:#ff7f0e;stroke:#ff7f0e;" x="721.312027" xlink:href="#mdd3102f1a1" y="59.775393"/>
     <use style="fill:#ff7f0e;stroke:#ff7f0e;" x="725.944654" xlink:href="#mdd3102f1a1" y="73.856095"/>
     <use style="fill:#ff7f0e;stroke:#ff7f0e;" x="730.577282" xlink:href="#mdd3102f1a1" y="62.298627"/>
     <use style="fill:#ff7f0e;stroke:#ff7f0e;" x="735.20991" xlink:href="#mdd3102f1a1" y="79.889172"/>
     <use style="fill:#ff7f0e;stroke:#ff7f0e;" x="739.842537" xlink:href="#mdd3102f1a1" y="79.481788"/>
     <use style="fill:#ff7f0e;stroke:#ff7f0e;" x="744.475165" xlink:href="#mdd3102f1a1" y="59.332274"/>
     <use style="fill:#ff7f0e;stroke:#ff7f0e;" x="749.107793" xlink:href="#mdd3102f1a1" y="52.770933"/>
     <use style="fill:#ff7f0e;stroke:#ff7f0e;" x="753.74042" xlink:href="#mdd3102f1a1" y="56.649318"/>
     <use style="fill:#ff7f0e;stroke:#ff7f0e;" x="758.373048" xlink:href="#mdd3102f1a1" y="54.068596"/>
     <use style="fill:#ff7f0e;stroke:#ff7f0e;" x="763.005676" xlink:href="#mdd3102f1a1" y="51.636721"/>
     <use style="fill:#ff7f0e;stroke:#ff7f0e;" x="767.638303" xlink:href="#mdd3102f1a1" y="80.727246"/>
     <use style="fill:#ff7f0e;stroke:#ff7f0e;" x="772.270931" xlink:href="#mdd3102f1a1" y="57.565699"/>
     <use style="fill:#ff7f0e;stroke:#ff7f0e;" x="776.903559" xlink:href="#mdd3102f1a1" y="55.969412"/>
     <use style="fill:#ff7f0e;stroke:#ff7f0e;" x="781.536186" xlink:href="#mdd3102f1a1" y="57.633441"/>
     <use style="fill:#ff7f0e;stroke:#ff7f0e;" x="786.168814" xlink:href="#mdd3102f1a1" y="55.585333"/>
     <use style="fill:#ff7f0e;stroke:#ff7f0e;" x="790.801441" xlink:href="#mdd3102f1a1" y="55.436177"/>
     <use style="fill:#ff7f0e;stroke:#ff7f0e;" x="795.434069" xlink:href="#mdd3102f1a1" y="55.117976"/>
     <use style="fill:#ff7f0e;stroke:#ff7f0e;" x="800.066697" xlink:href="#mdd3102f1a1" y="55.137863"/>
     <use style="fill:#ff7f0e;stroke:#ff7f0e;" x="804.699324" xlink:href="#mdd3102f1a1" y="56.19439"/>
     <use style="fill:#ff7f0e;stroke:#ff7f0e;" x="809.331952" xlink:href="#mdd3102f1a1" y="56.51228"/>
     <use style="fill:#ff7f0e;stroke:#ff7f0e;" x="813.96458" xlink:href="#mdd3102f1a1" y="56.653979"/>
     <use style="fill:#ff7f0e;stroke:#ff7f0e;" x="818.597207" xlink:href="#mdd3102f1a1" y="56.571943"/>
     <use style="fill:#ff7f0e;stroke:#ff7f0e;" x="823.229835" xlink:href="#mdd3102f1a1" y="56.619486"/>
     <use style="fill:#ff7f0e;stroke:#ff7f0e;" x="827.862463" xlink:href="#mdd3102f1a1" y="56.626633"/>
     <use style="fill:#ff7f0e;stroke:#ff7f0e;" x="832.49509" xlink:href="#mdd3102f1a1" y="56.639374"/>
     <use style="fill:#ff7f0e;stroke:#ff7f0e;" x="837.127718" xlink:href="#mdd3102f1a1" y="56.636577"/>
     <use style="fill:#ff7f0e;stroke:#ff7f0e;" x="841.760346" xlink:href="#mdd3102f1a1" y="56.638442"/>
     <use style="fill:#ff7f0e;stroke:#ff7f0e;" x="846.392973" xlink:href="#mdd3102f1a1" y="56.636577"/>
     <use style="fill:#ff7f0e;stroke:#ff7f0e;" x="851.025601" xlink:href="#mdd3102f1a1" y="56.635956"/>
     <use style="fill:#ff7f0e;stroke:#ff7f0e;" x="855.658229" xlink:href="#mdd3102f1a1" y="56.636577"/>
     <use style="fill:#ff7f0e;stroke:#ff7f0e;" x="860.290856" xlink:href="#mdd3102f1a1" y="56.636577"/>
     <use style="fill:#ff7f0e;stroke:#ff7f0e;" x="864.923484" xlink:href="#mdd3102f1a1" y="56.636577"/>
     <use style="fill:#ff7f0e;stroke:#ff7f0e;" x="869.556111" xlink:href="#mdd3102f1a1" y="56.636577"/>
     <use style="fill:#ff7f0e;stroke:#ff7f0e;" x="874.188739" xlink:href="#mdd3102f1a1" y="56.636577"/>
     <use style="fill:#ff7f0e;stroke:#ff7f0e;" x="878.821367" xlink:href="#mdd3102f1a1" y="56.636577"/>
     <use style="fill:#ff7f0e;stroke:#ff7f0e;" x="883.453994" xlink:href="#mdd3102f1a1" y="56.636577"/>
     <use style="fill:#ff7f0e;stroke:#ff7f0e;" x="888.086622" xlink:href="#mdd3102f1a1" y="56.636577"/>
     <use style="fill:#ff7f0e;stroke:#ff7f0e;" x="892.71925" xlink:href="#mdd3102f1a1" y="56.636577"/>
     <use style="fill:#ff7f0e;stroke:#ff7f0e;" x="897.351877" xlink:href="#mdd3102f1a1" y="56.636577"/>
     <use style="fill:#ff7f0e;stroke:#ff7f0e;" x="901.984505" xlink:href="#mdd3102f1a1" y="56.636577"/>
     <use style="fill:#ff7f0e;stroke:#ff7f0e;" x="906.617133" xlink:href="#mdd3102f1a1" y="56.636577"/>
     <use style="fill:#ff7f0e;stroke:#ff7f0e;" x="911.24976" xlink:href="#mdd3102f1a1" y="56.636577"/>
     <use style="fill:#ff7f0e;stroke:#ff7f0e;" x="915.882388" xlink:href="#mdd3102f1a1" y="56.636577"/>
     <use style="fill:#ff7f0e;stroke:#ff7f0e;" x="920.515016" xlink:href="#mdd3102f1a1" y="56.636577"/>
     <use style="fill:#ff7f0e;stroke:#ff7f0e;" x="925.147643" xlink:href="#mdd3102f1a1" y="56.636577"/>
     <use style="fill:#ff7f0e;stroke:#ff7f0e;" x="929.780271" xlink:href="#mdd3102f1a1" y="56.636577"/>
     <use style="fill:#ff7f0e;stroke:#ff7f0e;" x="934.412899" xlink:href="#mdd3102f1a1" y="56.636577"/>
     <use style="fill:#ff7f0e;stroke:#ff7f0e;" x="939.045526" xlink:href="#mdd3102f1a1" y="56.636577"/>
     <use style="fill:#ff7f0e;stroke:#ff7f0e;" x="943.678154" xlink:href="#mdd3102f1a1" y="56.636577"/>
     <use style="fill:#ff7f0e;stroke:#ff7f0e;" x="948.310781" xlink:href="#mdd3102f1a1" y="56.636577"/>
     <use style="fill:#ff7f0e;stroke:#ff7f0e;" x="952.943409" xlink:href="#mdd3102f1a1" y="56.636577"/>
    </g>
   </g>
   <g id="patch_9">
    <path d="M 597.8525 398.78 
L 597.8525 10.7 
" style="fill:none;stroke:#000000;stroke-linecap:square;stroke-linejoin:miter;stroke-width:0.8;"/>
   </g>
   <g id="patch_10">
    <path d="M 969.8525 398.78 
L 969.8525 10.7 
" style="fill:none;stroke:#000000;stroke-linecap:square;stroke-linejoin:miter;stroke-width:0.8;"/>
   </g>
   <g id="patch_11">
    <path d="M 597.8525 398.78 
L 969.8525 398.78 
" style="fill:none;stroke:#000000;stroke-linecap:square;stroke-linejoin:miter;stroke-width:0.8;"/>
   </g>
   <g id="patch_12">
    <path d="M 597.8525 10.7 
L 969.8525 10.7 
" style="fill:none;stroke:#000000;stroke-linecap:square;stroke-linejoin:miter;stroke-width:0.8;"/>
   </g>
   <g id="legend_2">
    <g id="patch_13">
     <path d="M 696.79 388.78 
L 955.8525 388.78 
Q 959.8525 388.78 959.8525 384.78 
L 959.8525 328.0675 
Q 959.8525 324.0675 955.8525 324.0675 
L 696.79 324.0675 
Q 692.79 324.0675 692.79 328.0675 
L 692.79 384.78 
Q 692.79 388.78 696.79 388.78 
z
" style="fill:#ffffff;opacity:0.8;stroke:#cccccc;stroke-linejoin:miter;"/>
    </g>
    <g id="line2d_31">
     <path d="M 700.79 340.264375 
L 740.79 340.264375 
" style="fill:none;stroke:#1f77b4;stroke-linecap:square;stroke-width:1.5;"/>
    </g>
    <g id="line2d_32">
     <g>
      <use style="fill:#1f77b4;stroke:#1f77b4;" x="720.79" xlink:href="#me2e30facc8" y="340.264375"/>
     </g>
    </g>
    <g id="text_29">
     <!-- training accuracy -->
     <g transform="translate(756.79 347.264375)scale(0.2 -0.2)">
      <use xlink:href="#DejaVuSans-74"/>
      <use x="39.208984" xlink:href="#DejaVuSans-72"/>
      <use x="80.322266" xlink:href="#DejaVuSans-61"/>
      <use x="141.601562" xlink:href="#DejaVuSans-69"/>
      <use x="169.384766" xlink:href="#DejaVuSans-6e"/>
      <use x="232.763672" xlink:href="#DejaVuSans-69"/>
      <use x="260.546875" xlink:href="#DejaVuSans-6e"/>
      <use x="323.925781" xlink:href="#DejaVuSans-67"/>
      <use x="387.402344" xlink:href="#DejaVuSans-20"/>
      <use x="419.189453" xlink:href="#DejaVuSans-61"/>
      <use x="480.46875" xlink:href="#DejaVuSans-63"/>
      <use x="535.449219" xlink:href="#DejaVuSans-63"/>
      <use x="590.429688" xlink:href="#DejaVuSans-75"/>
      <use x="653.808594" xlink:href="#DejaVuSans-72"/>
      <use x="694.921875" xlink:href="#DejaVuSans-61"/>
      <use x="756.201172" xlink:href="#DejaVuSans-63"/>
      <use x="811.181641" xlink:href="#DejaVuSans-79"/>
     </g>
    </g>
    <g id="line2d_33">
     <path d="M 700.79 369.620625 
L 740.79 369.620625 
" style="fill:none;stroke:#ff7f0e;stroke-linecap:square;stroke-width:1.5;"/>
    </g>
    <g id="line2d_34">
     <g>
      <use style="fill:#ff7f0e;stroke:#ff7f0e;" x="720.79" xlink:href="#mdd3102f1a1" y="369.620625"/>
     </g>
    </g>
    <g id="text_30">
     <!-- validation accuracy -->
     <g transform="translate(756.79 376.620625)scale(0.2 -0.2)">
      <use xlink:href="#DejaVuSans-76"/>
      <use x="59.179688" xlink:href="#DejaVuSans-61"/>
      <use x="120.458984" xlink:href="#DejaVuSans-6c"/>
      <use x="148.242188" xlink:href="#DejaVuSans-69"/>
      <use x="176.025391" xlink:href="#DejaVuSans-64"/>
      <use x="239.501953" xlink:href="#DejaVuSans-61"/>
      <use x="300.78125" xlink:href="#DejaVuSans-74"/>
      <use x="339.990234" xlink:href="#DejaVuSans-69"/>
      <use x="367.773438" xlink:href="#DejaVuSans-6f"/>
      <use x="428.955078" xlink:href="#DejaVuSans-6e"/>
      <use x="492.333984" xlink:href="#DejaVuSans-20"/>
      <use x="524.121094" xlink:href="#DejaVuSans-61"/>
      <use x="585.400391" xlink:href="#DejaVuSans-63"/>
      <use x="640.380859" xlink:href="#DejaVuSans-63"/>
      <use x="695.361328" xlink:href="#DejaVuSans-75"/>
      <use x="758.740234" xlink:href="#DejaVuSans-72"/>
      <use x="799.853516" xlink:href="#DejaVuSans-61"/>
      <use x="861.132812" xlink:href="#DejaVuSans-63"/>
      <use x="916.113281" xlink:href="#DejaVuSans-79"/>
     </g>
    </g>
   </g>
  </g>
 </g>
 <defs>
  <clipPath id="p7f05d38b11">
   <rect height="388.08" width="372" x="77.0525" y="10.7"/>
  </clipPath>
  <clipPath id="p0df646ae8d">
   <rect height="388.08" width="372" x="597.8525" y="10.7"/>
  </clipPath>
 </defs>
</svg>
